<svg width="500" height="341" viewBox="0 0 500 341" fill="none" xmlns="http://www.w3.org/2000/svg">
<g clip-path="url(#clip0_226_2)">
<path d="M166.922 336.078C164.443 336.078 162.604 333.781 163.146 331.364L173.333 285.755C173.729 283.984 175.297 282.729 177.109 282.729C179.588 282.729 181.427 285.021 180.885 287.443L170.698 333.052C170.302 334.818 168.734 336.078 166.922 336.078Z" fill="#EEEEEE"/>
<path d="M286.438 336.078C288.911 336.078 290.755 333.781 290.214 331.364L280.021 285.755C279.63 283.984 278.057 282.729 276.245 282.729C273.771 282.729 271.927 285.021 272.469 287.443L282.661 333.052C283.052 334.818 284.625 336.078 286.438 336.078Z" fill="#EEEEEE"/>
<path d="M357.073 336.078C359.552 336.078 361.391 333.781 360.849 331.364L350.662 285.755C350.266 283.984 348.698 282.729 346.886 282.729C344.406 282.729 342.568 285.021 343.104 287.443L353.297 333.052C353.693 334.818 355.261 336.078 357.073 336.078Z" fill="#EEEEEE"/>
<path d="M164.542 279.354V160.302C164.542 149.922 172.953 141.505 183.333 141.505H293.182C303.568 141.505 311.979 149.922 311.979 160.302V279.354C311.979 289.735 303.568 298.151 293.182 298.151H183.333C172.953 298.151 164.542 289.735 164.542 279.354Z" fill="#E3B04A"/>
<path d="M164.542 279.354V217.625C164.542 207.245 172.953 198.828 183.333 198.828H353.912C364.297 198.828 372.708 207.245 372.708 217.625V279.354C372.708 289.74 364.297 298.151 353.912 298.151H183.333C172.953 298.151 164.542 289.734 164.542 279.354Z" fill="#E3B04A"/>
<path d="M369.922 266.807C369.766 266.807 369.635 266.682 369.635 266.526C369.635 257.677 362.437 250.479 353.588 250.479H261.958C261.802 250.479 261.677 250.349 261.677 250.193C261.677 250.037 261.802 249.912 261.958 249.912H353.588C362.75 249.912 370.203 257.365 370.203 266.526C370.203 266.682 370.078 266.807 369.922 266.807Z" fill="#EEEEEE"/>
<path d="M242.625 251.266C242.625 251.266 234.667 240.813 228.786 214.292C223.792 191.766 225.161 177.703 225.161 177.703C225.161 177.703 246.052 172.896 269.844 173.49C295.63 174.13 317.401 180.292 317.401 180.292C317.401 180.292 323.578 192.594 327.807 215.354C332.062 238.276 332.927 255.146 332.927 255.146C332.927 255.146 310.401 257.969 285.114 257.11C260.995 256.292 242.625 251.266 242.625 251.266Z" fill="#393E46"/>
<path d="M243.161 198.828H201.229V160.302C201.229 149.922 192.813 141.505 182.432 141.505H170.078C159.698 141.505 151.281 149.922 151.281 160.302V279.354C151.281 289.735 159.698 298.151 170.078 298.151H243.161C253.542 298.151 261.958 289.735 261.958 279.354V217.625C261.958 207.245 253.542 198.828 243.161 198.828Z" fill="#E3B04A"/>
<path d="M223.354 199.115H154.213C154.057 199.115 153.927 198.984 153.927 198.828C153.927 198.672 154.052 198.547 154.213 198.547H223.354C223.51 198.547 223.641 198.672 223.641 198.828C223.641 198.984 223.51 199.115 223.354 199.115Z" fill="#EEEEEE"/>
<path d="M201.229 199.114C201.073 199.114 200.948 198.984 200.948 198.828V160.302C200.948 152.146 195.719 145.042 187.938 142.62C187.787 142.573 187.703 142.417 187.75 142.265C187.797 142.114 187.953 142.031 188.104 142.078C196.125 144.573 201.511 151.896 201.511 160.302V198.828C201.516 198.984 201.386 199.114 201.229 199.114Z" fill="#EEEEEE"/>
<path d="M261.958 296.177C261.802 296.177 261.672 296.052 261.672 295.896V257.765C261.672 257.609 261.802 257.479 261.958 257.479C262.115 257.479 262.245 257.604 262.245 257.765V295.896C262.245 296.052 262.115 296.177 261.958 296.177Z" fill="#EEEEEE"/>
<path d="M293.562 214.844C290.854 215.214 288.854 212.396 290.068 209.948C290.792 208.495 292.307 206.172 294.088 203.615C300.151 194.917 309.583 189.157 320.088 187.719L355.87 182.813C357.766 182.558 359.516 183.88 359.776 185.776C360.031 187.672 358.708 189.422 356.812 189.683L340.911 191.86L337.182 203.927C336.208 207.073 333.505 209.37 330.245 209.813L293.562 214.844Z" fill="#EEEEEE"/>
<path d="M291.974 207.026C291.839 207.026 291.714 206.922 291.698 206.781C291.672 206.625 291.781 206.479 291.938 206.458L321.521 202.406C324.031 202.062 326.141 200.271 326.891 197.849L330.5 186.172C330.547 186.021 330.703 185.932 330.854 185.984C331.005 186.031 331.089 186.187 331.042 186.338L327.432 198.015C326.62 200.651 324.328 202.594 321.594 202.969L292.016 207.021C292 207.021 291.99 207.026 291.974 207.026Z" fill="#E3B04A"/>
<path d="M357.677 70.4062C357.677 70.4062 356.234 73.2917 355.412 74.4583C354.448 75.8229 354.245 76.6354 355.552 77.1302C357.568 77.8958 360.922 78.7135 360.922 78.7135L360.974 73.5104L357.677 70.4062Z" fill="#E88772"/>
<path d="M357.708 71.2969C355.448 66.4583 353.036 62.2396 355.333 55.974C359.583 44.3698 376.609 41.4375 383.604 49.0313C387.964 53.7604 391.891 64.6823 388.323 73.0313C385.552 79.5156 375.51 86.526 367.271 87.151C362.036 87.5469 357.755 73.9167 357.755 73.9167C357.755 73.9167 357.953 71.7344 357.708 71.2969Z" fill="#E88772"/>
<path d="M360.042 66.3125C359.323 66.6667 359.474 67.8073 359.714 68.4688C359.891 68.9532 360.505 70.0834 361.281 69.698C362.037 69.3178 362.094 68.5209 361.599 67.3021C361.089 66.0625 360.328 66.1719 360.042 66.3125Z" fill="#3D251C"/>
<path d="M360.964 70.0571C360.193 70.0571 359.651 69.1196 359.448 68.5675C359.188 67.8488 358.995 66.5103 359.917 66.0571C360.005 66.0155 360.177 65.9478 360.411 65.9478C360.76 65.9478 361.417 66.1092 361.859 67.1925C362.073 67.7134 362.724 69.2967 361.406 69.9478C361.26 70.0207 361.115 70.0571 360.964 70.0571ZM360.411 66.5155C360.292 66.5155 360.203 66.5519 360.167 66.5675C359.646 66.8228 359.771 67.7863 359.979 68.3748C360.151 68.8384 360.568 69.4894 360.964 69.4894C361.026 69.4894 361.089 69.4738 361.156 69.4425C361.547 69.2498 361.922 68.8436 361.333 67.4113C361.094 66.8228 360.776 66.5155 360.411 66.5155Z" fill="#3D251C"/>
<path d="M358.687 68.2603C360.422 68.1718 362.734 67.5155 363.958 65.927C363.958 65.927 362.568 64.2864 359.922 65.3853C357.635 66.3437 358.687 68.2603 358.687 68.2603Z" fill="#E88772"/>
<path d="M358.688 68.5467C358.547 68.5467 358.422 68.4425 358.406 68.2967C358.386 68.1405 358.495 67.9998 358.651 67.979C360.469 67.7446 362.797 66.9894 363.891 65.5727C363.984 65.4477 364.162 65.4269 364.287 65.5207C364.412 65.6144 364.432 65.7915 364.339 65.9165C362.833 67.8748 359.656 68.4217 358.724 68.5415C358.708 68.5415 358.698 68.5467 358.688 68.5467Z" fill="#3D251C"/>
<path d="M363.828 63.4008C361.286 63.9998 359.203 64.6508 357.203 66.0779C357.078 66.1352 356.318 64.8643 356.656 64.5623C358.812 62.656 361.193 62.3748 363.823 62.9998C364.031 63.0518 364.036 63.3487 363.828 63.4008Z" fill="#3D251C"/>
<path d="M363.104 81.5989C362.995 81.5989 362.885 81.5312 362.844 81.4218C362.786 81.276 362.854 81.1093 363 81.052C364.25 80.5624 365.286 79.5833 365.771 78.4426C365.828 78.2968 366 78.2343 366.141 78.2916C366.286 78.3541 366.354 78.5208 366.292 78.6666C365.75 79.9426 364.599 81.0364 363.208 81.5833C363.177 81.5937 363.141 81.5989 363.104 81.5989Z" fill="#3D251C"/>
<path d="M373.818 78.12C375.969 83.9637 379.24 90.7189 382.911 95.7502C388.667 93.7918 394.948 90.2866 399.906 86.8231C394 83.0418 389.203 77.146 387.266 70.3804C383.562 73.2918 378.943 75.2033 373.818 78.12Z" fill="#E88772"/>
<path d="M439.448 189.458C427.219 211.818 401.667 237.057 407.453 259.672C426.422 257.953 445.51 258.011 464.479 259.839C455.906 235.781 447.333 211.724 439.448 189.458Z" fill="#393E46"/>
<path d="M488.286 326.375C488.542 326.292 486.703 323.667 486.729 322.677C487.042 310.641 486.156 272.271 476.323 254.557C474.021 250.411 471.135 246.573 469.338 242.172C461.495 222.984 473.062 193.51 466.073 160.344C463.375 147.536 430.135 145.49 430.859 155.755C431.844 169.646 440.203 213.729 445.672 236.333C452.078 262.828 466.437 293.932 469.172 321.646C469.172 321.646 478.625 329.542 488.286 326.375Z" fill="#E88772"/>
<path d="M417.656 155.484C411.761 168.104 397.636 210.687 391.422 233.099C384.146 259.37 381.573 293.531 370.49 319.083C368.636 323.354 354.802 324.567 349.349 329.932C347.859 331.401 348.927 333.937 351.016 333.937C358.214 333.937 373.88 333.911 382.599 333.896C386.052 333.89 388.74 330.88 388.354 327.448C388.031 324.567 387.714 322.536 388.219 321.677C394.339 311.312 409.333 284.187 409.349 263.927C409.354 259.187 408.703 254.427 409.266 249.713C411.745 229.13 436.177 208.995 446.193 176.614C450.063 164.109 422.011 146.161 417.656 155.484Z" fill="#E88772"/>
<path d="M389.875 333.911L388.698 326.031C388.63 325.599 388.229 325.312 387.802 325.385C384.995 325.885 375.276 327.094 370.891 320.937C370.276 320.078 369.115 319.823 368.224 320.375C362.891 323.672 358.219 322.453 351.958 325.318C349.073 326.64 348.099 331.245 347.771 333.979L389.875 333.911Z" fill="#E3B04A"/>
<path d="M347.771 333.979C347.641 335.099 348.521 336.078 349.646 336.078H388.01C389.167 336.078 390.047 335.052 389.88 333.912L389.76 333.115H347.891C347.844 333.417 347.802 333.708 347.771 333.979Z" fill="#EEEEEE"/>
<path d="M360.042 327.505C359.948 327.505 359.849 327.453 359.797 327.36L357.656 323.615C357.578 323.479 357.625 323.302 357.76 323.229C357.891 323.151 358.068 323.193 358.146 323.334L360.292 327.078C360.37 327.219 360.323 327.391 360.182 327.469C360.141 327.49 360.094 327.505 360.042 327.505Z" fill="#EEEEEE"/>
<path d="M365.589 326.412C365.49 326.412 365.396 326.359 365.344 326.271L363.198 322.521C363.12 322.385 363.167 322.214 363.302 322.135C363.438 322.057 363.615 322.104 363.693 322.24L365.833 325.99C365.912 326.125 365.865 326.297 365.729 326.375C365.682 326.401 365.635 326.412 365.589 326.412Z" fill="#EEEEEE"/>
<path d="M489.99 333.911L488.807 326.031C488.745 325.599 488.344 325.312 487.917 325.385C485.109 325.885 475.391 327.094 471 320.937C470.391 320.078 469.229 319.823 468.333 320.375C463.005 323.672 458.333 322.453 452.073 325.318C449.182 326.64 448.208 331.245 447.885 333.979L489.99 333.911Z" fill="#E3B04A"/>
<path d="M447.885 333.979C447.75 335.099 448.635 336.078 449.76 336.078H488.125C489.276 336.078 490.161 335.052 489.989 333.912L489.87 333.115H448.005C447.958 333.417 447.917 333.708 447.885 333.979Z" fill="#EEEEEE"/>
<path d="M460.156 327.505C460.057 327.505 459.964 327.453 459.911 327.36L457.766 323.615C457.688 323.479 457.734 323.302 457.875 323.229C458.005 323.151 458.182 323.193 458.26 323.334L460.401 327.078C460.479 327.219 460.432 327.391 460.297 327.469C460.25 327.49 460.203 327.505 460.156 327.505Z" fill="#EEEEEE"/>
<path d="M465.703 326.412C465.604 326.412 465.505 326.359 465.453 326.271L463.312 322.521C463.234 322.385 463.281 322.214 463.417 322.135C463.552 322.057 463.724 322.104 463.802 322.24L465.948 325.99C466.026 326.125 465.979 326.297 465.844 326.375C465.797 326.401 465.75 326.412 465.703 326.412Z" fill="#EEEEEE"/>
<path d="M431.156 151.031C434.401 202.766 443.276 242.234 459.578 291.146C462.396 289.516 486.76 286.229 488.313 285.177C482.578 241.422 471.365 245.891 469.328 230.313C467.516 216.51 477.01 183.354 470.641 164.656C466.943 153.802 447.516 136.062 447.516 136.062C447.516 136.062 436.885 146.604 431.156 151.031Z" fill="#EEEEEE"/>
<path d="M419.427 152.146C397.344 199.037 386.844 234.719 377.557 285.438C380.813 285.36 404.703 291.318 406.573 291.141C418.849 259.719 408.953 254.641 414.672 240.005C418.844 229.328 425.167 219.667 431.521 210.125C437.88 200.583 444.099 190.662 446.839 179.531C449.583 168.396 448.344 155.698 440.974 146.912C433.781 148.969 426.583 151.026 419.427 152.146Z" fill="#EEEEEE"/>
<path d="M437.953 200.292C437.906 200.292 437.859 200.281 437.813 200.255C437.677 200.182 437.63 200.011 437.703 199.87C439.839 196.047 441.953 194.276 444.005 192.568C446.083 190.833 448.234 189.037 450.464 185.037C453.412 179.74 452.453 172.505 452.443 172.432C452.422 172.276 452.531 172.136 452.688 172.115C452.839 172.089 452.984 172.198 453.005 172.354C453.047 172.656 454 179.849 450.958 185.313C448.677 189.406 446.484 191.234 444.365 193.005C442.266 194.755 440.281 196.412 438.198 200.146C438.151 200.24 438.052 200.292 437.953 200.292Z" fill="#393E46"/>
<path d="M376.281 98.4168C378.781 80.1408 393.542 67.3699 422.234 92.3439C437.136 105.323 451.479 138.656 468.974 156.151C458.302 172.083 428.057 179.693 406.849 176.828C410.063 155.979 402.469 149.646 392.208 140.328C383.328 132.261 372.927 122.938 376.281 98.4168Z" fill="#E3B04A"/>
<path d="M395.662 142.016C395.662 142.016 404.646 154.885 404.984 160.026C405.37 165.875 375.938 250.063 375.635 257.01C375.349 263.698 403.396 262.417 403.396 262.417C403.396 262.417 440.073 167.094 446.557 155.88C448.677 152.224 459.901 145.495 459.901 145.495C459.901 145.495 458.333 143.188 457.589 142.333C455.797 143.156 447.604 148.995 443.75 149.734C431.458 152.099 409.12 145.552 395.974 134.75C395.531 137.286 395.662 142.016 395.662 142.016Z" fill="#393E46"/>
<path d="M380.734 99.8179L382.677 150.912L355.266 180.021L362.151 187.604C362.151 187.604 397.031 165.813 399.427 153.865C402.156 140.219 400.255 106.391 400.255 106.391L380.734 99.8179Z" fill="#E88772"/>
<path d="M371.417 161.073C369.615 160.677 360.115 174.755 353.62 178.854C347.224 182.886 343.38 186.542 341.99 191.203C341.344 193.354 342.266 194.271 343.135 194.354C344.255 194.464 344.979 193.844 344.979 193.844C344.979 193.844 344.953 194.584 346.24 195.068C347.479 195.531 348.099 195.099 348.156 195.172C349.318 196.714 351.193 195.891 351.396 196.073C352.505 197.115 354.031 196.823 355.651 195.641C357.229 194.485 359.943 190.448 363.062 188.172C365.99 186.037 380.937 177.844 382.505 175.313C384.036 172.844 372.922 161.401 371.417 161.073Z" fill="#393E46"/>
<path d="M348.24 195.068C348.203 195.068 348.167 195.057 348.13 195.042C347.984 194.979 347.917 194.818 347.979 194.672L349.042 192.172C349.099 192.026 349.271 191.958 349.411 192.021C349.557 192.083 349.625 192.25 349.562 192.396L348.5 194.891C348.453 195 348.349 195.068 348.24 195.068Z" fill="#3D251C"/>
<path d="M345.281 193.609C345.245 193.609 345.203 193.599 345.167 193.588C345.026 193.526 344.958 193.359 345.015 193.213L346.078 190.713C346.14 190.573 346.307 190.505 346.453 190.562C346.599 190.625 346.667 190.792 346.604 190.937L345.542 193.437C345.495 193.542 345.39 193.609 345.281 193.609Z" fill="#3D251C"/>
<path d="M351.505 195.927C351.448 195.927 351.391 195.911 351.344 195.875C351.214 195.786 351.182 195.615 351.271 195.484L352.792 193.255C352.88 193.125 353.057 193.094 353.182 193.177C353.313 193.266 353.349 193.443 353.26 193.573L351.74 195.802C351.682 195.885 351.594 195.927 351.505 195.927Z" fill="#3D251C"/>
<path d="M392.042 87.1562C371.833 87.1562 375.052 119.724 373.818 138.167C373.557 142.104 402.396 142.568 405.885 138.167C405.427 132.911 405.849 87.1562 392.042 87.1562Z" fill="#E3B04A"/>
<path d="M406.573 138.448C406.417 138.448 406.292 138.328 406.286 138.177C406.26 137.318 406.099 135.802 405.896 133.885C405.161 126.979 403.932 115.427 406.323 111.224C406.401 111.089 406.573 111.042 406.708 111.12C406.849 111.193 406.896 111.37 406.818 111.505C404.516 115.547 405.729 126.99 406.458 133.823C406.661 135.755 406.823 137.276 406.854 138.156C406.859 138.313 406.74 138.443 406.578 138.448H406.573Z" fill="#3D251C"/>
<path d="M352.417 55.3698C351.927 60.5 365.839 60.9271 368.359 61.3125C376.542 62.5625 376.943 68.0678 381.865 72.0625C385.552 75.0573 388.667 74.724 390.755 71.2344C393.516 66.6146 395.688 53.8178 387.214 45.3386C383.37 41.4948 377.359 40.474 371.99 41.349C366.625 42.224 353.161 47.625 352.417 55.3698Z" fill="#3D251C"/>
<path d="M371.938 65.1616C372.104 62.4637 374.651 57.9325 378.458 59.1252C379.766 59.5366 380.76 60.6981 381.177 62.0106C381.797 63.9898 380.74 72.2502 375.516 72.0575C373.688 71.9898 371.74 68.3075 371.938 65.1616Z" fill="#E88772"/>
<path d="M373.765 67.4686C373.63 67.4686 373.51 67.3748 373.484 67.2394C373.021 64.7446 374.838 61.729 377.161 61.1457C377.312 61.104 377.463 61.1977 377.505 61.3488C377.542 61.4998 377.448 61.6561 377.297 61.6925C375.276 62.203 373.635 64.9477 374.047 67.1352C374.073 67.2863 373.974 67.4373 373.818 67.4634C373.797 67.4686 373.781 67.4686 373.765 67.4686Z" fill="#3D251C"/>
<path d="M355.266 178.656C352.458 177.76 339.698 182.906 338.401 184.552C337.74 185.396 339.338 186.739 341.771 186.739C343.505 186.739 351.417 186.042 352.849 184.922C354.479 183.646 357.01 179.213 355.266 178.656Z" fill="#393E46"/>
<path d="M385.344 71.5781C385.714 74.6302 386.698 77.5989 388.214 80.2708C388.964 81.5885 389.88 82.8698 391.162 83.6771C393.427 85.0989 396.615 84.6979 398.604 82.9114C400.594 81.1198 401.344 78.151 400.662 75.5625C399.979 72.9791 397.969 70.8281 395.521 69.75C393.068 68.6718 390.234 68.625 387.667 69.3802C386.953 69.5937 386.234 69.875 385.682 70.3698C385.13 70.8698 384.755 71.6198 385.344 71.5781Z" fill="#3D251C"/>
<path d="M453.589 145.5C453.589 145.5 454.167 165.026 456.313 166.38C457.448 167.089 460.505 165.557 460.505 165.557C460.505 165.557 464.526 172.797 466.537 176.412C468.266 175.615 470 174.823 471.729 174.031C471.162 173.636 462.974 157.469 462.974 157.469L474.537 172.86L478.339 170.495L470.688 159.458C470.688 159.458 473.948 157.583 473.552 155.516C472.88 152.016 467.422 146.86 457.12 143.396C456.698 143.771 453.589 145.5 453.589 145.5Z" fill="#393E46"/>
<path d="M140.406 81.6094L135.62 132.578L139.359 189.089L126.422 191.531C126.422 191.531 113.563 154.719 113.505 138.198C113.474 129.661 117.484 82.5625 117.484 82.5625L140.406 81.6094Z" fill="#E88772"/>
<path d="M111.599 333.313C111.323 333.307 115.089 321.073 114.688 320.13C109.818 308.693 97.724 268.688 100.438 247.87C101.073 242.995 102.38 238.193 102.432 233.276C102.672 211.813 81.1459 194.287 75.2501 159.729C72.9688 146.38 105.323 132.328 108.526 142.469C112.865 156.188 127.214 203.677 128.557 227.698C130.234 257.693 126.255 292.688 134.167 320.365C134.167 320.365 124.422 333.625 111.599 333.313Z" fill="#E88772"/>
<path d="M111.661 333.708L113.005 324.703C113.078 324.214 113.536 323.88 114.021 323.964C117.234 324.531 128.338 325.901 133.349 318.859C134.047 317.88 135.37 317.583 136.396 318.219C142.49 321.979 146.76 322.099 154.198 324.667C158.578 326.172 159.401 330.615 159.776 333.74L111.661 333.708Z" fill="#E3B04A"/>
<path d="M159.776 333.74C159.932 335.016 158.922 336.135 157.636 336.141L113.797 336.182C112.479 336.182 111.469 335.016 111.662 333.708L111.802 332.797L159.641 332.75C159.693 333.094 159.74 333.432 159.776 333.74Z" fill="#EEEEEE"/>
<path d="M146.063 327.297C146.026 327.297 145.99 327.292 145.958 327.276C145.813 327.219 145.74 327.052 145.797 326.906L147.479 322.62C147.536 322.474 147.703 322.401 147.849 322.459C147.995 322.516 148.068 322.677 148.01 322.823L146.328 327.115C146.281 327.229 146.172 327.297 146.063 327.297Z" fill="#EEEEEE"/>
<path d="M139.984 325.411C139.948 325.411 139.917 325.406 139.88 325.396C139.734 325.338 139.661 325.172 139.719 325.026L141.401 320.734C141.458 320.588 141.625 320.515 141.771 320.573C141.917 320.63 141.99 320.797 141.932 320.943L140.25 325.234C140.203 325.344 140.099 325.411 139.984 325.411Z" fill="#EEEEEE"/>
<path d="M68.8906 148.896C70.125 177.995 100.948 218.943 97.5885 231.766C93.6094 246.958 95.4063 277.511 102.307 307.328C104.026 307.474 137.313 299.094 138.807 299.474C139.411 298.297 130.141 253.464 131 230.589C131.958 204.958 109.417 135.042 109.682 132.802C106.792 133.604 71.276 148.235 68.8906 148.896Z" fill="#393E46"/>
<mask id="mask0_226_2" style="mask-type:luminance" maskUnits="userSpaceOnUse" x="9" y="135" width="79" height="188">
<path d="M9.69263 135.667H87.9999V322.333H9.69263V135.667Z" fill="white"/>
</mask>
<g mask="url(#mask0_226_2)">
<path d="M10.2812 319.13C10.0312 319.01 18.599 309.5 18.6302 308.474C19.026 296.047 24.8906 254.666 36.1042 236.922C38.7292 232.765 41.9375 228.958 44.0573 224.521C53.3073 205.146 41.151 180.192 50.3437 146.364C53.8906 133.297 89.1562 134.161 87.7917 144.708C85.9531 158.979 78.9896 208.093 70.1042 230.453C59.0052 258.364 40.6719 288.437 36.2031 316.875C36.2031 316.875 21.7812 324.812 10.2812 319.13Z" fill="#E88772"/>
</g>
<mask id="mask1_226_2" style="mask-type:luminance" maskUnits="userSpaceOnUse" x="9" y="310" width="47" height="30">
<path d="M9.69263 310.333H55.9999V339.667H9.69263V310.333Z" fill="white"/>
</mask>
<g mask="url(#mask1_226_2)">
<path d="M10.6196 319.198L15.5675 311.552C15.8332 311.136 16.3905 311.021 16.8019 311.302C19.4894 313.146 29.0311 318.985 36.505 314.646C37.5467 314.042 38.8748 314.323 39.5467 315.323C43.5363 321.266 47.3748 323.146 53.0884 328.552C56.4478 331.74 55.3644 336.125 54.4165 339.125L10.6196 319.198Z" fill="#E3B04A"/>
</g>
<mask id="mask2_226_2" style="mask-type:luminance" maskUnits="userSpaceOnUse" x="9" y="318" width="47" height="23">
<path d="M9.69263 318.333H55.9999V341H9.69263V318.333Z" fill="white"/>
</mask>
<g mask="url(#mask2_226_2)">
<path d="M54.4166 339.125C54.026 340.354 52.6458 340.958 51.4739 340.422L11.5416 322.333C10.3385 321.786 9.90617 320.302 10.6197 319.198L11.1197 318.422L54.6978 338.167C54.6041 338.505 54.5051 338.828 54.4166 339.125Z" fill="#EEEEEE"/>
</g>
<path d="M44.7084 327.609C44.6355 327.609 44.5625 327.583 44.5053 327.526C44.3959 327.412 44.4011 327.234 44.5105 327.125L47.8178 323.912C47.9323 323.802 48.1094 323.807 48.2188 323.917C48.3282 324.031 48.3282 324.208 48.2136 324.318L44.9063 327.531C44.8542 327.583 44.7813 327.609 44.7084 327.609Z" fill="#EEEEEE"/>
<path d="M39.953 323.385C39.8801 323.385 39.8072 323.354 39.7499 323.297C39.6405 323.187 39.6457 323.005 39.7551 322.896L43.0624 319.687C43.177 319.578 43.3541 319.578 43.4634 319.693C43.5728 319.802 43.5728 319.984 43.4582 320.094L40.1509 323.302C40.0988 323.359 40.0259 323.385 39.953 323.385Z" fill="#EEEEEE"/>
<path d="M48.2813 134.427C37.1563 161.349 48.7397 210.896 40.297 221.115C30.297 233.224 29.5261 239.448 14.4167 289.542C15.9167 290.401 52.7032 300.828 53.9011 301.802C54.9428 300.99 60.7032 254.49 71.1042 234.099C82.7553 211.255 91.724 138.344 92.9063 136.427C89.948 135.932 49.4845 134.307 48.2813 134.427Z" fill="#393E46"/>
<path d="M137.057 60.9374C131.411 51.3645 107.182 33.8541 87.7761 39.3124C57.9948 47.6978 49.5729 97.526 46.5886 128.458C46.25 131.989 98.0157 169.401 102.964 153.401C107.292 139.411 122.5 111.151 122.5 111.151L141.813 114.917C141.813 114.917 146.479 76.9062 137.057 60.9374Z" fill="#EEEEEE"/>
<path d="M47.3855 136.781L48.0105 127.536C48.0105 127.536 92.7032 70.6198 92.5626 69.9167C92.3699 68.9063 130.146 81.6875 130.458 83.2917C130.87 85.3906 114.037 132.531 114.88 140.682C115.891 150.484 134.531 196.042 138.807 219.849C101 220.307 65.7345 217.047 64.4584 217.047C66.3751 157.708 47.3855 136.781 47.3855 136.781Z" fill="#E3B04A"/>
<path d="M126.38 191.875C121.583 174.188 113.948 143.542 114.896 139.005C115.667 135.307 131.734 128.125 134.583 138.589C136.489 145.594 136.573 170.854 137.979 186.234C134.963 188.313 131.943 190.391 126.38 191.875Z" fill="#E88772"/>
<path d="M118.37 166.682C117.828 169.547 122.62 184.042 124.995 192.729C122.437 197.484 125.125 202.312 122.213 205.953C120.922 207.578 128.901 218.896 130.823 219.771C133.24 220.87 135.745 214.422 137.365 209.281C139.005 204.083 138.901 196.167 139.198 191.713C139.495 187.333 141.062 163.573 140.406 162.255C139.552 160.521 118.859 164.115 118.37 166.682Z" fill="#EEEEEE"/>
<path d="M202.458 301.802C201.823 301.802 201.198 301.536 200.745 301.026L35.2969 111.906C34.4688 110.963 34.5625 109.531 35.5104 108.703C36.4531 107.88 37.8854 107.974 38.7136 108.916L204.167 298.036C204.99 298.979 204.896 300.411 203.953 301.239C203.521 301.614 202.99 301.802 202.458 301.802Z" fill="#3D251C"/>
<path d="M82.0574 60.3175L51.8751 95.4894L72.5053 141.193L57.3386 144.864C57.3386 144.864 24.1095 102.469 26.9845 90.6665C28.823 83.1092 64.2188 47.6353 64.2188 47.6353L82.0574 60.3175Z" fill="#E88772"/>
<path d="M61.3907 116.854C63.4844 117.25 70.0469 130.021 74.5105 137.661C78.6823 144.802 88.3855 160.818 92.349 169.328C93.3282 171.422 90.7292 172.463 89.2292 170.208C87.0573 166.948 82.599 161.484 81.974 159.859C81.6251 160.588 81.1615 163.786 78.9792 164.557C76.7917 165.333 75.4584 164.245 75.3646 164.302C73.4271 165.411 71.8021 163.677 71.5105 163.786C69.8542 164.39 67.3386 163.453 66.1146 160.63C65.2136 158.552 62.4844 150.885 61.1094 149.588C57.7501 146.427 42.2553 133.719 42.198 131.771C42.0938 128.417 59.6355 116.521 61.3907 116.854Z" fill="#EEEEEE"/>
<path d="M75.3334 163.958C75.1772 163.958 75.0522 163.839 75.047 163.682L74.9636 159.735C74.9636 159.578 75.0886 159.448 75.2397 159.443C75.2449 159.443 75.2449 159.443 75.2449 159.443C75.4011 159.443 75.5261 159.568 75.5313 159.724L75.6147 163.672C75.6199 163.828 75.4949 163.958 75.3386 163.958C75.3334 163.958 75.3334 163.958 75.3334 163.958Z" fill="#3D251C"/>
<path d="M71.5572 163.417C71.4218 163.417 71.302 163.318 71.276 163.183L70.6145 159.709C70.5885 159.552 70.6874 159.406 70.8437 159.375C70.9947 159.349 71.1458 159.448 71.1718 159.604L71.8333 163.078C71.8645 163.235 71.7655 163.38 71.6093 163.412C71.5937 163.412 71.5728 163.417 71.5572 163.417Z" fill="#3D251C"/>
<path d="M65.7135 88.5731C65.7135 88.5731 48.0937 71.6772 41.3125 62.9272C54.3802 51.521 64.474 43.4324 83.8594 38.2814C95.3594 35.2241 108.635 38.9012 114.818 43.1095C98.1042 57.6929 65.7135 88.5731 65.7135 88.5731Z" fill="#EEEEEE"/>
<path d="M157.943 25.7498C159.536 20.8228 158.865 11.0623 149.401 5.12484C141.453 0.135256 134.276 -1.53141 126.427 3.0988C111.417 11.9478 112.365 30.5623 120.724 36.9894C131.214 45.0519 152.609 42.2759 157.943 25.7498Z" fill="#3D251C"/>
<path d="M132.167 41.5467C131.505 42.9894 123.865 55.0623 121.203 62.9894C120.266 62.4894 111.937 49.9842 108.13 43.5363C114.083 38.0259 117.49 34.6405 120.187 26.3853C120.37 27.7238 127.391 37.4425 132.167 41.5467Z" fill="#E88772"/>
<path d="M149.479 38.3907C151.713 33.5365 155.958 29.0053 154.786 22.4324C152.62 10.2657 137.568 4.56257 129.359 10.8178C124.245 14.7188 119.245 23.9219 119.797 31.6667C120.302 38.698 127.755 50.3751 134.37 50.9532C139.062 51.3594 145.448 47.1407 149.479 38.3907Z" fill="#E88772"/>
<path d="M138.432 26.4065C139.083 26.8805 138.734 27.9794 138.38 28.5888C138.125 29.0315 137.469 29.9221 136.625 29.5211C135.979 29.219 135.969 28.3232 136.672 27.2086C137.391 26.0784 138.177 26.219 138.432 26.4065Z" fill="#3D251C"/>
<path d="M137.052 29.9061C136.87 29.9061 136.682 29.8644 136.505 29.7811C136.208 29.6405 136.005 29.4009 135.917 29.0884C135.761 28.5571 135.943 27.8332 136.432 27.0571C137.021 26.1353 137.662 25.9946 137.99 25.9946C138.219 25.9946 138.443 26.0623 138.599 26.1769C139.432 26.7863 139.011 28.0675 138.625 28.729C138.422 29.0832 137.859 29.9061 137.052 29.9061ZM137.99 26.5623C137.776 26.5623 137.354 26.6665 136.917 27.3592C136.516 27.9894 136.354 28.5623 136.458 28.9321C136.505 29.0884 136.599 29.1978 136.745 29.2655C136.849 29.3175 136.948 29.3384 137.052 29.3384C137.578 29.3384 138.016 28.6561 138.136 28.4478C138.448 27.9061 138.734 26.979 138.266 26.6353C138.219 26.604 138.12 26.5623 137.99 26.5623Z" fill="#3D251C"/>
<path d="M139.979 28.6667C138.375 28.5208 135.766 26.875 134.635 25.6667C134.635 25.6667 136.719 24.3229 138.813 25.6146C140.656 26.7604 139.979 28.6667 139.979 28.6667Z" fill="#E88772"/>
<path d="M139.979 28.9531C139.974 28.9531 139.964 28.9479 139.953 28.9479C138.323 28.802 135.646 27.1666 134.427 25.8593C134.318 25.7447 134.328 25.5624 134.438 25.4583C134.557 25.3489 134.734 25.3541 134.839 25.4687C135.969 26.677 138.521 28.2499 140.005 28.3854C140.161 28.401 140.276 28.5364 140.26 28.6926C140.25 28.8385 140.125 28.9531 139.979 28.9531Z" fill="#3D251C"/>
<path d="M135.391 22.5832C135.078 22.6041 135.031 23.0259 135.323 23.1509C139.016 24.7395 141.224 27.078 141.693 27.2291C142.068 27.3541 142.589 25.9895 142.224 25.5937C139.839 23.0051 137.141 22.4634 135.391 22.5832Z" fill="#3D251C"/>
<path d="M148.161 31.8908C147.422 31.5835 146.661 32.448 146.323 33.0626C146.073 33.5158 145.651 34.5366 146.432 35.0522C147.021 35.4428 147.797 34.9897 148.385 33.8126C148.979 32.6147 148.453 32.0105 148.161 31.8908Z" fill="#3D251C"/>
<path d="M146.875 35.4738C146.661 35.4738 146.458 35.4113 146.271 35.2863C145.583 34.828 145.51 33.9478 146.073 32.9269C146.427 32.2863 147.099 31.5415 147.844 31.5415C147.989 31.5415 148.135 31.5675 148.271 31.6248C148.521 31.7342 148.734 31.9738 148.849 32.2811C148.969 32.604 149.031 33.1509 148.641 33.9373C148.151 34.9113 147.51 35.4738 146.875 35.4738ZM147.844 32.1092C147.38 32.1092 146.859 32.6717 146.573 33.203C146.375 33.5519 145.989 34.4165 146.588 34.8123C147.042 35.1144 147.656 34.63 148.13 33.6821C148.432 33.078 148.396 32.6925 148.318 32.4738C148.245 32.2759 148.109 32.1769 148.052 32.1509C147.984 32.1196 147.917 32.1092 147.844 32.1092Z" fill="#3D251C"/>
<path d="M145.427 31.7342C146.38 33.031 149.141 34.4164 150.766 34.755C150.766 34.755 150.828 32.2758 148.641 31.156C146.708 30.1716 145.427 31.7342 145.427 31.7342Z" fill="#E88772"/>
<path d="M150.766 35.0365C150.745 35.0365 150.724 35.0365 150.703 35.0313C148.953 34.6667 146.172 33.2188 145.198 31.9063C145.104 31.7813 145.13 31.599 145.26 31.5104C145.385 31.4167 145.562 31.4427 145.656 31.5677C146.536 32.7657 149.203 34.1407 150.823 34.4792C150.974 34.5104 151.073 34.6615 151.042 34.8125C151.01 34.9479 150.896 35.0365 150.766 35.0365Z" fill="#3D251C"/>
<path d="M153.005 32.5104C153.151 32.7916 152.818 33.0521 152.557 32.8646C149.287 30.5312 146.141 29.8489 145.771 29.5312C145.469 29.2708 146.37 28.1198 146.896 28.2239C150.344 28.9218 152.203 30.9531 153.005 32.5104Z" fill="#3D251C"/>
<path d="M141.609 39.3491C140.755 39.3491 140.005 39.2345 139.833 39.2085C139.682 39.1824 139.573 39.0418 139.599 38.8856C139.625 38.7293 139.771 38.6251 139.922 38.646C141.25 38.8595 143.511 38.896 143.927 38.0887C144.261 37.4585 144.052 35.7397 143.828 33.922C143.714 32.9376 143.589 31.922 143.521 30.9116C143.516 30.7554 143.63 30.6199 143.787 30.6095C143.927 30.5991 144.078 30.7189 144.089 30.8751C144.156 31.8699 144.276 32.8804 144.396 33.8543C144.646 35.9272 144.844 37.5626 144.432 38.3491C144.011 39.1616 142.724 39.3491 141.609 39.3491Z" fill="#3D251C"/>
<path d="M140.318 43.6616C140.302 43.6616 140.287 43.6616 140.271 43.6616C137.229 43.1616 134.542 41.1147 133.25 38.3126C133.188 38.172 133.25 38.0053 133.391 37.9376C133.531 37.8751 133.703 37.9324 133.766 38.0783C134.979 40.7085 137.505 42.6303 140.365 43.0991C140.516 43.1251 140.62 43.271 140.599 43.4272C140.573 43.5626 140.453 43.6616 140.318 43.6616Z" fill="#3D251C"/>
<path d="M128.12 199.578C124.76 202.563 127.208 208.271 130.839 211.62C130.229 216.401 130.943 221.677 132.932 221.615C135.854 221.526 137.24 209.177 134.734 198.198C134.328 196.422 130.172 197.755 128.12 199.578Z" fill="#EEEEEE"/>
<path d="M130.484 218.031C130.339 218.031 130.219 217.922 130.203 217.781C130.156 217.396 130.125 216.984 130.094 216.542C129.938 214.427 129.74 211.797 127.953 208.885C126.667 206.792 127.12 202.479 127.99 200.432C128.052 200.286 128.219 200.219 128.365 200.281C128.505 200.344 128.573 200.51 128.516 200.656C127.594 202.807 127.354 206.828 128.438 208.588C130.297 211.62 130.505 214.437 130.661 216.495C130.693 216.932 130.724 217.338 130.766 217.713C130.781 217.87 130.672 218.01 130.516 218.026C130.505 218.031 130.495 218.031 130.484 218.031Z" fill="#3D251C"/>
<path d="M199.865 303.068L188.974 290.62C187.443 288.87 187.62 286.203 189.37 284.672L190.073 284.058C191.828 282.526 194.49 282.703 196.021 284.453L206.917 296.901C208.448 298.657 208.271 301.318 206.516 302.854L205.813 303.469C204.063 305 201.401 304.823 199.865 303.068Z" fill="#393E46"/>
<path d="M204.724 336.183C204.724 336.183 200.599 328.797 191.193 305.203C185.016 289.714 206.516 284.235 217.839 295.558C232.052 309.766 260.146 336.183 260.146 336.183H204.724Z" fill="#EEEEEE"/>
<path d="M91.5105 71.4792C95.4792 60.8542 96.172 48.0782 93.1095 37.1563C93.1303 37.0678 97.6042 37.3698 97.6407 37.4167C100.766 48.5365 100.427 60.974 96.1251 72.4948C95.8074 72.3282 92.0938 71.7605 91.5105 71.4792Z" fill="#E3B04A"/>
<path d="M124.771 84.9165C129.651 74.6717 131.135 63.3332 129.031 52.1821C129.052 52.1301 130.646 53.4582 131.911 54.6613C132.734 55.4426 133.417 56.2759 133.432 56.2915C135.573 67.6405 133.932 73.8592 129.719 86.578C129.422 86.3801 125.328 85.2447 124.771 84.9165Z" fill="#E3B04A"/>
<path d="M65.9323 87.1304C65.8803 87.1304 65.823 87.1148 65.7709 87.0783C65.6459 86.9898 65.6094 86.8127 65.698 86.6877C70.3594 79.8648 75.9219 73.7085 82.2292 68.3804C82.349 68.2814 82.5313 68.2971 82.6303 68.4169C82.7344 68.5366 82.7188 68.7137 82.599 68.8127C76.3282 74.1096 70.7969 80.2294 66.1719 87.0054C66.1146 87.0835 66.0261 87.1304 65.9323 87.1304Z" fill="#393E46"/>
<path d="M130.49 220.844C129.99 221.922 128.562 222.448 127.443 221.963C126.323 221.484 125.88 219.854 126.104 218.958C125.417 219.219 124.458 219.317 123.635 218.755C122.818 218.192 122.187 217.166 122.333 216.37C121.833 216.531 121.062 216.5 120.484 216.088C119.906 215.672 119.443 214.791 119.427 214.286C118.943 214.302 117.979 213.937 117.599 213.333C116.542 211.625 116.151 205.828 117.823 205.682C118.927 205.588 120.083 207.213 120.781 209.984C121.281 208.854 122.682 206.328 123.99 206.63C125.599 207 125.177 209.265 125.25 209.495C125.401 209.291 126.016 208.271 127.036 208.271C128.87 208.271 129.089 210.755 129.089 211.547C129.359 210.984 130.401 210.062 131.495 210.682C133.453 211.807 132.365 216.812 130.49 220.844Z" fill="#EEEEEE"/>
<path d="M131.193 218.927C131.182 218.927 131.167 218.927 131.151 218.922C130.995 218.901 130.891 218.755 130.917 218.599C131.187 216.787 131.427 214.974 131.651 213.219C131.719 212.734 131.792 212.188 131.661 211.703C131.557 211.318 131.245 210.875 130.802 210.823C130.391 210.766 129.948 211.042 129.443 211.656C127.88 213.583 126.911 216.005 126.703 218.474C126.693 218.63 126.547 218.745 126.396 218.734C126.24 218.724 126.125 218.583 126.141 218.427C126.354 215.844 127.37 213.313 129.005 211.302C129.641 210.521 130.26 210.182 130.875 210.255C131.578 210.349 132.052 210.974 132.208 211.557C132.365 212.146 132.286 212.755 132.219 213.292C131.99 215.047 131.75 216.865 131.474 218.682C131.453 218.823 131.333 218.927 131.193 218.927Z" fill="#3D251C"/>
<path d="M122.688 216.292H122.682C122.526 216.292 122.401 216.161 122.401 216.005C122.438 213.443 123.479 210.911 125.26 209.068C126.047 208.25 126.813 207.896 127.542 208.005C128.38 208.135 128.927 208.854 129.151 209.479C129.385 210.13 129.391 210.807 129.37 211.557C129.365 211.714 129.245 211.849 129.078 211.833C128.922 211.828 128.797 211.698 128.802 211.542C128.818 210.849 128.818 210.229 128.62 209.672C128.406 209.078 127.948 208.646 127.453 208.568C126.912 208.484 126.318 208.786 125.672 209.458C123.99 211.203 123.005 213.594 122.969 216.016C122.969 216.167 122.844 216.292 122.688 216.292Z" fill="#3D251C"/>
<path d="M119.787 214.198C119.771 214.198 119.755 214.193 119.74 214.193C119.589 214.167 119.479 214.021 119.505 213.87C120.162 209.687 121.234 208.219 122.287 207.25C123.526 206.12 124.318 206.24 124.755 206.536C125.646 207.141 125.672 208.865 125.307 209.833C125.25 209.979 125.089 210.052 124.943 210C124.797 209.943 124.719 209.781 124.776 209.635C125.099 208.776 125.011 207.396 124.438 207.005C123.917 206.656 123.109 207.271 122.672 207.672C121.693 208.568 120.698 209.948 120.063 213.953C120.042 214.094 119.922 214.198 119.787 214.198Z" fill="#3D251C"/>
<path d="M240.552 335.573C240.479 335.573 240.401 335.542 240.344 335.484L220.339 314.198C220.234 314.083 220.24 313.906 220.354 313.797C220.464 313.687 220.646 313.698 220.755 313.807L240.76 335.094C240.87 335.208 240.859 335.385 240.745 335.495C240.693 335.547 240.625 335.573 240.552 335.573Z" fill="#E3B04A"/>
<path d="M222.677 335.573C222.588 335.573 222.5 335.531 222.443 335.453L201.161 305.37C201.068 305.245 201.099 305.062 201.229 304.974C201.354 304.885 201.531 304.911 201.62 305.042L222.906 335.125C222.995 335.25 222.969 335.427 222.838 335.521C222.786 335.557 222.729 335.573 222.677 335.573Z" fill="#E3B04A"/>
<path d="M151.073 11.2555C150.063 14.6148 146.958 16.9482 143.714 18.2815C140.474 19.6148 136.964 20.1825 133.677 21.4065C130.391 22.6305 130.875 29.4065 128.089 27.8336C126.141 26.7398 128.349 23.7346 127.51 20.8857C126.88 18.745 123.677 17.2294 121.448 17.3753C123.755 11.5784 129.12 7.10963 135.229 5.88046C141.344 4.6565 148.016 6.70858 151.073 11.2555Z" fill="#3D251C"/>
<path d="M127.589 23.7393C128.089 21.0883 126.745 16.0675 122.76 16.281C121.391 16.3591 120.135 17.2393 119.411 18.406C118.323 20.1664 117.307 28.4373 122.417 29.5414C124.203 29.9268 127 26.8383 127.589 23.7393Z" fill="#E88772"/>
<path d="M125.318 25.5366C125.276 25.5366 125.234 25.5314 125.198 25.5106C125.052 25.4481 124.989 25.2762 125.057 25.1356C125.995 23.1199 125.083 20.0522 123.25 19.0574C123.114 18.9845 123.062 18.8126 123.135 18.672C123.213 18.5366 123.385 18.4845 123.521 18.5574C125.625 19.6981 126.641 23.0731 125.573 25.3751C125.526 25.4793 125.422 25.5366 125.318 25.5366Z" fill="#3D251C"/>
<path d="M147.318 12.1665C147.729 14.0155 147.167 15.9842 146.13 17.5728C145.094 19.1561 143.62 20.4113 142.089 21.5207C141.589 21.8853 141.01 22.4269 141.208 23.0103C141.365 23.4634 141.896 23.6405 142.365 23.7342C146.167 24.505 150.25 23.7915 153.562 21.7759C154.589 21.1561 155.594 20.3488 156 19.2238C156.505 17.8332 155.964 16.2186 154.948 15.1457C153.927 14.078 152.51 13.4738 151.083 13.0936C149.656 12.7186 148.177 12.5363 147.318 12.1665Z" fill="#3D251C"/>
</g>
<defs>
<clipPath id="clip0_226_2">
<rect width="500" height="341" fill="white"/>
</clipPath>
</defs>
</svg>
