<svg xmlns="http://www.w3.org/2000/svg" xmlns:xlink="http://www.w3.org/1999/xlink" width="500" zoomAndPan="magnify" viewBox="0 0 375 374.999991" height="500" preserveAspectRatio="xMidYMid meet" version="1.0"><defs><clipPath id="b8aecc0f7f"><path d="M 123 23.035156 L 165 23.035156 L 165 65 L 123 65 Z M 123 23.035156 " clip-rule="nonzero"/></clipPath></defs><path fill="#e3b04a" d="M 345.859375 225.707031 C 358.558594 248.214844 361.921875 269.625 353.277344 286.503906 C 331.554688 328.910156 242.460938 326.675781 154.285156 281.511719 C 66.109375 236.34375 12.234375 165.351562 33.957031 122.941406 C 42.605469 106.0625 61.945312 96.28125 87.628906 93.4375 C 50.972656 93.351562 23.035156 104.039062 11.882812 125.808594 C -11.59375 171.644531 48.164062 249.164062 145.355469 298.945312 C 242.546875 348.730469 340.371094 351.925781 363.847656 306.089844 C 375 284.320312 367.347656 255.40625 345.859375 225.707031 Z M 345.859375 225.707031 " fill-opacity="1" fill-rule="nonzero"/><path fill="#393e46" d="M 350.8125 241.597656 C 353.757812 254.03125 352.988281 265.613281 347.890625 275.570312 C 327.148438 316.066406 244.511719 311.984375 161.382812 269.402344 C 78.253906 226.824219 26.113281 161.871094 46.855469 121.375 C 51.953125 111.421875 60.90625 104.03125 72.714844 99.152344 C 59.449219 104.050781 49.414062 111.855469 43.878906 122.664062 C 22.882812 163.652344 74.074219 231.816406 158.214844 274.917969 C 242.359375 318.015625 327.589844 319.726562 348.582031 278.738281 C 354.117188 267.929688 354.59375 255.226562 350.8125 241.597656 Z M 350.8125 241.597656 " fill-opacity="1" fill-rule="nonzero"/><path fill="#393e46" d="M 333.738281 160.828125 L 334.015625 158.453125 L 336.988281 158.800781 L 336.710938 161.175781 Z M 333.738281 160.828125 " fill-opacity="1" fill-rule="nonzero"/><path fill="#393e46" d="M 331.363281 168.070312 L 332.160156 165.816406 L 334.984375 166.816406 L 334.1875 169.070312 Z M 331.363281 168.070312 " fill-opacity="1" fill-rule="nonzero"/><path fill="#393e46" d="M 336.003906 162.800781 L 333.089844 162.128906 L 332.546875 164.457031 L 335.464844 165.128906 Z M 336.003906 162.800781 " fill-opacity="1" fill-rule="nonzero"/><path fill="#393e46" d="M 341.304688 154.519531 L 341.304688 156.910156 L 347.355469 156.890625 L 347.355469 154.5 Z M 341.304688 154.519531 " fill-opacity="1" fill-rule="nonzero"/><path fill="#393e46" d="M 338.757812 170.699219 L 339.558594 168.445312 L 345.289062 170.476562 L 344.492188 172.730469 Z M 338.757812 170.699219 " fill-opacity="1" fill-rule="nonzero"/><path fill="#393e46" d="M 335.667969 174.578125 L 336.753906 172.449219 L 342.015625 175.132812 L 340.929688 177.265625 Z M 335.667969 174.578125 " fill-opacity="1" fill-rule="nonzero"/><path fill="#393e46" d="M 328.050781 154.167969 L 323.601562 152.878906 L 319.460938 167.15625 L 323.910156 168.449219 C 324.957031 168.75 326.054688 168.148438 326.359375 167.101562 L 329.398438 156.613281 C 329.703125 155.566406 329.097656 154.472656 328.050781 154.167969 Z M 328.050781 154.167969 " fill-opacity="1" fill-rule="nonzero"/><path fill="#393e46" d="M 173.828125 184.945312 L 176.632812 168.640625 C 174.433594 170.15625 171.058594 171.527344 166.410156 172.800781 C 159.328125 174.738281 149.726562 176.328125 139.378906 177.28125 C 129.554688 178.183594 109.417969 179.402344 100.996094 175.375 L 106.8125 191.113281 C 111.5625 202.625 121.449219 196.695312 126.054688 199.613281 C 129.339844 201.691406 129.570312 204.671875 130.378906 206.148438 C 131.1875 207.621094 132.757812 209.203125 134.972656 209.003906 L 138.164062 208.710938 L 142.1875 208.34375 L 146.214844 207.972656 L 149.40625 207.675781 C 151.621094 207.46875 152.875 205.625 153.402344 204.027344 C 153.925781 202.429688 153.609375 199.460938 156.457031 196.816406 C 160.457031 193.105469 171.257812 197.132812 173.828125 184.945312 Z M 173.828125 184.945312 " fill-opacity="1" fill-rule="nonzero"/><path fill="#393e46" d="M 150.019531 212.308594 L 135.371094 213.667969 L 140.128906 264.949219 C 145.179688 267.921875 150.371094 270.804688 155.707031 273.589844 Z M 150.019531 212.308594 " fill-opacity="1" fill-rule="nonzero"/><path fill="#393e46" d="M 279.042969 229.484375 C 277.261719 227.535156 265.039062 217.277344 269.335938 202.460938 L 272.617188 194.535156 L 274.289062 195.019531 C 275.441406 195.355469 276.644531 194.691406 276.980469 193.539062 L 281.074219 179.414062 C 281.410156 178.261719 280.746094 177.058594 279.59375 176.722656 L 260.933594 171.3125 L 252.941406 168.996094 C 251.789062 168.660156 250.585938 169.324219 250.25 170.476562 L 246.15625 184.601562 C 245.820312 185.753906 246.484375 186.957031 247.636719 187.292969 L 248.453125 187.53125 C 244.914062 199.738281 216.964844 221.089844 201.804688 264.117188 L 208.871094 237.597656 C 209.671875 234.585938 209.921875 231.523438 209.6875 228.507812 C 208.910156 218.4375 210.65625 208.332031 213.257812 198.570312 L 230.589844 133.546875 C 231.648438 129.566406 233.515625 125.765625 236.414062 122.839844 C 242.378906 116.828125 250.753906 114.789062 258.359375 116.816406 L 280.257812 122.910156 C 286.996094 124.707031 294.1875 123.089844 299.507812 118.582031 L 299.050781 117.5 L 166.109375 81.558594 L 165.171875 82.265625 C 167.542969 88.824219 172.976562 93.804688 179.714844 95.601562 L 201.613281 101.695312 C 209.214844 103.71875 215.460938 109.644531 217.644531 117.824219 C 218.707031 121.800781 218.441406 126.027344 217.382812 130.003906 L 200.050781 195.03125 C 197.445312 204.808594 193.921875 214.464844 188.21875 222.820312 C 186.515625 225.324219 185.203125 228.105469 184.398438 231.121094 L 171.066406 281.148438 C 177.789062 284.257812 184.5 287.113281 191.160156 289.691406 L 194.734375 290.644531 L 194.988281 289.683594 C 194.984375 289.707031 194.980469 289.730469 194.972656 289.753906 C 194.902344 290.210938 194.898438 290.640625 194.855469 291.089844 C 221.042969 300.863281 246.378906 306.511719 268.84375 307.984375 L 278.179688 275.789062 C 283.328125 258.039062 291.207031 242.785156 279.042969 229.484375 Z M 279.042969 229.484375 " fill-opacity="1" fill-rule="nonzero"/><path fill="#393e46" d="M 347.722656 162.449219 L 348.003906 160.078125 L 341.886719 159.363281 L 341.605469 161.738281 Z M 347.722656 162.449219 " fill-opacity="1" fill-rule="nonzero"/><path fill="#393e46" d="M 328.792969 171.085938 L 331.457031 172.445312 L 332.546875 170.3125 L 329.882812 168.957031 Z M 328.792969 171.085938 " fill-opacity="1" fill-rule="nonzero"/><path fill="#393e46" d="M 138.953125 172.667969 C 162.996094 170.457031 174.1875 165.898438 175.066406 163.847656 C 177.109375 146.652344 179.304688 131.796875 191.199219 104.390625 L 172.277344 106.144531 C 167.582031 119.15625 165.863281 131.714844 164.523438 141.851562 C 164.261719 131.425781 165.375 119.636719 168.667969 106.480469 L 146.265625 108.554688 L 145.5625 137.375 L 142.351562 108.917969 L 133.109375 109.777344 L 100.289062 112.820312 C 106.988281 129.707031 109.386719 144.398438 111.019531 157.320312 C 107.226562 144.5625 102.15625 129.519531 92.625 113.53125 L 75.042969 115.164062 C 91.738281 139.871094 96.636719 154.058594 101.796875 170.550781 C 102.914062 172.410156 114.765625 174.894531 138.953125 172.667969 Z M 138.953125 172.667969 " fill-opacity="1" fill-rule="nonzero"/><path fill="#393e46" d="M 333.476562 156.933594 L 336.464844 156.925781 L 336.464844 154.535156 L 333.476562 154.546875 Z M 333.476562 156.933594 " fill-opacity="1" fill-rule="nonzero"/><path fill="#393e46" d="M 370.050781 162.644531 L 363.921875 161.929688 L 363.640625 164.304688 L 369.769531 165.019531 Z M 370.050781 162.644531 " fill-opacity="1" fill-rule="nonzero"/><path fill="#393e46" d="M 369.144531 154.433594 L 363.09375 154.457031 L 363.09375 156.84375 L 369.144531 156.824219 Z M 369.144531 154.433594 " fill-opacity="1" fill-rule="nonzero"/><path fill="#393e46" d="M 361.394531 171.140625 L 361.933594 168.8125 L 367.824219 170.171875 L 367.285156 172.503906 Z M 361.394531 171.140625 " fill-opacity="1" fill-rule="nonzero"/><path fill="#393e46" d="M 168.324219 72.398438 C 167.929688 72.296875 167.523438 72.53125 167.417969 72.925781 L 167.128906 74.019531 L 166.207031 77.472656 C 166.101562 77.867188 166.335938 78.273438 166.730469 78.378906 L 300.085938 114.433594 C 300.484375 114.539062 300.890625 114.300781 300.996094 113.90625 L 301.914062 110.453125 L 302.207031 109.359375 C 302.3125 108.964844 302.074219 108.558594 301.679688 108.453125 L 299.546875 107.886719 L 170.246094 72.914062 Z M 168.324219 72.398438 " fill-opacity="1" fill-rule="nonzero"/><path fill="#393e46" d="M 359.410156 178.011719 L 360.207031 175.753906 L 365.941406 177.785156 L 365.140625 180.039062 Z M 359.410156 178.011719 " fill-opacity="1" fill-rule="nonzero"/><path fill="#393e46" d="M 315.265625 165.941406 L 319.40625 151.660156 L 276.214844 131.558594 C 269.628906 128.589844 262.082031 128.617188 255.519531 131.628906 L 250.9375 133.726562 C 249.765625 134.167969 250.304688 134.902344 251.261719 135.34375 C 257.929688 138.90625 261.195312 146.648438 259.089844 153.910156 L 255.785156 165.304688 L 279.984375 172.320312 C 280.3125 171.179688 280.855469 170.25 281.398438 169.320312 C 284.265625 170.148438 287.253906 170.46875 290.421875 170.066406 C 290.707031 182.9375 295.945312 190.636719 299.691406 195.988281 C 300.023438 196.46875 300.914062 196.160156 300.734375 195.605469 C 297.84375 186.59375 298.078125 168.515625 303.296875 162.863281 C 307.167969 163.464844 311.222656 164.519531 315.265625 165.941406 Z M 315.265625 165.941406 " fill-opacity="1" fill-rule="nonzero"/><path fill="#393e46" d="M 349.097656 174.386719 L 349.898438 172.132812 L 355.636719 174.167969 L 354.835938 176.421875 Z M 349.097656 174.386719 " fill-opacity="1" fill-rule="nonzero"/><path fill="#393e46" d="M 340.167969 166.222656 L 340.707031 163.894531 L 346.601562 165.257812 L 346.0625 167.589844 Z M 340.167969 166.222656 " fill-opacity="1" fill-rule="nonzero"/><path fill="#393e46" d="M 345.136719 179.410156 L 346.222656 177.277344 L 351.476562 179.957031 L 350.390625 182.089844 Z M 345.136719 179.410156 " fill-opacity="1" fill-rule="nonzero"/><path fill="#393e46" d="M 354.597656 184.25 L 355.683594 182.121094 L 360.945312 184.804688 L 359.859375 186.933594 Z M 354.597656 184.25 " fill-opacity="1" fill-rule="nonzero"/><path fill="#393e46" d="M 352.195312 156.875 L 358.253906 156.859375 L 358.253906 154.46875 L 352.195312 154.484375 Z M 352.195312 156.875 " fill-opacity="1" fill-rule="nonzero"/><path fill="#393e46" d="M 352.625 163.023438 L 358.746094 163.738281 L 359.023438 161.363281 L 352.90625 160.652344 Z M 352.625 163.023438 " fill-opacity="1" fill-rule="nonzero"/><path fill="#393e46" d="M 350.78125 168.675781 L 351.320312 166.347656 L 357.21875 167.714844 L 356.675781 170.042969 Z M 350.78125 168.675781 " fill-opacity="1" fill-rule="nonzero"/><g clip-path="url(#b8aecc0f7f)"><path fill="#e3b04a" d="M 143.964844 23.050781 C 143.964844 34.546875 134.644531 43.867188 123.148438 43.867188 C 134.644531 43.867188 143.964844 53.1875 143.964844 64.683594 C 143.964844 53.1875 153.285156 43.867188 164.78125 43.867188 C 153.285156 43.867188 143.964844 34.546875 143.964844 23.050781 Z M 143.964844 23.050781 " fill-opacity="1" fill-rule="nonzero"/></g><path fill="#e3b04a" d="M 136.445312 80.347656 C 136.445312 86.65625 131.328125 91.773438 125.019531 91.773438 C 131.328125 91.773438 136.445312 96.886719 136.445312 103.199219 C 136.445312 96.886719 141.558594 91.773438 147.871094 91.773438 C 141.558594 91.773438 136.445312 86.65625 136.445312 80.347656 Z M 136.445312 80.347656 " fill-opacity="1" fill-rule="nonzero"/><path fill="#e3b04a" d="M 103.875 51.035156 C 103.875 57.34375 98.761719 62.460938 92.449219 62.460938 C 98.761719 62.460938 103.875 67.574219 103.875 73.882812 C 103.875 67.574219 108.992188 62.460938 115.300781 62.460938 C 108.992188 62.460938 103.875 57.34375 103.875 51.035156 Z M 103.875 51.035156 " fill-opacity="1" fill-rule="nonzero"/></svg>