<svg width="500" height="500" viewBox="0 0 500 500" fill="none" xmlns="http://www.w3.org/2000/svg">
<path d="M196.679 52.3481C207.574 51.4994 214.501 55.4947 223.331 61.1487L235.426 68.9396C237.855 70.5099 240.403 72.4714 243.02 73.6872C243.978 74.1322 244.868 74.3854 245.901 74.0075C248.135 73.1903 250.491 71.1682 252.519 69.8641L265.138 61.7651C269.585 58.9177 273.984 55.8012 279.011 54.0585C279.788 53.7911 280.573 53.5522 281.366 53.342C282.16 53.1318 282.961 52.9508 283.768 52.799C284.575 52.6472 285.386 52.525 286.202 52.4324C287.018 52.3398 287.836 52.2771 288.657 52.2441C289.478 52.2112 290.298 52.2082 291.119 52.2352C291.94 52.2622 292.758 52.319 293.575 52.4056C294.392 52.4923 295.204 52.6086 296.012 52.7545C296.82 52.9005 297.622 53.0757 298.417 53.2801C312.745 56.8957 317.734 65.7433 324.026 77.9054C326.577 82.837 329.168 87.7547 331.652 92.7198C332.448 94.3103 333.58 97.4908 335.088 98.3973C337.357 99.7605 366.296 97.092 372.268 97.7521C376.647 98.2362 380.685 99.5372 384.629 101.495C388.393 103.364 392.401 106.965 395.033 110.191C395.874 111.238 396.65 112.332 397.359 113.473C398.069 114.614 398.707 115.794 399.274 117.011C399.841 118.229 400.333 119.477 400.75 120.754C401.167 122.031 401.505 123.329 401.765 124.647C403.286 132.45 401.806 146.943 401.339 155.352C401.206 157.741 400.921 160.24 401.008 162.628C401.034 163.35 401.126 164.372 401.583 164.972C402.795 166.565 406.163 167.81 407.965 168.737L422.203 176.062C430.406 180.285 436.924 183.336 442.18 191.359C443.629 193.57 444.818 195.571 445.678 198.091C448.661 206.839 448.522 216.173 444.411 224.546C442.871 227.681 440.871 230.598 438.984 233.532L430.566 246.604C428.831 249.299 426.906 252.01 425.527 254.908L425.367 255.248C426.584 257.916 428.385 260.387 429.972 262.849L439.515 277.689C441.554 280.907 443.822 284.132 445.294 287.661C446.556 290.685 447.339 294.086 447.625 297.348C447.794 299.299 447.801 301.25 447.646 303.201C447.492 305.152 447.179 307.078 446.706 308.978C446.499 309.787 446.26 310.587 445.99 311.377C441.638 324.125 433.194 328.718 421.987 334.511L406.897 342.249C405.263 343.078 402.287 344.177 401.404 345.873C400.551 347.514 401.112 350.65 401.223 352.498C401.544 358.188 401.829 363.88 402.078 369.574C402.615 381.775 402.847 390.973 394.407 400.878C380.892 416.739 364.195 412.676 345.836 411.938C342.819 411.816 339.46 411.453 336.474 411.768C335.545 411.866 334.888 412.096 334.281 412.844C332.9 414.545 332.119 416.891 331.078 418.826C326.994 426.419 321.271 439.659 316.216 445.84C315.873 446.265 315.519 446.681 315.156 447.088C314.792 447.496 314.418 447.894 314.035 448.283C313.652 448.672 313.259 449.052 312.857 449.421C312.455 449.791 312.044 450.151 311.624 450.5C311.204 450.849 310.776 451.188 310.339 451.517C309.903 451.845 309.459 452.162 309.006 452.469C308.554 452.775 308.095 453.07 307.628 453.354C307.161 453.638 306.688 453.91 306.208 454.17C305.728 454.431 305.242 454.679 304.749 454.916C304.257 455.152 303.759 455.376 303.256 455.588C302.753 455.8 302.244 455.999 301.731 456.186C301.218 456.373 300.7 456.548 300.178 456.709C299.656 456.87 299.131 457.019 298.602 457.154C298.073 457.289 297.54 457.412 297.005 457.521C296.47 457.63 295.933 457.726 295.393 457.809C294.853 457.892 294.311 457.961 293.768 458.017C281.898 459.341 274.377 454.512 264.862 448.422L251.414 439.784C249.674 438.646 246.995 436.371 244.917 436.219C243.102 436.085 240.676 438.074 239.202 439.037L224.73 448.399C213.952 455.316 206.01 460.253 192.616 457.539C192.079 457.428 191.544 457.305 191.012 457.168C190.481 457.031 189.953 456.882 189.428 456.72C188.904 456.557 188.384 456.382 187.868 456.195C187.352 456.007 186.841 455.807 186.335 455.594C185.829 455.381 185.328 455.157 184.833 454.92C184.338 454.683 183.849 454.434 183.366 454.173C182.883 453.912 182.407 453.64 181.937 453.355C181.468 453.071 181.005 452.776 180.55 452.47C180.095 452.163 179.647 451.846 179.207 451.517C178.767 451.188 178.335 450.849 177.912 450.5C177.489 450.151 177.074 449.791 176.669 449.422C176.263 449.052 175.866 448.673 175.479 448.284C175.092 447.895 174.714 447.496 174.346 447.089C173.978 446.682 173.62 446.266 173.273 445.841C172.925 445.416 172.588 444.983 172.262 444.542C171.935 444.101 171.62 443.652 171.315 443.195C169.271 440.13 167.679 436.703 165.996 433.427L158.998 419.795C157.656 417.184 156.383 414.411 154.756 411.966C154.704 411.888 154.651 411.811 154.598 411.733C140.216 411.134 120.186 415.816 107.257 410.035C106.935 409.893 106.615 409.746 106.298 409.594C105.981 409.443 105.666 409.286 105.354 409.124C105.041 408.962 104.732 408.795 104.425 408.624C104.118 408.453 103.813 408.277 103.511 408.096C103.21 407.915 102.911 407.73 102.615 407.539C102.319 407.349 102.026 407.154 101.737 406.955C101.447 406.756 101.16 406.552 100.877 406.343C100.594 406.135 100.314 405.922 100.037 405.705C99.7601 405.488 99.4868 405.267 99.217 405.041C98.9471 404.816 98.6809 404.586 98.4183 404.352C98.1556 404.118 97.8967 403.88 97.6415 403.638C97.3863 403.396 97.1349 403.15 96.8874 402.9C96.6399 402.65 96.3964 402.396 96.1568 402.139C95.9172 401.881 95.6817 401.62 95.4502 401.355C95.2188 401.09 94.9916 400.822 94.7685 400.55C94.5455 400.278 94.3268 400.003 94.1123 399.724C93.8979 399.445 93.6879 399.162 93.4822 398.877C93.2766 398.592 93.0755 398.303 92.8789 398.012C92.6823 397.72 92.4903 397.425 92.3029 397.128C92.1155 396.83 91.9328 396.529 91.7548 396.226C91.5768 395.923 91.4036 395.617 91.2352 395.308C91.0667 394.999 90.9031 394.688 90.7444 394.374C90.5857 394.06 90.432 393.744 90.2831 393.425C90.1343 393.106 89.9905 392.786 89.8517 392.463C89.7129 392.14 89.5792 391.814 89.4506 391.487C89.3219 391.16 89.1984 390.83 89.0801 390.499C88.9618 390.168 88.8486 389.835 88.7407 389.5C88.6328 389.165 88.5301 388.829 88.4326 388.491C88.3352 388.153 88.2431 387.813 88.1563 387.472C88.0695 387.131 87.988 386.789 87.9119 386.446C87.8358 386.103 87.765 385.758 87.6996 385.413C87.6343 385.067 87.5743 384.72 87.5198 384.373C86.7624 379.351 87.2673 374.089 87.511 369.039L88.3652 351.565C88.4372 350.093 88.9394 346.684 88.0633 345.466C87.0941 344.119 84.4811 343.227 83.0103 342.456L67.8139 334.638C59.1292 330.177 51.4073 326.347 46.3067 317.56C45.4019 316.001 44.6298 314.378 43.9903 312.693C40.8772 304.489 41.0746 294.759 44.7278 286.763C46.397 283.11 48.6935 279.769 50.8617 276.4L58.582 264.419C60.4363 261.541 62.6632 258.574 64.0304 255.438L64.1647 255.123C62.9113 252.555 61.214 250.15 59.6692 247.747L51.167 234.531C45.6463 225.946 41.5422 219.517 41.8492 208.867C41.8647 208.225 41.8986 207.584 41.9509 206.944C42.0031 206.304 42.0736 205.666 42.1623 205.03C42.251 204.394 42.3578 203.761 42.4827 203.132C42.6076 202.502 42.7505 201.876 42.9112 201.254C43.0719 200.633 43.2502 200.016 43.4462 199.405C43.6422 198.794 43.8555 198.188 44.0861 197.589C44.3167 196.99 44.5642 196.397 44.8287 195.812C45.0932 195.227 45.3742 194.65 45.6717 194.081C45.9692 193.512 46.2827 192.952 46.6122 192.401C46.9417 191.85 47.2868 191.308 47.6473 190.777C48.0078 190.246 48.3831 189.725 48.7734 189.215C49.1637 188.706 49.5682 188.207 49.987 187.72C50.4057 187.233 50.8381 186.759 51.284 186.297C51.7299 185.835 52.1887 185.386 52.6603 184.951C53.1319 184.515 53.6156 184.093 54.1113 183.685C54.607 183.277 55.1139 182.883 55.6322 182.504C58.6706 180.281 62.1759 178.66 65.5126 176.941L78.4909 170.293C81.2685 168.88 85.3508 167.45 87.5253 165.281C88.1196 164.689 88.352 164.085 88.4381 163.261C88.7284 160.483 88.2691 157.299 88.1308 154.483C87.746 146.651 86.9862 138.576 87.1653 130.747C87.3796 121.376 91.1117 112.942 97.9558 106.504C108.618 96.4754 119.184 97.4007 132.618 98.0237C139.78 98.3559 146.957 98.7759 154.123 98.9716C156.314 96.7922 157.688 93.1496 159.08 90.4197L165.989 77.0529C168.283 72.6325 170.399 67.9601 173.627 64.1289C173.984 63.7048 174.351 63.2898 174.728 62.884C175.105 62.4782 175.492 62.0821 175.889 61.6956C176.286 61.3092 176.692 60.9329 177.108 60.5667C177.524 60.2005 177.949 59.8449 178.382 59.4999C178.816 59.155 179.258 58.8211 179.708 58.4981C180.158 58.1752 180.616 57.8637 181.082 57.5636C181.547 57.2636 182.02 56.9754 182.501 56.6989C182.981 56.4225 183.468 56.1583 183.961 55.9061C184.454 55.654 184.954 55.4143 185.459 55.1871C185.964 54.9599 186.475 54.7455 186.991 54.5437C187.507 54.342 188.028 54.1533 188.553 53.9776C189.078 53.8019 189.608 53.6394 190.142 53.4901C190.675 53.3409 191.212 53.205 191.753 53.0825C192.293 52.9601 192.836 52.8512 193.382 52.7558C193.928 52.6605 194.476 52.5788 195.025 52.5108C195.575 52.4428 196.126 52.3886 196.679 52.3481ZM198.577 83.1075C196.089 86.0532 194.458 89.9779 192.703 93.3973C184.078 110.207 178.056 128.353 156.116 130.138C148.919 130.723 137.981 129.787 130.582 129.35C127.317 129.157 123.811 128.741 120.544 128.998C119.93 129.046 119.5 129.175 118.988 129.535C117.855 131.579 118.464 134.7 118.591 136.972C118.911 142.437 119.177 147.905 119.389 153.375C119.965 165.591 120.399 175.122 112.027 185.119C110.343 187.13 108.356 189.118 106.229 190.659C103.242 192.824 99.8379 194.464 96.5698 196.158C89.6475 199.747 82.3302 203.074 75.6343 207.042C74.512 207.707 72.6628 208.62 73.0836 210.125C73.9034 213.057 76.6987 216.395 78.3748 218.995L86.3523 231.371C92.2263 240.493 96.104 246.986 95.1082 258.347C94.7664 262.245 93.712 266.396 91.9081 269.881C89.3406 274.841 72.5795 299.032 72.8298 301.468C75.4126 303.847 79.3482 305.371 82.4691 306.979L95.9967 313.967C99.656 315.863 103.59 317.703 106.87 320.211C114.665 326.171 119.368 335.653 119.729 345.405C119.914 350.391 117.718 378.841 118.859 380.924C120.673 381.93 123.956 381.48 125.982 381.387L143.296 380.534C155.437 379.957 164.997 379.847 174.863 388.083C176.656 389.58 178.501 391.362 179.895 393.244C182.413 396.643 184.259 400.563 186.199 404.309L193.434 418.327C194.697 420.78 195.861 423.559 197.468 425.79C198.083 426.645 198.538 427.157 199.672 426.868C202.532 426.138 205.916 423.268 208.414 421.644L220.706 413.715C224.128 411.518 227.524 409.143 231.268 407.524C231.859 407.265 232.457 407.023 233.062 406.798C233.667 406.573 234.278 406.365 234.895 406.176C235.512 405.987 236.135 405.815 236.762 405.662C237.389 405.509 238.019 405.373 238.654 405.256C239.289 405.139 239.927 405.041 240.567 404.961C241.208 404.881 241.85 404.82 242.494 404.777C243.138 404.734 243.783 404.71 244.429 404.705C245.074 404.7 245.719 404.713 246.364 404.745C247.009 404.777 247.652 404.828 248.294 404.897C248.935 404.966 249.574 405.053 250.211 405.16C250.848 405.266 251.481 405.39 252.111 405.533C252.74 405.676 253.365 405.837 253.985 406.016C254.605 406.195 255.219 406.392 255.828 406.607C256.437 406.822 257.04 407.054 257.635 407.303C258.23 407.552 258.818 407.819 259.397 408.103C259.977 408.386 260.548 408.686 261.111 409.003C268.126 412.878 274.858 417.653 281.61 421.988C284.104 423.59 286.861 425.775 289.612 426.84C290.311 427.111 290.808 427.055 291.507 426.859C295.653 420.39 299.789 411.254 303.396 404.27C305.043 401.082 306.595 397.774 308.601 394.793C308.894 394.356 309.196 393.927 309.509 393.505C309.822 393.082 310.146 392.668 310.479 392.262C310.812 391.855 311.154 391.457 311.506 391.067C311.859 390.677 312.22 390.296 312.591 389.923C312.962 389.55 313.341 389.187 313.729 388.832C314.117 388.477 314.513 388.133 314.918 387.798C315.323 387.463 315.735 387.137 316.156 386.821C316.576 386.506 317.004 386.201 317.439 385.906C317.874 385.611 318.316 385.327 318.765 385.054C319.214 384.78 319.669 384.517 320.13 384.266C320.591 384.014 321.059 383.774 321.532 383.545C322.005 383.316 322.483 383.098 322.967 382.892C323.45 382.686 323.938 382.492 324.431 382.309C324.924 382.126 325.421 381.956 325.922 381.797C326.423 381.639 326.928 381.493 327.436 381.358C327.944 381.224 328.455 381.102 328.969 380.992C337.152 379.191 351.854 380.817 360.821 381.273C363.384 381.404 366.078 381.734 368.631 381.558C369.553 381.494 370.106 381.368 370.812 380.739C371.655 377.728 370.935 372.507 370.768 369.344C370.33 361.053 368.988 347.756 370.42 340.001C372.194 330.394 378.709 322.005 387.138 317.274C393.654 313.617 400.458 310.364 407.101 306.941C409.757 305.572 412.939 304.291 415.33 302.512C415.99 302.021 416.29 301.76 416.555 300.995C416.256 298.379 413.998 295.808 412.582 293.624L403.763 279.982C397.076 269.592 392.363 261.549 394.94 248.623C396.445 241.074 400.837 235.016 404.921 228.676L412.704 216.605C413.821 214.874 416.114 212.113 416.536 210.149C416.728 209.255 416.251 208.55 415.597 207.997C413.277 206.037 409.466 204.643 406.718 203.245L394.329 196.913C390.998 195.201 387.549 193.56 384.45 191.445C376.809 186.233 371.313 177.912 370.171 168.674C369.675 164.655 369.867 160.584 370.039 156.55L370.736 141.08C370.892 137.921 371.193 134.691 371.12 131.528C371.1 130.671 371.112 130.102 370.584 129.419C368.276 128.383 364.534 129.022 362.021 129.178C356.328 129.559 350.631 129.845 344.928 130.035C333.012 130.461 323.611 130.294 314.097 121.962C311.57 119.75 309.379 116.964 307.617 114.114C305.138 110.103 292.831 84.5047 291.22 83.5648C290.673 83.2457 290.013 83.4167 289.453 83.6037C286.858 84.4708 283.382 87.3228 280.98 88.8647L269.006 96.5388C265.637 98.6936 262.286 100.998 258.66 102.7C258.137 102.947 257.607 103.179 257.071 103.397C256.535 103.616 255.994 103.82 255.447 104.009C254.9 104.199 254.349 104.374 253.793 104.534C253.237 104.695 252.677 104.84 252.113 104.971C251.55 105.102 250.983 105.217 250.413 105.317C249.843 105.418 249.271 105.503 248.697 105.573C248.122 105.643 247.546 105.698 246.969 105.738C246.392 105.777 245.814 105.801 245.235 105.81C244.657 105.819 244.079 105.813 243.5 105.791C242.922 105.769 242.345 105.732 241.768 105.679C241.192 105.626 240.618 105.559 240.045 105.476C239.472 105.393 238.902 105.294 238.335 105.181C237.768 105.068 237.204 104.94 236.643 104.797C236.082 104.654 235.526 104.495 234.973 104.322C234.421 104.149 233.874 103.962 233.332 103.76C232.789 103.559 232.253 103.343 231.722 103.112C227.748 101.352 224.124 98.8556 220.479 96.5107L209.029 89.149C205.912 87.1135 202.211 84.0411 198.577 83.1075Z" fill="#2A2A27" fill-opacity="0.8"/>
<path d="M323.122 187.554C327.502 187.037 331.875 188.136 335.355 190.892C338.484 193.37 340.599 197.445 341.007 201.408C341.467 205.876 339.94 210.162 336.923 213.459C333.431 217.275 325.607 222.466 321.128 225.973C313.679 231.888 306.425 238.035 299.368 244.412C290.775 252.199 282.463 260.274 274.432 268.638C266.4 277.002 258.668 285.635 251.237 294.536C245.393 301.502 239.95 308.747 234.241 315.813C231.141 319.652 227.732 322.356 222.677 322.863C222.218 322.91 221.758 322.937 221.297 322.943C220.836 322.949 220.375 322.934 219.915 322.899C219.455 322.864 218.998 322.808 218.543 322.731C218.088 322.654 217.637 322.557 217.191 322.44C216.745 322.323 216.305 322.186 215.871 322.029C215.437 321.872 215.011 321.696 214.594 321.501C214.176 321.306 213.767 321.092 213.368 320.86C212.969 320.628 212.582 320.379 212.206 320.112C208.102 317.148 201.109 306.884 197.423 302.519C189.87 293.576 181.667 284.991 172.653 277.506C168.171 273.627 161.978 270.083 158.038 266.336C154.978 263.426 153.157 259.843 153.062 255.58C152.966 251.243 154.459 247.128 157.487 244C160.399 240.992 164.229 239.376 168.409 239.347C168.964 239.342 169.517 239.366 170.069 239.421C170.621 239.475 171.169 239.559 171.712 239.672C172.255 239.785 172.79 239.927 173.318 240.098C173.845 240.269 174.362 240.467 174.869 240.694C184.306 244.9 201.336 261.308 208.54 269.03C212.824 273.621 216.786 278.714 221.253 283.097L221.487 283.323C221.597 283.162 221.709 283.004 221.817 282.843C221.877 282.752 221.934 282.66 221.993 282.569C224.006 279.499 226.7 276.666 229.049 273.841C234.622 267.086 240.359 260.475 246.262 254.006C252.165 247.537 258.225 241.22 264.443 235.053C270.66 228.886 277.028 222.879 283.545 217.03C290.062 211.181 296.721 205.498 303.522 199.981C309.135 195.51 316.08 189.064 323.122 187.554Z" fill="#E3B04A"/>
</svg>
