<svg xmlns="http://www.w3.org/2000/svg" xmlns:xlink="http://www.w3.org/1999/xlink" width="500" zoomAndPan="magnify" viewBox="0 0 375 374.999991" height="500" preserveAspectRatio="xMidYMid meet" version="1.0"><defs><clipPath id="1744edbb55"><path d="M 13 37.5 L 362 37.5 L 362 351 L 13 351 Z M 13 37.5 " clip-rule="nonzero"/></clipPath></defs><g clip-path="url(#1744edbb55)"><path fill="#e3b04a" d="M 357.113281 168.296875 L 194.039062 39.785156 C 192.113281 38.28125 189.800781 37.53125 187.484375 37.53125 C 185.171875 37.53125 182.859375 38.28125 180.933594 39.785156 L 116.675781 90.394531 L 116.675781 85.585938 C 116.675781 79.15625 111.507812 73.988281 105.136719 73.988281 L 83.558594 73.988281 C 77.183594 73.988281 71.957031 79.15625 71.957031 85.585938 L 71.957031 116.933594 C 71.957031 122.457031 69.425781 127.675781 65.085938 131.09375 L 17.859375 168.296875 C 9.984375 174.488281 14.371094 187.171875 24.410156 187.171875 L 46.117188 187.171875 C 56.074219 187.171875 64.140625 195.242188 64.140625 205.195312 L 64.140625 332.90625 C 64.140625 342.859375 72.210938 350.929688 82.164062 350.929688 L 292.804688 350.929688 C 302.761719 350.929688 310.832031 342.859375 310.832031 332.90625 L 310.832031 205.195312 C 310.832031 195.242188 318.898438 187.171875 328.855469 187.171875 L 350.5625 187.171875 C 360.601562 187.171875 364.988281 174.488281 357.113281 168.296875 Z M 181.710938 332.195312 L 91.082031 332.195312 C 87.035156 332.195312 83.753906 328.914062 83.753906 324.867188 L 83.753906 234.242188 L 97.335938 234.242188 L 107.132812 268.804688 L 113.695312 266.945312 L 104.425781 234.242188 L 181.710938 234.242188 Z M 181.828125 129.328125 L 181.8125 129.339844 L 181.828125 129.359375 L 181.828125 144.089844 L 181.625 143.578125 L 179.078125 144.578125 L 179.472656 145.585938 L 181.828125 144.660156 L 181.828125 149.492188 L 181.015625 149.707031 L 181.292969 150.753906 L 181.828125 150.609375 L 181.828125 155.730469 L 180.882812 155.851562 L 181.023438 156.925781 L 181.828125 156.820312 L 181.828125 222.691406 L 168.425781 222.691406 C 168.402344 222.265625 168.414062 221.839844 168.273438 221.414062 L 164.667969 210.523438 C 162.042969 202.59375 155.484375 196.742188 147.550781 194.898438 C 146.386719 194.628906 144.226562 194.375 142.113281 194.175781 C 138.648438 193.84375 135.757812 191.390625 134.855469 188.027344 L 134.050781 184.234375 L 134.796875 183.988281 C 135.3125 183.816406 135.59375 183.261719 135.421875 182.746094 L 133.332031 176.4375 C 133.164062 175.921875 132.605469 175.640625 132.09375 175.8125 L 123.753906 178.574219 L 120.183594 179.753906 C 119.667969 179.925781 119.390625 180.480469 119.558594 180.996094 L 121.648438 187.304688 C 121.820312 187.820312 122.375 188.101562 122.890625 187.929688 L 123.253906 187.808594 C 125.0625 193.265625 118.691406 204.09375 123.621094 222.691406 L 83.871094 222.691406 C 83.871094 168.589844 127.726562 124.734375 181.828125 124.734375 Z M 291.21875 324.867188 C 291.21875 328.914062 287.9375 332.195312 283.890625 332.195312 L 193.261719 332.195312 L 193.261719 234.242188 L 291.21875 234.242188 Z M 202.328125 222.691406 L 205.625 219.289062 C 206.304688 218.589844 206.859375 217.808594 207.292969 216.96875 C 208.859375 213.953125 210.65625 211.058594 213.023438 208.621094 L 231.25 189.828125 C 233.1875 187.832031 236.007812 186.949219 238.734375 187.488281 C 240.292969 187.796875 241.726562 188.546875 242.867188 189.652344 L 248.753906 195.488281 C 250.578125 197.257812 253.152344 198.023438 255.648438 197.535156 L 255.695312 197.109375 L 219.777344 162.015625 L 219.355469 162.074219 C 218.941406 164.585938 219.785156 167.136719 221.609375 168.90625 L 227.496094 174.742188 C 228.632812 175.847656 229.429688 177.257812 229.785156 178.804688 C 230.40625 181.519531 229.609375 184.359375 227.671875 186.359375 L 209.445312 205.148438 C 207.074219 207.589844 204.234375 209.476562 201.261719 211.132812 C 200.4375 211.59375 199.667969 212.175781 198.988281 212.875 L 193.261719 218.78125 L 193.261719 124.734375 C 247.359375 124.734375 291.21875 168.589844 291.21875 222.691406 Z M 258.144531 194.699219 C 258.25 194.800781 258.253906 194.972656 258.148438 195.078125 L 257.863281 195.375 L 256.953125 196.3125 C 256.851562 196.417969 256.679688 196.421875 256.570312 196.316406 L 220.542969 161.113281 C 220.433594 161.011719 220.433594 160.839844 220.535156 160.734375 L 221.441406 159.796875 L 221.730469 159.5 C 221.835938 159.394531 222.003906 159.390625 222.113281 159.496094 L 222.632812 160 L 257.566406 194.136719 Z M 111.578125 165.171875 C 113.253906 162.367188 116.058594 160.425781 119.273438 159.847656 L 140.511719 156.28125 L 142.625 162.664062 C 140.753906 163.167969 138.972656 163.8125 137.378906 164.578125 C 136.878906 168.023438 141.417969 174.820312 144.800781 177.4375 C 145.011719 177.597656 144.757812 177.941406 144.511719 177.847656 C 141.746094 176.8125 137.824219 175.28125 134.421875 170.558594 C 133.347656 171.519531 132.148438 172.164062 130.871094 172.589844 C 130.90625 173.078125 130.941406 173.5625 131.109375 174.070312 L 120.296875 177.648438 L 118.613281 172.558594 C 117.539062 169.316406 114.339844 167.265625 110.945312 167.644531 C 110.472656 167.726562 110.085938 167.589844 110.410156 167.125 Z M 144.5 162.042969 L 142.386719 155.664062 L 144.375 155.003906 C 144.84375 154.847656 145.347656 155.101562 145.503906 155.570312 L 147.054688 160.257812 C 147.210938 160.726562 146.957031 161.230469 146.488281 161.386719 Z M 147.105469 154.648438 L 146.492188 153.757812 L 147.605469 152.988281 L 148.214844 153.878906 Z M 158.117188 147.03125 L 157.507812 146.140625 L 159.753906 144.585938 L 160.367188 145.476562 Z M 162.167969 144.230469 L 161.554688 143.339844 L 163.808594 141.785156 L 164.417969 142.675781 Z M 174.316406 135.832031 L 173.707031 134.941406 L 175.960938 133.382812 L 176.570312 134.273438 Z M 178.371094 133.03125 L 177.757812 132.140625 L 180.007812 130.582031 L 180.621094 131.472656 Z M 154.066406 149.832031 L 153.453125 148.941406 L 155.707031 147.386719 L 156.316406 148.277344 Z M 166.21875 141.429688 L 165.609375 140.542969 L 167.855469 138.984375 L 168.46875 139.875 Z M 170.269531 138.628906 L 169.65625 137.742188 L 171.90625 136.183594 L 172.519531 137.074219 Z M 150.015625 152.632812 L 149.40625 151.742188 L 151.652344 150.1875 L 152.265625 151.078125 Z M 150.183594 159.871094 L 150.320312 160.941406 L 148.984375 161.117188 L 148.84375 160.046875 Z M 159.707031 158.625 L 159.847656 159.695312 L 157.203125 160.042969 L 157.066406 158.96875 Z M 154.949219 159.246094 L 155.085938 160.320312 L 152.4375 160.664062 L 152.300781 159.59375 Z M 178.765625 156.128906 L 178.90625 157.203125 L 176.257812 157.546875 L 176.117188 156.476562 Z M 164.613281 159.074219 L 161.964844 159.417969 L 161.828125 158.347656 L 164.472656 158 Z M 166.589844 157.722656 L 169.234375 157.375 L 169.375 158.449219 L 166.730469 158.792969 Z M 174.140625 157.824219 L 171.492188 158.171875 L 171.351562 157.097656 L 174 156.753906 Z M 149.941406 157.191406 L 148.683594 157.6875 L 148.289062 156.679688 L 149.546875 156.183594 Z M 174.496094 146.378906 L 177.042969 145.378906 L 177.4375 146.382812 L 174.890625 147.386719 Z M 172.460938 147.179688 L 172.855469 148.1875 L 170.3125 149.1875 L 169.917969 148.179688 Z M 167.875 148.980469 L 168.269531 149.988281 L 165.726562 150.988281 L 165.332031 149.980469 Z M 159.109375 153.589844 L 156.5625 154.589844 L 156.167969 153.585938 L 158.714844 152.582031 Z M 163.6875 151.789062 L 161.144531 152.789062 L 160.75 151.785156 L 163.292969 150.785156 Z M 154.527344 155.390625 L 151.980469 156.390625 L 151.582031 155.386719 L 154.132812 154.386719 Z M 147.695312 155.074219 L 148.890625 154.441406 L 149.394531 155.398438 L 148.195312 156.027344 Z M 162.695312 148.371094 L 160.230469 149.671875 L 159.726562 148.714844 L 162.195312 147.414062 Z M 150.859375 153.398438 L 153.320312 152.097656 L 153.824219 153.054688 L 151.363281 154.355469 Z M 158.261719 150.714844 L 155.800781 152.015625 L 155.296875 151.058594 L 157.757812 149.757812 Z M 166.625 145.070312 L 167.128906 146.027344 L 164.667969 147.332031 L 164.164062 146.375 Z M 173.535156 142.644531 L 173.03125 141.6875 L 175.5 140.386719 L 176 141.34375 Z M 177.972656 140.304688 L 177.46875 139.347656 L 179.929688 138.046875 L 180.433594 139.003906 Z M 169.105469 144.988281 L 168.601562 144.03125 L 171.0625 142.730469 L 171.566406 143.6875 Z M 150.195312 157.945312 L 150.472656 158.988281 L 149.164062 159.339844 L 148.886719 158.296875 Z M 178.886719 150.277344 L 179.164062 151.320312 L 176.507812 152.03125 L 176.230469 150.988281 Z M 174.105469 151.554688 L 174.382812 152.597656 L 171.726562 153.308594 L 171.449219 152.265625 Z M 154.976562 156.667969 L 155.253906 157.710938 L 152.597656 158.421875 L 152.320312 157.378906 Z M 159.757812 155.390625 L 160.039062 156.433594 L 157.378906 157.144531 L 157.101562 156.101562 Z M 161.882812 154.820312 L 164.539062 154.109375 L 164.820312 155.15625 L 162.164062 155.867188 Z M 169.601562 153.878906 L 166.945312 154.589844 L 166.664062 153.542969 L 169.324219 152.832031 Z M 217.214844 185.253906 C 213.132812 185.253906 209.824219 188.5625 209.824219 192.644531 C 209.824219 188.5625 206.511719 185.253906 202.429688 185.253906 C 206.511719 185.253906 209.824219 181.945312 209.824219 177.863281 C 209.820312 181.945312 213.132812 185.253906 217.214844 185.253906 Z M 261.4375 177.863281 C 261.4375 181.03125 264.003906 183.601562 267.175781 183.601562 C 264.003906 183.601562 261.4375 186.171875 261.4375 189.34375 L 261.433594 189.34375 C 261.433594 186.171875 258.867188 183.601562 255.695312 183.601562 C 258.867188 183.601562 261.433594 181.03125 261.433594 177.863281 Z M 236.5 152.789062 C 239.667969 152.789062 242.238281 150.21875 242.238281 147.050781 C 242.238281 150.21875 244.808594 152.789062 247.980469 152.789062 C 244.808594 152.789062 242.238281 155.359375 242.238281 158.53125 C 242.238281 155.359375 239.667969 152.789062 236.5 152.789062 Z M 174.269531 177.863281 C 171.101562 177.863281 168.53125 180.433594 168.53125 183.601562 C 168.53125 180.433594 165.960938 177.863281 162.792969 177.863281 C 165.960938 177.863281 168.53125 175.292969 168.53125 172.125 C 168.53125 175.292969 171.101562 177.863281 174.269531 177.863281 Z M 267.855469 310.019531 C 262.59375 310.019531 258.3125 314.300781 258.3125 319.5625 C 258.3125 322.5625 259.734375 325.210938 261.90625 326.960938 C 263.542969 328.28125 265.59375 329.101562 267.855469 329.101562 C 273.113281 329.101562 277.394531 324.820312 277.394531 319.5625 C 277.394531 317.300781 276.574219 315.246094 275.253906 313.609375 C 273.503906 311.4375 270.855469 310.019531 267.855469 310.019531 Z M 268.40625 324.589844 C 268.214844 324.613281 268.050781 324.703125 267.855469 324.703125 C 265.019531 324.703125 262.714844 322.398438 262.714844 319.5625 C 262.714844 316.726562 265.019531 314.421875 267.855469 314.421875 C 270.304688 314.421875 272.265625 316.183594 272.773438 318.484375 C 272.855469 318.84375 272.992188 319.179688 272.992188 319.5625 C 272.992188 322.203125 270.96875 324.300781 268.40625 324.589844 Z M 199.035156 326.085938 L 198.457031 324.792969 L 200.804688 321.425781 L 212.25 320.289062 L 245.410156 264.703125 C 248 260.355469 252.757812 257.652344 257.824219 257.652344 L 272.882812 257.652344 C 280.851562 257.652344 287.335938 264.136719 287.335938 272.109375 C 287.335938 279.265625 282.09375 285.183594 275.253906 286.320312 L 275.253906 311.089844 C 273.265625 309.351562 270.695312 308.261719 267.855469 308.261719 C 261.621094 308.261719 256.554688 313.328125 256.554688 319.5625 C 256.554688 322.40625 257.644531 324.972656 259.382812 326.960938 L 245.738281 326.960938 C 243.203125 326.960938 241.148438 324.90625 241.148438 322.375 L 241.148438 300.417969 C 241.148438 285.417969 253.308594 273.253906 268.3125 273.253906 L 270.664062 273.253906 C 273.199219 273.253906 275.253906 275.308594 275.253906 277.84375 L 275.253906 282.765625 C 280.140625 281.675781 283.8125 277.320312 283.8125 272.109375 C 283.8125 266.082031 278.910156 261.175781 272.882812 261.175781 L 257.824219 261.175781 C 253.992188 261.175781 250.398438 263.21875 248.4375 266.507812 L 216.570312 319.921875 C 218.640625 320.039062 220.296875 321.714844 220.296875 323.8125 L 220.296875 325.09375 C 220.296875 325.644531 219.851562 326.085938 219.304688 326.085938 Z M 199.363281 273.253906 C 205.140625 273.253906 209.820312 268.574219 209.820312 262.796875 C 209.820312 268.574219 214.503906 273.253906 220.28125 273.253906 C 214.503906 273.253906 209.820312 277.9375 209.820312 283.714844 C 209.820312 277.9375 205.140625 273.253906 199.363281 273.253906 Z M 150.320312 255.9375 C 156.097656 255.9375 160.78125 251.257812 160.78125 245.480469 C 160.78125 251.257812 165.460938 255.9375 171.238281 255.9375 C 165.460938 255.9375 160.78125 260.621094 160.78125 266.394531 C 160.78125 260.621094 156.097656 255.9375 150.320312 255.9375 Z M 227.949219 253.417969 C 231.117188 253.417969 233.6875 250.847656 233.6875 247.679688 C 233.6875 250.847656 236.257812 253.417969 239.425781 253.417969 C 236.257812 253.417969 233.6875 255.988281 233.6875 259.160156 C 233.6875 255.988281 231.117188 253.417969 227.949219 253.417969 Z M 172.257812 296.703125 C 169.089844 296.703125 166.519531 299.269531 166.519531 302.441406 C 166.519531 299.269531 163.949219 296.703125 160.78125 296.703125 C 163.949219 296.703125 166.519531 294.132812 166.519531 290.960938 C 166.519531 294.132812 169.089844 296.703125 172.257812 296.703125 Z M 138.28125 277.480469 C 141.449219 277.480469 144.019531 274.910156 144.019531 271.738281 C 144.019531 274.910156 146.589844 277.480469 149.761719 277.480469 C 146.589844 277.480469 144.019531 280.046875 144.019531 283.21875 C 144.019531 280.046875 141.449219 277.480469 138.28125 277.480469 Z M 112.84375 269.441406 L 114.273438 269.039062 C 115.265625 268.757812 116.117188 269.347656 116.609375 269.949219 C 117.101562 270.554688 117.460938 271.890625 119.132812 272.5625 C 121.480469 273.5 125.484375 269.960938 128.621094 274.804688 L 132.605469 281.488281 C 128.429688 280.363281 119.351562 282.625 114.953125 283.867188 C 110.316406 285.179688 106.074219 286.714844 103.011719 288.199219 C 101 289.175781 99.578125 290.082031 98.703125 290.960938 L 98.601562 283.292969 C 98.738281 277.519531 104.003906 278.441406 105.511719 276.410156 C 106.585938 274.964844 106.191406 273.636719 106.296875 272.867188 C 106.398438 272.09375 106.816406 271.144531 107.808594 270.863281 L 109.238281 270.460938 L 111.039062 269.949219 Z M 132.648438 283.753906 C 136.398438 290.832031 139.832031 296.882812 149.535156 306.730469 L 141.660156 308.964844 C 135.960938 302.484375 132.375 296.058594 129.570312 290.566406 C 131.40625 296.316406 133.742188 302.808594 138.226562 309.9375 L 123.527344 314.105469 L 119.386719 315.277344 L 115.511719 302.582031 L 117.632812 315.777344 L 107.597656 318.621094 C 107.984375 312.34375 107.496094 306.878906 106.492188 302.148438 C 106.738281 306.882812 107.019531 312.75 105.980469 319.078125 L 97.507812 321.480469 C 100.605469 307.980469 100.347656 301.023438 99.824219 293.011719 C 100.050781 292.003906 104.765625 288.980469 115.535156 285.933594 C 126.371094 282.871094 131.984375 283 132.648438 283.753906 Z M 132.648438 283.753906 " fill-opacity="1" fill-rule="nonzero"/></g></svg>