<svg width="500" height="500" viewBox="0 0 500 500" fill="none" xmlns="http://www.w3.org/2000/svg">
<g clip-path="url(#clip0_225_2)">
<path d="M299.781 3.07813V0.09375H197.135V3.07813C197.135 7.76042 200.932 11.5625 205.62 11.5625H291.297C295.984 11.5625 299.781 7.76042 299.781 3.07813Z" fill="#E3B04A"/>
<path d="M420.141 218.688H426.776L413.583 499.432H406.953L420.141 218.688Z" fill="#393E46"/>
<path d="M324.75 218.688H331.385L318.198 499.432H311.562L324.75 218.688Z" fill="#393E46"/>
<path d="M317.099 429.531H414.385V436.161H317.099V429.531Z" fill="#393E46"/>
<mask id="mask0_225_2" style="mask-type:luminance" maskUnits="userSpaceOnUse" x="416" y="194" width="67" height="306">
<path d="M416 194.667H482.182V500H416V194.667Z" fill="white"/>
</mask>
<g mask="url(#mask0_225_2)">
<path d="M475.156 499.432H481.792L422.984 198.338C422.682 196.812 421.344 195.708 419.786 195.708C417.739 195.708 416.203 197.578 416.594 199.588L475.156 499.432Z" fill="#EEEEEE"/>
</g>
<path d="M378.75 499.432H385.38L326.573 198.339C326.271 196.813 324.932 195.708 323.38 195.708C321.328 195.708 319.792 197.578 320.182 199.589L378.75 499.432Z" fill="#EEEEEE"/>
<path d="M374.802 459.505H472.088V466.136H374.802V459.505Z" fill="#EEEEEE"/>
<path d="M363.005 398.609H460.292V405.245H363.005V398.609Z" fill="#EEEEEE"/>
<path d="M351.214 337.724H448.5V344.354H351.214V337.724Z" fill="#EEEEEE"/>
<path d="M339.417 276.833H436.703V283.464H339.417V276.833Z" fill="#EEEEEE"/>
<path d="M327.62 215.943H424.912V222.573H327.62V215.943Z" fill="#EEEEEE"/>
<path d="M378.37 85.9998C378.865 87.229 383.563 98.3853 385.474 105.109C390.193 102.854 398.162 98.604 402.141 94.7967C397.037 91.0571 392.354 79.8175 390.427 72.8071C389.719 73.6561 378.984 85.1613 378.37 85.9998Z" fill="#E88772"/>
<path d="M419.62 238C418.302 238 399.333 238.193 399.333 238.193L408.161 211.958C408.161 211.958 415.495 230.37 419.62 238Z" fill="#E3B04A"/>
<path d="M396.339 329.802C396.568 329.771 395.651 327.187 395.896 326.37C398.932 316.448 407.042 284.38 402.958 267.401C402 263.427 400.495 259.578 400.016 255.51C397.922 237.766 414.323 215.958 416.162 186.807C416.875 175.547 389.745 166.187 387.979 174.88C385.594 186.641 382.375 225.172 381.703 245.208C380.922 268.682 384.943 301.734 380.823 325.38C380.823 325.38 385.729 331.255 396.339 329.802Z" fill="#E88772"/>
<path d="M386.349 161.578C377.12 205.281 378.661 260.234 380.922 304.609C381.813 304.453 401.448 306.479 402.979 305.963C413.198 269.141 400.839 259.068 402.734 245.656C404.417 233.781 417.531 211.526 417.573 191.057C417.594 181.177 412.865 162.656 412.865 162.656C412.865 162.656 386.219 161.5 386.349 161.578Z" fill="#393E46"/>
<path d="M462.193 319.396C462.396 319.292 460.688 317.151 460.656 316.292C460.302 305.922 457.552 272.964 448.172 258.234C445.979 254.786 443.297 251.635 441.521 247.943C433.781 231.844 442.203 205.891 434.469 177.724C431.484 166.844 402.781 166.807 403.943 175.599C405.505 187.5 414.984 224.984 420.859 244.146C427.745 266.604 442.292 296.557 446.083 320.255C446.083 320.255 452.63 324.219 462.193 319.396Z" fill="#E88772"/>
<path d="M398.078 165.568C403.552 209.896 422.865 261.37 439.427 302.599C439.802 302.224 459.443 297.698 460.724 296.708C458.422 258.568 443.464 253.052 440.896 239.755C438.625 227.979 443.797 202.667 437.187 183.297C433.995 173.948 423.505 157.969 423.505 157.969C423.505 157.969 397.922 165.536 398.078 165.568Z" fill="#393E46"/>
<path d="M380.245 300.479C379.932 300.724 380.005 306.917 380.552 307.979C381.083 309.01 402.005 310.161 402.698 309.588C403.38 309.026 404.917 302.203 404.635 301.917C404.438 301.719 380.578 300.213 380.245 300.479Z" fill="#EEEEEE"/>
<path d="M437.479 299.792C437.271 300.13 439.406 305.938 440.276 306.755C441.125 307.552 461.229 301.636 461.687 300.865C462.146 300.104 461.307 293.156 460.948 292.985C460.693 292.865 437.708 299.432 437.479 299.792Z" fill="#EEEEEE"/>
<path d="M398.057 336.391L397.042 329.568C396.984 329.198 396.635 328.943 396.266 329.01C393.839 329.437 385.427 330.479 381.63 325.151C381.104 324.406 380.099 324.182 379.323 324.661C374.708 327.51 371.474 327.609 365.844 329.552C362.526 330.693 361.901 334.057 361.62 336.427L398.057 336.391Z" fill="#E3B04A"/>
<path d="M361.615 336.427C361.5 337.396 362.266 338.245 363.24 338.245L396.443 338.266C397.438 338.266 398.203 337.38 398.057 336.391L397.953 335.698L361.719 335.677C361.682 335.938 361.646 336.193 361.615 336.427Z" fill="#EEEEEE"/>
<path d="M372.005 331.562C371.906 331.562 371.818 331.505 371.781 331.411L370.505 328.167C370.458 328.042 370.521 327.906 370.641 327.854C370.76 327.807 370.901 327.87 370.948 327.989L372.224 331.239C372.271 331.359 372.213 331.5 372.088 331.547C372.062 331.557 372.031 331.562 372.005 331.562Z" fill="#EEEEEE"/>
<path d="M376.604 330.136C376.51 330.136 376.422 330.084 376.385 329.985L375.109 326.74C375.062 326.615 375.12 326.479 375.245 326.433C375.364 326.38 375.505 326.443 375.552 326.563L376.823 329.813C376.875 329.933 376.812 330.073 376.693 330.12C376.661 330.13 376.635 330.136 376.604 330.136Z" fill="#EEEEEE"/>
<path d="M465.672 325.037L462.5 318.912C462.328 318.578 461.917 318.453 461.589 318.636C459.432 319.828 451.812 323.537 446.49 319.724C445.75 319.193 444.729 319.308 444.151 320.011C440.708 324.203 437.677 325.339 432.979 329C430.214 331.156 430.714 334.542 431.208 336.875L465.672 325.037Z" fill="#E3B04A"/>
<path d="M431.208 336.875C431.417 337.828 432.411 338.38 433.333 338.068L464.75 327.333C465.698 327.01 466.13 325.922 465.672 325.036L465.354 324.417L431.062 336.13C431.109 336.39 431.161 336.646 431.208 336.875Z" fill="#EEEEEE"/>
<path d="M439.385 328.922C439.318 328.922 439.25 328.896 439.203 328.838L436.943 326.177C436.859 326.078 436.87 325.927 436.974 325.844C437.073 325.76 437.224 325.771 437.307 325.87L439.563 328.531C439.651 328.63 439.635 328.781 439.537 328.864C439.495 328.906 439.438 328.922 439.385 328.922Z" fill="#EEEEEE"/>
<path d="M443.276 326.084C443.208 326.084 443.141 326.052 443.094 326L440.833 323.339C440.75 323.24 440.76 323.089 440.865 323.005C440.964 322.917 441.115 322.933 441.198 323.031L443.453 325.693C443.542 325.792 443.526 325.943 443.427 326.026C443.385 326.063 443.328 326.084 443.276 326.084Z" fill="#EEEEEE"/>
<path d="M405.401 91.8229C395.401 89.0313 381.885 92.9427 374.146 104.75C369.495 111.849 371.344 125.87 378.385 145.62C381.865 155.37 383 170.307 383 170.307L428.365 165.802C428.365 165.802 430.255 98.7656 405.401 91.8229Z" fill="#EEEEEE"/>
<path d="M429.833 168.302L428.401 163.781C428.401 163.781 419.849 166.307 412.568 164.188C407.536 162.719 383.604 134.375 383.604 134.375C383.604 134.375 374.104 144.755 373.687 145.089C377.057 152.599 381.823 160.724 381.328 168.609C380.109 187.964 367.755 239.953 367.755 239.953C367.755 239.953 386.344 240.75 387.568 240.26C391.245 210.036 402.292 177.167 414.333 170.786C417.255 169.234 429.833 168.302 429.833 168.302Z" fill="#E3B04A"/>
<path d="M411.104 220.885C411.078 220.885 411.052 220.88 411.026 220.875C410.901 220.828 410.839 220.693 410.88 220.568C412.818 215.25 414.719 211.646 416.391 208.463C418.469 204.516 420.266 201.104 421.74 195.484C421.771 195.354 421.901 195.281 422.026 195.312C422.156 195.349 422.229 195.479 422.198 195.604C420.708 201.276 418.901 204.708 416.813 208.682C415.146 211.854 413.255 215.443 411.328 220.734C411.292 220.828 411.203 220.885 411.104 220.885Z" fill="#3D251C"/>
<path d="M426.193 167.849C426.193 167.849 420.198 183.042 421.406 184.792C422.042 185.708 424.896 185.542 424.896 185.542C424.896 185.542 425.599 192.427 425.953 195.87C427.542 195.828 429.135 195.792 430.729 195.75C430.422 195.261 429.458 180.141 429.458 180.141L433.271 195.776L436.974 195.214L434.729 184.208C434.729 184.208 437.854 183.844 438.234 182.125C438.87 179.214 436.375 173.453 429.599 167.396C429.151 167.542 426.193 167.849 426.193 167.849Z" fill="#E3B04A"/>
<path d="M363.912 82.7342C362.818 79.3905 360.823 73.7082 363.25 68.6873C367.755 59.3852 377.583 59.6717 382.776 66.5675C386.011 70.8644 388.453 78.328 386.255 84.4373C384.261 89.9842 379.755 95.6457 372.854 96.3019C368.136 96.755 365.125 86.4477 363.912 82.7342Z" fill="#E88772"/>
<path d="M393.24 87.3956C388.115 89.354 381.979 87.8904 377.714 84.4373C376.141 83.1665 373.141 79.4686 371.443 78.3644C368.615 76.5206 358.333 75.9217 357.01 69.1925C356.328 65.7446 356.479 60.5363 365.995 58.88C366.87 58.7238 368.354 52.9373 377.318 51.3748C388.146 49.4842 398.438 55.2706 400.031 69.4061C400.74 75.6456 397.932 85.604 393.24 87.3956Z" fill="#3D251C"/>
<path d="M367.562 79.4998C367.755 77.2498 369.974 73.5103 373.135 74.5884C374.224 74.9582 375.031 75.953 375.349 77.0571C375.828 78.7238 374.771 85.6092 370.411 85.3384C368.88 85.2446 367.333 82.1248 367.562 79.4998Z" fill="#E88772"/>
<path d="M369.047 81.4685C368.932 81.4685 368.828 81.3852 368.812 81.2706C368.474 79.1768 370.057 76.6873 372.005 76.2498C372.135 76.2185 372.26 76.3018 372.292 76.4268C372.318 76.557 372.24 76.682 372.109 76.7133C370.411 77.0935 368.984 79.3591 369.281 81.1925C369.302 81.3227 369.213 81.4425 369.083 81.4633C369.073 81.4685 369.057 81.4685 369.047 81.4685Z" fill="#3D251C"/>
<path d="M371.885 114.88L353.536 148.776L320.333 144.255L320.599 154.896C320.599 154.896 357.958 169.573 365.974 165.125C377.656 158.646 390.708 124.432 390.708 124.432L371.885 114.88Z" fill="#E88772"/>
<path d="M354.495 143.88C356.167 141.812 365.063 119.552 374.599 104.083C377.349 99.6145 394.896 104.005 395.849 114.052C397.412 130.5 380.599 156.073 380.599 156.073C380.599 156.073 355.787 144.739 354.495 143.88Z" fill="#EEEEEE"/>
<path d="M300.375 133.031L300.412 131.885C300.422 131.562 300.693 131.307 301.021 131.318L303.766 131.401C304.094 131.411 304.349 131.682 304.339 132.005L304.302 133.156C304.292 133.479 304.021 133.734 303.693 133.724L300.948 133.641C300.625 133.63 300.37 133.359 300.375 133.031Z" fill="#EEEEEE"/>
<path d="M305.484 134.255C305.495 136.927 304.74 139.026 303.016 140.401C302.646 140.693 302.583 141.224 302.891 141.583C302.891 141.583 302.896 141.589 302.896 141.594C303.099 141.828 303.417 141.922 303.719 141.849C307.094 141.068 309.599 138.214 310.062 134.995C308.187 134.714 306.307 134.432 305.484 134.255Z" fill="#EEEEEE"/>
<path d="M318.412 132.802C317.412 131.828 316.078 131.26 314.682 131.214L303.089 130.854C302.13 130.828 301.328 131.578 301.297 132.536C301.276 133.234 301.677 133.875 302.313 134.167L309.385 137.385C310.026 137.677 310.427 138.318 310.401 139.016L310.234 144.344C310.208 145.302 310.958 146.099 311.917 146.13L313.375 146.177C314.328 146.203 315.13 145.453 315.156 144.495L315.354 138.292C315.37 137.745 315.646 137.234 316.094 136.922L318.188 135.464C319.083 134.844 319.188 133.563 318.412 132.802Z" fill="#EEEEEE"/>
<path d="M309.896 143.198L315.948 143.328L321.703 164.302C322.026 165.489 322.177 166.719 322.151 167.948L321.87 180.583C321.828 182.635 320.13 184.26 318.078 184.213L305.963 183.948C303.911 183.901 302.286 182.203 302.333 180.151L302.615 167.515C302.641 166.286 302.844 165.068 303.224 163.896L309.896 143.198Z" fill="#393E46"/>
<path d="M317.63 145.141L317.708 141.599C317.719 141.104 317.323 140.693 316.828 140.682L309.135 140.51C308.641 140.5 308.229 140.891 308.219 141.391L308.141 144.927C308.13 145.427 308.521 145.839 309.021 145.849L316.714 146.021C317.208 146.031 317.62 145.635 317.63 145.141Z" fill="#EEEEEE"/>
<path d="M326.276 144.255C325.359 144.011 325.417 141.698 323.073 139.557C320.578 137.287 314.484 130.109 311.807 132.276C309.698 133.984 317.01 140.177 315.635 140.318C314.276 140.458 309.516 139.266 304.088 138.333C301.792 137.943 301.484 140.516 303.364 141.182C306.958 142.464 311.37 144.386 311.37 144.386C311.37 144.386 307.469 144.031 306.88 144.203C305.073 144.724 305.739 146.766 306.979 147.354C306.854 147.438 305.963 147.693 305.573 149C305.151 150.412 306.807 150.974 306.807 150.974C306.807 150.974 305.687 151.156 305.812 152.75C305.922 154.078 306.885 154.214 311.552 155.636C314.448 156.516 318.906 156.313 321.422 157.177C327.828 159.386 342.271 164.328 343.333 163.943C345.76 163.068 347.755 145.604 346.328 145.313C343.505 144.734 328.948 144.979 326.276 144.255Z" fill="#E3B04A"/>
<path d="M303.089 130.854L314.682 131.214C316.078 131.26 317.411 131.828 318.411 132.802C319.187 133.563 319.083 134.844 318.187 135.464L316.094 136.922C315.646 137.234 315.37 137.745 315.354 138.292L315.302 139.917L310.396 139.354L310.406 139.016C310.427 138.318 310.026 137.672 309.391 137.385L302.318 134.167C301.682 133.875 301.281 133.234 301.302 132.531C301.333 131.578 302.13 130.828 303.089 130.854Z" fill="#EEEEEE"/>
<path d="M397.849 76.8022C399.943 80.4741 403.406 83.172 407.057 85.2918C410.708 87.4116 414.625 89.047 418.265 91.1877C426.599 96.0887 433.338 103.662 437.234 112.516C429.239 118.474 419.63 122.245 409.719 123.313C409.057 114.464 405.745 105.823 400.307 98.8127C398.068 95.922 395.479 93.297 393.448 90.2606C391.417 87.2189 389.943 83.6147 390.312 79.9793" fill="#3D251C"/>
<path d="M287.13 49.6146C286.87 49.6146 286.656 49.401 286.656 49.1406V4.84896C286.656 4.58854 286.865 4.375 287.13 4.375C287.391 4.375 287.604 4.58854 287.604 4.84896V49.1406C287.604 49.401 287.391 49.6146 287.13 49.6146Z" fill="#E3B04A"/>
<path d="M293.042 58.5573V49.0313C293.042 47.625 291.901 46.4844 290.49 46.4844H283.766C282.359 46.4844 281.219 47.625 281.219 49.0313V58.5573C281.219 59.9635 282.359 61.1042 283.766 61.1042H290.49C291.901 61.1042 293.042 59.9635 293.042 58.5573Z" fill="#E3B04A"/>
<path d="M289.62 50.87V44.0262C289.62 42.6512 288.505 41.5366 287.13 41.5366C285.755 41.5366 284.641 42.6512 284.641 44.0262V50.87C284.641 52.245 285.755 53.3595 287.13 53.3595C288.505 53.3543 289.62 52.245 289.62 50.87Z" fill="#E3B04A"/>
<path d="M310.062 75.0988C310.062 62.4321 299.797 52.1665 287.13 52.1665C274.463 52.1665 264.193 62.4321 264.193 75.0988C264.193 87.7655 274.463 98.0363 287.13 98.0363C299.797 98.0363 310.062 87.7655 310.062 75.0988Z" fill="white"/>
<path d="M248.458 86.5729C248.198 86.5729 247.984 86.3594 247.984 86.0938V4.84896C247.984 4.58854 248.198 4.375 248.458 4.375C248.719 4.375 248.932 4.58854 248.932 4.84896V86.0938C248.932 86.3594 248.724 86.5729 248.458 86.5729Z" fill="#E3B04A"/>
<path d="M254.37 95.5156V85.9896C254.37 84.5781 253.229 83.4375 251.823 83.4375H245.099C243.687 83.4375 242.552 84.5781 242.552 85.9896V95.5156C242.552 96.9219 243.693 98.0625 245.099 98.0625H251.823C253.229 98.0625 254.37 96.9219 254.37 95.5156Z" fill="#E3B04A"/>
<path d="M250.948 87.8231V80.9793C250.948 79.6043 249.833 78.4897 248.458 78.4897C247.083 78.4897 245.969 79.6043 245.969 80.9793V87.8231C245.969 89.1981 247.083 90.3127 248.458 90.3127C249.833 90.3127 250.948 89.1981 250.948 87.8231Z" fill="#E3B04A"/>
<path d="M271.396 112.057C271.396 99.3906 261.125 89.125 248.458 89.125C235.792 89.125 225.526 99.3906 225.526 112.057C225.526 124.724 235.792 134.995 248.458 134.995C261.125 134.995 271.396 124.724 271.396 112.057Z" fill="white"/>
<path d="M209.792 49.6146C209.526 49.6146 209.312 49.401 209.312 49.1406V4.84896C209.312 4.58854 209.526 4.375 209.792 4.375C210.052 4.375 210.266 4.58854 210.266 4.84896V49.1406C210.266 49.401 210.052 49.6146 209.792 49.6146Z" fill="#E3B04A"/>
<path d="M215.698 58.5573V49.0313C215.698 47.625 214.557 46.4844 213.151 46.4844H206.427C205.021 46.4844 203.88 47.625 203.88 49.0313V58.5573C203.88 59.9635 205.021 61.1042 206.427 61.1042H213.151C214.557 61.1042 215.698 59.9635 215.698 58.5573Z" fill="#E3B04A"/>
<path d="M212.276 50.87V44.0262C212.276 42.6512 211.161 41.5366 209.792 41.5366C208.411 41.5366 207.302 42.6512 207.302 44.0262V50.87C207.302 52.245 208.417 53.3595 209.792 53.3595C211.161 53.3543 212.276 52.245 212.276 50.87Z" fill="#E3B04A"/>
<path d="M232.724 75.0988C232.724 62.4321 222.453 52.1665 209.792 52.1665C197.12 52.1665 186.854 62.4321 186.854 75.0988C186.854 87.7655 197.12 98.0363 209.792 98.0363C222.453 98.0363 232.724 87.7655 232.724 75.0988Z" fill="white"/>
<path d="M116.88 254.969C116.88 254.969 119.901 257.766 119.906 259.531C119.917 261.552 116.698 262.422 116.698 262.422L115.177 258.349L116.88 254.969Z" fill="#E88772"/>
<path d="M117.109 255.677C117.505 251.229 118.203 247.224 114.609 242.953C107.958 235.047 93.7396 237.599 90.4063 245.557C88.3282 250.516 88.3542 260.224 93.5417 265.771C97.5626 270.078 107.458 272.724 114.109 270.864C118.339 269.687 117.818 257.75 117.818 257.75C117.818 257.75 117.042 256.088 117.109 255.677Z" fill="#E88772"/>
<path d="M113.854 252.427C114.521 252.5 114.724 253.438 114.729 254.026C114.729 254.458 114.568 255.521 113.849 255.438C113.146 255.36 112.87 254.745 112.917 253.646C112.958 252.531 113.589 252.396 113.854 252.427Z" fill="#3D251C"/>
<path d="M113.922 255.682C113.891 255.682 113.854 255.677 113.818 255.677C112.599 255.536 112.661 254.109 112.677 253.635C112.734 252.255 113.615 252.188 113.792 252.188C113.823 252.188 113.854 252.188 113.88 252.193C114.734 252.281 114.964 253.391 114.964 254.026C114.964 254.599 114.745 255.682 113.922 255.682ZM113.823 252.661C113.635 252.661 113.188 252.745 113.151 253.656C113.099 254.948 113.51 255.161 113.875 255.203C114.349 255.271 114.49 254.427 114.49 254.026C114.49 253.505 114.313 252.714 113.828 252.661H113.823Z" fill="#3D251C"/>
<path d="M115.443 253.422C113.859 252.886 112.224 253.078 110.917 253.948C110.917 253.948 110.208 251.328 112.594 251.057C114.656 250.823 115.443 253.422 115.443 253.422Z" fill="#E88772"/>
<path d="M110.917 254.182C110.839 254.182 110.761 254.146 110.719 254.078C110.646 253.969 110.672 253.823 110.781 253.75C112.146 252.844 113.875 252.641 115.521 253.198C115.641 253.24 115.708 253.375 115.667 253.5C115.625 253.62 115.49 253.687 115.365 253.646C113.859 253.135 112.287 253.318 111.047 254.146C111.005 254.172 110.958 254.182 110.917 254.182Z" fill="#3D251C"/>
<path d="M110.052 251.214C112.213 250.964 114.042 250.88 116.021 251.432C116.135 251.443 116.37 250.224 116.016 250.084C113.781 249.203 111.828 249.656 109.937 250.901C109.786 251 109.87 251.235 110.052 251.214Z" fill="#3D251C"/>
<path d="M115.724 265.328H115.719C114.474 265.297 113.255 264.771 112.464 263.917C112.375 263.818 112.38 263.672 112.479 263.578C112.573 263.49 112.724 263.495 112.813 263.594C113.521 264.354 114.609 264.823 115.734 264.854C115.865 264.86 115.964 264.969 115.964 265.099C115.958 265.229 115.854 265.328 115.724 265.328Z" fill="#3D251C"/>
<path d="M106.776 268.068C106.083 273.224 104.646 279.333 102.563 284.109C97.5105 283.557 89.172 280.109 84.4949 278.182C88.6251 274.021 91.4688 268.338 91.8178 262.463C95.3647 264.167 102.063 266.62 106.776 268.068Z" fill="#E88772"/>
<path d="M99.5677 235.849C105.5 235.198 111.63 236.708 116.063 240.703C120.026 244.276 116.635 246.281 116.635 246.281C116.635 246.281 115.38 244.802 113.068 244.958C109.948 245.172 106.276 248.672 106.078 251.641C105.849 255.151 103.281 255.813 102.99 254.735C102.229 251.943 97.3438 254.443 97.125 259.448C96.9636 263.198 94.0729 266.964 91.2031 266.422C89.7552 266.146 87.3177 261.641 86.8542 259.083C83.9011 242.833 89.8125 236.922 99.5677 235.849Z" fill="#3D251C"/>
<path d="M112.328 285.917C106.958 271.458 84.3489 265.229 74.5885 282.323C64.5885 299.828 59.4426 330.005 48.3489 347.469C62.953 352.578 97.7812 353.839 97.7812 353.839C97.7812 353.839 100.76 337.104 106.958 323.021C111.005 313.839 119.531 305.318 112.328 285.917Z" fill="#EEEEEE"/>
<path d="M102.99 254.739C102.109 252.661 98.8438 249.792 96.1719 251.792C95.2553 252.479 94.7917 253.672 94.8334 254.823C94.8907 256.552 98.0209 262.776 102.083 261.172C103.51 260.609 104.021 257.167 102.99 254.739Z" fill="#E88772"/>
<path d="M102.115 257.078C102 257.078 101.896 256.995 101.88 256.88C101.594 255.042 99.5314 253.328 97.8022 253.489C97.6772 253.505 97.5574 253.406 97.5418 253.276C97.5314 253.146 97.6303 253.031 97.7605 253.021C99.7553 252.833 102.026 254.713 102.349 256.807C102.37 256.937 102.281 257.057 102.151 257.078C102.136 257.078 102.125 257.078 102.115 257.078Z" fill="#3D251C"/>
<path d="M70.9376 377.932C68.0209 396.698 62.6563 415.005 55.0574 432.14C70.7292 432.792 86.4272 432.578 102.073 431.505C95.9115 411.224 86.1563 392.245 70.9376 377.932Z" fill="#E3B04A"/>
<path d="M107.62 497.771L108.766 490.198C108.828 489.786 109.214 489.51 109.625 489.583C112.323 490.062 121.651 491.234 125.88 485.333C126.469 484.51 127.583 484.26 128.443 484.797C133.552 487.969 137.146 488.083 143.391 490.25C147.068 491.531 147.755 495.266 148.063 497.896L107.62 497.771Z" fill="#E3B04A"/>
<path d="M148.062 497.896C148.193 498.969 147.344 499.906 146.26 499.906L109.411 499.854C108.302 499.849 107.458 498.865 107.62 497.771L107.739 497L147.953 497.063C147.995 497.354 148.031 497.635 148.062 497.896Z" fill="#EEEEEE"/>
<path d="M136.552 492.448C136.521 492.448 136.49 492.443 136.464 492.427C136.344 492.38 136.281 492.245 136.328 492.12L137.75 488.516C137.802 488.396 137.937 488.334 138.057 488.386C138.182 488.433 138.24 488.568 138.193 488.693L136.771 492.297C136.734 492.391 136.646 492.448 136.552 492.448Z" fill="#EEEEEE"/>
<path d="M131.448 490.854C131.417 490.854 131.391 490.849 131.359 490.834C131.24 490.787 131.177 490.651 131.224 490.526L132.651 486.922C132.698 486.802 132.833 486.74 132.958 486.792C133.078 486.839 133.141 486.974 133.088 487.099L131.667 490.703C131.63 490.797 131.542 490.854 131.448 490.854Z" fill="#EEEEEE"/>
<path d="M23.3855 497.771L24.5313 490.198C24.5938 489.786 24.9792 489.51 25.3907 489.583C28.0834 490.062 37.4167 491.234 41.6459 485.333C42.2292 484.51 43.3438 484.26 44.2032 484.797C49.3178 487.969 52.9063 488.083 59.1563 490.25C62.8334 491.531 63.5209 495.266 63.8282 497.896L23.3855 497.771Z" fill="#E3B04A"/>
<path d="M63.8282 497.896C63.9532 498.969 63.1042 499.906 62.0261 499.906L25.1771 499.854C24.0677 499.849 23.2188 498.865 23.3855 497.771L23.5 497L63.7136 497.063C63.7605 497.354 63.7969 497.635 63.8282 497.896Z" fill="#EEEEEE"/>
<path d="M52.3124 492.448C52.2864 492.448 52.2551 492.443 52.2239 492.427C52.1041 492.38 52.0416 492.245 52.0937 492.12L53.5156 488.516C53.5624 488.396 53.7031 488.334 53.8229 488.386C53.9479 488.433 54.0051 488.568 53.9583 488.693L52.5312 492.297C52.4947 492.391 52.4062 492.448 52.3124 492.448Z" fill="#EEEEEE"/>
<path d="M47.2084 490.854C47.1824 490.854 47.1511 490.849 47.1251 490.834C47.0001 490.787 46.9428 490.651 46.9897 490.526L48.4115 486.922C48.4584 486.802 48.599 486.74 48.7188 486.792C48.8438 486.839 48.9011 486.974 48.8542 487.099L47.4324 490.703C47.3959 490.797 47.3022 490.854 47.2084 490.854Z" fill="#EEEEEE"/>
<mask id="mask1_225_2" style="mask-type:luminance" maskUnits="userSpaceOnUse" x="18" y="341" width="61" height="153">
<path d="M18.1824 341.333H78.6667V493.334H18.1824V341.333Z" fill="white"/>
</mask>
<g mask="url(#mask1_225_2)">
<path d="M78.0574 349.141C75.3438 392.391 66.1876 447.375 52.5574 488.276C52.9949 488.162 18.8751 492.901 18.1824 492.209C24.8074 447.625 35.9792 432.453 41.1772 421.104C45.6199 411.401 41.3907 374.719 46.7188 359.089C49.8126 350.011 53.8751 342.568 53.8751 342.568L78.0574 349.141Z" fill="#393E46"/>
</g>
<path d="M88.1197 346.255C88.1197 346.255 127.01 445.521 134.776 487.927C134.62 487.818 102.411 495.281 100.854 495.136C89.9062 455.5 90.8124 437.12 90.8124 422.573C90.8124 412.125 67.4895 378.464 65.1978 369.151C62.901 359.844 62.5207 353.485 68.6822 346.136C68.6822 346.136 82.1301 345.318 88.1197 346.255Z" fill="#393E46"/>
<path d="M72.6251 386.516C72.5365 386.516 72.448 386.458 72.4063 386.37C71.672 384.604 69.0053 381.594 66.1772 378.412C63.4376 375.328 60.6095 372.135 59.2188 369.719C59.1511 369.604 59.1928 369.458 59.3022 369.396C59.4167 369.328 59.5626 369.37 59.6303 369.484C60.9949 371.854 63.8126 375.026 66.5313 378.094C69.3855 381.307 72.0782 384.344 72.8438 386.182C72.8959 386.307 72.8386 386.443 72.7188 386.495C72.6876 386.505 72.6563 386.516 72.6251 386.516Z" fill="#3D251C"/>
<path d="M112.208 302.599C112.208 302.599 100.479 348.547 100.193 352.844C99.8749 357.734 126.677 431.849 124.734 433.937C122.531 436.307 106.365 435.583 106.365 435.583C106.365 435.583 104.104 416.37 94.9583 397.995C86.5208 381.036 77.2551 362.854 65.4322 350.12C62.5312 346.995 51.6301 341.635 51.6301 341.635L53.8749 336.568C53.8749 336.568 64.3905 343.76 68.2187 343.76C85.7083 343.76 103.948 290.703 104.51 290.849" fill="#E3B04A"/>
<path d="M56.6249 341.339C56.6249 341.339 58.7187 357.536 57.1197 358.938C56.2812 359.672 53.552 358.813 53.552 358.813C53.552 358.813 51.1874 365.313 50.0051 368.568C48.4687 368.141 46.9322 367.714 45.401 367.281C45.8176 366.88 50.4478 352.458 50.4478 352.458L42.927 366.688L39.4739 365.234L44.3437 355.115C44.3437 355.115 41.401 353.995 41.4583 352.234C41.5468 349.26 45.3749 344.281 53.4322 340.062C53.828 340.318 56.6249 341.339 56.6249 341.339Z" fill="#E3B04A"/>
<path d="M234.682 480.63H217.995C217.917 480.63 217.844 480.594 217.797 480.531C217.474 480.068 185.411 433.979 175.286 411.854C166.177 391.953 172.214 382.531 172.276 382.438C172.349 382.334 172.495 382.302 172.604 382.375C172.714 382.448 172.745 382.594 172.672 382.703C172.609 382.797 166.729 392.021 175.719 411.656C185.599 433.24 216.417 477.714 218.115 480.156H234.682C234.812 480.156 234.917 480.266 234.917 480.396C234.917 480.526 234.812 480.63 234.682 480.63Z" fill="#393E46"/>
<path d="M246.224 494.959C245.604 494.959 245 494.662 244.635 494.104L162.365 369.193L145.536 370.167C144.495 370.235 143.594 369.427 143.531 368.38C143.474 367.334 144.271 366.438 145.318 366.375L163.24 365.339C163.922 365.302 164.562 365.625 164.932 366.193L247.807 492.016C248.385 492.896 248.141 494.068 247.266 494.646C246.943 494.86 246.583 494.959 246.224 494.959Z" fill="#EEEEEE"/>
<path d="M244.615 494.12L247.828 492.005C248.693 491.438 248.932 490.276 248.365 489.412L220.521 447.136C219.953 446.271 218.792 446.037 217.927 446.604L214.714 448.719C213.849 449.287 213.609 450.448 214.182 451.313L242.021 493.589C242.589 494.448 243.75 494.688 244.615 494.12Z" fill="#393E46"/>
<path d="M266.589 478.708V450.849C266.589 446.521 263.078 443.01 258.75 443.01H240.729C236.401 443.01 232.891 446.521 232.891 450.849V478.708C232.891 483.036 236.401 486.547 240.729 486.547H258.75C263.078 486.547 266.589 483.036 266.589 478.708Z" fill="#E3B04A"/>
<path d="M231.807 489.74H294.068L298.787 499.906H227.089L231.807 489.74Z" fill="#EEEEEE"/>
<path d="M297.5 489.068V485.271C297.5 481.458 294.411 478.37 290.599 478.37H235.276C231.469 478.37 228.38 481.458 228.38 485.271V489.068C228.38 490.234 229.328 491.187 230.495 491.187H295.38C296.552 491.187 297.5 490.239 297.5 489.068Z" fill="#393E46"/>
<path d="M241.693 485.286C241.693 477.213 235.151 470.667 227.073 470.667C219 470.667 212.453 477.208 212.453 485.286C212.453 493.359 219 499.906 227.073 499.906C235.151 499.906 241.693 493.359 241.693 485.286Z" fill="#EEEEEE"/>
<path d="M234.682 485.287C234.682 481.083 231.276 477.677 227.073 477.677C222.875 477.677 219.469 481.083 219.469 485.287C219.469 489.485 222.875 492.891 227.073 492.891C231.276 492.891 234.682 489.485 234.682 485.287Z" fill="#393E46"/>
<path d="M293.219 499.177C293.13 499.177 293.042 499.125 293 499.037L290.276 493.162C290.219 493.042 290.271 492.901 290.391 492.849C290.51 492.792 290.651 492.844 290.703 492.964L293.432 498.839C293.484 498.958 293.437 499.099 293.318 499.156C293.286 499.167 293.25 499.177 293.219 499.177Z" fill="#393E46"/>
<path d="M284.625 499.177C284.526 499.177 284.432 499.109 284.401 499.01L282.583 493.13C282.542 493.005 282.615 492.875 282.74 492.833C282.865 492.797 282.995 492.87 283.036 492.995L284.854 498.87C284.891 498.995 284.823 499.125 284.698 499.166C284.672 499.172 284.651 499.177 284.625 499.177Z" fill="#393E46"/>
<path d="M276.037 499.177C275.922 499.177 275.823 499.094 275.802 498.974L274.891 493.099C274.875 492.969 274.964 492.849 275.089 492.828C275.219 492.807 275.344 492.896 275.359 493.026L276.271 498.901C276.292 499.031 276.203 499.151 276.073 499.172C276.063 499.177 276.047 499.177 276.037 499.177Z" fill="#393E46"/>
<path d="M267.448 499.177C267.318 499.177 267.208 499.068 267.208 498.937V493.062C267.208 492.932 267.318 492.823 267.448 492.823C267.578 492.823 267.682 492.932 267.682 493.062V498.937C267.682 499.068 267.578 499.177 267.448 499.177Z" fill="#393E46"/>
<path d="M258.854 499.177C258.844 499.177 258.833 499.177 258.818 499.172C258.687 499.151 258.599 499.031 258.62 498.901L259.531 493.026C259.552 492.896 259.672 492.807 259.802 492.828C259.932 492.849 260.021 492.969 260 493.099L259.088 498.974C259.073 499.094 258.969 499.177 258.854 499.177Z" fill="#393E46"/>
<path d="M250.266 499.177C250.245 499.177 250.219 499.172 250.198 499.167C250.073 499.125 250 498.995 250.042 498.87L251.859 492.99C251.896 492.865 252.026 492.792 252.156 492.834C252.281 492.87 252.349 493.005 252.312 493.13L250.495 499.011C250.463 499.11 250.364 499.177 250.266 499.177Z" fill="#393E46"/>
<path d="M241.677 499.177C241.641 499.177 241.609 499.167 241.573 499.156C241.458 499.099 241.406 498.958 241.458 498.839L244.187 492.964C244.245 492.844 244.385 492.792 244.5 492.849C244.62 492.901 244.672 493.042 244.62 493.162L241.891 499.037C241.849 499.125 241.766 499.177 241.677 499.177Z" fill="#393E46"/>
<path d="M111.74 286.453L121.912 327.979L150.115 357.964L138.823 362.708C138.823 362.708 113.792 343.255 109.125 334.203C103.797 323.859 97.5574 296.224 97.5574 296.224L111.74 286.453Z" fill="#E88772"/>
<path d="M137.458 342.573C138.995 342.688 145.583 350.276 149.5 355.333C153.068 359.938 161.766 369.13 162.349 371.802C162.573 372.828 161.01 373.234 160.057 373.109C158.901 372.964 158.172 372.458 158.172 372.458C158.172 372.458 158.031 373.432 156.448 373.958C154.844 374.495 153.828 373.781 153.781 373.839C152.359 375.604 150.057 374.349 149.854 374.453C148.708 375.016 146.984 374.479 146.026 373.13C145.073 371.797 141.917 365.787 140.828 364.969C138.162 362.964 127.745 356.047 127.547 354.656C127.208 352.255 136.172 342.474 137.458 342.573Z" fill="#393E46"/>
<path d="M149.802 374.021C149.708 374.021 149.62 373.969 149.583 373.88L148.734 371.917C148.682 371.797 148.74 371.656 148.859 371.604C148.979 371.552 149.12 371.609 149.172 371.729L150.021 373.693C150.073 373.813 150.016 373.953 149.896 374.005C149.865 374.016 149.833 374.021 149.802 374.021Z" fill="#3D251C"/>
<path d="M153.599 373.666C153.505 373.666 153.417 373.614 153.38 373.526L152.531 371.562C152.479 371.442 152.536 371.302 152.656 371.25C152.776 371.198 152.917 371.255 152.969 371.375L153.818 373.338C153.87 373.458 153.813 373.594 153.693 373.646C153.661 373.661 153.63 373.666 153.599 373.666Z" fill="#3D251C"/>
<path d="M157.99 372.182C157.896 372.182 157.807 372.125 157.771 372.037L156.922 370.073C156.87 369.953 156.927 369.813 157.047 369.76C157.167 369.708 157.307 369.766 157.359 369.885L158.208 371.849C158.26 371.969 158.203 372.109 158.083 372.162C158.052 372.172 158.021 372.182 157.99 372.182Z" fill="#3D251C"/>
<path d="M125.896 318.292C125.896 318.292 116.693 285.927 107.927 279C104.604 276.375 97.5574 279.219 94.8282 284.109C89.3542 293.927 97.5574 323.672 97.5574 323.672L125.896 318.292Z" fill="#EEEEEE"/>
</g>
<defs>
<clipPath id="clip0_225_2">
<rect width="500" height="500" fill="white"/>
</clipPath>
</defs>
</svg>
