<svg width="500" height="500" viewBox="0 0 500 500" fill="none" xmlns="http://www.w3.org/2000/svg">
<path d="M94 294.816V470C94 472.761 96.2386 475 99 475H199C201.761 475 204 472.761 204 470V360.848C204 349.802 212.954 340.848 224 340.848H276.5C287.546 340.848 296.5 349.802 296.5 360.848V470C296.5 472.761 298.739 475 301.5 475H401C403.761 475 406 472.761 406 470V295.833C406 294.389 405.376 293.016 404.289 292.066L250 157.353L95.7256 291.037C94.6296 291.987 94 293.366 94 294.816Z" fill="#E3B04A" stroke="#E3B04A" stroke-width="20"/>
<path d="M49.368 259.157L29.823 229.651C27.0603 225.481 27.8046 219.91 31.5654 216.611L243.498 30.7036C247.231 27.4287 252.802 27.3898 256.581 30.6122L346.687 107.452V82.9255C346.687 77.4026 351.164 72.9255 356.687 72.9255H401.747C407.27 72.9255 411.747 77.4026 411.747 82.9255V161.679C411.747 164.553 412.984 167.288 415.141 169.186L468.453 216.095C472.205 219.396 472.944 224.959 470.184 229.125L450.622 258.656C447.269 263.717 440.216 264.648 435.665 260.628L250 96.6305L64.3361 261.119C59.787 265.149 52.7243 264.223 49.368 259.157Z" fill="#2A2A27" stroke="#2A2A27" stroke-width="20"/>
<rect x="318" y="351" width="70" height="67" rx="5" fill="#F1D7AC"/>
</svg>
