<svg width="500" height="500" viewBox="0 0 500 500" fill="none" xmlns="http://www.w3.org/2000/svg">
<path d="M71.1811 448.924L110.905 425.338C112.905 424.15 114.429 422.301 115.214 420.111L167 275.5L102 251L84.5 292L94 311.5L77 321L84.5 339L66.5 347.5L75.5 365.5L56 374.5L47 400L63.9321 446.34C65.0066 449.281 68.4889 450.522 71.1811 448.924Z" fill="#E3B04A" stroke="#E3B04A" stroke-width="5"/>
<circle cx="166.5" cy="173.5" r="106.5" fill="#E3B04A"/>
<circle cx="185" cy="119" r="25" fill="#F1D7AC"/>
<path d="M289.5 149.5C287.433 136.643 285.113 129.721 278.5 118L296.979 98.0123C300.693 93.9956 306.306 91.9811 311.51 93.6668C337.593 102.115 415.806 131.41 435.474 138.798C438.029 139.758 439.261 142.562 438.34 145.131L432.219 162.204C431.275 164.838 428.353 166.185 425.737 165.191L312 122L289.5 149.5Z" fill="#2A2A27" stroke="#2A2A27" stroke-width="5"/>
<path d="M175.037 113.641C174.563 119.144 178.639 123.989 184.141 124.463C189.644 124.937 194.489 120.861 194.963 115.359L175.037 113.641ZM316.733 96.6442L318.877 106.412L338.412 102.123L336.267 92.356L316.733 96.6442ZM194.963 115.359C196.625 96.0824 204.412 82.5831 214.879 73.619C225.504 64.521 239.486 59.6034 254.053 58.7973C284.135 57.1324 311.45 72.5795 316.733 96.6442L336.267 92.356C328.05 54.9207 288.365 36.8677 252.947 38.8278C234.764 39.8342 216.371 46.0103 201.871 58.4279C187.213 70.9795 177.125 89.4177 175.037 113.641L194.963 115.359Z" fill="#2A2A27"/>
<path d="M283.654 336.226L260 255C281.418 226.322 289.125 208.479 291.5 172L317 140L415.641 177.113C417.125 177.671 418.256 178.899 418.69 180.424L449.323 288.092C450.811 293.321 447.848 298.781 442.653 300.384L414.639 309.026C409.329 310.664 403.702 307.659 402.11 302.335L376 215L311 236L335.298 320.593C336.8 325.821 333.848 331.29 328.654 332.904L296.222 342.98C290.881 344.639 285.217 341.596 283.654 336.226Z" fill="#E3B04A" stroke="#E3B04A" stroke-width="5"/>
</svg>
