<svg width="2618" height="2606" viewBox="0 0 2618 2606" fill="none" xmlns="http://www.w3.org/2000/svg">
<path d="M0 765.485V0H1299.51C1995.97 0 2618 562.621 2618 1302.62C2451.63 376.247 1518.34 376.247 1518.34 376.247H373.215V1486C156.597 1260.45 38.4725 1110.75 0 765.485Z" fill="url(#paint0_linear_238_4)"/>
<path d="M0 2606V2018.5C162.742 2099.95 235.469 2126.62 394.5 2171.5C906.553 2267.88 1249 2261.51 1607 2171.5C2309 1995 2294 1231 1937.5 965C2834 1256.18 2503 2606 1309.5 2606H0Z" fill="url(#paint1_linear_238_4)"/>
<path d="M502.5 1562.55V484L1518.53 490.001C2044.05 490.001 2393.4 848.852 2480 1256.18C2265.24 869.344 1862.93 802.371 1746.65 802.371H870.5V1664.01C722.354 1682.02 644.872 1670.88 502.5 1562.55Z" fill="url(#paint2_linear_238_4)"/>
<path d="M0 1864.72V1240.27C211.394 1635.92 483.693 1821.51 869 1830.5C891.937 1831.23 1265.3 1835.72 1313.94 1831.73C1816.44 1817.23 1942.5 1268.5 1709.15 982C2058.47 982 2480.76 2077.53 1143.93 2113H886.557C490.755 2113 96.4518 1967.63 0 1864.72Z" fill="url(#paint3_linear_238_4)"/>
<defs>
<linearGradient id="paint0_linear_238_4" x1="1309" y1="0" x2="1309" y2="1486" gradientUnits="userSpaceOnUse">
<stop stop-color="#222222"/>
<stop offset="1" stop-color="#D9D9D9"/>
</linearGradient>
<linearGradient id="paint1_linear_238_4" x1="1223.98" y1="965" x2="1223.98" y2="2606" gradientUnits="userSpaceOnUse">
<stop stop-color="#F5F5F5"/>
<stop offset="1" stop-color="#2D2929"/>
</linearGradient>
<linearGradient id="paint2_linear_238_4" x1="1491.25" y1="484" x2="1491.25" y2="1671" gradientUnits="userSpaceOnUse">
<stop stop-color="#D9D9D9"/>
<stop offset="1" stop-color="#222222"/>
</linearGradient>
<linearGradient id="paint3_linear_238_4" x1="1030" y1="982" x2="1030" y2="2113" gradientUnits="userSpaceOnUse">
<stop stop-color="#323232"/>
<stop offset="1" stop-color="#F7F7F7"/>
</linearGradient>
</defs>
</svg>
