<svg xmlns="http://www.w3.org/2000/svg" xmlns:xlink="http://www.w3.org/1999/xlink" width="500" zoomAndPan="magnify" viewBox="0 0 375 374.999991" height="500" preserveAspectRatio="xMidYMid meet" version="1.0"><defs><clipPath id="68ea014583"><path d="M 45.105469 154 L 137 154 L 137 353 L 45.105469 353 Z M 45.105469 154 " clip-rule="nonzero"/></clipPath></defs><path fill="#ab442c" d="M 187.363281 98.578125 L 182.253906 152.949219 L 186.246094 213.222656 L 172.441406 215.832031 C 172.441406 215.832031 158.726562 176.566406 158.664062 158.9375 C 158.632812 149.832031 162.914062 99.597656 162.914062 99.597656 Z M 187.363281 98.578125 " fill-opacity="1" fill-rule="nonzero"/><path fill="#ab442c" d="M 156.632812 367.0625 C 156.335938 367.058594 160.355469 354.007812 159.929688 353 C 154.730469 340.800781 141.835938 298.128906 144.726562 275.921875 C 145.402344 270.722656 146.800781 265.601562 146.855469 260.355469 C 147.109375 237.457031 124.148438 218.765625 117.859375 181.90625 C 115.429688 167.667969 149.941406 152.679688 153.359375 163.492188 C 157.980469 178.132812 173.285156 228.78125 174.71875 254.40625 C 176.511719 286.398438 172.265625 323.726562 180.703125 353.25 C 180.703125 353.25 170.3125 367.398438 156.632812 367.0625 " fill-opacity="1" fill-rule="nonzero"/><path fill="#393e46" d="M 155.046875 367.375 L 156.476562 357.765625 C 156.554688 357.242188 157.042969 356.886719 157.5625 356.980469 C 160.988281 357.582031 172.832031 359.042969 178.175781 351.535156 C 178.921875 350.488281 180.335938 350.171875 181.425781 350.847656 C 187.925781 354.859375 192.480469 354.992188 200.414062 357.726562 C 205.085938 359.335938 205.96875 364.070312 206.367188 367.40625 Z M 155.046875 367.375 " fill-opacity="1" fill-rule="nonzero"/><path fill="#eeeeee" d="M 206.367188 367.40625 C 206.53125 368.769531 205.457031 369.964844 204.085938 369.964844 L 157.324219 370.011719 C 155.917969 370.011719 154.839844 368.761719 155.046875 367.371094 L 155.191406 366.398438 L 206.222656 366.347656 C 206.277344 366.71875 206.328125 367.074219 206.367188 367.40625 " fill-opacity="1" fill-rule="nonzero"/><path fill="#eeeeee" d="M 191.738281 360.53125 C 191.703125 360.53125 191.664062 360.523438 191.628906 360.511719 C 191.472656 360.449219 191.394531 360.273438 191.457031 360.117188 L 193.25 355.542969 C 193.3125 355.386719 193.488281 355.308594 193.644531 355.371094 C 193.800781 355.429688 193.875 355.605469 193.816406 355.761719 L 192.019531 360.339844 C 191.972656 360.457031 191.859375 360.53125 191.738281 360.53125 Z M 191.738281 360.53125 " fill-opacity="1" fill-rule="nonzero"/><path fill="#eeeeee" d="M 185.257812 358.523438 C 185.21875 358.523438 185.183594 358.519531 185.144531 358.503906 C 184.992188 358.441406 184.914062 358.265625 184.976562 358.109375 L 186.769531 353.535156 C 186.832031 353.378906 187.007812 353.300781 187.160156 353.363281 C 187.316406 353.425781 187.394531 353.601562 187.332031 353.753906 L 185.539062 358.332031 C 185.492188 358.453125 185.378906 358.523438 185.257812 358.523438 Z M 185.257812 358.523438 " fill-opacity="1" fill-rule="nonzero"/><path fill="#e3b04a" d="M 111.078125 170.351562 C 112.398438 201.394531 145.273438 245.066406 141.6875 258.746094 C 137.445312 274.953125 142.492188 306.492188 150.355469 361.746094 C 152.191406 361.898438 187.5625 351.75 189.15625 352.15625 C 189.800781 350.902344 176.410156 281.886719 177.324219 257.488281 C 178.347656 230.152344 154.308594 155.574219 154.589844 153.1875 C 151.503906 154.039062 113.621094 169.648438 111.078125 170.351562 " fill-opacity="1" fill-rule="nonzero"/><path fill="#ab442c" d="M 48.558594 351.933594 C 48.296875 351.804688 57.433594 341.660156 57.46875 340.566406 C 57.886719 327.308594 64.140625 283.171875 76.105469 264.242188 C 78.90625 259.8125 82.328125 255.753906 84.589844 251.019531 C 94.453125 230.355469 81.488281 203.734375 91.289062 167.652344 C 95.078125 153.714844 132.691406 154.636719 131.242188 165.882812 C 129.277344 181.109375 121.847656 233.496094 112.371094 257.34375 C 100.53125 287.121094 80.980469 319.199219 76.210938 349.53125 C 76.210938 349.53125 60.828125 357.992188 48.558594 351.933594 " fill-opacity="1" fill-rule="nonzero"/><path fill="#393e46" d="M 47.355469 351.703125 L 52.632812 343.542969 C 52.917969 343.101562 53.511719 342.980469 53.945312 343.28125 C 56.8125 345.246094 66.996094 351.472656 74.964844 346.847656 C 76.074219 346.207031 77.496094 346.503906 78.210938 347.566406 C 82.464844 353.910156 86.558594 355.914062 92.652344 361.683594 C 96.238281 365.082031 95.082031 369.757812 94.066406 372.960938 Z M 47.355469 351.703125 " fill-opacity="1" fill-rule="nonzero"/><path fill="#eeeeee" d="M 94.070312 372.960938 C 93.652344 374.265625 92.183594 374.910156 90.933594 374.34375 L 48.339844 355.046875 C 47.058594 354.464844 46.59375 352.882812 47.355469 351.703125 L 47.890625 350.875 L 94.375 371.9375 C 94.273438 372.296875 94.171875 372.640625 94.070312 372.960938 " fill-opacity="1" fill-rule="nonzero"/><path fill="#eeeeee" d="M 83.71875 360.675781 C 83.636719 360.675781 83.558594 360.644531 83.5 360.585938 C 83.382812 360.464844 83.386719 360.273438 83.507812 360.15625 L 87.035156 356.730469 C 87.152344 356.617188 87.34375 356.617188 87.460938 356.738281 C 87.578125 356.859375 87.574219 357.050781 87.457031 357.167969 L 83.929688 360.589844 C 83.871094 360.648438 83.792969 360.675781 83.71875 360.675781 Z M 83.71875 360.675781 " fill-opacity="1" fill-rule="nonzero"/><path fill="#eeeeee" d="M 78.644531 356.167969 C 78.566406 356.167969 78.488281 356.136719 78.429688 356.074219 C 78.3125 355.957031 78.316406 355.761719 78.4375 355.648438 L 81.960938 352.222656 C 82.082031 352.105469 82.273438 352.109375 82.390625 352.230469 C 82.507812 352.351562 82.503906 352.542969 82.382812 352.65625 L 78.855469 356.082031 C 78.800781 356.140625 78.722656 356.167969 78.644531 356.167969 Z M 78.644531 356.167969 " fill-opacity="1" fill-rule="nonzero"/><g clip-path="url(#68ea014583)"><path fill="#e3b04a" d="M 89.09375 154.917969 C 77.226562 183.636719 89.582031 236.484375 80.578125 247.382812 C 69.910156 260.300781 61.21875 291.035156 45.105469 344.46875 C 46.703125 345.382812 83.066406 351.054688 84.339844 352.09375 C 85.453125 351.226562 102.339844 282.984375 113.4375 261.234375 C 125.867188 236.867188 135.433594 159.097656 136.695312 157.050781 C 133.535156 156.523438 90.378906 154.789062 89.09375 154.917969 " fill-opacity="1" fill-rule="nonzero"/></g><path fill="#eeeeee" d="M 183.789062 76.53125 C 177.765625 66.320312 151.921875 47.640625 131.222656 53.464844 C 99.457031 62.40625 90.472656 115.558594 87.289062 148.550781 C 86.929688 152.316406 142.144531 192.226562 147.421875 175.15625 C 152.035156 160.238281 165.363281 131 165.363281 131 L 189.765625 136.164062 C 189.765625 136.164062 193.835938 93.566406 183.789062 76.53125 " fill-opacity="1" fill-rule="nonzero"/><path fill="#393e46" d="M 88.140625 157.429688 L 88.804688 147.566406 C 88.804688 147.566406 136.472656 86.855469 136.328125 86.109375 C 136.117188 85.027344 176.417969 98.664062 176.75 100.375 C 177.1875 102.617188 159.234375 152.898438 160.128906 161.589844 C 161.207031 172.050781 181.09375 220.644531 185.65625 246.035156 C 145.328125 246.527344 107.714844 243.046875 106.347656 243.046875 C 108.394531 179.75 88.140625 157.429688 88.140625 157.429688 " fill-opacity="1" fill-rule="nonzero"/><path fill="#ab442c" d="M 172.402344 216.199219 C 167.28125 197.332031 159.140625 164.640625 160.148438 159.804688 C 160.972656 155.859375 178.113281 148.195312 181.148438 159.359375 C 183.183594 166.832031 183.269531 193.773438 184.773438 210.183594 C 181.554688 212.394531 178.332031 214.609375 172.402344 216.199219 " fill-opacity="1" fill-rule="nonzero"/><path fill="#eeeeee" d="M 163.855469 189.324219 C 163.273438 192.382812 168.671875 213.238281 171.207031 222.503906 C 168.066406 225.097656 168.175781 227.808594 167.199219 232.425781 C 166.742188 234.589844 175.089844 245.015625 177.140625 245.949219 C 179.714844 247.121094 182.386719 240.242188 184.117188 234.761719 C 185.863281 229.21875 185.757812 220.769531 186.074219 216.023438 C 186.386719 211.347656 188.0625 186.007812 187.363281 184.601562 C 186.449219 182.75 164.375 186.585938 163.855469 189.324219 " fill-opacity="1" fill-rule="nonzero"/><path fill="#3d251c" d="M 262.09375 344.777344 C 261.417969 344.777344 260.75 344.496094 260.269531 343.949219 L 83.789062 142.226562 C 82.910156 141.21875 83.011719 139.691406 84.019531 138.808594 C 85.023438 137.929688 86.554688 138.03125 87.433594 139.039062 L 263.914062 340.761719 C 264.796875 341.765625 264.695312 343.296875 263.6875 344.175781 C 263.226562 344.578125 262.660156 344.777344 262.09375 344.777344 Z M 262.09375 344.777344 " fill-opacity="1" fill-rule="nonzero"/><path fill="#3d251c" d="M 162.789062 46.574219 C 159.875 39.371094 160.488281 28.386719 164.652344 21.347656 C 168.945312 14.09375 172.808594 10.816406 180.921875 11.476562 C 189.03125 12.132812 202.226562 18.367188 205.632812 25.8125 C 209.914062 35.160156 200.085938 51.902344 190.582031 54.578125 C 172.765625 59.597656 164.800781 51.550781 162.789062 46.574219 " fill-opacity="1" fill-rule="nonzero"/><path fill="#ab442c" d="M 125.121094 75.871094 L 92.925781 113.386719 L 114.933594 162.136719 L 98.757812 166.054688 C 98.757812 166.054688 62.621094 122.800781 66.378906 108.242188 C 68.449219 100.210938 106.09375 62.34375 106.09375 62.34375 Z M 125.121094 75.871094 " fill-opacity="1" fill-rule="nonzero"/><path fill="#eeeeee" d="M 103.078125 136.171875 C 105.3125 136.597656 112.308594 150.222656 117.074219 158.371094 C 121.523438 165.988281 131.871094 183.070312 136.101562 192.148438 C 137.140625 194.378906 134.371094 195.492188 132.769531 193.082031 C 130.453125 189.605469 125.699219 183.78125 125.035156 182.046875 C 124.660156 182.824219 124.167969 186.230469 121.839844 187.054688 C 119.503906 187.882812 118.082031 186.726562 117.980469 186.78125 C 115.914062 187.96875 114.183594 186.117188 113.867188 186.234375 C 112.101562 186.875 109.421875 185.878906 108.113281 182.863281 C 107.152344 180.648438 104.242188 172.472656 102.777344 171.09375 C 99.191406 167.71875 82.664062 154.160156 82.601562 152.085938 C 82.496094 148.507812 101.207031 135.816406 103.078125 136.171875 " fill-opacity="1" fill-rule="nonzero"/><path fill="#3d251c" d="M 117.949219 186.421875 C 117.785156 186.421875 117.648438 186.289062 117.644531 186.125 L 117.558594 181.914062 C 117.554688 181.746094 117.6875 181.605469 117.855469 181.605469 C 118.03125 181.617188 118.160156 181.734375 118.164062 181.898438 L 118.25 186.113281 C 118.253906 186.277344 118.121094 186.417969 117.953125 186.421875 C 117.953125 186.421875 117.949219 186.421875 117.949219 186.421875 Z M 117.949219 186.421875 " fill-opacity="1" fill-rule="nonzero"/><path fill="#3d251c" d="M 113.921875 185.839844 C 113.777344 185.839844 113.652344 185.738281 113.625 185.59375 L 112.917969 181.886719 C 112.886719 181.722656 112.996094 181.5625 113.160156 181.53125 C 113.324219 181.503906 113.480469 181.609375 113.511719 181.773438 L 114.21875 185.476562 C 114.25 185.640625 114.144531 185.800781 113.980469 185.832031 C 113.960938 185.835938 113.941406 185.839844 113.921875 185.839844 Z M 113.921875 185.839844 " fill-opacity="1" fill-rule="nonzero"/><path fill="#eeeeee" d="M 107.6875 106.011719 C 107.6875 106.011719 88.894531 87.988281 81.664062 78.652344 C 95.597656 66.484375 106.367188 57.859375 127.042969 52.363281 C 139.308594 49.105469 153.46875 53.027344 160.0625 57.511719 C 142.238281 73.070312 107.6875 106.011719 107.6875 106.011719 " fill-opacity="1" fill-rule="nonzero"/><path fill="#ab442c" d="M 178.570312 54.335938 C 177.863281 55.871094 169.71875 68.753906 166.875 77.207031 C 165.875 76.675781 156.085938 64.546875 152.027344 57.667969 C 158.371094 51.789062 162.917969 46.972656 165.792969 38.164062 C 165.988281 39.589844 173.476562 49.957031 178.570312 54.335938 " fill-opacity="1" fill-rule="nonzero"/><path fill="#ab442c" d="M 197.035156 50.964844 C 199.417969 45.792969 203.949219 40.953125 202.699219 33.949219 C 200.386719 20.96875 184.335938 14.882812 175.578125 21.558594 C 170.121094 25.714844 164.789062 35.535156 165.378906 43.796875 C 165.914062 51.296875 173.867188 63.753906 180.921875 64.367188 C 185.929688 64.800781 192.738281 60.300781 197.035156 50.964844 " fill-opacity="1" fill-rule="nonzero"/><path fill="#3d251c" d="M 185.257812 38.183594 C 185.945312 38.691406 185.574219 39.859375 185.199219 40.511719 C 184.925781 40.988281 184.226562 41.933594 183.328125 41.511719 C 182.640625 41.1875 182.628906 40.230469 183.378906 39.042969 C 184.140625 37.835938 184.984375 37.984375 185.257812 38.183594 " fill-opacity="1" fill-rule="nonzero"/><path fill="#3d251c" d="M 183.78125 41.917969 C 183.585938 41.917969 183.390625 41.875 183.199219 41.785156 C 182.882812 41.636719 182.667969 41.378906 182.570312 41.046875 C 182.402344 40.476562 182.601562 39.707031 183.125 38.878906 C 183.75 37.894531 184.429688 37.746094 184.78125 37.746094 C 185.03125 37.746094 185.265625 37.816406 185.433594 37.941406 C 186.320312 38.589844 185.867188 39.957031 185.464844 40.664062 C 185.246094 41.039062 184.644531 41.917969 183.78125 41.917969 Z M 184.78125 38.351562 C 184.554688 38.351562 184.105469 38.464844 183.636719 39.203125 C 183.210938 39.871094 183.035156 40.484375 183.152344 40.878906 C 183.199219 41.046875 183.300781 41.164062 183.457031 41.234375 C 183.566406 41.289062 183.675781 41.3125 183.78125 41.3125 C 184.34375 41.3125 184.808594 40.585938 184.9375 40.359375 C 185.269531 39.785156 185.578125 38.796875 185.078125 38.429688 C 185.03125 38.394531 184.921875 38.351562 184.78125 38.351562 Z M 184.78125 38.351562 " fill-opacity="1" fill-rule="nonzero"/><path fill="#ab442c" d="M 186.90625 40.597656 C 185.195312 40.4375 182.410156 38.6875 181.203125 37.394531 C 181.203125 37.394531 183.429688 35.964844 185.65625 37.34375 C 187.625 38.5625 186.90625 40.597656 186.90625 40.597656 " fill-opacity="1" fill-rule="nonzero"/><path fill="#3d251c" d="M 186.90625 40.898438 C 186.898438 40.898438 186.886719 40.898438 186.878906 40.898438 C 185.140625 40.738281 182.28125 38.992188 180.980469 37.597656 C 180.867188 37.476562 180.875 37.285156 180.996094 37.171875 C 181.121094 37.058594 181.3125 37.0625 181.425781 37.1875 C 182.625 38.476562 185.351562 40.148438 186.933594 40.292969 C 187.101562 40.308594 187.222656 40.457031 187.207031 40.625 C 187.191406 40.78125 187.058594 40.898438 186.90625 40.898438 Z M 186.90625 40.898438 " fill-opacity="1" fill-rule="nonzero"/><path fill="#3d251c" d="M 182.011719 34.105469 C 181.675781 34.128906 181.625 34.578125 181.9375 34.710938 C 185.875 36.40625 188.234375 38.902344 188.730469 39.0625 C 189.132812 39.195312 189.6875 37.738281 189.300781 37.316406 C 186.757812 34.558594 183.875 33.980469 182.011719 34.105469 " fill-opacity="1" fill-rule="nonzero"/><path fill="#3d251c" d="M 195.632812 44.035156 C 194.84375 43.703125 194.03125 44.628906 193.671875 45.285156 C 193.40625 45.769531 192.957031 46.855469 193.785156 47.40625 C 194.417969 47.824219 195.242188 47.339844 195.871094 46.082031 C 196.507812 44.804688 195.945312 44.164062 195.632812 44.035156 " fill-opacity="1" fill-rule="nonzero"/><path fill="#3d251c" d="M 194.261719 47.855469 C 194.035156 47.855469 193.816406 47.789062 193.617188 47.65625 C 192.886719 47.171875 192.804688 46.230469 193.40625 45.140625 C 193.78125 44.457031 194.5 43.660156 195.292969 43.660156 C 195.449219 43.660156 195.601562 43.691406 195.75 43.753906 C 196.015625 43.863281 196.246094 44.121094 196.367188 44.445312 C 196.496094 44.789062 196.558594 45.378906 196.140625 46.214844 C 195.621094 47.257812 194.9375 47.855469 194.261719 47.855469 Z M 195.292969 44.265625 C 194.800781 44.265625 194.246094 44.871094 193.9375 45.433594 C 193.730469 45.808594 193.316406 46.730469 193.953125 47.152344 C 194.441406 47.476562 195.09375 46.957031 195.597656 45.945312 C 195.921875 45.304688 195.886719 44.890625 195.796875 44.65625 C 195.71875 44.445312 195.578125 44.339844 195.515625 44.3125 C 195.441406 44.28125 195.371094 44.265625 195.292969 44.265625 Z M 195.292969 44.265625 " fill-opacity="1" fill-rule="nonzero"/><path fill="#ab442c" d="M 192.714844 43.871094 C 193.734375 45.25 196.675781 46.726562 198.40625 47.089844 C 198.40625 47.089844 198.480469 44.445312 196.144531 43.253906 C 194.082031 42.199219 192.714844 43.871094 192.714844 43.871094 " fill-opacity="1" fill-rule="nonzero"/><path fill="#3d251c" d="M 198.40625 47.390625 C 198.386719 47.390625 198.367188 47.390625 198.34375 47.382812 C 196.480469 46.996094 193.511719 45.453125 192.472656 44.050781 C 192.371094 43.914062 192.402344 43.726562 192.535156 43.625 C 192.667969 43.527344 192.859375 43.554688 192.957031 43.691406 C 193.902344 44.96875 196.746094 46.433594 198.46875 46.792969 C 198.632812 46.828125 198.738281 46.988281 198.703125 47.152344 C 198.675781 47.292969 198.546875 47.390625 198.40625 47.390625 Z M 198.40625 47.390625 " fill-opacity="1" fill-rule="nonzero"/><path fill="#3d251c" d="M 200.800781 44.699219 C 200.953125 44.996094 200.597656 45.269531 200.320312 45.070312 C 196.832031 42.582031 193.476562 41.855469 193.082031 41.511719 C 192.761719 41.238281 193.71875 40.011719 194.28125 40.125 C 197.957031 40.871094 199.945312 43.035156 200.800781 44.699219 " fill-opacity="1" fill-rule="nonzero"/><path fill="#3d251c" d="M 188.644531 51.988281 C 187.730469 51.988281 186.933594 51.871094 186.75 51.839844 C 186.585938 51.8125 186.472656 51.660156 186.5 51.492188 C 186.527344 51.328125 186.679688 51.21875 186.847656 51.242188 C 188.261719 51.464844 190.671875 51.503906 191.117188 50.648438 C 191.464844 49.972656 191.246094 48.140625 191.011719 46.203125 C 190.886719 45.152344 190.753906 44.070312 190.683594 42.992188 C 190.671875 42.824219 190.800781 42.679688 190.96875 42.671875 C 191.136719 42.667969 191.277344 42.785156 191.289062 42.953125 C 191.359375 44.015625 191.488281 45.089844 191.613281 46.128906 C 191.878906 48.339844 192.089844 50.085938 191.65625 50.925781 C 191.207031 51.789062 189.828125 51.988281 188.644531 51.988281 Z M 188.644531 51.988281 " fill-opacity="1" fill-rule="nonzero"/><path fill="#3d251c" d="M 187.265625 56.589844 C 187.25 56.589844 187.234375 56.589844 187.214844 56.585938 C 183.972656 56.058594 181.105469 53.871094 179.730469 50.886719 C 179.660156 50.734375 179.726562 50.554688 179.878906 50.484375 C 180.03125 50.414062 180.210938 50.480469 180.277344 50.632812 C 181.570312 53.4375 184.265625 55.492188 187.3125 55.988281 C 187.476562 56.015625 187.589844 56.171875 187.5625 56.335938 C 187.539062 56.484375 187.410156 56.589844 187.265625 56.589844 Z M 187.265625 56.589844 " fill-opacity="1" fill-rule="nonzero"/><path fill="#eeeeee" d="M 174.253906 224.414062 C 170.671875 227.597656 173.28125 233.6875 177.15625 237.261719 C 176.503906 242.355469 177.265625 247.980469 179.390625 247.917969 C 182.507812 247.824219 183.984375 234.652344 181.308594 222.941406 C 180.875 221.046875 176.441406 222.46875 174.253906 224.414062 " fill-opacity="1" fill-rule="nonzero"/><path fill="#3d251c" d="M 175.566406 244.550781 C 175.414062 244.550781 175.28125 244.433594 175.265625 244.28125 C 175.1875 243.589844 175.207031 242.929688 175.226562 242.230469 C 175.277344 240.542969 175.339844 238.632812 174.039062 235.433594 C 173.089844 233.109375 173.136719 227.628906 174.117188 225.324219 C 174.183594 225.171875 174.363281 225.097656 174.515625 225.164062 C 174.667969 225.230469 174.742188 225.40625 174.675781 225.5625 C 173.757812 227.714844 173.714844 233.03125 174.597656 235.203125 C 175.949219 238.519531 175.886719 240.5 175.832031 242.246094 C 175.8125 242.925781 175.792969 243.5625 175.867188 244.210938 C 175.886719 244.378906 175.765625 244.527344 175.601562 244.546875 C 175.589844 244.546875 175.578125 244.550781 175.566406 244.550781 Z M 175.566406 244.550781 " fill-opacity="1" fill-rule="nonzero"/><path fill="#e3b04a" d="M 259.332031 346.132812 L 247.710938 332.851562 C 246.078125 330.984375 246.265625 328.140625 248.136719 326.507812 L 248.886719 325.851562 C 250.753906 324.214844 253.597656 324.40625 255.230469 326.273438 L 266.847656 339.554688 C 268.484375 341.421875 268.292969 344.261719 266.425781 345.898438 L 265.675781 346.554688 C 263.804688 348.191406 260.964844 348 259.332031 346.132812 " fill-opacity="1" fill-rule="nonzero"/><path fill="#eeeeee" d="M 256.167969 370.011719 C 256.167969 370.011719 245.476562 350.734375 253.453125 340.300781 C 259.859375 331.910156 274.09375 333.242188 280.855469 341.335938 C 294.589844 357.789062 287.488281 355.910156 313.5625 357.390625 C 328.3125 358.226562 329.917969 370.011719 329.917969 370.011719 Z M 256.167969 370.011719 " fill-opacity="1" fill-rule="nonzero"/><path fill="#393e46" d="M 135.207031 87.773438 C 139.441406 76.441406 140.179688 62.816406 136.910156 51.164062 C 136.9375 51.070312 141.707031 51.390625 141.746094 51.441406 C 145.074219 63.300781 144.714844 76.570312 140.125 88.859375 C 139.789062 88.679688 135.824219 88.078125 135.207031 87.773438 " fill-opacity="1" fill-rule="nonzero"/><path fill="#393e46" d="M 170.683594 102.105469 C 175.886719 91.183594 177.472656 79.085938 175.226562 67.191406 C 175.25 67.136719 176.949219 68.554688 178.296875 69.835938 C 179.175781 70.671875 179.90625 71.554688 179.921875 71.578125 C 182.203125 83.683594 180.453125 90.3125 175.960938 103.878906 C 175.640625 103.671875 171.273438 102.460938 170.683594 102.105469 " fill-opacity="1" fill-rule="nonzero"/><path fill="#3d251c" d="M 107.921875 104.46875 C 107.863281 104.46875 107.804688 104.449219 107.753906 104.414062 C 107.613281 104.320312 107.578125 104.132812 107.671875 103.992188 C 112.640625 96.71875 118.574219 90.148438 125.304688 84.46875 C 125.433594 84.359375 125.625 84.378906 125.734375 84.503906 C 125.839844 84.632812 125.824219 84.824219 125.695312 84.933594 C 119.007812 90.578125 113.109375 97.105469 108.171875 104.335938 C 108.113281 104.421875 108.019531 104.46875 107.921875 104.46875 Z M 107.921875 104.46875 " fill-opacity="1" fill-rule="nonzero"/><path fill="#eeeeee" d="M 177.46875 246.300781 C 176.96875 247.375 175.542969 247.898438 174.425781 247.417969 C 173.304688 246.9375 172.863281 245.3125 173.089844 244.417969 C 172.398438 244.675781 171.441406 244.777344 170.621094 244.214844 C 169.804688 243.652344 169.175781 242.625 169.320312 241.832031 C 168.820312 241.992188 168.050781 241.964844 167.472656 241.550781 C 166.898438 241.136719 166.433594 240.257812 166.417969 239.75 C 165.929688 239.769531 164.96875 239.402344 164.59375 238.796875 C 163.53125 237.089844 163.144531 231.300781 164.8125 231.15625 C 165.914062 231.058594 167.074219 232.683594 167.769531 235.453125 C 168.269531 234.324219 169.214844 233.171875 170.519531 233.472656 C 172.128906 233.839844 171.636719 236.445312 171.710938 236.675781 C 171.863281 236.472656 172.382812 235.3125 173.402344 235.3125 C 175.234375 235.3125 174.925781 237.828125 174.925781 238.617188 C 175.199219 238.054688 176.535156 236.546875 177.628906 237.171875 C 179.582031 238.292969 179.339844 242.273438 177.46875 246.300781 " fill-opacity="1" fill-rule="nonzero"/><path fill="#3d251c" d="M 178.171875 244.402344 C 178.15625 244.402344 178.140625 244.398438 178.125 244.398438 C 177.960938 244.375 177.847656 244.21875 177.871094 244.054688 C 178.226562 241.710938 178.304688 239.882812 178.304688 239.375 C 178.304688 238.304688 177.921875 237.601562 177.28125 237.492188 C 176.59375 237.371094 175.613281 237.964844 175.144531 239.296875 C 174.511719 241.082031 173.703125 243.960938 173.695312 243.992188 C 173.648438 244.152344 173.480469 244.246094 173.320312 244.199219 C 173.160156 244.15625 173.066406 243.988281 173.109375 243.828125 C 173.117188 243.796875 173.933594 240.898438 174.574219 239.09375 C 175.160156 237.433594 176.433594 236.730469 177.382812 236.894531 C 178.335938 237.058594 178.90625 237.984375 178.90625 239.375 C 178.90625 239.894531 178.828125 241.765625 178.46875 244.144531 C 178.449219 244.292969 178.320312 244.402344 178.171875 244.402344 Z M 178.171875 244.402344 " fill-opacity="1" fill-rule="nonzero"/><path fill="#3d251c" d="M 169.671875 241.773438 C 169.636719 241.773438 169.601562 241.765625 169.566406 241.753906 C 169.410156 241.691406 169.332031 241.519531 169.390625 241.363281 C 169.519531 241.03125 169.648438 240.6875 169.777344 240.339844 C 170.625 238.070312 171.503906 235.726562 172.785156 235.144531 C 173.167969 234.972656 173.5625 234.964844 173.960938 235.113281 C 175.75 235.792969 175.179688 239.105469 175.15625 239.246094 C 175.128906 239.410156 174.96875 239.523438 174.804688 239.492188 C 174.640625 239.460938 174.53125 239.304688 174.5625 239.140625 C 174.707031 238.320312 174.84375 236.097656 173.746094 235.679688 C 173.5 235.585938 173.265625 235.59375 173.035156 235.699219 C 171.984375 236.175781 171.113281 238.5 170.34375 240.550781 C 170.214844 240.902344 170.085938 241.246094 169.957031 241.578125 C 169.910156 241.699219 169.792969 241.773438 169.671875 241.773438 Z M 169.671875 241.773438 " fill-opacity="1" fill-rule="nonzero"/><path fill="#3d251c" d="M 166.472656 238.921875 C 166.433594 238.921875 166.390625 238.914062 166.355469 238.894531 C 166.199219 238.832031 166.128906 238.652344 166.195312 238.5 C 166.238281 238.390625 167.320312 235.867188 168.292969 234.328125 C 168.949219 233.292969 169.933594 232.90625 170.804688 233.347656 C 171.816406 233.859375 172.4375 235.410156 171.667969 237.378906 C 171.605469 237.53125 171.429688 237.609375 171.277344 237.550781 C 171.121094 237.488281 171.042969 237.3125 171.105469 237.15625 C 171.738281 235.542969 171.28125 234.265625 170.53125 233.886719 C 169.949219 233.59375 169.289062 233.882812 168.804688 234.648438 C 167.859375 236.148438 166.761719 238.710938 166.75 238.734375 C 166.703125 238.851562 166.589844 238.921875 166.472656 238.921875 Z M 166.472656 238.921875 " fill-opacity="1" fill-rule="nonzero"/><path fill="#3d251c" d="M 272.640625 369.84375 C 272.546875 369.84375 272.453125 369.800781 272.394531 369.71875 C 268.945312 364.972656 265.195312 359.40625 265.15625 359.351562 C 265.0625 359.210938 265.097656 359.023438 265.238281 358.929688 C 265.375 358.839844 265.566406 358.875 265.65625 359.011719 C 265.695312 359.070312 269.441406 364.625 272.886719 369.363281 C 272.984375 369.5 272.953125 369.6875 272.820312 369.785156 C 272.765625 369.824219 272.703125 369.84375 272.640625 369.84375 Z M 272.640625 369.84375 " fill-opacity="1" fill-rule="nonzero"/><path fill="#3d251c" d="M 292.054688 369.84375 C 292.007812 369.84375 291.960938 369.832031 291.917969 369.8125 C 284.339844 366.015625 278.949219 358.808594 278.894531 358.734375 C 278.796875 358.601562 278.824219 358.410156 278.960938 358.3125 C 279.09375 358.210938 279.285156 358.242188 279.382812 358.375 C 279.433594 358.445312 284.746094 365.539062 292.191406 369.269531 C 292.339844 369.34375 292.398438 369.527344 292.324219 369.675781 C 292.269531 369.78125 292.164062 369.84375 292.054688 369.84375 Z M 292.054688 369.84375 " fill-opacity="1" fill-rule="nonzero"/><path fill="#3d251c" d="M 168.277344 26.917969 C 171.820312 28.90625 174.484375 32.277344 173.460938 36.210938 C 173.109375 37.570312 175.898438 38.578125 176.300781 37.707031 C 177.449219 35.234375 179.066406 25.203125 184.542969 24.078125 C 189.867188 22.984375 201.355469 31.117188 203.410156 36.296875 C 207.945312 28.117188 192.378906 12.101562 179.78125 15.625 C 174.722656 17.042969 170.992188 21.328125 168.277344 26.917969 " fill-opacity="1" fill-rule="nonzero"/><path fill="#ab442c" d="M 173.6875 35.339844 C 174.222656 32.511719 172.789062 27.15625 168.539062 27.386719 C 167.074219 27.464844 165.742188 28.40625 164.96875 29.652344 C 163.804688 31.53125 162.71875 40.351562 168.167969 41.527344 C 170.078125 41.941406 173.058594 38.644531 173.6875 35.339844 " fill-opacity="1" fill-rule="nonzero"/><path fill="#3d251c" d="M 171.261719 37.257812 C 171.21875 37.257812 171.179688 37.25 171.136719 37.230469 C 170.984375 37.160156 170.917969 36.976562 170.988281 36.828125 C 171.988281 34.675781 171.011719 31.40625 169.058594 30.347656 C 168.914062 30.265625 168.859375 30.082031 168.9375 29.9375 C 169.019531 29.789062 169.203125 29.734375 169.347656 29.8125 C 171.589844 31.027344 172.675781 34.628906 171.539062 37.082031 C 171.488281 37.191406 171.378906 37.257812 171.261719 37.257812 Z M 171.261719 37.257812 " fill-opacity="1" fill-rule="nonzero"/><path fill="#3d251c" d="M 127.882812 153.015625 C 127.867188 153.015625 127.855469 153.011719 127.839844 153.011719 C 127.675781 152.988281 127.558594 152.835938 127.585938 152.667969 C 129.3125 140.738281 131.472656 130.351562 134.191406 120.917969 C 134.238281 120.757812 134.402344 120.664062 134.566406 120.710938 C 134.726562 120.757812 134.820312 120.925781 134.773438 121.085938 C 132.0625 130.492188 129.90625 140.851562 128.183594 152.753906 C 128.160156 152.90625 128.03125 153.015625 127.882812 153.015625 Z M 127.882812 153.015625 " fill-opacity="1" fill-rule="nonzero"/></svg>