<svg xmlns="http://www.w3.org/2000/svg" fill="#2A2A27" fill-opacity='0.8' viewBox="0 0 48 48" width="500px" height="500px"><path d="M 24 4 C 12.972066 4 4 12.972074 4 24 C 4 35.027926 12.972066 44 24 44 C 35.027934 44 44 35.027926 44 24 C 44 12.972074 35.027934 4 24 4 z M 24 7 C 28.159946 7 31.91445 8.5434723 34.865234 11.013672 L 11.013672 34.863281 C 8.544055 31.912656 7 28.1594 7 24 C 7 14.593391 14.593385 7 24 7 z M 36.986328 13.134766 C 39.456525 16.085553 41 19.840056 41 24 C 41 33.406609 33.406615 41 24 41 C 19.840597 41 16.087341 39.455948 13.136719 36.986328 L 36.986328 13.134766 z"/></svg>