<svg width="500" height="500" viewBox="0 0 500 500" fill="none" xmlns="http://www.w3.org/2000/svg">
<path d="M156 456.519H344.5" stroke="#E3B04A" stroke-width="25" stroke-linecap="round"/>
<path d="M164.095 40.2278L127.146 243.228C126.029 249.367 130.745 255.019 136.984 255.019H250.5H363.917C370.189 255.019 374.913 249.31 373.74 243.148L335.092 40.1483C334.194 35.4314 330.071 32.0186 325.269 32.0186H173.933C169.101 32.0186 164.96 35.4738 164.095 40.2278Z" fill="#E3B04A" stroke="#E3B04A" stroke-width="20"/>
<path d="M168 218H331.012" stroke="#F1D7AC" stroke-width="23" stroke-linecap="round"/>
<path d="M187 176H249.5H312" stroke="#F1D7AC" stroke-width="23" stroke-linecap="round"/>
<path d="M250 371.019V467.982" stroke="#E3B04A" stroke-width="25"/>
<path d="M102.092 358.017L117.198 310.015C119.819 301.685 127.543 296.019 136.275 296.019H362.57C371.177 296.019 378.818 301.525 381.542 309.69L397.609 357.854C399.769 364.33 394.949 371.019 388.122 371.019H111.63C104.876 371.019 100.064 364.46 102.092 358.017Z" fill="#2A2A27" stroke="#2A2A27" stroke-width="20"/>
</svg>
