<svg width="923" height="190" viewBox="0 0 923 190" fill="none" xmlns="http://www.w3.org/2000/svg">
<g filter="url(#filter0_d_80_29)">
<rect x="24" y="1" width="889" height="181" fill="#F5D562"/>
</g>
<path d="M297.36 81.2727V58.5455H298.816V81.2727H297.36ZM301.914 65.5945C301.819 64.754 301.429 64.103 300.742 63.6413C300.056 63.1738 299.192 62.94 298.15 62.94C297.404 62.94 296.759 63.0584 296.214 63.2951C295.67 63.5259 295.247 63.8455 294.945 64.2539C294.649 64.6564 294.501 65.1151 294.501 65.63C294.501 66.062 294.602 66.4349 294.803 66.7486C295.01 67.0623 295.279 67.3256 295.611 67.5387C295.948 67.7459 296.309 67.9205 296.694 68.0625C297.079 68.1986 297.449 68.3111 297.804 68.3999L299.579 68.8615C300.159 69.0036 300.754 69.1959 301.364 69.4386C301.973 69.6812 302.538 70.0008 303.059 70.3974C303.58 70.7939 304 71.2852 304.32 71.8711C304.645 72.457 304.808 73.1584 304.808 73.9751C304.808 75.005 304.542 75.9194 304.009 76.7184C303.482 77.5174 302.716 78.1477 301.71 78.6094C300.71 79.071 299.499 79.3018 298.079 79.3018C296.718 79.3018 295.54 79.0858 294.545 78.6538C293.551 78.2217 292.773 77.6091 292.211 76.8161C291.648 76.017 291.338 75.0701 291.278 73.9751H294.031C294.084 74.6321 294.297 75.1796 294.67 75.6175C295.049 76.0496 295.531 76.3722 296.117 76.5852C296.709 76.7924 297.357 76.896 298.061 76.896C298.836 76.896 299.526 76.7746 300.13 76.532C300.739 76.2834 301.219 75.9401 301.568 75.5021C301.917 75.0582 302.092 74.5404 302.092 73.9485C302.092 73.4099 301.938 72.969 301.63 72.6257C301.328 72.2824 300.917 71.9983 300.396 71.7734C299.881 71.5485 299.298 71.3503 298.647 71.1786L296.499 70.5927C295.043 70.1961 293.888 69.6132 293.036 68.8438C292.19 68.0743 291.767 67.0563 291.767 65.7898C291.767 64.7422 292.051 63.8278 292.619 63.0465C293.187 62.2653 293.957 61.6586 294.927 61.2266C295.898 60.7886 296.993 60.5696 298.212 60.5696C299.443 60.5696 300.529 60.7856 301.47 61.2177C302.417 61.6497 303.163 62.2446 303.707 63.0021C304.252 63.7538 304.536 64.6179 304.56 65.5945H301.914ZM313.884 60.5696C314.694 60.5755 315.493 60.7235 316.281 61.0135C317.068 61.3035 317.778 61.777 318.411 62.4339C319.051 63.0909 319.56 63.9787 319.938 65.0973C320.323 66.21 320.518 67.5949 320.524 69.2521C320.524 70.8442 320.364 72.2617 320.045 73.5046C319.725 74.7416 319.267 75.7862 318.669 76.6385C318.077 77.4908 317.358 78.1388 316.511 78.5827C315.665 79.0266 314.712 79.2486 313.653 79.2486C312.57 79.2486 311.608 79.0355 310.767 78.6094C309.927 78.1832 309.243 77.5943 308.717 76.8427C308.19 76.0851 307.861 75.2151 307.731 74.2326H310.439C310.617 75.0138 310.978 75.6471 311.522 76.1325C312.073 76.6119 312.783 76.8516 313.653 76.8516C314.984 76.8516 316.023 76.2715 316.769 75.1115C317.515 73.9455 317.89 72.3179 317.896 70.2287H317.754C317.447 70.7377 317.062 71.1757 316.6 71.5426C316.145 71.9096 315.633 72.1937 315.064 72.3949C314.496 72.5961 313.89 72.6967 313.244 72.6967C312.197 72.6967 311.244 72.4393 310.386 71.9244C309.528 71.4094 308.844 70.7022 308.335 69.8026C307.826 68.9029 307.571 67.8761 307.571 66.7219C307.571 65.5737 307.832 64.5321 308.353 63.5969C308.879 62.6618 309.613 61.922 310.554 61.3775C311.501 60.8271 312.611 60.5578 313.884 60.5696ZM313.892 62.8778C313.2 62.8778 312.576 63.0495 312.019 63.3928C311.469 63.7301 311.034 64.1888 310.714 64.7688C310.395 65.3429 310.235 65.9821 310.235 66.6864C310.235 67.3907 310.389 68.0299 310.696 68.604C311.01 69.1722 311.436 69.625 311.975 69.9624C312.519 70.2938 313.141 70.4595 313.839 70.4595C314.36 70.4595 314.845 70.3589 315.295 70.1577C315.745 69.9564 316.139 69.6783 316.476 69.3232C316.813 68.9621 317.077 68.5537 317.266 68.098C317.455 67.6423 317.55 67.1629 317.55 66.6598C317.55 65.991 317.39 65.3696 317.071 64.7955C316.757 64.2214 316.325 63.7597 315.775 63.4105C315.224 63.0554 314.597 62.8778 313.892 62.8778ZM329.777 60.5696C330.588 60.5755 331.387 60.7235 332.174 61.0135C332.961 61.3035 333.672 61.777 334.305 62.4339C334.944 63.0909 335.453 63.9787 335.832 65.0973C336.217 66.21 336.412 67.5949 336.418 69.2521C336.418 70.8442 336.258 72.2617 335.938 73.5046C335.619 74.7416 335.16 75.7862 334.562 76.6385C333.97 77.4908 333.251 78.1388 332.405 78.5827C331.559 79.0266 330.606 79.2486 329.546 79.2486C328.463 79.2486 327.501 79.0355 326.661 78.6094C325.821 78.1832 325.137 77.5943 324.61 76.8427C324.084 76.0851 323.755 75.2151 323.625 74.2326H326.333C326.51 75.0138 326.871 75.6471 327.416 76.1325C327.966 76.6119 328.676 76.8516 329.546 76.8516C330.878 76.8516 331.917 76.2715 332.662 75.1115C333.408 73.9455 333.784 72.3179 333.79 70.2287H333.648C333.34 70.7377 332.955 71.1757 332.494 71.5426C332.038 71.9096 331.526 72.1937 330.958 72.3949C330.39 72.5961 329.783 72.6967 329.138 72.6967C328.09 72.6967 327.137 72.4393 326.279 71.9244C325.421 71.4094 324.738 70.7022 324.229 69.8026C323.72 68.9029 323.465 67.8761 323.465 66.7219C323.465 65.5737 323.725 64.5321 324.246 63.5969C324.773 62.6618 325.507 61.922 326.448 61.3775C327.395 60.8271 328.505 60.5578 329.777 60.5696ZM329.786 62.8778C329.094 62.8778 328.469 63.0495 327.913 63.3928C327.362 63.7301 326.927 64.1888 326.608 64.7688C326.288 65.3429 326.128 65.9821 326.128 66.6864C326.128 67.3907 326.282 68.0299 326.59 68.604C326.904 69.1722 327.33 69.625 327.868 69.9624C328.413 70.2938 329.034 70.4595 329.733 70.4595C330.254 70.4595 330.739 70.3589 331.189 70.1577C331.639 69.9564 332.032 69.6783 332.369 69.3232C332.707 68.9621 332.97 68.5537 333.16 68.098C333.349 67.6423 333.444 67.1629 333.444 66.6598C333.444 65.991 333.284 65.3696 332.964 64.7955C332.651 64.2214 332.219 63.7597 331.668 63.4105C331.118 63.0554 330.49 62.8778 329.786 62.8778ZM352.766 65.3636V67.4943H345.06V65.3636H352.766ZM347.173 79V63.7834C347.173 62.9311 347.36 62.2238 347.733 61.6616C348.105 61.0934 348.6 60.6702 349.215 60.392C349.831 60.108 350.5 59.9659 351.222 59.9659C351.754 59.9659 352.21 60.0103 352.589 60.0991C352.968 60.1819 353.249 60.2589 353.432 60.3299L352.811 62.4783C352.686 62.4428 352.527 62.4014 352.331 62.354C352.136 62.3008 351.899 62.2741 351.621 62.2741C350.976 62.2741 350.514 62.4339 350.236 62.7536C349.964 63.0732 349.828 63.5348 349.828 64.1385V79H347.173ZM360.712 79.2752C359.434 79.2752 358.318 78.9822 357.365 78.3963C356.412 77.8104 355.672 76.9906 355.146 75.9371C354.619 74.8836 354.355 73.6526 354.355 72.244C354.355 70.8294 354.619 69.5924 355.146 68.533C355.672 67.4736 356.412 66.6509 357.365 66.065C358.318 65.479 359.434 65.1861 360.712 65.1861C361.99 65.1861 363.106 65.479 364.059 66.065C365.012 66.6509 365.752 67.4736 366.278 68.533C366.805 69.5924 367.069 70.8294 367.069 72.244C367.069 73.6526 366.805 74.8836 366.278 75.9371C365.752 76.9906 365.012 77.8104 364.059 78.3963C363.106 78.9822 361.99 79.2752 360.712 79.2752ZM360.721 77.0469C361.549 77.0469 362.236 76.8279 362.781 76.3899C363.325 75.9519 363.728 75.369 363.988 74.641C364.254 73.913 364.387 73.111 364.387 72.2351C364.387 71.3651 364.254 70.5661 363.988 69.8381C363.728 69.1042 363.325 68.5153 362.781 68.0714C362.236 67.6275 361.549 67.4055 360.721 67.4055C359.886 67.4055 359.194 67.6275 358.643 68.0714C358.099 68.5153 357.694 69.1042 357.427 69.8381C357.167 70.5661 357.037 71.3651 357.037 72.2351C357.037 73.111 357.167 73.913 357.427 74.641C357.694 75.369 358.099 75.9519 358.643 76.3899C359.194 76.8279 359.886 77.0469 360.721 77.0469ZM370.032 79V65.3636H372.597V67.5298H372.739C372.988 66.7959 373.426 66.2189 374.053 65.7987C374.686 65.3725 375.403 65.1594 376.202 65.1594C376.367 65.1594 376.563 65.1654 376.788 65.1772C377.018 65.189 377.199 65.2038 377.329 65.2216V67.7607C377.223 67.7311 377.033 67.6985 376.761 67.663C376.489 67.6216 376.216 67.6009 375.944 67.6009C375.317 67.6009 374.757 67.734 374.266 68.0004C373.781 68.2608 373.396 68.6248 373.112 69.0923C372.828 69.554 372.686 70.0807 372.686 70.6726V79H370.032ZM392.537 79.2486C391.318 79.2486 390.229 79.0385 389.27 78.6183C388.317 78.198 387.562 77.6151 387.006 76.8693C386.456 76.1177 386.16 75.2476 386.118 74.2592H388.906C388.941 74.7978 389.122 75.2654 389.447 75.6619C389.779 76.0526 390.211 76.3544 390.744 76.5675C391.276 76.7805 391.868 76.8871 392.519 76.8871C393.235 76.8871 393.869 76.7628 394.419 76.5142C394.975 76.2656 395.41 75.9194 395.724 75.4755C396.038 75.0257 396.195 74.5078 396.195 73.9219C396.195 73.3123 396.038 72.7766 395.724 72.315C395.416 71.8474 394.963 71.4805 394.366 71.2141C393.774 70.9478 393.058 70.8146 392.217 70.8146H390.681V68.5774H392.217C392.892 68.5774 393.484 68.4561 393.993 68.2134C394.508 67.9708 394.91 67.6334 395.2 67.2013C395.49 66.7634 395.635 66.2514 395.635 65.6655C395.635 65.1032 395.508 64.6149 395.253 64.2006C395.005 63.7804 394.65 63.4519 394.188 63.2152C393.732 62.9785 393.194 62.8601 392.572 62.8601C391.98 62.8601 391.427 62.9696 390.912 63.1886C390.403 63.4016 389.989 63.7094 389.669 64.1119C389.35 64.5084 389.178 64.9848 389.154 65.5412H386.5C386.53 64.5587 386.82 63.6946 387.37 62.9489C387.926 62.2031 388.66 61.6201 389.572 61.1999C390.483 60.7797 391.495 60.5696 392.608 60.5696C393.774 60.5696 394.78 60.7975 395.626 61.2532C396.479 61.703 397.136 62.3037 397.597 63.0554C398.065 63.8071 398.296 64.6297 398.29 65.5234C398.296 66.5414 398.012 67.4055 397.437 68.1158C396.869 68.826 396.112 69.3024 395.165 69.5451V69.6871C396.372 69.8706 397.307 70.35 397.97 71.1254C398.639 71.9007 398.97 72.8625 398.964 74.0107C398.97 75.0109 398.692 75.9076 398.13 76.7006C397.574 77.4937 396.813 78.1181 395.848 78.5739C394.884 79.0237 393.78 79.2486 392.537 79.2486ZM411.626 70.9034V79H408.972V60.8182H411.591V67.5831H411.76C412.079 66.8492 412.567 66.2662 413.224 65.8342C413.881 65.4021 414.74 65.1861 415.799 65.1861C416.734 65.1861 417.551 65.3784 418.249 65.7631C418.954 66.1478 419.498 66.7219 419.883 67.4854C420.273 68.243 420.469 69.19 420.469 70.3263V79H417.814V70.646C417.814 69.6457 417.557 68.8704 417.042 68.32C416.527 67.7636 415.811 67.4854 414.893 67.4854C414.266 67.4854 413.704 67.6186 413.207 67.8849C412.715 68.1513 412.328 68.5419 412.044 69.0568C411.766 69.5658 411.626 70.1813 411.626 70.9034ZM429.755 79.2752C428.477 79.2752 427.361 78.9822 426.408 78.3963C425.455 77.8104 424.715 76.9906 424.189 75.9371C423.662 74.8836 423.398 73.6526 423.398 72.244C423.398 70.8294 423.662 69.5924 424.189 68.533C424.715 67.4736 425.455 66.6509 426.408 66.065C427.361 65.479 428.477 65.1861 429.755 65.1861C431.033 65.1861 432.149 65.479 433.102 66.065C434.055 66.6509 434.795 67.4736 435.321 68.533C435.848 69.5924 436.112 70.8294 436.112 72.244C436.112 73.6526 435.848 74.8836 435.321 75.9371C434.795 76.9906 434.055 77.8104 433.102 78.3963C432.149 78.9822 431.033 79.2752 429.755 79.2752ZM429.764 77.0469C430.592 77.0469 431.279 76.8279 431.824 76.3899C432.368 75.9519 432.77 75.369 433.031 74.641C433.297 73.913 433.43 73.111 433.43 72.2351C433.43 71.3651 433.297 70.5661 433.031 69.8381C432.77 69.1042 432.368 68.5153 431.824 68.0714C431.279 67.6275 430.592 67.4055 429.764 67.4055C428.929 67.4055 428.237 67.6275 427.686 68.0714C427.142 68.5153 426.737 69.1042 426.47 69.8381C426.21 70.5661 426.08 71.3651 426.08 72.2351C426.08 73.111 426.21 73.913 426.47 74.641C426.737 75.369 427.142 75.9519 427.686 76.3899C428.237 76.8279 428.929 77.0469 429.764 77.0469ZM447.713 73.3448V65.3636H450.376V79H447.766V76.6385H447.624C447.31 77.3665 446.807 77.9731 446.115 78.4585C445.428 78.9379 444.573 79.1776 443.549 79.1776C442.673 79.1776 441.898 78.9852 441.223 78.6005C440.554 78.2099 440.027 77.6328 439.643 76.8693C439.264 76.1058 439.074 75.1618 439.074 74.0373V65.3636H441.729V73.7177C441.729 74.6469 441.986 75.3867 442.501 75.9371C443.016 76.4876 443.685 76.7628 444.508 76.7628C445.005 76.7628 445.499 76.6385 445.99 76.3899C446.487 76.1413 446.899 75.7655 447.224 75.2624C447.556 74.7594 447.719 74.1201 447.713 73.3448ZM453.943 79V65.3636H456.508V67.5298H456.65C456.899 66.7959 457.337 66.2189 457.964 65.7987C458.598 65.3725 459.314 65.1594 460.113 65.1594C460.278 65.1594 460.474 65.1654 460.699 65.1772C460.93 65.189 461.11 65.2038 461.24 65.2216V67.7607C461.134 67.7311 460.944 67.6985 460.672 67.663C460.4 67.6216 460.128 67.6009 459.855 67.6009C459.228 67.6009 458.669 67.734 458.177 68.0004C457.692 68.2608 457.307 68.6248 457.023 69.0923C456.739 69.554 456.597 70.0807 456.597 70.6726V79H453.943ZM473.756 68.6928L471.35 69.119C471.249 68.8112 471.089 68.5182 470.87 68.2401C470.657 67.9619 470.367 67.734 470 67.5565C469.633 67.3789 469.175 67.2901 468.624 67.2901C467.873 67.2901 467.245 67.4588 466.742 67.7962C466.239 68.1276 465.988 68.5567 465.988 69.0835C465.988 69.5392 466.156 69.9061 466.494 70.1843C466.831 70.4625 467.376 70.6903 468.127 70.8679L470.293 71.3651C471.548 71.6551 472.483 72.1019 473.099 72.7056C473.714 73.3093 474.022 74.0935 474.022 75.0582C474.022 75.875 473.785 76.603 473.312 77.2422C472.844 77.8755 472.19 78.3726 471.35 78.7337C470.515 79.0947 469.548 79.2752 468.447 79.2752C466.92 79.2752 465.674 78.9497 464.709 78.2987C463.745 77.6417 463.153 76.7095 462.934 75.5021L465.499 75.1115C465.659 75.7803 465.988 76.2863 466.485 76.6296C466.982 76.967 467.63 77.1357 468.429 77.1357C469.299 77.1357 469.995 76.9551 470.515 76.5941C471.036 76.2272 471.297 75.7803 471.297 75.2536C471.297 74.8274 471.137 74.4693 470.817 74.1793C470.504 73.8893 470.021 73.6703 469.37 73.5224L467.062 73.0163C465.789 72.7263 464.848 72.2647 464.239 71.6314C463.635 70.9981 463.333 70.1961 463.333 69.2255C463.333 68.4206 463.558 67.7163 464.008 67.1126C464.458 66.5089 465.079 66.0384 465.872 65.701C466.665 65.3577 467.574 65.1861 468.598 65.1861C470.071 65.1861 471.232 65.5057 472.078 66.1449C472.924 66.7782 473.484 67.6275 473.756 68.6928ZM489.301 79.2752C488.022 79.2752 486.907 78.9822 485.954 78.3963C485.001 77.8104 484.261 76.9906 483.734 75.9371C483.208 74.8836 482.944 73.6526 482.944 72.244C482.944 70.8294 483.208 69.5924 483.734 68.533C484.261 67.4736 485.001 66.6509 485.954 66.065C486.907 65.479 488.022 65.1861 489.301 65.1861C490.579 65.1861 491.695 65.479 492.648 66.065C493.601 66.6509 494.341 67.4736 494.867 68.533C495.394 69.5924 495.657 70.8294 495.657 72.244C495.657 73.6526 495.394 74.8836 494.867 75.9371C494.341 76.9906 493.601 77.8104 492.648 78.3963C491.695 78.9822 490.579 79.2752 489.301 79.2752ZM489.31 77.0469C490.138 77.0469 490.825 76.8279 491.369 76.3899C491.914 75.9519 492.316 75.369 492.577 74.641C492.843 73.913 492.976 73.111 492.976 72.2351C492.976 71.3651 492.843 70.5661 492.577 69.8381C492.316 69.1042 491.914 68.5153 491.369 68.0714C490.825 67.6275 490.138 67.4055 489.31 67.4055C488.475 67.4055 487.783 67.6275 487.232 68.0714C486.688 68.5153 486.282 69.1042 486.016 69.8381C485.756 70.5661 485.625 71.3651 485.625 72.2351C485.625 73.111 485.756 73.913 486.016 74.641C486.282 75.369 486.688 75.9519 487.232 76.3899C487.783 76.8279 488.475 77.0469 489.31 77.0469ZM501.275 70.9034V79H498.62V65.3636H501.168V67.5831H501.337C501.651 66.861 502.142 66.281 502.811 65.843C503.485 65.4051 504.335 65.1861 505.359 65.1861C506.288 65.1861 507.102 65.3814 507.8 65.772C508.498 66.1567 509.04 66.7308 509.425 67.4943C509.809 68.2578 510.002 69.2018 510.002 70.3263V79H507.347V70.646C507.347 69.6576 507.09 68.8852 506.575 68.3288C506.06 67.7666 505.353 67.4854 504.453 67.4854C503.838 67.4854 503.29 67.6186 502.811 67.8849C502.337 68.1513 501.961 68.5419 501.683 69.0568C501.411 69.5658 501.275 70.1813 501.275 70.9034ZM521.856 84.1136C521.459 84.1136 521.098 84.0811 520.773 84.016C520.447 83.9568 520.205 83.8917 520.045 83.8207L520.684 81.6456C521.169 81.7758 521.601 81.832 521.98 81.8143C522.359 81.7965 522.693 81.6545 522.983 81.3881C523.279 81.1218 523.54 80.6868 523.765 80.0831L524.093 79.1776L519.104 65.3636H521.945L525.398 75.946H525.54L528.994 65.3636H531.843L526.224 80.82C525.963 81.5302 525.632 82.1309 525.229 82.6222C524.827 83.1193 524.348 83.4922 523.791 83.7408C523.235 83.9893 522.59 84.1136 521.856 84.1136ZM539.618 79.2752C538.34 79.2752 537.224 78.9822 536.271 78.3963C535.318 77.8104 534.579 76.9906 534.052 75.9371C533.525 74.8836 533.262 73.6526 533.262 72.244C533.262 70.8294 533.525 69.5924 534.052 68.533C534.579 67.4736 535.318 66.6509 536.271 66.065C537.224 65.479 538.34 65.1861 539.618 65.1861C540.897 65.1861 542.012 65.479 542.965 66.065C543.918 66.6509 544.658 67.4736 545.185 68.533C545.711 69.5924 545.975 70.8294 545.975 72.244C545.975 73.6526 545.711 74.8836 545.185 75.9371C544.658 76.9906 543.918 77.8104 542.965 78.3963C542.012 78.9822 540.897 79.2752 539.618 79.2752ZM539.627 77.0469C540.456 77.0469 541.142 76.8279 541.687 76.3899C542.231 75.9519 542.634 75.369 542.894 74.641C543.161 73.913 543.294 73.111 543.294 72.2351C543.294 71.3651 543.161 70.5661 542.894 69.8381C542.634 69.1042 542.231 68.5153 541.687 68.0714C541.142 67.6275 540.456 67.4055 539.627 67.4055C538.793 67.4055 538.1 67.6275 537.55 68.0714C537.005 68.5153 536.6 69.1042 536.333 69.8381C536.073 70.5661 535.943 71.3651 535.943 72.2351C535.943 73.111 536.073 73.913 536.333 74.641C536.6 75.369 537.005 75.9519 537.55 76.3899C538.1 76.8279 538.793 77.0469 539.627 77.0469ZM557.576 73.3448V65.3636H560.239V79H557.629V76.6385H557.487C557.173 77.3665 556.67 77.9731 555.978 78.4585C555.291 78.9379 554.436 79.1776 553.412 79.1776C552.536 79.1776 551.761 78.9852 551.086 78.6005C550.417 78.2099 549.891 77.6328 549.506 76.8693C549.127 76.1058 548.938 75.1618 548.938 74.0373V65.3636H551.592V73.7177C551.592 74.6469 551.85 75.3867 552.365 75.9371C552.88 76.4876 553.548 76.7628 554.371 76.7628C554.868 76.7628 555.362 76.6385 555.854 76.3899C556.351 76.1413 556.762 75.7655 557.088 75.2624C557.419 74.7594 557.582 74.1201 557.576 73.3448ZM563.806 79V65.3636H566.372V67.5298H566.514C566.762 66.7959 567.2 66.2189 567.828 65.7987C568.461 65.3725 569.177 65.1594 569.976 65.1594C570.142 65.1594 570.337 65.1654 570.562 65.1772C570.793 65.189 570.973 65.2038 571.104 65.2216V67.7607C570.997 67.7311 570.808 67.6985 570.535 67.663C570.263 67.6216 569.991 67.6009 569.719 67.6009C569.091 67.6009 568.532 67.734 568.041 68.0004C567.555 68.2608 567.171 68.6248 566.887 69.0923C566.602 69.554 566.46 70.0807 566.46 70.6726V79H563.806ZM586.507 65.3636V67.4943H578.801V65.3636H586.507ZM580.914 79V63.7834C580.914 62.9311 581.1 62.2238 581.473 61.6616C581.846 61.0934 582.34 60.6702 582.955 60.392C583.571 60.108 584.24 59.9659 584.962 59.9659C585.494 59.9659 585.95 60.0103 586.329 60.0991C586.708 60.1819 586.989 60.2589 587.172 60.3299L586.551 62.4783C586.427 62.4428 586.267 62.4014 586.072 62.354C585.876 62.3008 585.64 62.2741 585.361 62.2741C584.716 62.2741 584.255 62.4339 583.976 62.7536C583.704 63.0732 583.568 63.5348 583.568 64.1385V79H580.914ZM589.245 79V65.3636H591.9V79H589.245ZM590.586 63.2596C590.124 63.2596 589.728 63.1057 589.396 62.7979C589.071 62.4843 588.908 62.1114 588.908 61.6793C588.908 61.2414 589.071 60.8685 589.396 60.5607C589.728 60.247 590.124 60.0902 590.586 60.0902C591.048 60.0902 591.441 60.247 591.767 60.5607C592.098 60.8685 592.264 61.2414 592.264 61.6793C592.264 62.1114 592.098 62.4843 591.767 62.7979C591.441 63.1057 591.048 63.2596 590.586 63.2596ZM595.471 79V65.3636H598.037V67.5298H598.179C598.427 66.7959 598.865 66.2189 599.493 65.7987C600.126 65.3725 600.842 65.1594 601.641 65.1594C601.807 65.1594 602.002 65.1654 602.227 65.1772C602.458 65.189 602.638 65.2038 602.769 65.2216V67.7607C602.662 67.7311 602.473 67.6985 602.2 67.663C601.928 67.6216 601.656 67.6009 601.384 67.6009C600.756 67.6009 600.197 67.734 599.706 68.0004C599.22 68.2608 598.836 68.6248 598.552 69.0923C598.267 69.554 598.125 70.0807 598.125 70.6726V79H595.471ZM615.284 68.6928L612.878 69.119C612.778 68.8112 612.618 68.5182 612.399 68.2401C612.186 67.9619 611.896 67.734 611.529 67.5565C611.162 67.3789 610.703 67.2901 610.153 67.2901C609.401 67.2901 608.774 67.4588 608.271 67.7962C607.768 68.1276 607.516 68.5567 607.516 69.0835C607.516 69.5392 607.685 69.9061 608.022 70.1843C608.359 70.4625 608.904 70.6903 609.656 70.8679L611.822 71.3651C613.076 71.6551 614.012 72.1019 614.627 72.7056C615.243 73.3093 615.55 74.0935 615.55 75.0582C615.55 75.875 615.314 76.603 614.84 77.2422C614.373 77.8755 613.719 78.3726 612.878 78.7337C612.044 79.0947 611.076 79.2752 609.975 79.2752C608.448 79.2752 607.202 78.9497 606.238 78.2987C605.273 77.6417 604.681 76.7095 604.462 75.5021L607.028 75.1115C607.188 75.7803 607.516 76.2863 608.013 76.6296C608.51 76.967 609.158 77.1357 609.957 77.1357C610.827 77.1357 611.523 76.9551 612.044 76.5941C612.565 76.2272 612.825 75.7803 612.825 75.2536C612.825 74.8274 612.665 74.4693 612.346 74.1793C612.032 73.8893 611.549 73.6703 610.898 73.5224L608.59 73.0163C607.318 72.7263 606.377 72.2647 605.767 71.6314C605.163 70.9981 604.862 70.1961 604.862 69.2255C604.862 68.4206 605.086 67.7163 605.536 67.1126C605.986 66.5089 606.607 66.0384 607.401 65.701C608.194 65.3577 609.102 65.1861 610.126 65.1861C611.6 65.1861 612.76 65.5057 613.606 66.1449C614.453 66.7782 615.012 67.6275 615.284 68.6928ZM624.834 65.3636V67.4943H617.386V65.3636H624.834ZM619.383 62.0966H622.038V74.9961C622.038 75.511 622.115 75.8987 622.269 76.1591C622.423 76.4136 622.621 76.5882 622.864 76.6829C623.112 76.7717 623.381 76.8161 623.671 76.8161C623.884 76.8161 624.071 76.8013 624.231 76.7717C624.391 76.7421 624.515 76.7184 624.604 76.7006L625.083 78.8935C624.929 78.9527 624.71 79.0118 624.426 79.071C624.142 79.1361 623.787 79.1716 623.361 79.1776C622.662 79.1894 622.011 79.0651 621.408 78.8047C620.804 78.5443 620.316 78.1418 619.943 77.5973C619.57 77.0528 619.383 76.3692 619.383 75.5465V62.0966ZM640.131 79.2752C638.811 79.2752 637.675 78.9763 636.722 78.3786C635.775 77.7749 635.047 76.9433 634.538 75.8839C634.029 74.8245 633.774 73.6112 633.774 72.244C633.774 70.859 634.035 69.6368 634.556 68.5774C635.076 67.5121 635.81 66.6805 636.757 66.0827C637.704 65.485 638.82 65.1861 640.104 65.1861C641.14 65.1861 642.063 65.3784 642.874 65.7631C643.685 66.1419 644.339 66.6746 644.836 67.3612C645.339 68.0477 645.638 68.8497 645.733 69.767H643.149C643.007 69.1278 642.682 68.5774 642.173 68.1158C641.67 67.6541 640.995 67.4233 640.149 67.4233C639.409 67.4233 638.761 67.6186 638.204 68.0092C637.654 68.3939 637.225 68.9444 636.917 69.6605C636.609 70.3707 636.456 71.2112 636.456 72.1818C636.456 73.1761 636.606 74.0343 636.908 74.7564C637.21 75.4785 637.636 76.0378 638.187 76.4343C638.743 76.8308 639.397 77.0291 640.149 77.0291C640.652 77.0291 641.108 76.9374 641.516 76.7539C641.93 76.5645 642.276 76.2952 642.555 75.946C642.839 75.5968 643.037 75.1766 643.149 74.6854H645.733C645.638 75.5672 645.351 76.3544 644.872 77.0469C644.392 77.7393 643.75 78.2839 642.945 78.6804C642.146 79.0769 641.208 79.2752 640.131 79.2752ZM651.226 60.8182V79H648.572V60.8182H651.226ZM660.674 79.2752C659.331 79.2752 658.174 78.9882 657.203 78.4141C656.238 77.834 655.493 77.0202 654.966 75.9727C654.445 74.9192 654.185 73.6851 654.185 72.2706C654.185 70.8738 654.445 69.6428 654.966 68.5774C655.493 67.5121 656.226 66.6805 657.168 66.0827C658.114 65.485 659.221 65.1861 660.488 65.1861C661.257 65.1861 662.003 65.3133 662.725 65.5678C663.447 65.8223 664.095 66.2218 664.669 66.7663C665.243 67.3108 665.696 68.0181 666.028 68.8881C666.359 69.7522 666.525 70.8028 666.525 72.0398V72.9808H655.685V70.9922H663.924C663.924 70.2938 663.782 69.6753 663.497 69.1367C663.213 68.5922 662.814 68.1631 662.299 67.8494C661.79 67.5357 661.192 67.3789 660.506 67.3789C659.76 67.3789 659.109 67.5624 658.552 67.9293C658.002 68.2904 657.576 68.7638 657.274 69.3498C656.978 69.9298 656.83 70.5601 656.83 71.2408V72.7944C656.83 73.7058 656.99 74.4812 657.31 75.1204C657.635 75.7596 658.088 76.2479 658.668 76.5852C659.248 76.9167 659.926 77.0824 660.701 77.0824C661.204 77.0824 661.663 77.0114 662.077 76.8693C662.491 76.7214 662.849 76.5024 663.151 76.2124C663.453 75.9223 663.684 75.5643 663.844 75.1381L666.356 75.5909C666.155 76.3307 665.794 76.9788 665.273 77.5352C664.758 78.0856 664.11 78.5147 663.329 78.8224C662.553 79.1243 661.669 79.2752 660.674 79.2752ZM673.438 79.3018C672.574 79.3018 671.793 79.142 671.095 78.8224C670.396 78.4969 669.843 78.0264 669.434 77.4109C669.032 76.7953 668.831 76.0407 668.831 75.147C668.831 74.3776 668.979 73.7443 669.275 73.2472C669.571 72.75 669.97 72.3564 670.473 72.0664C670.976 71.7764 671.539 71.5574 672.16 71.4094C672.781 71.2615 673.415 71.149 674.06 71.0721C674.877 70.9774 675.539 70.9004 676.048 70.8413C676.557 70.7762 676.927 70.6726 677.158 70.5305C677.389 70.3885 677.504 70.1577 677.504 69.8381V69.7759C677.504 69.0006 677.285 68.3999 676.847 67.9737C676.415 67.5476 675.77 67.3345 674.912 67.3345C674.018 67.3345 673.314 67.5328 672.799 67.9293C672.29 68.32 671.938 68.755 671.743 69.2344L669.248 68.6662C669.544 67.8376 669.976 67.1688 670.544 66.6598C671.118 66.1449 671.778 65.772 672.524 65.5412C673.27 65.3045 674.054 65.1861 674.877 65.1861C675.421 65.1861 675.998 65.2512 676.608 65.3814C677.223 65.5057 677.797 65.7365 678.33 66.0739C678.869 66.4112 679.31 66.8936 679.653 67.521C679.996 68.1424 680.168 68.9503 680.168 69.9446V79H677.575V77.1357H677.469C677.297 77.4789 677.04 77.8163 676.697 78.1477C676.353 78.4792 675.912 78.7544 675.374 78.9734C674.835 79.1924 674.19 79.3018 673.438 79.3018ZM674.015 77.1712C674.749 77.1712 675.377 77.0262 675.898 76.7362C676.424 76.4461 676.824 76.0674 677.096 75.5998C677.374 75.1263 677.513 74.6203 677.513 74.0817V72.3239C677.419 72.4186 677.235 72.5073 676.963 72.5902C676.697 72.6671 676.392 72.7352 676.048 72.7944C675.705 72.8477 675.371 72.898 675.045 72.9453C674.72 72.9867 674.448 73.0223 674.229 73.0518C673.714 73.117 673.243 73.2264 672.817 73.3803C672.397 73.5342 672.059 73.7562 671.805 74.0462C671.556 74.3303 671.432 74.709 671.432 75.1825C671.432 75.8395 671.675 76.3366 672.16 76.674C672.645 77.0054 673.264 77.1712 674.015 77.1712ZM686.358 70.9034V79H683.703V65.3636H686.251V67.5831H686.42C686.734 66.861 687.225 66.281 687.894 65.843C688.568 65.4051 689.418 65.1861 690.442 65.1861C691.371 65.1861 692.185 65.3814 692.883 65.772C693.581 66.1567 694.123 66.7308 694.508 67.4943C694.892 68.2578 695.085 69.2018 695.085 70.3263V79H692.43V70.646C692.43 69.6576 692.173 68.8852 691.658 68.3288C691.143 67.7666 690.436 67.4854 689.536 67.4854C688.921 67.4854 688.373 67.6186 687.894 67.8849C687.42 68.1513 687.044 68.5419 686.766 69.0568C686.494 69.5658 686.358 70.1813 686.358 70.9034ZM698.645 79V65.3636H701.299V79H698.645ZM699.985 63.2596C699.524 63.2596 699.127 63.1057 698.796 62.7979C698.47 62.4843 698.307 62.1114 698.307 61.6793C698.307 61.2414 698.47 60.8685 698.796 60.5607C699.127 60.247 699.524 60.0902 699.985 60.0902C700.447 60.0902 700.841 60.247 701.166 60.5607C701.498 60.8685 701.663 61.2414 701.663 61.6793C701.663 62.1114 701.498 62.4843 701.166 62.7979C700.841 63.1057 700.447 63.2596 699.985 63.2596ZM707.525 70.9034V79H704.87V65.3636H707.418V67.5831H707.587C707.901 66.861 708.392 66.281 709.061 65.843C709.735 65.4051 710.585 65.1861 711.609 65.1861C712.538 65.1861 713.352 65.3814 714.05 65.772C714.748 66.1567 715.29 66.7308 715.675 67.4943C716.059 68.2578 716.252 69.2018 716.252 70.3263V79H713.597V70.646C713.597 69.6576 713.34 68.8852 712.825 68.3288C712.31 67.7666 711.603 67.4854 710.703 67.4854C710.088 67.4854 709.54 67.6186 709.061 67.8849C708.587 68.1513 708.211 68.5419 707.933 69.0568C707.661 69.5658 707.525 70.1813 707.525 70.9034ZM725.529 84.3977C724.446 84.3977 723.514 84.2557 722.733 83.9716C721.957 83.6875 721.324 83.3117 720.833 82.8441C720.342 82.3765 719.975 81.8646 719.732 81.3082L722.013 80.3672C722.173 80.6276 722.386 80.9028 722.653 81.1928C722.925 81.4888 723.292 81.7403 723.754 81.9474C724.221 82.1546 724.822 82.2582 725.556 82.2582C726.562 82.2582 727.393 82.0125 728.05 81.5213C728.707 81.036 729.036 80.2607 729.036 79.1953V76.5142H728.867C728.707 76.8042 728.477 77.1268 728.175 77.4819C727.879 77.837 727.47 78.1448 726.95 78.4052C726.429 78.6656 725.751 78.7958 724.917 78.7958C723.839 78.7958 722.869 78.5443 722.005 78.0412C721.146 77.5322 720.466 76.7835 719.963 75.7951C719.466 74.8008 719.217 73.5786 719.217 72.1286C719.217 70.6785 719.463 69.4356 719.954 68.3999C720.451 67.3641 721.132 66.571 721.996 66.0206C722.86 65.4643 723.839 65.1861 724.934 65.1861C725.781 65.1861 726.464 65.3281 726.985 65.6122C727.506 65.8904 727.911 66.2159 728.201 66.5888C728.497 66.9616 728.725 67.2901 728.885 67.5742H729.08V65.3636H731.681V79.3018C731.681 80.4737 731.409 81.4355 730.865 82.1871C730.32 82.9388 729.583 83.4951 728.654 83.8562C727.731 84.2172 726.689 84.3977 725.529 84.3977ZM725.502 76.5941C726.266 76.5941 726.911 76.4165 727.438 76.0614C727.971 75.7004 728.373 75.1855 728.645 74.5167C728.923 73.842 729.062 73.0341 729.062 72.093C729.062 71.1757 728.926 70.3678 728.654 69.6694C728.382 68.971 727.982 68.4265 727.456 68.0359C726.929 67.6393 726.278 67.4411 725.502 67.4411C724.703 67.4411 724.038 67.6482 723.505 68.0625C722.972 68.4709 722.57 69.0272 722.298 69.7315C722.031 70.4358 721.898 71.223 721.898 72.093C721.898 72.9867 722.034 73.771 722.306 74.4457C722.579 75.1204 722.981 75.6471 723.514 76.0259C724.052 76.4047 724.715 76.5941 725.502 76.5941ZM302.003 98.6928L299.597 99.119C299.496 98.8112 299.337 98.5182 299.118 98.2401C298.904 97.9619 298.614 97.734 298.248 97.5565C297.881 97.3789 297.422 97.2901 296.871 97.2901C296.12 97.2901 295.492 97.4588 294.989 97.7962C294.486 98.1276 294.235 98.5567 294.235 99.0835C294.235 99.5392 294.403 99.9061 294.741 100.184C295.078 100.462 295.623 100.69 296.374 100.868L298.54 101.365C299.795 101.655 300.73 102.102 301.346 102.706C301.961 103.309 302.269 104.094 302.269 105.058C302.269 105.875 302.032 106.603 301.559 107.242C301.091 107.875 300.437 108.373 299.597 108.734C298.762 109.095 297.795 109.275 296.694 109.275C295.167 109.275 293.921 108.95 292.956 108.299C291.992 107.642 291.4 106.71 291.181 105.502L293.746 105.112C293.906 105.78 294.235 106.286 294.732 106.63C295.229 106.967 295.877 107.136 296.676 107.136C297.546 107.136 298.242 106.955 298.762 106.594C299.283 106.227 299.544 105.78 299.544 105.254C299.544 104.827 299.384 104.469 299.064 104.179C298.751 103.889 298.268 103.67 297.617 103.522L295.309 103.016C294.036 102.726 293.095 102.265 292.486 101.631C291.882 100.998 291.58 100.196 291.58 99.2255C291.58 98.4206 291.805 97.7163 292.255 97.1126C292.705 96.5089 293.326 96.0384 294.119 95.701C294.912 95.3577 295.821 95.1861 296.845 95.1861C298.319 95.1861 299.479 95.5057 300.325 96.1449C301.171 96.7782 301.731 97.6275 302.003 98.6928ZM311.065 109.275C309.721 109.275 308.564 108.988 307.594 108.414C306.629 107.834 305.883 107.02 305.356 105.973C304.836 104.919 304.575 103.685 304.575 102.271C304.575 100.874 304.836 99.6428 305.356 98.5774C305.883 97.5121 306.617 96.6805 307.558 96.0827C308.505 95.485 309.612 95.1861 310.878 95.1861C311.648 95.1861 312.394 95.3133 313.116 95.5678C313.838 95.8223 314.486 96.2218 315.06 96.7663C315.634 97.3108 316.087 98.0181 316.418 98.8881C316.75 99.7522 316.915 100.803 316.915 102.04V102.981H306.076V100.992H314.314C314.314 100.294 314.172 99.6753 313.888 99.1367C313.604 98.5922 313.204 98.1631 312.69 97.8494C312.181 97.5357 311.583 97.3789 310.896 97.3789C310.15 97.3789 309.499 97.5624 308.943 97.9293C308.393 98.2904 307.967 98.7638 307.665 99.3498C307.369 99.9298 307.221 100.56 307.221 101.241V102.794C307.221 103.706 307.381 104.481 307.7 105.12C308.026 105.76 308.478 106.248 309.059 106.585C309.639 106.917 310.316 107.082 311.092 107.082C311.595 107.082 312.053 107.011 312.468 106.869C312.882 106.721 313.24 106.502 313.542 106.212C313.844 105.922 314.074 105.564 314.234 105.138L316.747 105.591C316.545 106.331 316.184 106.979 315.664 107.535C315.149 108.086 314.501 108.515 313.719 108.822C312.944 109.124 312.059 109.275 311.065 109.275ZM319.861 109V95.3636H322.426V97.5298H322.568C322.817 96.7959 323.255 96.2189 323.882 95.7987C324.516 95.3725 325.232 95.1594 326.031 95.1594C326.196 95.1594 326.392 95.1654 326.617 95.1772C326.847 95.189 327.028 95.2038 327.158 95.2216V97.7607C327.052 97.7311 326.862 97.6985 326.59 97.663C326.318 97.6216 326.046 97.6009 325.773 97.6009C325.146 97.6009 324.587 97.734 324.095 98.0004C323.61 98.2608 323.225 98.6248 322.941 99.0923C322.657 99.554 322.515 100.081 322.515 100.673V109H319.861ZM341.536 95.3636L336.591 109H333.75L328.796 95.3636H331.646L335.099 105.857H335.241L338.686 95.3636H341.536ZM344.031 109V95.3636H346.685V109H344.031ZM345.371 93.2596C344.909 93.2596 344.513 93.1057 344.181 92.7979C343.856 92.4843 343.693 92.1114 343.693 91.6793C343.693 91.2414 343.856 90.8685 344.181 90.5607C344.513 90.247 344.909 90.0902 345.371 90.0902C345.833 90.0902 346.226 90.247 346.552 90.5607C346.883 90.8685 347.049 91.2414 347.049 91.6793C347.049 92.1114 346.883 92.4843 346.552 92.7979C346.226 93.1057 345.833 93.2596 345.371 93.2596ZM356 109.275C354.68 109.275 353.544 108.976 352.591 108.379C351.644 107.775 350.916 106.943 350.407 105.884C349.898 104.824 349.644 103.611 349.644 102.244C349.644 100.859 349.904 99.6368 350.425 98.5774C350.946 97.5121 351.68 96.6805 352.627 96.0827C353.573 95.485 354.689 95.1861 355.973 95.1861C357.009 95.1861 357.932 95.3784 358.743 95.7631C359.554 96.1419 360.208 96.6746 360.705 97.3612C361.208 98.0477 361.507 98.8497 361.602 99.767H359.019C358.877 99.1278 358.551 98.5774 358.042 98.1158C357.539 97.6541 356.864 97.4233 356.018 97.4233C355.278 97.4233 354.63 97.6186 354.074 98.0092C353.523 98.3939 353.094 98.9444 352.786 99.6605C352.479 100.371 352.325 101.211 352.325 102.182C352.325 103.176 352.476 104.034 352.777 104.756C353.079 105.478 353.505 106.038 354.056 106.434C354.612 106.831 355.266 107.029 356.018 107.029C356.521 107.029 356.977 106.937 357.385 106.754C357.799 106.565 358.146 106.295 358.424 105.946C358.708 105.597 358.906 105.177 359.019 104.685H361.602C361.507 105.567 361.22 106.354 360.741 107.047C360.261 107.739 359.619 108.284 358.814 108.68C358.015 109.077 357.077 109.275 356 109.275ZM370.318 109.275C368.974 109.275 367.817 108.988 366.847 108.414C365.882 107.834 365.136 107.02 364.609 105.973C364.089 104.919 363.828 103.685 363.828 102.271C363.828 100.874 364.089 99.6428 364.609 98.5774C365.136 97.5121 365.87 96.6805 366.811 96.0827C367.758 95.485 368.865 95.1861 370.131 95.1861C370.901 95.1861 371.647 95.3133 372.369 95.5678C373.091 95.8223 373.739 96.2218 374.313 96.7663C374.887 97.3108 375.34 98.0181 375.671 98.8881C376.003 99.7522 376.168 100.803 376.168 102.04V102.981H365.328V100.992H373.567C373.567 100.294 373.425 99.6753 373.141 99.1367C372.857 98.5922 372.457 98.1631 371.942 97.8494C371.433 97.5357 370.836 97.3789 370.149 97.3789C369.403 97.3789 368.752 97.5624 368.196 97.9293C367.646 98.2904 367.219 98.7638 366.918 99.3498C366.622 99.9298 366.474 100.56 366.474 101.241V102.794C366.474 103.706 366.634 104.481 366.953 105.12C367.279 105.76 367.731 106.248 368.311 106.585C368.891 106.917 369.569 107.082 370.344 107.082C370.848 107.082 371.306 107.011 371.721 106.869C372.135 106.721 372.493 106.502 372.795 106.212C373.097 105.922 373.327 105.564 373.487 105.138L376 105.591C375.798 106.331 375.437 106.979 374.917 107.535C374.402 108.086 373.754 108.515 372.972 108.822C372.197 109.124 371.312 109.275 370.318 109.275ZM382.46 90.8182L382.23 103.771H379.771L379.54 90.8182H382.46ZM381.005 109.169C380.513 109.169 380.093 108.997 379.744 108.654C379.395 108.305 379.223 107.884 379.229 107.393C379.223 106.908 379.395 106.493 379.744 106.15C380.093 105.801 380.513 105.626 381.005 105.626C381.484 105.626 381.898 105.801 382.247 106.15C382.597 106.493 382.774 106.908 382.78 107.393C382.774 107.719 382.688 108.018 382.523 108.29C382.363 108.556 382.15 108.769 381.883 108.929C381.617 109.089 381.324 109.169 381.005 109.169ZM408.393 96.7308H405.623C405.516 96.139 405.318 95.6181 405.028 95.1683C404.738 94.7185 404.383 94.3368 403.963 94.0231C403.542 93.7094 403.072 93.4727 402.551 93.3129C402.036 93.1531 401.489 93.0732 400.909 93.0732C399.861 93.0732 398.923 93.3365 398.094 93.8633C397.272 94.39 396.621 95.1624 396.141 96.1804C395.668 97.1984 395.431 98.4413 395.431 99.9091C395.431 101.389 395.668 102.638 396.141 103.656C396.621 104.674 397.275 105.443 398.103 105.964C398.932 106.485 399.864 106.745 400.9 106.745C401.474 106.745 402.018 106.668 402.533 106.514C403.054 106.354 403.525 106.121 403.945 105.813C404.365 105.505 404.72 105.129 405.01 104.685C405.306 104.236 405.51 103.721 405.623 103.141L408.393 103.15C408.245 104.043 407.958 104.866 407.532 105.618C407.111 106.363 406.57 107.008 405.907 107.553C405.25 108.092 404.498 108.509 403.652 108.805C402.806 109.101 401.882 109.249 400.882 109.249C399.308 109.249 397.905 108.876 396.674 108.13C395.443 107.378 394.472 106.304 393.762 104.907C393.058 103.511 392.706 101.844 392.706 99.9091C392.706 97.9678 393.061 96.3017 393.771 94.9109C394.481 93.5141 395.452 92.4428 396.683 91.6971C397.914 90.9454 399.314 90.5696 400.882 90.5696C401.847 90.5696 402.746 90.7087 403.581 90.9869C404.421 91.2591 405.176 91.6616 405.845 92.1942C406.514 92.721 407.067 93.3661 407.505 94.1296C407.943 94.8872 408.239 95.7543 408.393 96.7308ZM417.206 109.275C415.928 109.275 414.812 108.982 413.859 108.396C412.906 107.81 412.166 106.991 411.64 105.937C411.113 104.884 410.85 103.653 410.85 102.244C410.85 100.829 411.113 99.5924 411.64 98.533C412.166 97.4736 412.906 96.6509 413.859 96.065C414.812 95.479 415.928 95.1861 417.206 95.1861C418.485 95.1861 419.6 95.479 420.553 96.065C421.506 96.6509 422.246 97.4736 422.773 98.533C423.299 99.5924 423.563 100.829 423.563 102.244C423.563 103.653 423.299 104.884 422.773 105.937C422.246 106.991 421.506 107.81 420.553 108.396C419.6 108.982 418.485 109.275 417.206 109.275ZM417.215 107.047C418.044 107.047 418.73 106.828 419.275 106.39C419.819 105.952 420.222 105.369 420.482 104.641C420.748 103.913 420.882 103.111 420.882 102.235C420.882 101.365 420.748 100.566 420.482 99.8381C420.222 99.1042 419.819 98.5153 419.275 98.0714C418.73 97.6275 418.044 97.4055 417.215 97.4055C416.381 97.4055 415.688 97.6275 415.138 98.0714C414.593 98.5153 414.188 99.1042 413.921 99.8381C413.661 100.566 413.531 101.365 413.531 102.235C413.531 103.111 413.661 103.913 413.921 104.641C414.188 105.369 414.593 105.952 415.138 106.39C415.688 106.828 416.381 107.047 417.215 107.047ZM429.18 100.903V109H426.526V95.3636H429.074V97.5831H429.242C429.556 96.861 430.047 96.281 430.716 95.843C431.391 95.4051 432.24 95.1861 433.264 95.1861C434.193 95.1861 435.007 95.3814 435.705 95.772C436.404 96.1567 436.945 96.7308 437.33 97.4943C437.715 98.2578 437.907 99.2018 437.907 100.326V109H435.253V100.646C435.253 99.6576 434.995 98.8852 434.48 98.3288C433.965 97.7666 433.258 97.4854 432.358 97.4854C431.743 97.4854 431.195 97.6186 430.716 97.8849C430.243 98.1513 429.867 98.5419 429.589 99.0568C429.316 99.5658 429.18 100.181 429.18 100.903ZM447.832 95.3636V97.4943H440.384V95.3636H447.832ZM442.381 92.0966H445.036V104.996C445.036 105.511 445.113 105.899 445.267 106.159C445.421 106.414 445.619 106.588 445.862 106.683C446.11 106.772 446.379 106.816 446.669 106.816C446.883 106.816 447.069 106.801 447.229 106.772C447.389 106.742 447.513 106.718 447.602 106.701L448.081 108.893C447.927 108.953 447.708 109.012 447.424 109.071C447.14 109.136 446.785 109.172 446.359 109.178C445.66 109.189 445.009 109.065 444.406 108.805C443.802 108.544 443.314 108.142 442.941 107.597C442.568 107.053 442.381 106.369 442.381 105.547V92.0966ZM454.737 109.302C453.873 109.302 453.092 109.142 452.393 108.822C451.695 108.497 451.142 108.026 450.733 107.411C450.331 106.795 450.13 106.041 450.13 105.147C450.13 104.378 450.278 103.744 450.574 103.247C450.869 102.75 451.269 102.356 451.772 102.066C452.275 101.776 452.837 101.557 453.459 101.409C454.08 101.261 454.714 101.149 455.359 101.072C456.175 100.977 456.838 100.9 457.347 100.841C457.856 100.776 458.226 100.673 458.457 100.531C458.688 100.388 458.803 100.158 458.803 99.8381V99.7759C458.803 99.0006 458.584 98.3999 458.146 97.9737C457.714 97.5476 457.069 97.3345 456.211 97.3345C455.317 97.3345 454.613 97.5328 454.098 97.9293C453.589 98.32 453.237 98.755 453.042 99.2344L450.547 98.6662C450.843 97.8376 451.275 97.1688 451.843 96.6598C452.417 96.1449 453.077 95.772 453.823 95.5412C454.569 95.3045 455.353 95.1861 456.175 95.1861C456.72 95.1861 457.297 95.2512 457.907 95.3814C458.522 95.5057 459.096 95.7365 459.629 96.0739C460.167 96.4112 460.608 96.8936 460.952 97.521C461.295 98.1424 461.467 98.9503 461.467 99.9446V109H458.874V107.136H458.768C458.596 107.479 458.339 107.816 457.995 108.148C457.652 108.479 457.211 108.754 456.673 108.973C456.134 109.192 455.489 109.302 454.737 109.302ZM455.314 107.171C456.048 107.171 456.676 107.026 457.196 106.736C457.723 106.446 458.123 106.067 458.395 105.6C458.673 105.126 458.812 104.62 458.812 104.082V102.324C458.717 102.419 458.534 102.507 458.262 102.59C457.995 102.667 457.691 102.735 457.347 102.794C457.004 102.848 456.67 102.898 456.344 102.945C456.019 102.987 455.746 103.022 455.527 103.052C455.012 103.117 454.542 103.226 454.116 103.38C453.696 103.534 453.358 103.756 453.104 104.046C452.855 104.33 452.731 104.709 452.731 105.183C452.731 105.839 452.973 106.337 453.459 106.674C453.944 107.005 454.563 107.171 455.314 107.171ZM470.746 109.275C469.426 109.275 468.29 108.976 467.337 108.379C466.39 107.775 465.662 106.943 465.153 105.884C464.644 104.824 464.39 103.611 464.39 102.244C464.39 100.859 464.65 99.6368 465.171 98.5774C465.692 97.5121 466.426 96.6805 467.373 96.0827C468.32 95.485 469.435 95.1861 470.72 95.1861C471.755 95.1861 472.679 95.3784 473.489 95.7631C474.3 96.1419 474.954 96.6746 475.451 97.3612C475.955 98.0477 476.253 98.8497 476.348 99.767H473.765C473.623 99.1278 473.297 98.5774 472.788 98.1158C472.285 97.6541 471.61 97.4233 470.764 97.4233C470.024 97.4233 469.376 97.6186 468.82 98.0092C468.269 98.3939 467.84 98.9444 467.532 99.6605C467.225 100.371 467.071 101.211 467.071 102.182C467.071 103.176 467.222 104.034 467.524 104.756C467.825 105.478 468.252 106.038 468.802 106.434C469.358 106.831 470.012 107.029 470.764 107.029C471.267 107.029 471.723 106.937 472.131 106.754C472.545 106.565 472.892 106.295 473.17 105.946C473.454 105.597 473.652 105.177 473.765 104.685H476.348C476.253 105.567 475.966 106.354 475.487 107.047C475.008 107.739 474.365 108.284 473.56 108.68C472.761 109.077 471.823 109.275 470.746 109.275ZM485.552 95.3636V97.4943H478.104V95.3636H485.552ZM480.101 92.0966H482.756V104.996C482.756 105.511 482.833 105.899 482.987 106.159C483.14 106.414 483.339 106.588 483.581 106.683C483.83 106.772 484.099 106.816 484.389 106.816C484.602 106.816 484.789 106.801 484.949 106.772C485.108 106.742 485.233 106.718 485.321 106.701L485.801 108.893C485.647 108.953 485.428 109.012 485.144 109.071C484.86 109.136 484.505 109.172 484.078 109.178C483.38 109.189 482.729 109.065 482.125 108.805C481.522 108.544 481.033 108.142 480.661 107.597C480.288 107.053 480.101 106.369 480.101 105.547V92.0966ZM503.743 103.345V95.3636H506.406V109H503.796V106.638H503.654C503.34 107.366 502.837 107.973 502.145 108.458C501.458 108.938 500.603 109.178 499.579 109.178C498.703 109.178 497.928 108.985 497.253 108.6C496.584 108.21 496.058 107.633 495.673 106.869C495.294 106.106 495.105 105.162 495.105 104.037V95.3636H497.759V103.718C497.759 104.647 498.017 105.387 498.532 105.937C499.047 106.488 499.715 106.763 500.538 106.763C501.035 106.763 501.529 106.638 502.021 106.39C502.518 106.141 502.929 105.766 503.255 105.262C503.586 104.759 503.749 104.12 503.743 103.345ZM520.191 98.6928L517.785 99.119C517.685 98.8112 517.525 98.5182 517.306 98.2401C517.093 97.9619 516.803 97.734 516.436 97.5565C516.069 97.3789 515.61 97.2901 515.06 97.2901C514.308 97.2901 513.681 97.4588 513.178 97.7962C512.675 98.1276 512.423 98.5567 512.423 99.0835C512.423 99.5392 512.592 99.9061 512.929 100.184C513.267 100.462 513.811 100.69 514.563 100.868L516.729 101.365C517.984 101.655 518.919 102.102 519.534 102.706C520.15 103.309 520.458 104.094 520.458 105.058C520.458 105.875 520.221 106.603 519.747 107.242C519.28 107.875 518.626 108.373 517.785 108.734C516.951 109.095 515.983 109.275 514.882 109.275C513.355 109.275 512.11 108.95 511.145 108.299C510.18 107.642 509.588 106.71 509.369 105.502L511.935 105.112C512.095 105.78 512.423 106.286 512.92 106.63C513.418 106.967 514.066 107.136 514.865 107.136C515.735 107.136 516.43 106.955 516.951 106.594C517.472 106.227 517.732 105.78 517.732 105.254C517.732 104.827 517.572 104.469 517.253 104.179C516.939 103.889 516.457 103.67 515.806 103.522L513.497 103.016C512.225 102.726 511.284 102.265 510.674 101.631C510.071 100.998 509.769 100.196 509.769 99.2255C509.769 98.4206 509.994 97.7163 510.443 97.1126C510.893 96.5089 511.515 96.0384 512.308 95.701C513.101 95.3577 514.009 95.1861 515.033 95.1861C516.507 95.1861 517.667 95.5057 518.513 96.1449C519.36 96.7782 519.919 97.6275 520.191 98.6928ZM536.358 95.3636V97.4943H528.909V95.3636H536.358ZM530.907 92.0966H533.561V104.996C533.561 105.511 533.638 105.899 533.792 106.159C533.946 106.414 534.144 106.588 534.387 106.683C534.636 106.772 534.905 106.816 535.195 106.816C535.408 106.816 535.594 106.801 535.754 106.772C535.914 106.742 536.038 106.718 536.127 106.701L536.606 108.893C536.453 108.953 536.234 109.012 535.949 109.071C535.665 109.136 535.31 109.172 534.884 109.178C534.186 109.189 533.535 109.065 532.931 108.805C532.327 108.544 531.839 108.142 531.466 107.597C531.093 107.053 530.907 106.369 530.907 105.547V92.0966ZM544.892 109.275C543.613 109.275 542.498 108.982 541.545 108.396C540.592 107.81 539.852 106.991 539.325 105.937C538.799 104.884 538.535 103.653 538.535 102.244C538.535 100.829 538.799 99.5924 539.325 98.533C539.852 97.4736 540.592 96.6509 541.545 96.065C542.498 95.479 543.613 95.1861 544.892 95.1861C546.17 95.1861 547.286 95.479 548.239 96.065C549.192 96.6509 549.931 97.4736 550.458 98.533C550.985 99.5924 551.248 100.829 551.248 102.244C551.248 103.653 550.985 104.884 550.458 105.937C549.931 106.991 549.192 107.81 548.239 108.396C547.286 108.982 546.17 109.275 544.892 109.275ZM544.901 107.047C545.729 107.047 546.416 106.828 546.96 106.39C547.505 105.952 547.907 105.369 548.168 104.641C548.434 103.913 548.567 103.111 548.567 102.235C548.567 101.365 548.434 100.566 548.168 99.8381C547.907 99.1042 547.505 98.5153 546.96 98.0714C546.416 97.6275 545.729 97.4055 544.901 97.4055C544.066 97.4055 543.374 97.6275 542.823 98.0714C542.279 98.5153 541.873 99.1042 541.607 99.8381C541.346 100.566 541.216 101.365 541.216 102.235C541.216 103.111 541.346 103.913 541.607 104.641C541.873 105.369 542.279 105.952 542.823 106.39C543.374 106.828 544.066 107.047 544.901 107.047ZM559.316 109.266C558.215 109.266 557.233 108.985 556.369 108.423C555.51 107.855 554.836 107.047 554.344 105.999C553.859 104.946 553.616 103.682 553.616 102.208C553.616 100.735 553.862 99.4741 554.353 98.4265C554.85 97.3789 555.531 96.5769 556.395 96.0206C557.259 95.4643 558.239 95.1861 559.334 95.1861C560.18 95.1861 560.861 95.3281 561.376 95.6122C561.896 95.8904 562.299 96.2159 562.583 96.5888C562.873 96.9616 563.098 97.2901 563.258 97.5742H563.418V90.8182H566.072V109H563.48V106.878H563.258C563.098 107.168 562.867 107.5 562.565 107.873C562.269 108.245 561.861 108.571 561.34 108.849C560.819 109.127 560.145 109.266 559.316 109.266ZM559.902 107.002C560.665 107.002 561.311 106.801 561.837 106.399C562.37 105.99 562.772 105.425 563.045 104.703C563.323 103.981 563.462 103.141 563.462 102.182C563.462 101.235 563.326 100.406 563.054 99.696C562.781 98.9858 562.382 98.4324 561.855 98.0359C561.328 97.6393 560.677 97.4411 559.902 97.4411C559.103 97.4411 558.437 97.6482 557.904 98.0625C557.372 98.4768 556.969 99.042 556.697 99.7582C556.431 100.474 556.297 101.282 556.297 102.182C556.297 103.093 556.434 103.913 556.706 104.641C556.978 105.369 557.381 105.946 557.913 106.372C558.452 106.792 559.115 107.002 559.902 107.002ZM573.829 109.302C572.965 109.302 572.184 109.142 571.485 108.822C570.787 108.497 570.233 108.026 569.825 107.411C569.423 106.795 569.221 106.041 569.221 105.147C569.221 104.378 569.369 103.744 569.665 103.247C569.961 102.75 570.361 102.356 570.864 102.066C571.367 101.776 571.929 101.557 572.551 101.409C573.172 101.261 573.805 101.149 574.45 101.072C575.267 100.977 575.93 100.9 576.439 100.841C576.948 100.776 577.318 100.673 577.549 100.531C577.78 100.388 577.895 100.158 577.895 99.8381V99.7759C577.895 99.0006 577.676 98.3999 577.238 97.9737C576.806 97.5476 576.161 97.3345 575.303 97.3345C574.409 97.3345 573.705 97.5328 573.19 97.9293C572.681 98.32 572.329 98.755 572.133 99.2344L569.639 98.6662C569.935 97.8376 570.367 97.1688 570.935 96.6598C571.509 96.1449 572.169 95.772 572.915 95.5412C573.66 95.3045 574.445 95.1861 575.267 95.1861C575.812 95.1861 576.389 95.2512 576.998 95.3814C577.614 95.5057 578.188 95.7365 578.721 96.0739C579.259 96.4112 579.7 96.8936 580.044 97.521C580.387 98.1424 580.558 98.9503 580.558 99.9446V109H577.966V107.136H577.86C577.688 107.479 577.43 107.816 577.087 108.148C576.744 108.479 576.303 108.754 575.764 108.973C575.226 109.192 574.581 109.302 573.829 109.302ZM574.406 107.171C575.14 107.171 575.767 107.026 576.288 106.736C576.815 106.446 577.214 106.067 577.487 105.6C577.765 105.126 577.904 104.62 577.904 104.082V102.324C577.809 102.419 577.626 102.507 577.354 102.59C577.087 102.667 576.782 102.735 576.439 102.794C576.096 102.848 575.761 102.898 575.436 102.945C575.11 102.987 574.838 103.022 574.619 103.052C574.104 103.117 573.634 103.226 573.208 103.38C572.787 103.534 572.45 103.756 572.195 104.046C571.947 104.33 571.823 104.709 571.823 105.183C571.823 105.839 572.065 106.337 572.551 106.674C573.036 107.005 573.654 107.171 574.406 107.171ZM585.284 114.114C584.887 114.114 584.526 114.081 584.201 114.016C583.875 113.957 583.632 113.892 583.473 113.821L584.112 111.646C584.597 111.776 585.029 111.832 585.408 111.814C585.787 111.797 586.121 111.654 586.411 111.388C586.707 111.122 586.967 110.687 587.192 110.083L587.521 109.178L582.532 95.3636H585.372L588.826 105.946H588.968L592.421 95.3636H595.271L589.652 110.82C589.391 111.53 589.06 112.131 588.657 112.622C588.255 113.119 587.775 113.492 587.219 113.741C586.663 113.989 586.018 114.114 585.284 114.114ZM610.748 95.3636V97.4943H603.299V95.3636H610.748ZM605.297 92.0966H607.951V104.996C607.951 105.511 608.028 105.899 608.182 106.159C608.336 106.414 608.534 106.588 608.777 106.683C609.025 106.772 609.295 106.816 609.585 106.816C609.798 106.816 609.984 106.801 610.144 106.772C610.304 106.742 610.428 106.718 610.517 106.701L610.996 108.893C610.842 108.953 610.623 109.012 610.339 109.071C610.055 109.136 609.7 109.172 609.274 109.178C608.575 109.189 607.924 109.065 607.321 108.805C606.717 108.544 606.229 108.142 605.856 107.597C605.483 107.053 605.297 106.369 605.297 105.547V92.0966ZM619.281 109.275C618.003 109.275 616.887 108.982 615.934 108.396C614.982 107.81 614.242 106.991 613.715 105.937C613.188 104.884 612.925 103.653 612.925 102.244C612.925 100.829 613.188 99.5924 613.715 98.533C614.242 97.4736 614.982 96.6509 615.934 96.065C616.887 95.479 618.003 95.1861 619.281 95.1861C620.56 95.1861 621.675 95.479 622.628 96.065C623.581 96.6509 624.321 97.4736 624.848 98.533C625.374 99.5924 625.638 100.829 625.638 102.244C625.638 103.653 625.374 104.884 624.848 105.937C624.321 106.991 623.581 107.81 622.628 108.396C621.675 108.982 620.56 109.275 619.281 109.275ZM619.29 107.047C620.119 107.047 620.805 106.828 621.35 106.39C621.894 105.952 622.297 105.369 622.557 104.641C622.824 103.913 622.957 103.111 622.957 102.235C622.957 101.365 622.824 100.566 622.557 99.8381C622.297 99.1042 621.894 98.5153 621.35 98.0714C620.805 97.6275 620.119 97.4055 619.29 97.4055C618.456 97.4055 617.763 97.6275 617.213 98.0714C616.668 98.5153 616.263 99.1042 615.997 99.8381C615.736 100.566 615.606 101.365 615.606 102.235C615.606 103.111 615.736 103.913 615.997 104.641C616.263 105.369 616.668 105.952 617.213 106.39C617.763 106.828 618.456 107.047 619.29 107.047ZM641.582 95.3636V97.4943H634.134V95.3636H641.582ZM636.131 92.0966H638.786V104.996C638.786 105.511 638.863 105.899 639.017 106.159C639.171 106.414 639.369 106.588 639.612 106.683C639.86 106.772 640.129 106.816 640.419 106.816C640.633 106.816 640.819 106.801 640.979 106.772C641.139 106.742 641.263 106.718 641.352 106.701L641.831 108.893C641.677 108.953 641.458 109.012 641.174 109.071C640.89 109.136 640.535 109.172 640.109 109.178C639.41 109.189 638.759 109.065 638.156 108.805C637.552 108.544 637.064 108.142 636.691 107.597C636.318 107.053 636.131 106.369 636.131 105.547V92.0966ZM648.487 109.302C647.623 109.302 646.842 109.142 646.143 108.822C645.445 108.497 644.892 108.026 644.483 107.411C644.081 106.795 643.88 106.041 643.88 105.147C643.88 104.378 644.028 103.744 644.324 103.247C644.619 102.75 645.019 102.356 645.522 102.066C646.025 101.776 646.587 101.557 647.209 101.409C647.83 101.261 648.464 101.149 649.109 101.072C649.925 100.977 650.588 100.9 651.097 100.841C651.606 100.776 651.976 100.673 652.207 100.531C652.438 100.388 652.553 100.158 652.553 99.8381V99.7759C652.553 99.0006 652.334 98.3999 651.896 97.9737C651.464 97.5476 650.819 97.3345 649.961 97.3345C649.067 97.3345 648.363 97.5328 647.848 97.9293C647.339 98.32 646.987 98.755 646.792 99.2344L644.297 98.6662C644.593 97.8376 645.025 97.1688 645.593 96.6598C646.167 96.1449 646.827 95.772 647.573 95.5412C648.319 95.3045 649.103 95.1861 649.925 95.1861C650.47 95.1861 651.047 95.2512 651.657 95.3814C652.272 95.5057 652.846 95.7365 653.379 96.0739C653.917 96.4112 654.358 96.8936 654.702 97.521C655.045 98.1424 655.217 98.9503 655.217 99.9446V109H652.624V107.136H652.518C652.346 107.479 652.089 107.816 651.745 108.148C651.402 108.479 650.961 108.754 650.423 108.973C649.884 109.192 649.239 109.302 648.487 109.302ZM649.064 107.171C649.798 107.171 650.426 107.026 650.946 106.736C651.473 106.446 651.873 106.067 652.145 105.6C652.423 105.126 652.562 104.62 652.562 104.082V102.324C652.467 102.419 652.284 102.507 652.012 102.59C651.745 102.667 651.441 102.735 651.097 102.794C650.754 102.848 650.42 102.898 650.094 102.945C649.769 102.987 649.496 103.022 649.277 103.052C648.762 103.117 648.292 103.226 647.866 103.38C647.446 103.534 647.108 103.756 646.854 104.046C646.605 104.33 646.481 104.709 646.481 105.183C646.481 105.839 646.723 106.337 647.209 106.674C647.694 107.005 648.313 107.171 649.064 107.171ZM661.194 104.375L661.176 101.134H661.638L667.071 95.3636H670.249L664.052 101.933H663.635L661.194 104.375ZM658.752 109V90.8182H661.407V109H658.752ZM667.364 109L662.481 102.519L664.31 100.664L670.622 109H667.364ZM677.984 109.275C676.64 109.275 675.483 108.988 674.513 108.414C673.548 107.834 672.802 107.02 672.275 105.973C671.755 104.919 671.494 103.685 671.494 102.271C671.494 100.874 671.755 99.6428 672.275 98.5774C672.802 97.5121 673.536 96.6805 674.477 96.0827C675.424 95.485 676.531 95.1861 677.797 95.1861C678.567 95.1861 679.313 95.3133 680.035 95.5678C680.757 95.8223 681.405 96.2218 681.979 96.7663C682.553 97.3108 683.006 98.0181 683.337 98.8881C683.669 99.7522 683.834 100.803 683.834 102.04V102.981H672.994V100.992H681.233C681.233 100.294 681.091 99.6753 680.807 99.1367C680.523 98.5922 680.123 98.1631 679.608 97.8494C679.099 97.5357 678.502 97.3789 677.815 97.3789C677.069 97.3789 676.418 97.5624 675.862 97.9293C675.312 98.2904 674.885 98.7638 674.584 99.3498C674.288 99.9298 674.14 100.56 674.14 101.241V102.794C674.14 103.706 674.3 104.481 674.619 105.12C674.945 105.76 675.397 106.248 675.977 106.585C676.557 106.917 677.235 107.082 678.01 107.082C678.514 107.082 678.972 107.011 679.387 106.869C679.801 106.721 680.159 106.502 680.461 106.212C680.763 105.922 680.993 105.564 681.153 105.138L683.666 105.591C683.464 106.331 683.103 106.979 682.583 107.535C682.068 108.086 681.42 108.515 680.638 108.822C679.863 109.124 678.978 109.275 677.984 109.275ZM697.364 109.302C696.5 109.302 695.719 109.142 695.02 108.822C694.322 108.497 693.769 108.026 693.36 107.411C692.958 106.795 692.757 106.041 692.757 105.147C692.757 104.378 692.905 103.744 693.2 103.247C693.496 102.75 693.896 102.356 694.399 102.066C694.902 101.776 695.464 101.557 696.086 101.409C696.707 101.261 697.34 101.149 697.986 101.072C698.802 100.977 699.465 100.9 699.974 100.841C700.483 100.776 700.853 100.673 701.084 100.531C701.315 100.388 701.43 100.158 701.43 99.8381V99.7759C701.43 99.0006 701.211 98.3999 700.773 97.9737C700.341 97.5476 699.696 97.3345 698.838 97.3345C697.944 97.3345 697.24 97.5328 696.725 97.9293C696.216 98.32 695.864 98.755 695.669 99.2344L693.174 98.6662C693.47 97.8376 693.902 97.1688 694.47 96.6598C695.044 96.1449 695.704 95.772 696.45 95.5412C697.195 95.3045 697.98 95.1861 698.802 95.1861C699.347 95.1861 699.924 95.2512 700.534 95.3814C701.149 95.5057 701.723 95.7365 702.256 96.0739C702.794 96.4112 703.235 96.8936 703.579 97.521C703.922 98.1424 704.094 98.9503 704.094 99.9446V109H701.501V107.136H701.395C701.223 107.479 700.966 107.816 700.622 108.148C700.279 108.479 699.838 108.754 699.3 108.973C698.761 109.192 698.116 109.302 697.364 109.302ZM697.941 107.171C698.675 107.171 699.302 107.026 699.823 106.736C700.35 106.446 700.75 106.067 701.022 105.6C701.3 105.126 701.439 104.62 701.439 104.082V102.324C701.344 102.419 701.161 102.507 700.889 102.59C700.622 102.667 700.318 102.735 699.974 102.794C699.631 102.848 699.297 102.898 698.971 102.945C698.646 102.987 698.373 103.022 698.154 103.052C697.639 103.117 697.169 103.226 696.743 103.38C696.323 103.534 695.985 103.756 695.731 104.046C695.482 104.33 695.358 104.709 695.358 105.183C695.358 105.839 695.6 106.337 696.086 106.674C696.571 107.005 697.19 107.171 697.941 107.171ZM712.734 109.266C711.633 109.266 710.651 108.985 709.786 108.423C708.928 107.855 708.254 107.047 707.762 105.999C707.277 104.946 707.034 103.682 707.034 102.208C707.034 100.735 707.28 99.4741 707.771 98.4265C708.268 97.3789 708.949 96.5769 709.813 96.0206C710.677 95.4643 711.657 95.1861 712.752 95.1861C713.598 95.1861 714.279 95.3281 714.794 95.6122C715.314 95.8904 715.717 96.2159 716.001 96.5888C716.291 96.9616 716.516 97.2901 716.676 97.5742H716.835V90.8182H719.49V109H716.898V106.878H716.676C716.516 107.168 716.285 107.5 715.983 107.873C715.687 108.245 715.279 108.571 714.758 108.849C714.237 109.127 713.563 109.266 712.734 109.266ZM713.32 107.002C714.083 107.002 714.728 106.801 715.255 106.399C715.788 105.99 716.19 105.425 716.463 104.703C716.741 103.981 716.88 103.141 716.88 102.182C716.88 101.235 716.744 100.406 716.472 99.696C716.199 98.9858 715.8 98.4324 715.273 98.0359C714.746 97.6393 714.095 97.4411 713.32 97.4411C712.521 97.4411 711.855 97.6482 711.322 98.0625C710.79 98.4768 710.387 99.042 710.115 99.7582C709.849 100.474 709.715 101.282 709.715 102.182C709.715 103.093 709.852 103.913 710.124 104.641C710.396 105.369 710.799 105.946 711.331 106.372C711.87 106.792 712.533 107.002 713.32 107.002ZM734.944 95.3636L729.999 109H727.158L722.204 95.3636H725.054L728.508 105.857H728.65L732.094 95.3636H734.944ZM741.017 109.302C740.152 109.302 739.371 109.142 738.673 108.822C737.974 108.497 737.421 108.026 737.013 107.411C736.61 106.795 736.409 106.041 736.409 105.147C736.409 104.378 736.557 103.744 736.853 103.247C737.149 102.75 737.548 102.356 738.051 102.066C738.554 101.776 739.117 101.557 739.738 101.409C740.36 101.261 740.993 101.149 741.638 101.072C742.455 100.977 743.118 100.9 743.627 100.841C744.136 100.776 744.506 100.673 744.736 100.531C744.967 100.388 745.083 100.158 745.083 99.8381V99.7759C745.083 99.0006 744.864 98.3999 744.426 97.9737C743.994 97.5476 743.348 97.3345 742.49 97.3345C741.597 97.3345 740.892 97.5328 740.377 97.9293C739.868 98.32 739.516 98.755 739.321 99.2344L736.826 98.6662C737.122 97.8376 737.554 97.1688 738.122 96.6598C738.696 96.1449 739.356 95.772 740.102 95.5412C740.848 95.3045 741.632 95.1861 742.455 95.1861C742.999 95.1861 743.576 95.2512 744.186 95.3814C744.801 95.5057 745.376 95.7365 745.908 96.0739C746.447 96.4112 746.888 96.8936 747.231 97.521C747.574 98.1424 747.746 98.9503 747.746 99.9446V109H745.154V107.136H745.047C744.875 107.479 744.618 107.816 744.275 108.148C743.931 108.479 743.49 108.754 742.952 108.973C742.413 109.192 741.768 109.302 741.017 109.302ZM741.594 107.171C742.327 107.171 742.955 107.026 743.476 106.736C744.002 106.446 744.402 106.067 744.674 105.6C744.952 105.126 745.091 104.62 745.091 104.082V102.324C744.997 102.419 744.813 102.507 744.541 102.59C744.275 102.667 743.97 102.735 743.627 102.794C743.283 102.848 742.949 102.898 742.623 102.945C742.298 102.987 742.026 103.022 741.807 103.052C741.292 103.117 740.821 103.226 740.395 103.38C739.975 103.534 739.637 103.756 739.383 104.046C739.134 104.33 739.01 104.709 739.01 105.183C739.01 105.839 739.253 106.337 739.738 106.674C740.223 107.005 740.842 107.171 741.594 107.171ZM753.936 100.903V109H751.282V95.3636H753.829V97.5831H753.998C754.312 96.861 754.803 96.281 755.472 95.843C756.147 95.4051 756.996 95.1861 758.02 95.1861C758.949 95.1861 759.763 95.3814 760.461 95.772C761.16 96.1567 761.701 96.7308 762.086 97.4943C762.471 98.2578 762.663 99.2018 762.663 100.326V109H760.008V100.646C760.008 99.6576 759.751 98.8852 759.236 98.3288C758.721 97.7666 758.014 97.4854 757.114 97.4854C756.499 97.4854 755.951 97.6186 755.472 97.8849C754.998 98.1513 754.623 98.5419 754.344 99.0568C754.072 99.5658 753.936 100.181 753.936 100.903ZM772.588 95.3636V97.4943H765.14V95.3636H772.588ZM767.137 92.0966H769.792V104.996C769.792 105.511 769.869 105.899 770.023 106.159C770.177 106.414 770.375 106.588 770.617 106.683C770.866 106.772 771.135 106.816 771.425 106.816C771.638 106.816 771.825 106.801 771.985 106.772C772.144 106.742 772.269 106.718 772.358 106.701L772.837 108.893C772.683 108.953 772.464 109.012 772.18 109.071C771.896 109.136 771.541 109.172 771.115 109.178C770.416 109.189 769.765 109.065 769.161 108.805C768.558 108.544 768.07 108.142 767.697 107.597C767.324 107.053 767.137 106.369 767.137 105.547V92.0966ZM779.493 109.302C778.629 109.302 777.848 109.142 777.149 108.822C776.451 108.497 775.898 108.026 775.489 107.411C775.087 106.795 774.885 106.041 774.885 105.147C774.885 104.378 775.033 103.744 775.329 103.247C775.625 102.75 776.025 102.356 776.528 102.066C777.031 101.776 777.593 101.557 778.215 101.409C778.836 101.261 779.469 101.149 780.115 101.072C780.931 100.977 781.594 100.9 782.103 100.841C782.612 100.776 782.982 100.673 783.213 100.531C783.444 100.388 783.559 100.158 783.559 99.8381V99.7759C783.559 99.0006 783.34 98.3999 782.902 97.9737C782.47 97.5476 781.825 97.3345 780.967 97.3345C780.073 97.3345 779.369 97.5328 778.854 97.9293C778.345 98.32 777.993 98.755 777.797 99.2344L775.303 98.6662C775.599 97.8376 776.031 97.1688 776.599 96.6598C777.173 96.1449 777.833 95.772 778.579 95.5412C779.324 95.3045 780.109 95.1861 780.931 95.1861C781.476 95.1861 782.053 95.2512 782.662 95.3814C783.278 95.5057 783.852 95.7365 784.385 96.0739C784.923 96.4112 785.364 96.8936 785.708 97.521C786.051 98.1424 786.222 98.9503 786.222 99.9446V109H783.63V107.136H783.524C783.352 107.479 783.095 107.816 782.751 108.148C782.408 108.479 781.967 108.754 781.428 108.973C780.89 109.192 780.245 109.302 779.493 109.302ZM780.07 107.171C780.804 107.171 781.431 107.026 781.952 106.736C782.479 106.446 782.878 106.067 783.151 105.6C783.429 105.126 783.568 104.62 783.568 104.082V102.324C783.473 102.419 783.29 102.507 783.018 102.59C782.751 102.667 782.446 102.735 782.103 102.794C781.76 102.848 781.425 102.898 781.1 102.945C780.774 102.987 780.502 103.022 780.283 103.052C779.768 103.117 779.298 103.226 778.872 103.38C778.451 103.534 778.114 103.756 777.86 104.046C777.611 104.33 777.487 104.709 777.487 105.183C777.487 105.839 777.729 106.337 778.215 106.674C778.7 107.005 779.318 107.171 780.07 107.171ZM795.475 114.398C794.392 114.398 793.46 114.256 792.679 113.972C791.904 113.688 791.27 113.312 790.779 112.844C790.288 112.377 789.921 111.865 789.678 111.308L791.96 110.367C792.12 110.628 792.333 110.903 792.599 111.193C792.871 111.489 793.238 111.74 793.7 111.947C794.167 112.155 794.768 112.258 795.502 112.258C796.508 112.258 797.34 112.013 797.997 111.521C798.654 111.036 798.982 110.261 798.982 109.195V106.514H798.813C798.654 106.804 798.423 107.127 798.121 107.482C797.825 107.837 797.417 108.145 796.896 108.405C796.375 108.666 795.697 108.796 794.863 108.796C793.786 108.796 792.815 108.544 791.951 108.041C791.093 107.532 790.412 106.783 789.909 105.795C789.412 104.801 789.163 103.579 789.163 102.129C789.163 100.679 789.409 99.4356 789.9 98.3999C790.397 97.3641 791.078 96.571 791.942 96.0206C792.806 95.4643 793.786 95.1861 794.881 95.1861C795.727 95.1861 796.411 95.3281 796.931 95.6122C797.452 95.8904 797.858 96.2159 798.148 96.5888C798.444 96.9616 798.671 97.2901 798.831 97.5742H799.027V95.3636H801.628V109.302C801.628 110.474 801.355 111.435 800.811 112.187C800.266 112.939 799.53 113.495 798.6 113.856C797.677 114.217 796.635 114.398 795.475 114.398ZM795.449 106.594C796.212 106.594 796.857 106.417 797.384 106.061C797.917 105.7 798.319 105.185 798.592 104.517C798.87 103.842 799.009 103.034 799.009 102.093C799.009 101.176 798.873 100.368 798.6 99.6694C798.328 98.971 797.929 98.4265 797.402 98.0359C796.875 97.6393 796.224 97.4411 795.449 97.4411C794.65 97.4411 793.984 97.6482 793.451 98.0625C792.919 98.4709 792.516 99.0272 792.244 99.7315C791.978 100.436 791.844 101.223 791.844 102.093C791.844 102.987 791.98 103.771 792.253 104.446C792.525 105.12 792.927 105.647 793.46 106.026C793.999 106.405 794.662 106.594 795.449 106.594ZM811.065 109.275C809.721 109.275 808.564 108.988 807.594 108.414C806.629 107.834 805.883 107.02 805.356 105.973C804.836 104.919 804.575 103.685 804.575 102.271C804.575 100.874 804.836 99.6428 805.356 98.5774C805.883 97.5121 806.617 96.6805 807.558 96.0827C808.505 95.485 809.612 95.1861 810.878 95.1861C811.648 95.1861 812.394 95.3133 813.116 95.5678C813.838 95.8223 814.486 96.2218 815.06 96.7663C815.634 97.3108 816.087 98.0181 816.418 98.8881C816.75 99.7522 816.915 100.803 816.915 102.04V102.981H806.076V100.992H814.314C814.314 100.294 814.172 99.6753 813.888 99.1367C813.604 98.5922 813.204 98.1631 812.69 97.8494C812.181 97.5357 811.583 97.3789 810.896 97.3789C810.15 97.3789 809.499 97.5624 808.943 97.9293C808.393 98.2904 807.967 98.7638 807.665 99.3498C807.369 99.9298 807.221 100.56 807.221 101.241V102.794C807.221 103.706 807.381 104.481 807.7 105.12C808.026 105.76 808.478 106.248 809.059 106.585C809.639 106.917 810.316 107.082 811.092 107.082C811.595 107.082 812.053 107.011 812.468 106.869C812.882 106.721 813.24 106.502 813.542 106.212C813.844 105.922 814.074 105.564 814.234 105.138L816.747 105.591C816.545 106.331 816.184 106.979 815.664 107.535C815.149 108.086 814.501 108.515 813.719 108.822C812.944 109.124 812.059 109.275 811.065 109.275ZM297.528 139.275C296.25 139.275 295.134 138.982 294.181 138.396C293.229 137.81 292.489 136.991 291.962 135.937C291.435 134.884 291.172 133.653 291.172 132.244C291.172 130.829 291.435 129.592 291.962 128.533C292.489 127.474 293.229 126.651 294.181 126.065C295.134 125.479 296.25 125.186 297.528 125.186C298.807 125.186 299.922 125.479 300.875 126.065C301.828 126.651 302.568 127.474 303.095 128.533C303.622 129.592 303.885 130.829 303.885 132.244C303.885 133.653 303.622 134.884 303.095 135.937C302.568 136.991 301.828 137.81 300.875 138.396C299.922 138.982 298.807 139.275 297.528 139.275ZM297.537 137.047C298.366 137.047 299.052 136.828 299.597 136.39C300.141 135.952 300.544 135.369 300.804 134.641C301.071 133.913 301.204 133.111 301.204 132.235C301.204 131.365 301.071 130.566 300.804 129.838C300.544 129.104 300.141 128.515 299.597 128.071C299.052 127.627 298.366 127.406 297.537 127.406C296.703 127.406 296.01 127.627 295.46 128.071C294.915 128.515 294.51 129.104 294.244 129.838C293.983 130.566 293.853 131.365 293.853 132.235C293.853 133.111 293.983 133.913 294.244 134.641C294.51 135.369 294.915 135.952 295.46 136.39C296.01 136.828 296.703 137.047 297.537 137.047ZM313.338 125.364V127.494H305.632V125.364H313.338ZM307.745 139V123.783C307.745 122.931 307.931 122.224 308.304 121.662C308.677 121.093 309.171 120.67 309.786 120.392C310.402 120.108 311.071 119.966 311.793 119.966C312.326 119.966 312.781 120.01 313.16 120.099C313.539 120.182 313.82 120.259 314.003 120.33L313.382 122.478C313.258 122.443 313.098 122.401 312.903 122.354C312.707 122.301 312.471 122.274 312.192 122.274C311.547 122.274 311.086 122.434 310.807 122.754C310.535 123.073 310.399 123.535 310.399 124.138V139H307.745ZM329.058 125.364V127.494H321.61V125.364H329.058ZM323.607 122.097H326.262V134.996C326.262 135.511 326.338 135.899 326.492 136.159C326.646 136.414 326.845 136.588 327.087 136.683C327.336 136.772 327.605 136.816 327.895 136.816C328.108 136.816 328.295 136.801 328.454 136.772C328.614 136.742 328.738 136.718 328.827 136.701L329.307 138.893C329.153 138.953 328.934 139.012 328.65 139.071C328.366 139.136 328.01 139.172 327.584 139.178C326.886 139.189 326.235 139.065 325.631 138.805C325.028 138.544 324.539 138.142 324.166 137.597C323.794 137.053 323.607 136.369 323.607 135.547V122.097ZM334.942 130.903V139H332.287V120.818H334.906V127.583H335.075C335.395 126.849 335.883 126.266 336.54 125.834C337.197 125.402 338.055 125.186 339.114 125.186C340.05 125.186 340.866 125.378 341.565 125.763C342.269 126.148 342.814 126.722 343.198 127.485C343.589 128.243 343.784 129.19 343.784 130.326V139H341.13V130.646C341.13 129.646 340.872 128.87 340.357 128.32C339.842 127.764 339.126 127.485 338.209 127.485C337.582 127.485 337.019 127.619 336.522 127.885C336.031 128.151 335.643 128.542 335.359 129.057C335.081 129.566 334.942 130.181 334.942 130.903ZM347.326 139V125.364H349.981V139H347.326ZM348.667 123.26C348.205 123.26 347.809 123.106 347.477 122.798C347.152 122.484 346.989 122.111 346.989 121.679C346.989 121.241 347.152 120.868 347.477 120.561C347.809 120.247 348.205 120.09 348.667 120.09C349.129 120.09 349.522 120.247 349.848 120.561C350.179 120.868 350.345 121.241 350.345 121.679C350.345 122.111 350.179 122.484 349.848 122.798C349.522 123.106 349.129 123.26 348.667 123.26ZM363.77 128.693L361.365 129.119C361.264 128.811 361.104 128.518 360.885 128.24C360.672 127.962 360.382 127.734 360.015 127.556C359.648 127.379 359.189 127.29 358.639 127.29C357.887 127.29 357.26 127.459 356.757 127.796C356.254 128.128 356.002 128.557 356.002 129.083C356.002 129.539 356.171 129.906 356.508 130.184C356.846 130.462 357.39 130.69 358.142 130.868L360.308 131.365C361.563 131.655 362.498 132.102 363.113 132.706C363.729 133.309 364.037 134.094 364.037 135.058C364.037 135.875 363.8 136.603 363.327 137.242C362.859 137.875 362.205 138.373 361.365 138.734C360.53 139.095 359.562 139.275 358.461 139.275C356.934 139.275 355.689 138.95 354.724 138.299C353.759 137.642 353.167 136.71 352.948 135.502L355.514 135.112C355.674 135.78 356.002 136.286 356.499 136.63C356.997 136.967 357.645 137.136 358.444 137.136C359.314 137.136 360.009 136.955 360.53 136.594C361.051 136.227 361.311 135.78 361.311 135.254C361.311 134.827 361.151 134.469 360.832 134.179C360.518 133.889 360.036 133.67 359.385 133.522L357.077 133.016C355.804 132.726 354.863 132.265 354.253 131.631C353.65 130.998 353.348 130.196 353.348 129.225C353.348 128.421 353.573 127.716 354.023 127.113C354.472 126.509 355.094 126.038 355.887 125.701C356.68 125.358 357.588 125.186 358.612 125.186C360.086 125.186 361.246 125.506 362.093 126.145C362.939 126.778 363.498 127.627 363.77 128.693ZM376.226 120.818V139H373.572V120.818H376.226ZM379.797 139V125.364H382.452V139H379.797ZM381.138 123.26C380.676 123.26 380.28 123.106 379.948 122.798C379.623 122.484 379.46 122.111 379.46 121.679C379.46 121.241 379.623 120.868 379.948 120.561C380.28 120.247 380.676 120.09 381.138 120.09C381.599 120.09 381.993 120.247 382.318 120.561C382.65 120.868 382.816 121.241 382.816 121.679C382.816 122.111 382.65 122.484 382.318 122.798C381.993 123.106 381.599 123.26 381.138 123.26ZM386.023 139V125.364H388.571V127.583H388.739C389.023 126.831 389.488 126.246 390.133 125.825C390.778 125.399 391.551 125.186 392.45 125.186C393.362 125.186 394.125 125.399 394.741 125.825C395.362 126.251 395.821 126.837 396.117 127.583H396.259C396.584 126.855 397.102 126.275 397.812 125.843C398.523 125.405 399.369 125.186 400.352 125.186C401.589 125.186 402.598 125.574 403.379 126.349C404.166 127.124 404.56 128.293 404.56 129.856V139H401.905V130.104C401.905 129.181 401.654 128.512 401.151 128.098C400.647 127.684 400.047 127.477 399.348 127.477C398.484 127.477 397.812 127.743 397.333 128.276C396.854 128.802 396.614 129.48 396.614 130.309V139H393.968V129.936C393.968 129.196 393.738 128.601 393.276 128.151C392.814 127.701 392.214 127.477 391.474 127.477C390.971 127.477 390.506 127.61 390.08 127.876C389.66 128.136 389.319 128.5 389.059 128.968C388.804 129.436 388.677 129.977 388.677 130.593V139H386.023ZM408.117 139V125.364H410.772V139H408.117ZM409.458 123.26C408.996 123.26 408.6 123.106 408.268 122.798C407.943 122.484 407.78 122.111 407.78 121.679C407.78 121.241 407.943 120.868 408.268 120.561C408.6 120.247 408.996 120.09 409.458 120.09C409.92 120.09 410.313 120.247 410.639 120.561C410.97 120.868 411.136 121.241 411.136 121.679C411.136 122.111 410.97 122.484 410.639 122.798C410.313 123.106 409.92 123.26 409.458 123.26ZM420.708 125.364V127.494H413.26V125.364H420.708ZM415.257 122.097H417.912V134.996C417.912 135.511 417.989 135.899 418.143 136.159C418.297 136.414 418.495 136.588 418.738 136.683C418.986 136.772 419.255 136.816 419.545 136.816C419.759 136.816 419.945 136.801 420.105 136.772C420.265 136.742 420.389 136.718 420.478 136.701L420.957 138.893C420.803 138.953 420.584 139.012 420.3 139.071C420.016 139.136 419.661 139.172 419.235 139.178C418.536 139.189 417.885 139.065 417.282 138.805C416.678 138.544 416.19 138.142 415.817 137.597C415.444 137.053 415.257 136.369 415.257 135.547V122.097ZM429.375 139.275C428.032 139.275 426.875 138.988 425.904 138.414C424.939 137.834 424.194 137.02 423.667 135.973C423.146 134.919 422.886 133.685 422.886 132.271C422.886 130.874 423.146 129.643 423.667 128.577C424.194 127.512 424.928 126.681 425.869 126.083C426.816 125.485 427.922 125.186 429.189 125.186C429.958 125.186 430.704 125.313 431.426 125.568C432.148 125.822 432.796 126.222 433.37 126.766C433.945 127.311 434.397 128.018 434.729 128.888C435.06 129.752 435.226 130.803 435.226 132.04V132.981H424.386V130.992H432.625C432.625 130.294 432.483 129.675 432.199 129.137C431.915 128.592 431.515 128.163 431 127.849C430.491 127.536 429.893 127.379 429.207 127.379C428.461 127.379 427.81 127.562 427.254 127.929C426.703 128.29 426.277 128.764 425.975 129.35C425.679 129.93 425.531 130.56 425.531 131.241V132.794C425.531 133.706 425.691 134.481 426.011 135.12C426.336 135.76 426.789 136.248 427.369 136.585C427.949 136.917 428.627 137.082 429.402 137.082C429.905 137.082 430.364 137.011 430.778 136.869C431.192 136.721 431.551 136.502 431.852 136.212C432.154 135.922 432.385 135.564 432.545 135.138L435.057 135.591C434.856 136.331 434.495 136.979 433.974 137.535C433.459 138.086 432.811 138.515 432.03 138.822C431.255 139.124 430.37 139.275 429.375 139.275ZM443.276 139.266C442.175 139.266 441.193 138.985 440.328 138.423C439.47 137.855 438.796 137.047 438.304 135.999C437.819 134.946 437.576 133.682 437.576 132.208C437.576 130.735 437.822 129.474 438.313 128.426C438.81 127.379 439.491 126.577 440.355 126.021C441.219 125.464 442.199 125.186 443.294 125.186C444.14 125.186 444.821 125.328 445.336 125.612C445.856 125.89 446.259 126.216 446.543 126.589C446.833 126.962 447.058 127.29 447.218 127.574H447.377V120.818H450.032V139H447.44V136.878H447.218C447.058 137.168 446.827 137.5 446.525 137.873C446.229 138.245 445.821 138.571 445.3 138.849C444.779 139.127 444.105 139.266 443.276 139.266ZM443.862 137.002C444.625 137.002 445.27 136.801 445.797 136.399C446.33 135.99 446.732 135.425 447.005 134.703C447.283 133.981 447.422 133.141 447.422 132.182C447.422 131.235 447.286 130.406 447.013 129.696C446.741 128.986 446.342 128.432 445.815 128.036C445.288 127.639 444.637 127.441 443.862 127.441C443.063 127.441 442.397 127.648 441.864 128.062C441.332 128.477 440.929 129.042 440.657 129.758C440.391 130.474 440.257 131.282 440.257 132.182C440.257 133.093 440.394 133.913 440.666 134.641C440.938 135.369 441.341 135.946 441.873 136.372C442.412 136.792 443.075 137.002 443.862 137.002ZM461.855 130.167V132.466H453.794V130.167H461.855ZM471.758 125.364V127.494H464.31V125.364H471.758ZM466.307 122.097H468.962V134.996C468.962 135.511 469.039 135.899 469.193 136.159C469.346 136.414 469.545 136.588 469.787 136.683C470.036 136.772 470.305 136.816 470.595 136.816C470.808 136.816 470.995 136.801 471.155 136.772C471.314 136.742 471.439 136.718 471.527 136.701L472.007 138.893C471.853 138.953 471.634 139.012 471.35 139.071C471.066 139.136 470.711 139.172 470.285 139.178C469.586 139.189 468.935 139.065 468.331 138.805C467.728 138.544 467.239 138.142 466.867 137.597C466.494 137.053 466.307 136.369 466.307 135.547V122.097ZM474.695 139V125.364H477.349V139H474.695ZM476.035 123.26C475.574 123.26 475.177 123.106 474.846 122.798C474.52 122.484 474.357 122.111 474.357 121.679C474.357 121.241 474.52 120.868 474.846 120.561C475.177 120.247 475.574 120.09 476.035 120.09C476.497 120.09 476.89 120.247 477.216 120.561C477.547 120.868 477.713 121.241 477.713 121.679C477.713 122.111 477.547 122.484 477.216 122.798C476.89 123.106 476.497 123.26 476.035 123.26ZM480.92 139V125.364H483.468V127.583H483.637C483.921 126.831 484.386 126.246 485.031 125.825C485.676 125.399 486.448 125.186 487.348 125.186C488.259 125.186 489.023 125.399 489.638 125.825C490.26 126.251 490.718 126.837 491.014 127.583H491.156C491.482 126.855 492 126.275 492.71 125.843C493.42 125.405 494.267 125.186 495.249 125.186C496.486 125.186 497.495 125.574 498.276 126.349C499.064 127.124 499.457 128.293 499.457 129.856V139H496.803V130.104C496.803 129.181 496.551 128.512 496.048 128.098C495.545 127.684 494.944 127.477 494.246 127.477C493.382 127.477 492.71 127.743 492.231 128.276C491.751 128.802 491.511 129.48 491.511 130.309V139H488.866V129.936C488.866 129.196 488.635 128.601 488.173 128.151C487.712 127.701 487.111 127.477 486.371 127.477C485.868 127.477 485.403 127.61 484.977 127.876C484.557 128.136 484.217 128.5 483.956 128.968C483.702 129.436 483.575 129.977 483.575 130.593V139H480.92ZM508.892 139.275C507.549 139.275 506.391 138.988 505.421 138.414C504.456 137.834 503.71 137.02 503.184 135.973C502.663 134.919 502.402 133.685 502.402 132.271C502.402 130.874 502.663 129.643 503.184 128.577C503.71 127.512 504.444 126.681 505.385 126.083C506.332 125.485 507.439 125.186 508.706 125.186C509.475 125.186 510.221 125.313 510.943 125.568C511.665 125.822 512.313 126.222 512.887 126.766C513.461 127.311 513.914 128.018 514.245 128.888C514.577 129.752 514.743 130.803 514.743 132.04V132.981H503.903V130.992H512.141C512.141 130.294 511.999 129.675 511.715 129.137C511.431 128.592 511.032 128.163 510.517 127.849C510.008 127.536 509.41 127.379 508.723 127.379C507.978 127.379 507.327 127.562 506.77 127.929C506.22 128.29 505.794 128.764 505.492 129.35C505.196 129.93 505.048 130.56 505.048 131.241V132.794C505.048 133.706 505.208 134.481 505.527 135.12C505.853 135.76 506.306 136.248 506.886 136.585C507.466 136.917 508.143 137.082 508.919 137.082C509.422 137.082 509.88 137.011 510.295 136.869C510.709 136.721 511.067 136.502 511.369 136.212C511.671 135.922 511.902 135.564 512.061 135.138L514.574 135.591C514.373 136.331 514.012 136.979 513.491 137.535C512.976 138.086 512.328 138.515 511.547 138.822C510.771 139.124 509.886 139.275 508.892 139.275ZM530.048 139.275C528.77 139.275 527.654 138.982 526.701 138.396C525.748 137.81 525.008 136.991 524.482 135.937C523.955 134.884 523.691 133.653 523.691 132.244C523.691 130.829 523.955 129.592 524.482 128.533C525.008 127.474 525.748 126.651 526.701 126.065C527.654 125.479 528.77 125.186 530.048 125.186C531.326 125.186 532.442 125.479 533.395 126.065C534.348 126.651 535.088 127.474 535.614 128.533C536.141 129.592 536.404 130.829 536.404 132.244C536.404 133.653 536.141 134.884 535.614 135.937C535.088 136.991 534.348 137.81 533.395 138.396C532.442 138.982 531.326 139.275 530.048 139.275ZM530.057 137.047C530.885 137.047 531.572 136.828 532.116 136.39C532.661 135.952 533.063 135.369 533.324 134.641C533.59 133.913 533.723 133.111 533.723 132.235C533.723 131.365 533.59 130.566 533.324 129.838C533.063 129.104 532.661 128.515 532.116 128.071C531.572 127.627 530.885 127.406 530.057 127.406C529.222 127.406 528.53 127.627 527.979 128.071C527.435 128.515 527.029 129.104 526.763 129.838C526.503 130.566 526.373 131.365 526.373 132.235C526.373 133.111 526.503 133.913 526.763 134.641C527.029 135.369 527.435 135.952 527.979 136.39C528.53 136.828 529.222 137.047 530.057 137.047ZM545.857 125.364V127.494H538.151V125.364H545.857ZM540.264 139V123.783C540.264 122.931 540.451 122.224 540.823 121.662C541.196 121.093 541.69 120.67 542.306 120.392C542.922 120.108 543.59 119.966 544.312 119.966C544.845 119.966 545.301 120.01 545.68 120.099C546.058 120.182 546.34 120.259 546.523 120.33L545.902 122.478C545.777 122.443 545.617 122.401 545.422 122.354C545.227 122.301 544.99 122.274 544.712 122.274C544.067 122.274 543.605 122.434 543.327 122.754C543.055 123.073 542.919 123.535 542.919 124.138V139H540.264ZM555.086 125.364V127.494H547.38V125.364H555.086ZM549.493 139V123.783C549.493 122.931 549.679 122.224 550.052 121.662C550.425 121.093 550.919 120.67 551.535 120.392C552.15 120.108 552.819 119.966 553.541 119.966C554.074 119.966 554.529 120.01 554.908 120.099C555.287 120.182 555.568 120.259 555.752 120.33L555.13 122.478C555.006 122.443 554.846 122.401 554.651 122.354C554.455 122.301 554.219 122.274 553.94 122.274C553.295 122.274 552.834 122.434 552.555 122.754C552.283 123.073 552.147 123.535 552.147 124.138V139H549.493ZM563.165 139.275C561.821 139.275 560.664 138.988 559.693 138.414C558.729 137.834 557.983 137.02 557.456 135.973C556.935 134.919 556.675 133.685 556.675 132.271C556.675 130.874 556.935 129.643 557.456 128.577C557.983 127.512 558.717 126.681 559.658 126.083C560.605 125.485 561.711 125.186 562.978 125.186C563.747 125.186 564.493 125.313 565.215 125.568C565.937 125.822 566.585 126.222 567.16 126.766C567.734 127.311 568.186 128.018 568.518 128.888C568.849 129.752 569.015 130.803 569.015 132.04V132.981H558.175V130.992H566.414C566.414 130.294 566.272 129.675 565.988 129.137C565.704 128.592 565.304 128.163 564.789 127.849C564.28 127.536 563.682 127.379 562.996 127.379C562.25 127.379 561.599 127.562 561.043 127.929C560.492 128.29 560.066 128.764 559.764 129.35C559.468 129.93 559.32 130.56 559.32 131.241V132.794C559.32 133.706 559.48 134.481 559.8 135.12C560.125 135.76 560.578 136.248 561.158 136.585C561.738 136.917 562.416 137.082 563.191 137.082C563.694 137.082 564.153 137.011 564.567 136.869C564.982 136.721 565.34 136.502 565.641 136.212C565.943 135.922 566.174 135.564 566.334 135.138L568.846 135.591C568.645 136.331 568.284 136.979 567.763 137.535C567.248 138.086 566.6 138.515 565.819 138.822C565.044 139.124 564.159 139.275 563.165 139.275ZM571.96 139V125.364H574.526V127.53H574.668C574.917 126.796 575.355 126.219 575.982 125.799C576.615 125.373 577.331 125.159 578.13 125.159C578.296 125.159 578.491 125.165 578.716 125.177C578.947 125.189 579.128 125.204 579.258 125.222V127.761C579.151 127.731 578.962 127.699 578.69 127.663C578.417 127.622 578.145 127.601 577.873 127.601C577.246 127.601 576.686 127.734 576.195 128C575.71 128.261 575.325 128.625 575.041 129.092C574.757 129.554 574.615 130.081 574.615 130.673V139H571.96ZM581.741 139.169C581.256 139.169 580.839 138.997 580.49 138.654C580.14 138.305 579.966 137.884 579.966 137.393C579.966 136.908 580.14 136.493 580.49 136.15C580.839 135.801 581.256 135.626 581.741 135.626C582.227 135.626 582.644 135.801 582.993 136.15C583.342 136.493 583.517 136.908 583.517 137.393C583.517 137.719 583.434 138.018 583.268 138.29C583.109 138.556 582.896 138.769 582.629 138.929C582.363 139.089 582.067 139.169 581.741 139.169Z" fill="black"/>
<path d="M148.562 115.091V112.023C148.562 109.693 149.055 107.553 150.04 105.602C151.044 103.633 152.492 102.061 154.386 100.886C156.299 99.6932 158.629 99.0966 161.375 99.0966C164.159 99.0966 166.498 99.6837 168.392 100.858C170.305 102.032 171.744 103.604 172.71 105.574C173.695 107.525 174.188 109.674 174.188 112.023V115.091C174.188 117.42 173.695 119.57 172.71 121.54C171.725 123.491 170.277 125.053 168.364 126.227C166.451 127.42 164.121 128.017 161.375 128.017C158.591 128.017 156.252 127.42 154.358 126.227C152.464 125.053 151.025 123.491 150.04 121.54C149.055 119.57 148.562 117.42 148.562 115.091ZM156.83 112.023V115.091C156.83 116.436 157.152 117.705 157.795 118.898C158.458 120.091 159.652 120.688 161.375 120.688C163.098 120.688 164.273 120.1 164.898 118.926C165.542 117.752 165.864 116.473 165.864 115.091V112.023C165.864 110.64 165.561 109.352 164.955 108.159C164.348 106.966 163.155 106.369 161.375 106.369C159.67 106.369 158.487 106.966 157.824 108.159C157.161 109.352 156.83 110.64 156.83 112.023ZM118.705 81.7955V78.7273C118.705 76.3788 119.206 74.2292 120.21 72.2784C121.214 70.3087 122.663 68.7367 124.557 67.5625C126.47 66.3883 128.78 65.8011 131.489 65.8011C134.292 65.8011 136.64 66.3883 138.534 67.5625C140.428 68.7367 141.867 70.3087 142.852 72.2784C143.837 74.2292 144.33 76.3788 144.33 78.7273V81.7955C144.33 84.1439 143.828 86.2936 142.824 88.2443C141.839 90.1951 140.39 91.7576 138.477 92.9318C136.583 94.0871 134.254 94.6648 131.489 94.6648C128.723 94.6648 126.384 94.0777 124.472 92.9034C122.578 91.7102 121.138 90.1477 120.153 88.2159C119.188 86.2651 118.705 84.125 118.705 81.7955ZM127.028 78.7273V81.7955C127.028 83.178 127.35 84.4564 127.994 85.6307C128.657 86.8049 129.822 87.392 131.489 87.392C133.231 87.392 134.415 86.8049 135.04 85.6307C135.684 84.4564 136.006 83.178 136.006 81.7955V78.7273C136.006 77.3447 135.703 76.0568 135.097 74.8636C134.491 73.6705 133.288 73.0739 131.489 73.0739C129.803 73.0739 128.638 73.6799 127.994 74.892C127.35 76.1042 127.028 77.3826 127.028 78.7273ZM122.455 126L162.455 67.8182H169.898L129.898 126H122.455Z" fill="black"/>
<circle cx="34" cy="92" r="34" fill="white"/>
<circle cx="913.5" cy="97" r="34" fill="white"/>
<line x1="224" y1="180.025" x2="224" y2="-9.15527e-05" stroke="white" stroke-width="8" stroke-dasharray="16 16"/>
<defs>
<filter id="filter0_d_80_29" x="20" y="1" width="897" height="189" filterUnits="userSpaceOnUse" color-interpolation-filters="sRGB">
<feFlood flood-opacity="0" result="BackgroundImageFix"/>
<feColorMatrix in="SourceAlpha" type="matrix" values="0 0 0 0 0 0 0 0 0 0 0 0 0 0 0 0 0 0 127 0" result="hardAlpha"/>
<feOffset dy="4"/>
<feGaussianBlur stdDeviation="2"/>
<feComposite in2="hardAlpha" operator="out"/>
<feColorMatrix type="matrix" values="0 0 0 0 0 0 0 0 0 0 0 0 0 0 0 0 0 0 0.25 0"/>
<feBlend mode="normal" in2="BackgroundImageFix" result="effect1_dropShadow_80_29"/>
<feBlend mode="normal" in="SourceGraphic" in2="effect1_dropShadow_80_29" result="shape"/>
</filter>
</defs>
</svg>
