<svg width="922" height="190" viewBox="0 0 922 190" fill="none" xmlns="http://www.w3.org/2000/svg">
<g filter="url(#filter0_d_80_33)">
<rect x="24" y="1" width="897" height="181" fill="#F5D562"/>
</g>
<path d="M274.998 82V63.8182H281.478C282.887 63.8182 284.056 64.0608 284.985 64.5462C285.92 65.0315 286.619 65.7032 287.08 66.5614C287.542 67.4137 287.773 68.3991 287.773 69.5178C287.773 70.6304 287.539 71.61 287.071 72.4563C286.61 73.2968 285.911 73.9508 284.976 74.4183C284.047 74.8859 282.878 75.1197 281.469 75.1197H276.56V72.7582H281.221C282.109 72.7582 282.831 72.6309 283.387 72.3764C283.949 72.1219 284.361 71.752 284.621 71.2667C284.882 70.7814 285.012 70.1984 285.012 69.5178C285.012 68.8312 284.879 68.2364 284.612 67.7333C284.352 67.2302 283.94 66.8455 283.378 66.5792C282.822 66.3069 282.091 66.1708 281.185 66.1708H277.741V82H274.998ZM283.973 73.7969L288.465 82H285.34L280.937 73.7969H283.973ZM296.604 82.2752C295.26 82.2752 294.103 81.9882 293.133 81.4141C292.168 80.834 291.422 80.0202 290.896 78.9727C290.375 77.9192 290.114 76.6851 290.114 75.2706C290.114 73.8738 290.375 72.6428 290.896 71.5774C291.422 70.5121 292.156 69.6805 293.097 69.0827C294.044 68.485 295.151 68.1861 296.418 68.1861C297.187 68.1861 297.933 68.3133 298.655 68.5678C299.377 68.8223 300.025 69.2218 300.599 69.7663C301.173 70.3108 301.626 71.0181 301.957 71.8881C302.289 72.7522 302.454 73.8028 302.454 75.0398V75.9808H291.615V73.9922H299.853C299.853 73.2938 299.711 72.6753 299.427 72.1367C299.143 71.5922 298.744 71.1631 298.229 70.8494C297.72 70.5357 297.122 70.3789 296.435 70.3789C295.69 70.3789 295.039 70.5624 294.482 70.9293C293.932 71.2904 293.506 71.7638 293.204 72.3498C292.908 72.9298 292.76 73.5601 292.76 74.2408V75.7944C292.76 76.7058 292.92 77.4812 293.239 78.1204C293.565 78.7596 294.018 79.2479 294.598 79.5852C295.178 79.9167 295.855 80.0824 296.631 80.0824C297.134 80.0824 297.592 80.0114 298.007 79.8693C298.421 79.7214 298.779 79.5024 299.081 79.2124C299.383 78.9223 299.614 78.5643 299.773 78.1381L302.286 78.5909C302.085 79.3307 301.724 79.9788 301.203 80.5352C300.688 81.0856 300.04 81.5147 299.258 81.8224C298.483 82.1243 297.598 82.2752 296.604 82.2752ZM311.889 68.3636V70.4943H304.183V68.3636H311.889ZM306.296 82V66.7834C306.296 65.9311 306.483 65.2238 306.856 64.6616C307.229 64.0934 307.723 63.6702 308.338 63.392C308.954 63.108 309.623 62.9659 310.345 62.9659C310.877 62.9659 311.333 63.0103 311.712 63.0991C312.091 63.1819 312.372 63.2589 312.555 63.3299L311.934 65.4783C311.809 65.4428 311.65 65.4014 311.454 65.354C311.259 65.3008 311.022 65.2741 310.744 65.2741C310.099 65.2741 309.637 65.4339 309.359 65.7536C309.087 66.0732 308.951 66.5348 308.951 67.1385V82H306.296ZM319.968 82.2752C318.625 82.2752 317.468 81.9882 316.497 81.4141C315.532 80.834 314.787 80.0202 314.26 78.9727C313.739 77.9192 313.479 76.6851 313.479 75.2706C313.479 73.8738 313.739 72.6428 314.26 71.5774C314.787 70.5121 315.52 69.6805 316.461 69.0827C317.408 68.485 318.515 68.1861 319.782 68.1861C320.551 68.1861 321.297 68.3133 322.019 68.5678C322.741 68.8223 323.389 69.2218 323.963 69.7663C324.537 70.3108 324.99 71.0181 325.322 71.8881C325.653 72.7522 325.819 73.8028 325.819 75.0398V75.9808H314.979V73.9922H323.218C323.218 73.2938 323.075 72.6753 322.791 72.1367C322.507 71.5922 322.108 71.1631 321.593 70.8494C321.084 70.5357 320.486 70.3789 319.8 70.3789C319.054 70.3789 318.403 70.5624 317.846 70.9293C317.296 71.2904 316.87 71.7638 316.568 72.3498C316.272 72.9298 316.124 73.5601 316.124 74.2408V75.7944C316.124 76.7058 316.284 77.4812 316.604 78.1204C316.929 78.7596 317.382 79.2479 317.962 79.5852C318.542 79.9167 319.22 80.0824 319.995 80.0824C320.498 80.0824 320.957 80.0114 321.371 79.8693C321.785 79.7214 322.143 79.5024 322.445 79.2124C322.747 78.9223 322.978 78.5643 323.138 78.1381L325.65 78.5909C325.449 79.3307 325.088 79.9788 324.567 80.5352C324.052 81.0856 323.404 81.5147 322.623 81.8224C321.847 82.1243 320.963 82.2752 319.968 82.2752ZM328.764 82V68.3636H331.33V70.5298H331.472C331.72 69.7959 332.158 69.2189 332.786 68.7987C333.419 68.3725 334.135 68.1594 334.934 68.1594C335.1 68.1594 335.295 68.1654 335.52 68.1772C335.751 68.189 335.931 68.2038 336.062 68.2216V70.7607C335.955 70.7311 335.766 70.6985 335.493 70.663C335.221 70.6216 334.949 70.6009 334.677 70.6009C334.049 70.6009 333.49 70.734 332.999 71.0004C332.513 71.2608 332.129 71.6248 331.845 72.0923C331.56 72.554 331.418 73.0807 331.418 73.6726V82H328.764ZM348.943 82.3018C348.079 82.3018 347.298 82.142 346.6 81.8224C345.901 81.4969 345.348 81.0264 344.939 80.4109C344.537 79.7953 344.336 79.0407 344.336 78.147C344.336 77.3776 344.484 76.7443 344.78 76.2472C345.075 75.75 345.475 75.3564 345.978 75.0664C346.481 74.7764 347.043 74.5574 347.665 74.4094C348.286 74.2615 348.92 74.149 349.565 74.0721C350.381 73.9774 351.044 73.9004 351.553 73.8413C352.062 73.7762 352.432 73.6726 352.663 73.5305C352.894 73.3885 353.009 73.1577 353.009 72.8381V72.7759C353.009 72.0006 352.79 71.3999 352.352 70.9737C351.92 70.5476 351.275 70.3345 350.417 70.3345C349.523 70.3345 348.819 70.5328 348.304 70.9293C347.795 71.32 347.443 71.755 347.248 72.2344L344.753 71.6662C345.049 70.8376 345.481 70.1688 346.049 69.6598C346.623 69.1449 347.283 68.772 348.029 68.5412C348.775 68.3045 349.559 68.1861 350.381 68.1861C350.926 68.1861 351.503 68.2512 352.113 68.3814C352.728 68.5057 353.302 68.7365 353.835 69.0739C354.374 69.4112 354.814 69.8936 355.158 70.521C355.501 71.1424 355.673 71.9503 355.673 72.9446V82H353.08V80.1357H352.974C352.802 80.4789 352.545 80.8163 352.201 81.1477C351.858 81.4792 351.417 81.7544 350.879 81.9734C350.34 82.1924 349.695 82.3018 348.943 82.3018ZM349.52 80.1712C350.254 80.1712 350.882 80.0262 351.402 79.7362C351.929 79.4461 352.329 79.0674 352.601 78.5998C352.879 78.1263 353.018 77.6203 353.018 77.0817V75.3239C352.924 75.4186 352.74 75.5073 352.468 75.5902C352.201 75.6671 351.897 75.7352 351.553 75.7944C351.21 75.8477 350.876 75.898 350.55 75.9453C350.225 75.9867 349.952 76.0223 349.733 76.0518C349.218 76.117 348.748 76.2264 348.322 76.3803C347.902 76.5342 347.564 76.7562 347.31 77.0462C347.061 77.3303 346.937 77.709 346.937 78.1825C346.937 78.8395 347.18 79.3366 347.665 79.674C348.15 80.0054 348.769 80.1712 349.52 80.1712ZM372.314 68.3636V70.4943H364.608V68.3636H372.314ZM366.721 82V66.7834C366.721 65.9311 366.908 65.2238 367.28 64.6616C367.653 64.0934 368.148 63.6702 368.763 63.392C369.379 63.108 370.047 62.9659 370.769 62.9659C371.302 62.9659 371.758 63.0103 372.137 63.0991C372.515 63.1819 372.797 63.2589 372.98 63.3299L372.359 65.4783C372.234 65.4428 372.074 65.4014 371.879 65.354C371.684 65.3008 371.447 65.2741 371.169 65.2741C370.524 65.2741 370.062 65.4339 369.784 65.7536C369.512 66.0732 369.376 66.5348 369.376 67.1385V82H366.721ZM375.053 82V68.3636H377.619V70.5298H377.761C378.009 69.7959 378.447 69.2189 379.075 68.7987C379.708 68.3725 380.424 68.1594 381.223 68.1594C381.389 68.1594 381.584 68.1654 381.809 68.1772C382.04 68.189 382.22 68.2038 382.351 68.2216V70.7607C382.244 70.7311 382.055 70.6985 381.782 70.663C381.51 70.6216 381.238 70.6009 380.966 70.6009C380.338 70.6009 379.779 70.734 379.288 71.0004C378.802 71.2608 378.418 71.6248 378.134 72.0923C377.85 72.554 377.707 73.0807 377.707 73.6726V82H375.053ZM384.648 82V68.3636H387.302V82H384.648ZM385.988 66.2596C385.527 66.2596 385.13 66.1057 384.799 65.7979C384.473 65.4843 384.31 65.1114 384.31 64.6793C384.31 64.2414 384.473 63.8685 384.799 63.5607C385.13 63.247 385.527 63.0902 385.988 63.0902C386.45 63.0902 386.844 63.247 387.169 63.5607C387.5 63.8685 387.666 64.2414 387.666 64.6793C387.666 65.1114 387.5 65.4843 387.169 65.7979C386.844 66.1057 386.45 66.2596 385.988 66.2596ZM396.75 82.2752C395.407 82.2752 394.25 81.9882 393.279 81.4141C392.314 80.834 391.569 80.0202 391.042 78.9727C390.521 77.9192 390.261 76.6851 390.261 75.2706C390.261 73.8738 390.521 72.6428 391.042 71.5774C391.569 70.5121 392.303 69.6805 393.244 69.0827C394.191 68.485 395.297 68.1861 396.564 68.1861C397.333 68.1861 398.079 68.3133 398.801 68.5678C399.523 68.8223 400.171 69.2218 400.745 69.7663C401.32 70.3108 401.772 71.0181 402.104 71.8881C402.435 72.7522 402.601 73.8028 402.601 75.0398V75.9808H391.761V73.9922H400C400 73.2938 399.858 72.6753 399.574 72.1367C399.29 71.5922 398.89 71.1631 398.375 70.8494C397.866 70.5357 397.268 70.3789 396.582 70.3789C395.836 70.3789 395.185 70.5624 394.629 70.9293C394.078 71.2904 393.652 71.7638 393.35 72.3498C393.054 72.9298 392.906 73.5601 392.906 74.2408V75.7944C392.906 76.7058 393.066 77.4812 393.386 78.1204C393.711 78.7596 394.164 79.2479 394.744 79.5852C395.324 79.9167 396.002 80.0824 396.777 80.0824C397.28 80.0824 397.739 80.0114 398.153 79.8693C398.567 79.7214 398.926 79.5024 399.227 79.2124C399.529 78.9223 399.76 78.5643 399.92 78.1381L402.432 78.5909C402.231 79.3307 401.87 79.9788 401.349 80.5352C400.834 81.0856 400.186 81.5147 399.405 81.8224C398.63 82.1243 397.745 82.2752 396.75 82.2752ZM408.201 73.9034V82H405.546V68.3636H408.094V70.5831H408.263C408.576 69.861 409.068 69.281 409.737 68.843C410.411 68.4051 411.261 68.1861 412.284 68.1861C413.214 68.1861 414.027 68.3814 414.726 68.772C415.424 69.1567 415.966 69.7308 416.35 70.4943C416.735 71.2578 416.928 72.2018 416.928 73.3263V82H414.273V73.646C414.273 72.6576 414.016 71.8852 413.501 71.3288C412.986 70.7666 412.279 70.4854 411.379 70.4854C410.763 70.4854 410.216 70.6186 409.737 70.8849C409.263 71.1513 408.887 71.5419 408.609 72.0568C408.337 72.5658 408.201 73.1813 408.201 73.9034ZM425.592 82.2663C424.491 82.2663 423.509 81.9852 422.645 81.4229C421.787 80.8548 421.112 80.0469 420.621 78.9993C420.135 77.9458 419.893 76.6822 419.893 75.2085C419.893 73.7347 420.138 72.4741 420.63 71.4265C421.127 70.3789 421.807 69.5769 422.672 69.0206C423.536 68.4643 424.515 68.1861 425.61 68.1861C426.456 68.1861 427.137 68.3281 427.652 68.6122C428.173 68.8904 428.575 69.2159 428.859 69.5888C429.149 69.9616 429.374 70.2901 429.534 70.5742H429.694V63.8182H432.348V82H429.756V79.8782H429.534C429.374 80.1682 429.143 80.4996 428.842 80.8725C428.546 81.2454 428.137 81.5709 427.616 81.8491C427.096 82.1272 426.421 82.2663 425.592 82.2663ZM426.178 80.0025C426.942 80.0025 427.587 79.8013 428.114 79.3988C428.646 78.9904 429.049 78.4252 429.321 77.7031C429.599 76.9811 429.738 76.1406 429.738 75.1818C429.738 74.2348 429.602 73.4062 429.33 72.696C429.058 71.9858 428.658 71.4324 428.131 71.0359C427.605 70.6393 426.954 70.4411 426.178 70.4411C425.379 70.4411 424.713 70.6482 424.181 71.0625C423.648 71.4768 423.246 72.042 422.973 72.7582C422.707 73.4743 422.574 74.2822 422.574 75.1818C422.574 76.0933 422.71 76.913 422.982 77.641C423.254 78.369 423.657 78.946 424.19 79.3722C424.728 79.7924 425.391 80.0025 426.178 80.0025ZM446.722 82.3018C445.857 82.3018 445.076 82.142 444.378 81.8224C443.679 81.4969 443.126 81.0264 442.718 80.4109C442.315 79.7953 442.114 79.0407 442.114 78.147C442.114 77.3776 442.262 76.7443 442.558 76.2472C442.854 75.75 443.253 75.3564 443.756 75.0664C444.259 74.7764 444.822 74.5574 445.443 74.4094C446.065 74.2615 446.698 74.149 447.343 74.0721C448.16 73.9774 448.823 73.9004 449.332 73.8413C449.841 73.7762 450.211 73.6726 450.441 73.5305C450.672 73.3885 450.788 73.1577 450.788 72.8381V72.7759C450.788 72.0006 450.569 71.3999 450.131 70.9737C449.699 70.5476 449.054 70.3345 448.195 70.3345C447.302 70.3345 446.597 70.5328 446.082 70.9293C445.573 71.32 445.221 71.755 445.026 72.2344L442.531 71.6662C442.827 70.8376 443.259 70.1688 443.827 69.6598C444.402 69.1449 445.061 68.772 445.807 68.5412C446.553 68.3045 447.337 68.1861 448.16 68.1861C448.704 68.1861 449.281 68.2512 449.891 68.3814C450.507 68.5057 451.081 68.7365 451.613 69.0739C452.152 69.4112 452.593 69.8936 452.936 70.521C453.279 71.1424 453.451 71.9503 453.451 72.9446V82H450.859V80.1357H450.752C450.58 80.4789 450.323 80.8163 449.98 81.1477C449.636 81.4792 449.196 81.7544 448.657 81.9734C448.118 82.1924 447.473 82.3018 446.722 82.3018ZM447.299 80.1712C448.033 80.1712 448.66 80.0262 449.181 79.7362C449.708 79.4461 450.107 79.0674 450.379 78.5998C450.657 78.1263 450.797 77.6203 450.797 77.0817V75.3239C450.702 75.4186 450.518 75.5073 450.246 75.5902C449.98 75.6671 449.675 75.7352 449.332 75.7944C448.988 75.8477 448.654 75.898 448.328 75.9453C448.003 75.9867 447.731 76.0223 447.512 76.0518C446.997 76.117 446.526 76.2264 446.1 76.3803C445.68 76.5342 445.343 76.7562 445.088 77.0462C444.839 77.3303 444.715 77.709 444.715 78.1825C444.715 78.8395 444.958 79.3366 445.443 79.674C445.929 80.0054 446.547 80.1712 447.299 80.1712ZM459.641 73.9034V82H456.987V68.3636H459.535V70.5831H459.703C460.017 69.861 460.508 69.281 461.177 68.843C461.852 68.4051 462.701 68.1861 463.725 68.1861C464.654 68.1861 465.468 68.3814 466.166 68.772C466.865 69.1567 467.406 69.7308 467.791 70.4943C468.176 71.2578 468.368 72.2018 468.368 73.3263V82H465.714V73.646C465.714 72.6576 465.456 71.8852 464.941 71.3288C464.426 70.7666 463.719 70.4854 462.819 70.4854C462.204 70.4854 461.656 70.6186 461.177 70.8849C460.703 71.1513 460.328 71.5419 460.049 72.0568C459.777 72.5658 459.641 73.1813 459.641 73.9034ZM477.033 82.2663C475.932 82.2663 474.949 81.9852 474.085 81.4229C473.227 80.8548 472.552 80.0469 472.061 78.9993C471.576 77.9458 471.333 76.6822 471.333 75.2085C471.333 73.7347 471.579 72.4741 472.07 71.4265C472.567 70.3789 473.248 69.5769 474.112 69.0206C474.976 68.4643 475.956 68.1861 477.051 68.1861C477.897 68.1861 478.578 68.3281 479.092 68.6122C479.613 68.8904 480.016 69.2159 480.3 69.5888C480.59 69.9616 480.815 70.2901 480.975 70.5742H481.134V63.8182H483.789V82H481.196V79.8782H480.975C480.815 80.1682 480.584 80.4996 480.282 80.8725C479.986 81.2454 479.578 81.5709 479.057 81.8491C478.536 82.1272 477.861 82.2663 477.033 82.2663ZM477.619 80.0025C478.382 80.0025 479.027 79.8013 479.554 79.3988C480.087 78.9904 480.489 78.4252 480.761 77.7031C481.04 76.9811 481.179 76.1406 481.179 75.1818C481.179 74.2348 481.043 73.4062 480.77 72.696C480.498 71.9858 480.099 71.4324 479.572 71.0359C479.045 70.6393 478.394 70.4411 477.619 70.4411C476.82 70.4411 476.154 70.6482 475.621 71.0625C475.089 71.4768 474.686 72.042 474.414 72.7582C474.147 73.4743 474.014 74.2822 474.014 75.1818C474.014 76.0933 474.15 76.913 474.423 77.641C474.695 78.369 475.097 78.946 475.63 79.3722C476.169 79.7924 476.832 80.0025 477.619 80.0025ZM494.194 82V68.3636H496.759V70.5298H496.901C497.15 69.7959 497.588 69.2189 498.215 68.7987C498.849 68.3725 499.565 68.1594 500.364 68.1594C500.529 68.1594 500.725 68.1654 500.95 68.1772C501.18 68.189 501.361 68.2038 501.491 68.2216V70.7607C501.385 70.7311 501.195 70.6985 500.923 70.663C500.651 70.6216 500.379 70.6009 500.106 70.6009C499.479 70.6009 498.92 70.734 498.428 71.0004C497.943 71.2608 497.558 71.6248 497.274 72.0923C496.99 72.554 496.848 73.0807 496.848 73.6726V82H494.194ZM509.177 82.2752C507.834 82.2752 506.677 81.9882 505.706 81.4141C504.741 80.834 503.996 80.0202 503.469 78.9727C502.948 77.9192 502.688 76.6851 502.688 75.2706C502.688 73.8738 502.948 72.6428 503.469 71.5774C503.996 70.5121 504.729 69.6805 505.67 69.0827C506.617 68.485 507.724 68.1861 508.991 68.1861C509.76 68.1861 510.506 68.3133 511.228 68.5678C511.95 68.8223 512.598 69.2218 513.172 69.7663C513.746 70.3108 514.199 71.0181 514.531 71.8881C514.862 72.7522 515.028 73.8028 515.028 75.0398V75.9808H504.188V73.9922H512.426C512.426 73.2938 512.284 72.6753 512 72.1367C511.716 71.5922 511.317 71.1631 510.802 70.8494C510.293 70.5357 509.695 70.3789 509.009 70.3789C508.263 70.3789 507.612 70.5624 507.055 70.9293C506.505 71.2904 506.079 71.7638 505.777 72.3498C505.481 72.9298 505.333 73.5601 505.333 74.2408V75.7944C505.333 76.7058 505.493 77.4812 505.812 78.1204C506.138 78.7596 506.591 79.2479 507.171 79.5852C507.751 79.9167 508.429 80.0824 509.204 80.0824C509.707 80.0824 510.166 80.0114 510.58 79.8693C510.994 79.7214 511.352 79.5024 511.654 79.2124C511.956 78.9223 512.187 78.5643 512.347 78.1381L514.859 78.5909C514.658 79.3307 514.297 79.9788 513.776 80.5352C513.261 81.0856 512.613 81.5147 511.832 81.8224C511.056 82.1243 510.172 82.2752 509.177 82.2752ZM523.717 82.2752C522.397 82.2752 521.261 81.9763 520.308 81.3786C519.361 80.7749 518.633 79.9433 518.124 78.8839C517.615 77.8245 517.36 76.6112 517.36 75.244C517.36 73.859 517.621 72.6368 518.142 71.5774C518.662 70.5121 519.396 69.6805 520.343 69.0827C521.29 68.485 522.406 68.1861 523.69 68.1861C524.726 68.1861 525.649 68.3784 526.46 68.7631C527.271 69.1419 527.925 69.6746 528.422 70.3612C528.925 71.0477 529.224 71.8497 529.319 72.767H526.735C526.593 72.1278 526.268 71.5774 525.759 71.1158C525.256 70.6541 524.581 70.4233 523.735 70.4233C522.995 70.4233 522.347 70.6186 521.79 71.0092C521.24 71.3939 520.811 71.9444 520.503 72.6605C520.195 73.3707 520.041 74.2112 520.041 75.1818C520.041 76.1761 520.192 77.0343 520.494 77.7564C520.796 78.4785 521.222 79.0378 521.773 79.4343C522.329 79.8308 522.983 80.0291 523.735 80.0291C524.238 80.0291 524.693 79.9374 525.102 79.7539C525.516 79.5645 525.862 79.2952 526.141 78.946C526.425 78.5968 526.623 78.1766 526.735 77.6854H529.319C529.224 78.5672 528.937 79.3544 528.458 80.0469C527.978 80.7393 527.336 81.2839 526.531 81.6804C525.732 82.0769 524.794 82.2752 523.717 82.2752ZM538.035 82.2752C536.691 82.2752 535.534 81.9882 534.563 81.4141C533.599 80.834 532.853 80.0202 532.326 78.9727C531.805 77.9192 531.545 76.6851 531.545 75.2706C531.545 73.8738 531.805 72.6428 532.326 71.5774C532.853 70.5121 533.587 69.6805 534.528 69.0827C535.475 68.485 536.582 68.1861 537.848 68.1861C538.618 68.1861 539.363 68.3133 540.085 68.5678C540.807 68.8223 541.456 69.2218 542.03 69.7663C542.604 70.3108 543.057 71.0181 543.388 71.8881C543.719 72.7522 543.885 73.8028 543.885 75.0398V75.9808H533.045V73.9922H541.284C541.284 73.2938 541.142 72.6753 540.858 72.1367C540.574 71.5922 540.174 71.1631 539.659 70.8494C539.15 70.5357 538.552 70.3789 537.866 70.3789C537.12 70.3789 536.469 70.5624 535.913 70.9293C535.362 71.2904 534.936 71.7638 534.634 72.3498C534.338 72.9298 534.191 73.5601 534.191 74.2408V75.7944C534.191 76.7058 534.35 77.4812 534.67 78.1204C534.995 78.7596 535.448 79.2479 536.028 79.5852C536.608 79.9167 537.286 80.0824 538.061 80.0824C538.564 80.0824 539.023 80.0114 539.437 79.8693C539.852 79.7214 540.21 79.5024 540.512 79.2124C540.813 78.9223 541.044 78.5643 541.204 78.1381L543.716 78.5909C543.515 79.3307 543.154 79.9788 542.633 80.5352C542.118 81.0856 541.47 81.5147 540.689 81.8224C539.914 82.1243 539.029 82.2752 538.035 82.2752ZM546.83 82V68.3636H549.485V82H546.83ZM548.171 66.2596C547.709 66.2596 547.313 66.1057 546.981 65.7979C546.656 65.4843 546.493 65.1114 546.493 64.6793C546.493 64.2414 546.656 63.8685 546.981 63.5607C547.313 63.247 547.709 63.0902 548.171 63.0902C548.633 63.0902 549.026 63.247 549.352 63.5607C549.683 63.8685 549.849 64.2414 549.849 64.6793C549.849 65.1114 549.683 65.4843 549.352 65.7979C549.026 66.1057 548.633 66.2596 548.171 66.2596ZM564.721 68.3636L559.776 82H556.936L551.982 68.3636H554.831L558.285 78.8572H558.427L561.872 68.3636H564.721ZM572.629 82.2752C571.286 82.2752 570.129 81.9882 569.158 81.4141C568.193 80.834 567.448 80.0202 566.921 78.9727C566.4 77.9192 566.14 76.6851 566.14 75.2706C566.14 73.8738 566.4 72.6428 566.921 71.5774C567.448 70.5121 568.182 69.6805 569.123 69.0827C570.07 68.485 571.176 68.1861 572.443 68.1861C573.212 68.1861 573.958 68.3133 574.68 68.5678C575.402 68.8223 576.05 69.2218 576.624 69.7663C577.198 70.3108 577.651 71.0181 577.983 71.8881C578.314 72.7522 578.48 73.8028 578.48 75.0398V75.9808H567.64V73.9922H575.879C575.879 73.2938 575.737 72.6753 575.453 72.1367C575.168 71.5922 574.769 71.1631 574.254 70.8494C573.745 70.5357 573.147 70.3789 572.461 70.3789C571.715 70.3789 571.064 70.5624 570.508 70.9293C569.957 71.2904 569.531 71.7638 569.229 72.3498C568.933 72.9298 568.785 73.5601 568.785 74.2408V75.7944C568.785 76.7058 568.945 77.4812 569.265 78.1204C569.59 78.7596 570.043 79.2479 570.623 79.5852C571.203 79.9167 571.881 80.0824 572.656 80.0824C573.159 80.0824 573.618 80.0114 574.032 79.8693C574.446 79.7214 574.804 79.5024 575.106 79.2124C575.408 78.9223 575.639 78.5643 575.799 78.1381L578.311 78.5909C578.11 79.3307 577.749 79.9788 577.228 80.5352C576.713 81.0856 576.065 81.5147 575.284 81.8224C574.508 82.1243 573.624 82.2752 572.629 82.2752ZM592.01 82.3018C591.146 82.3018 590.364 82.142 589.666 81.8224C588.968 81.4969 588.414 81.0264 588.006 80.4109C587.603 79.7953 587.402 79.0407 587.402 78.147C587.402 77.3776 587.55 76.7443 587.846 76.2472C588.142 75.75 588.541 75.3564 589.044 75.0664C589.548 74.7764 590.11 74.5574 590.731 74.4094C591.353 74.2615 591.986 74.149 592.631 74.0721C593.448 73.9774 594.111 73.9004 594.62 73.8413C595.129 73.7762 595.499 73.6726 595.729 73.5305C595.96 73.3885 596.076 73.1577 596.076 72.8381V72.7759C596.076 72.0006 595.857 71.3999 595.419 70.9737C594.987 70.5476 594.342 70.3345 593.483 70.3345C592.59 70.3345 591.885 70.5328 591.37 70.9293C590.861 71.32 590.509 71.755 590.314 72.2344L587.819 71.6662C588.115 70.8376 588.547 70.1688 589.116 69.6598C589.69 69.1449 590.35 68.772 591.095 68.5412C591.841 68.3045 592.625 68.1861 593.448 68.1861C593.992 68.1861 594.569 68.2512 595.179 68.3814C595.795 68.5057 596.369 68.7365 596.901 69.0739C597.44 69.4112 597.881 69.8936 598.224 70.521C598.567 71.1424 598.739 71.9503 598.739 72.9446V82H596.147V80.1357H596.04C595.869 80.4789 595.611 80.8163 595.268 81.1477C594.925 81.4792 594.484 81.7544 593.945 81.9734C593.406 82.1924 592.761 82.3018 592.01 82.3018ZM592.587 80.1712C593.321 80.1712 593.948 80.0262 594.469 79.7362C594.996 79.4461 595.395 79.0674 595.667 78.5998C595.946 78.1263 596.085 77.6203 596.085 77.0817V75.3239C595.99 75.4186 595.806 75.5073 595.534 75.5902C595.268 75.6671 594.963 75.7352 594.62 75.7944C594.276 75.8477 593.942 75.898 593.617 75.9453C593.291 75.9867 593.019 76.0223 592.8 76.0518C592.285 76.117 591.814 76.2264 591.388 76.3803C590.968 76.5342 590.631 76.7562 590.376 77.0462C590.128 77.3303 590.003 77.709 590.003 78.1825C590.003 78.8395 590.246 79.3366 590.731 79.674C591.217 80.0054 591.835 80.1712 592.587 80.1712ZM613.996 82.2663C612.895 82.2663 611.912 81.9852 611.048 81.4229C610.19 80.8548 609.515 80.0469 609.024 78.9993C608.539 77.9458 608.296 76.6822 608.296 75.2085C608.296 73.7347 608.542 72.4741 609.033 71.4265C609.53 70.3789 610.211 69.5769 611.075 69.0206C611.939 68.4643 612.918 68.1861 614.013 68.1861C614.86 68.1861 615.54 68.3281 616.055 68.6122C616.576 68.8904 616.979 69.2159 617.263 69.5888C617.553 69.9616 617.778 70.2901 617.937 70.5742H618.097V63.8182H620.752V82H618.159V79.8782H617.937C617.778 80.1682 617.547 80.4996 617.245 80.8725C616.949 81.2454 616.541 81.5709 616.02 81.8491C615.499 82.1272 614.824 82.2663 613.996 82.2663ZM614.582 80.0025C615.345 80.0025 615.99 79.8013 616.517 79.3988C617.05 78.9904 617.452 78.4252 617.724 77.7031C618.003 76.9811 618.142 76.1406 618.142 75.1818C618.142 74.2348 618.005 73.4062 617.733 72.696C617.461 71.9858 617.061 71.4324 616.535 71.0359C616.008 70.6393 615.357 70.4411 614.582 70.4411C613.783 70.4411 613.117 70.6482 612.584 71.0625C612.051 71.4768 611.649 72.042 611.377 72.7582C611.11 73.4743 610.977 74.2822 610.977 75.1818C610.977 76.0933 611.113 76.913 611.386 77.641C611.658 78.369 612.06 78.946 612.593 79.3722C613.132 79.7924 613.794 80.0025 614.582 80.0025ZM624.54 82V68.3636H627.195V82H624.54ZM625.881 66.2596C625.419 66.2596 625.023 66.1057 624.691 65.7979C624.366 65.4843 624.203 65.1114 624.203 64.6793C624.203 64.2414 624.366 63.8685 624.691 63.5607C625.023 63.247 625.419 63.0902 625.881 63.0902C626.343 63.0902 626.736 63.247 627.062 63.5607C627.393 63.8685 627.559 64.2414 627.559 64.6793C627.559 65.1114 627.393 65.4843 627.062 65.7979C626.736 66.1057 626.343 66.2596 625.881 66.2596ZM640.984 71.6928L638.578 72.119C638.478 71.8112 638.318 71.5182 638.099 71.2401C637.886 70.9619 637.596 70.734 637.229 70.5565C636.862 70.3789 636.403 70.2901 635.853 70.2901C635.101 70.2901 634.474 70.4588 633.971 70.7962C633.468 71.1276 633.216 71.5567 633.216 72.0835C633.216 72.5392 633.385 72.9061 633.722 73.1843C634.06 73.4625 634.604 73.6903 635.356 73.8679L637.522 74.3651C638.777 74.6551 639.712 75.1019 640.327 75.7056C640.943 76.3093 641.251 77.0935 641.251 78.0582C641.251 78.875 641.014 79.603 640.54 80.2422C640.073 80.8755 639.419 81.3726 638.578 81.7337C637.744 82.0947 636.776 82.2752 635.675 82.2752C634.148 82.2752 632.902 81.9497 631.938 81.2987C630.973 80.6417 630.381 79.7095 630.162 78.5021L632.728 78.1115C632.888 78.7803 633.216 79.2863 633.713 79.6296C634.21 79.967 634.859 80.1357 635.658 80.1357C636.528 80.1357 637.223 79.9551 637.744 79.5941C638.265 79.2272 638.525 78.7803 638.525 78.2536C638.525 77.8274 638.365 77.4693 638.046 77.1793C637.732 76.8893 637.25 76.6703 636.599 76.5224L634.29 76.0163C633.018 75.7263 632.077 75.2647 631.467 74.6314C630.864 73.9981 630.562 73.1961 630.562 72.2255C630.562 71.4206 630.787 70.7163 631.236 70.1126C631.686 69.5089 632.308 69.0384 633.101 68.701C633.894 68.3577 634.802 68.1861 635.826 68.1861C637.3 68.1861 638.46 68.5057 639.306 69.1449C640.153 69.7782 640.712 70.6275 640.984 71.6928ZM649.913 82.2752C648.593 82.2752 647.457 81.9763 646.504 81.3786C645.557 80.7749 644.829 79.9433 644.32 78.8839C643.811 77.8245 643.557 76.6112 643.557 75.244C643.557 73.859 643.817 72.6368 644.338 71.5774C644.859 70.5121 645.593 69.6805 646.54 69.0827C647.487 68.485 648.602 68.1861 649.887 68.1861C650.922 68.1861 651.846 68.3784 652.656 68.7631C653.467 69.1419 654.121 69.6746 654.618 70.3612C655.122 71.0477 655.42 71.8497 655.515 72.767H652.932C652.79 72.1278 652.464 71.5774 651.955 71.1158C651.452 70.6541 650.777 70.4233 649.931 70.4233C649.191 70.4233 648.543 70.6186 647.987 71.0092C647.436 71.3939 647.007 71.9444 646.699 72.6605C646.392 73.3707 646.238 74.2112 646.238 75.1818C646.238 76.1761 646.389 77.0343 646.691 77.7564C646.992 78.4785 647.419 79.0378 647.969 79.4343C648.525 79.8308 649.179 80.0291 649.931 80.0291C650.434 80.0291 650.89 79.9374 651.298 79.7539C651.712 79.5645 652.059 79.2952 652.337 78.946C652.621 78.5968 652.819 78.1766 652.932 77.6854H655.515C655.42 78.5672 655.133 79.3544 654.654 80.0469C654.175 80.7393 653.532 81.2839 652.727 81.6804C651.928 82.0769 650.99 82.2752 649.913 82.2752ZM664.098 82.2752C662.819 82.2752 661.704 81.9822 660.751 81.3963C659.798 80.8104 659.058 79.9906 658.531 78.9371C658.005 77.8836 657.741 76.6526 657.741 75.244C657.741 73.8294 658.005 72.5924 658.531 71.533C659.058 70.4736 659.798 69.6509 660.751 69.065C661.704 68.479 662.819 68.1861 664.098 68.1861C665.376 68.1861 666.492 68.479 667.445 69.065C668.398 69.6509 669.137 70.4736 669.664 71.533C670.191 72.5924 670.454 73.8294 670.454 75.244C670.454 76.6526 670.191 77.8836 669.664 78.9371C669.137 79.9906 668.398 80.8104 667.445 81.3963C666.492 81.9822 665.376 82.2752 664.098 82.2752ZM664.107 80.0469C664.935 80.0469 665.622 79.8279 666.166 79.3899C666.711 78.9519 667.113 78.369 667.374 77.641C667.64 76.913 667.773 76.111 667.773 75.2351C667.773 74.3651 667.64 73.5661 667.374 72.8381C667.113 72.1042 666.711 71.5153 666.166 71.0714C665.622 70.6275 664.935 70.4055 664.107 70.4055C663.272 70.4055 662.58 70.6275 662.029 71.0714C661.485 71.5153 661.079 72.1042 660.813 72.8381C660.553 73.5661 660.422 74.3651 660.422 75.2351C660.422 76.111 660.553 76.913 660.813 77.641C661.079 78.369 661.485 78.9519 662.029 79.3899C662.58 79.8279 663.272 80.0469 664.107 80.0469ZM682.055 76.3448V68.3636H684.719V82H682.109V79.6385H681.967C681.653 80.3665 681.15 80.9731 680.457 81.4585C679.771 81.9379 678.916 82.1776 677.892 82.1776C677.016 82.1776 676.24 81.9852 675.566 81.6005C674.897 81.2099 674.37 80.6328 673.985 79.8693C673.607 79.1058 673.417 78.1618 673.417 77.0373V68.3636H676.072V76.7177C676.072 77.6469 676.329 78.3867 676.844 78.9371C677.359 79.4876 678.028 79.7628 678.85 79.7628C679.348 79.7628 679.842 79.6385 680.333 79.3899C680.83 79.1413 681.242 78.7655 681.567 78.2624C681.899 77.7594 682.061 77.1201 682.055 76.3448ZM690.94 73.9034V82H688.285V68.3636H690.833V70.5831H691.002C691.316 69.861 691.807 69.281 692.476 68.843C693.15 68.4051 694 68.1861 695.024 68.1861C695.953 68.1861 696.767 68.3814 697.465 68.772C698.164 69.1567 698.705 69.7308 699.09 70.4943C699.474 71.2578 699.667 72.2018 699.667 73.3263V82H697.012V73.646C697.012 72.6576 696.755 71.8852 696.24 71.3288C695.725 70.7666 695.018 70.4854 694.118 70.4854C693.503 70.4854 692.955 70.6186 692.476 70.8849C692.002 71.1513 691.626 71.5419 691.348 72.0568C691.076 72.5658 690.94 73.1813 690.94 73.9034ZM709.592 68.3636V70.4943H702.144V68.3636H709.592ZM704.141 65.0966H706.796V77.9961C706.796 78.511 706.873 78.8987 707.027 79.1591C707.18 79.4136 707.379 79.5882 707.621 79.6829C707.87 79.7717 708.139 79.8161 708.429 79.8161C708.642 79.8161 708.829 79.8013 708.989 79.7717C709.148 79.7421 709.273 79.7184 709.361 79.7006L709.841 81.8935C709.687 81.9527 709.468 82.0118 709.184 82.071C708.9 82.1361 708.545 82.1716 708.119 82.1776C707.42 82.1894 706.769 82.0651 706.165 81.8047C705.562 81.5443 705.073 81.1418 704.701 80.5973C704.328 80.0528 704.141 79.3692 704.141 78.5465V65.0966ZM724.889 82.2752C723.61 82.2752 722.495 81.9822 721.542 81.3963C720.589 80.8104 719.849 79.9906 719.322 78.9371C718.796 77.8836 718.532 76.6526 718.532 75.244C718.532 73.8294 718.796 72.5924 719.322 71.533C719.849 70.4736 720.589 69.6509 721.542 69.065C722.495 68.479 723.61 68.1861 724.889 68.1861C726.167 68.1861 727.283 68.479 728.236 69.065C729.189 69.6509 729.928 70.4736 730.455 71.533C730.982 72.5924 731.245 73.8294 731.245 75.244C731.245 76.6526 730.982 77.8836 730.455 78.9371C729.928 79.9906 729.189 80.8104 728.236 81.3963C727.283 81.9822 726.167 82.2752 724.889 82.2752ZM724.898 80.0469C725.726 80.0469 726.413 79.8279 726.957 79.3899C727.502 78.9519 727.904 78.369 728.165 77.641C728.431 76.913 728.564 76.111 728.564 75.2351C728.564 74.3651 728.431 73.5661 728.165 72.8381C727.904 72.1042 727.502 71.5153 726.957 71.0714C726.413 70.6275 725.726 70.4055 724.898 70.4055C724.063 70.4055 723.371 70.6275 722.82 71.0714C722.276 71.5153 721.87 72.1042 721.604 72.8381C721.344 73.5661 721.213 74.3651 721.213 75.2351C721.213 76.111 721.344 76.913 721.604 77.641C721.87 78.369 722.276 78.9519 722.82 79.3899C723.371 79.8279 724.063 80.0469 724.898 80.0469ZM736.863 73.9034V82H734.208V68.3636H736.756V70.5831H736.925C737.239 69.861 737.73 69.281 738.399 68.843C739.073 68.4051 739.923 68.1861 740.947 68.1861C741.876 68.1861 742.69 68.3814 743.388 68.772C744.086 69.1567 744.628 69.7308 745.013 70.4943C745.397 71.2578 745.59 72.2018 745.59 73.3263V82H742.935V73.646C742.935 72.6576 742.678 71.8852 742.163 71.3288C741.648 70.7666 740.941 70.4854 740.041 70.4854C739.425 70.4854 738.878 70.6186 738.399 70.8849C737.925 71.1513 737.549 71.5419 737.271 72.0568C736.999 72.5658 736.863 73.1813 736.863 73.9034ZM276.462 117.114C276.066 117.114 275.705 117.081 275.379 117.016C275.054 116.957 274.811 116.892 274.651 116.821L275.29 114.646C275.776 114.776 276.208 114.832 276.587 114.814C276.965 114.797 277.3 114.654 277.59 114.388C277.886 114.122 278.146 113.687 278.371 113.083L278.7 112.178L273.71 98.3636H276.551L280.005 108.946H280.147L283.6 98.3636H286.45L280.83 113.82C280.57 114.53 280.238 115.131 279.836 115.622C279.433 116.119 278.954 116.492 278.398 116.741C277.841 116.989 277.196 117.114 276.462 117.114ZM294.225 112.275C292.946 112.275 291.831 111.982 290.878 111.396C289.925 110.81 289.185 109.991 288.658 108.937C288.132 107.884 287.868 106.653 287.868 105.244C287.868 103.829 288.132 102.592 288.658 101.533C289.185 100.474 289.925 99.6509 290.878 99.065C291.831 98.479 292.946 98.1861 294.225 98.1861C295.503 98.1861 296.619 98.479 297.572 99.065C298.525 99.6509 299.264 100.474 299.791 101.533C300.318 102.592 300.581 103.829 300.581 105.244C300.581 106.653 300.318 107.884 299.791 108.937C299.264 109.991 298.525 110.81 297.572 111.396C296.619 111.982 295.503 112.275 294.225 112.275ZM294.234 110.047C295.062 110.047 295.749 109.828 296.293 109.39C296.838 108.952 297.24 108.369 297.501 107.641C297.767 106.913 297.9 106.111 297.9 105.235C297.9 104.365 297.767 103.566 297.501 102.838C297.24 102.104 296.838 101.515 296.293 101.071C295.749 100.627 295.062 100.406 294.234 100.406C293.399 100.406 292.707 100.627 292.156 101.071C291.612 101.515 291.206 102.104 290.94 102.838C290.679 103.566 290.549 104.365 290.549 105.235C290.549 106.111 290.679 106.913 290.94 107.641C291.206 108.369 291.612 108.952 292.156 109.39C292.707 109.828 293.399 110.047 294.234 110.047ZM312.182 106.345V98.3636H314.846V112H312.236V109.638H312.094C311.78 110.366 311.277 110.973 310.584 111.458C309.898 111.938 309.043 112.178 308.019 112.178C307.143 112.178 306.367 111.985 305.693 111.6C305.024 111.21 304.497 110.633 304.112 109.869C303.734 109.106 303.544 108.162 303.544 107.037V98.3636H306.199V106.718C306.199 107.647 306.456 108.387 306.971 108.937C307.486 109.488 308.155 109.763 308.977 109.763C309.475 109.763 309.969 109.638 310.46 109.39C310.957 109.141 311.369 108.766 311.694 108.262C312.026 107.759 312.188 107.12 312.182 106.345ZM318.412 112V98.3636H320.978V100.53H321.12C321.369 99.7959 321.807 99.2189 322.434 98.7987C323.067 98.3725 323.783 98.1594 324.582 98.1594C324.748 98.1594 324.944 98.1654 325.168 98.1772C325.399 98.189 325.58 98.2038 325.71 98.2216V100.761C325.603 100.731 325.414 100.699 325.142 100.663C324.87 100.622 324.597 100.601 324.325 100.601C323.698 100.601 323.138 100.734 322.647 101C322.162 101.261 321.777 101.625 321.493 102.092C321.209 102.554 321.067 103.081 321.067 103.673V112H318.412ZM337.278 103.903V112H334.623V98.3636H337.171V100.583H337.34C337.654 99.861 338.145 99.281 338.814 98.843C339.488 98.4051 340.338 98.1861 341.362 98.1861C342.291 98.1861 343.105 98.3814 343.803 98.772C344.501 99.1567 345.043 99.7308 345.428 100.494C345.812 101.258 346.005 102.202 346.005 103.326V112H343.35V103.646C343.35 102.658 343.093 101.885 342.578 101.329C342.063 100.767 341.356 100.485 340.456 100.485C339.841 100.485 339.293 100.619 338.814 100.885C338.34 101.151 337.964 101.542 337.686 102.057C337.414 102.566 337.278 103.181 337.278 103.903ZM355.442 112.275C354.098 112.275 352.941 111.988 351.971 111.414C351.006 110.834 350.26 110.02 349.733 108.973C349.213 107.919 348.952 106.685 348.952 105.271C348.952 103.874 349.213 102.643 349.733 101.577C350.26 100.512 350.994 99.6805 351.935 99.0827C352.882 98.485 353.989 98.1861 355.255 98.1861C356.025 98.1861 356.771 98.3133 357.493 98.5678C358.215 98.8223 358.863 99.2218 359.437 99.7663C360.011 100.311 360.464 101.018 360.795 101.888C361.127 102.752 361.292 103.803 361.292 105.04V105.981H350.453V103.992H358.691C358.691 103.294 358.549 102.675 358.265 102.137C357.981 101.592 357.581 101.163 357.066 100.849C356.557 100.536 355.96 100.379 355.273 100.379C354.527 100.379 353.876 100.562 353.32 100.929C352.77 101.29 352.343 101.764 352.042 102.35C351.746 102.93 351.598 103.56 351.598 104.241V105.794C351.598 106.706 351.758 107.481 352.077 108.12C352.403 108.76 352.855 109.248 353.435 109.585C354.015 109.917 354.693 110.082 355.468 110.082C355.972 110.082 356.43 110.011 356.845 109.869C357.259 109.721 357.617 109.502 357.919 109.212C358.221 108.922 358.451 108.564 358.611 108.138L361.124 108.591C360.922 109.331 360.561 109.979 360.041 110.535C359.526 111.086 358.878 111.515 358.096 111.822C357.321 112.124 356.436 112.275 355.442 112.275ZM366.015 98.3636L369.025 103.673L372.061 98.3636H374.964L370.712 105.182L375 112H372.097L369.025 106.904L365.962 112H363.05L367.294 105.182L363.103 98.3636H366.015ZM384.055 98.3636V100.494H376.607V98.3636H384.055ZM378.604 95.0966H381.259V107.996C381.259 108.511 381.336 108.899 381.489 109.159C381.643 109.414 381.842 109.588 382.084 109.683C382.333 109.772 382.602 109.816 382.892 109.816C383.105 109.816 383.292 109.801 383.451 109.772C383.611 109.742 383.736 109.718 383.824 109.701L384.304 111.893C384.15 111.953 383.931 112.012 383.647 112.071C383.363 112.136 383.008 112.172 382.581 112.178C381.883 112.189 381.232 112.065 380.628 111.805C380.025 111.544 379.536 111.142 379.163 110.597C378.791 110.053 378.604 109.369 378.604 108.547V95.0966ZM403.826 101.693L401.42 102.119C401.32 101.811 401.16 101.518 400.941 101.24C400.728 100.962 400.438 100.734 400.071 100.556C399.704 100.379 399.245 100.29 398.695 100.29C397.943 100.29 397.316 100.459 396.813 100.796C396.31 101.128 396.058 101.557 396.058 102.083C396.058 102.539 396.227 102.906 396.564 103.184C396.901 103.462 397.446 103.69 398.198 103.868L400.364 104.365C401.618 104.655 402.554 105.102 403.169 105.706C403.785 106.309 404.092 107.094 404.092 108.058C404.092 108.875 403.856 109.603 403.382 110.242C402.915 110.875 402.261 111.373 401.42 111.734C400.586 112.095 399.618 112.275 398.517 112.275C396.99 112.275 395.744 111.95 394.78 111.299C393.815 110.642 393.223 109.71 393.004 108.502L395.57 108.112C395.729 108.78 396.058 109.286 396.555 109.63C397.052 109.967 397.7 110.136 398.499 110.136C399.369 110.136 400.065 109.955 400.586 109.594C401.107 109.227 401.367 108.78 401.367 108.254C401.367 107.827 401.207 107.469 400.888 107.179C400.574 106.889 400.091 106.67 399.44 106.522L397.132 106.016C395.86 105.726 394.919 105.265 394.309 104.631C393.705 103.998 393.403 103.196 393.403 102.225C393.403 101.421 393.628 100.716 394.078 100.113C394.528 99.5089 395.149 99.0384 395.943 98.701C396.736 98.3577 397.644 98.1861 398.668 98.1861C400.142 98.1861 401.302 98.5057 402.148 99.1449C402.995 99.7782 403.554 100.627 403.826 101.693ZM412.888 112.275C411.545 112.275 410.388 111.988 409.417 111.414C408.452 110.834 407.706 110.02 407.18 108.973C406.659 107.919 406.398 106.685 406.398 105.271C406.398 103.874 406.659 102.643 407.18 101.577C407.706 100.512 408.44 99.6805 409.381 99.0827C410.328 98.485 411.435 98.1861 412.702 98.1861C413.471 98.1861 414.217 98.3133 414.939 98.5678C415.661 98.8223 416.309 99.2218 416.883 99.7663C417.457 100.311 417.91 101.018 418.241 101.888C418.573 102.752 418.739 103.803 418.739 105.04V105.981H407.899V103.992H416.137C416.137 103.294 415.995 102.675 415.711 102.137C415.427 101.592 415.028 101.163 414.513 100.849C414.004 100.536 413.406 100.379 412.719 100.379C411.974 100.379 411.323 100.562 410.766 100.929C410.216 101.29 409.79 101.764 409.488 102.35C409.192 102.93 409.044 103.56 409.044 104.241V105.794C409.044 106.706 409.204 107.481 409.523 108.12C409.849 108.76 410.302 109.248 410.882 109.585C411.462 109.917 412.139 110.082 412.915 110.082C413.418 110.082 413.877 110.011 414.291 109.869C414.705 109.721 415.063 109.502 415.365 109.212C415.667 108.922 415.898 108.564 416.058 108.138L418.57 108.591C418.369 109.331 418.008 109.979 417.487 110.535C416.972 111.086 416.324 111.515 415.543 111.822C414.767 112.124 413.882 112.275 412.888 112.275ZM421.684 112V98.3636H424.25V100.53H424.392C424.64 99.7959 425.078 99.2189 425.706 98.7987C426.339 98.3725 427.055 98.1594 427.854 98.1594C428.02 98.1594 428.215 98.1654 428.44 98.1772C428.671 98.189 428.851 98.2038 428.981 98.2216V100.761C428.875 100.731 428.686 100.699 428.413 100.663C428.141 100.622 427.869 100.601 427.597 100.601C426.969 100.601 426.41 100.734 425.919 101C425.433 101.261 425.049 101.625 424.764 102.092C424.48 102.554 424.338 103.081 424.338 103.673V112H421.684ZM443.359 98.3636L438.414 112H435.573L430.619 98.3636H433.469L436.923 108.857H437.065L440.509 98.3636H443.359ZM445.854 112V98.3636H448.508V112H445.854ZM447.194 96.2596C446.733 96.2596 446.336 96.1057 446.005 95.7979C445.679 95.4843 445.516 95.1114 445.516 94.6793C445.516 94.2414 445.679 93.8685 446.005 93.5607C446.336 93.247 446.733 93.0902 447.194 93.0902C447.656 93.0902 448.05 93.247 448.375 93.5607C448.707 93.8685 448.872 94.2414 448.872 94.6793C448.872 95.1114 448.707 95.4843 448.375 95.7979C448.05 96.1057 447.656 96.2596 447.194 96.2596ZM457.823 112.275C456.503 112.275 455.367 111.976 454.414 111.379C453.467 110.775 452.739 109.943 452.23 108.884C451.721 107.824 451.467 106.611 451.467 105.244C451.467 103.859 451.727 102.637 452.248 101.577C452.769 100.512 453.503 99.6805 454.45 99.0827C455.397 98.485 456.512 98.1861 457.797 98.1861C458.832 98.1861 459.756 98.3784 460.567 98.7631C461.377 99.1419 462.031 99.6746 462.529 100.361C463.032 101.048 463.331 101.85 463.425 102.767H460.842C460.7 102.128 460.374 101.577 459.865 101.116C459.362 100.654 458.687 100.423 457.841 100.423C457.101 100.423 456.453 100.619 455.897 101.009C455.346 101.394 454.917 101.944 454.61 102.661C454.302 103.371 454.148 104.211 454.148 105.182C454.148 106.176 454.299 107.034 454.601 107.756C454.903 108.478 455.329 109.038 455.879 109.434C456.435 109.831 457.089 110.029 457.841 110.029C458.344 110.029 458.8 109.937 459.208 109.754C459.623 109.565 459.969 109.295 460.247 108.946C460.531 108.597 460.729 108.177 460.842 107.685H463.425C463.331 108.567 463.044 109.354 462.564 110.047C462.085 110.739 461.443 111.284 460.638 111.68C459.839 112.077 458.901 112.275 457.823 112.275ZM472.141 112.275C470.798 112.275 469.64 111.988 468.67 111.414C467.705 110.834 466.959 110.02 466.433 108.973C465.912 107.919 465.651 106.685 465.651 105.271C465.651 103.874 465.912 102.643 466.433 101.577C466.959 100.512 467.693 99.6805 468.634 99.0827C469.581 98.485 470.688 98.1861 471.955 98.1861C472.724 98.1861 473.47 98.3133 474.192 98.5678C474.914 98.8223 475.562 99.2218 476.136 99.7663C476.71 100.311 477.163 101.018 477.494 101.888C477.826 102.752 477.992 103.803 477.992 105.04V105.981H467.152V103.992H475.39C475.39 103.294 475.248 102.675 474.964 102.137C474.68 101.592 474.281 101.163 473.766 100.849C473.257 100.536 472.659 100.379 471.972 100.379C471.227 100.379 470.576 100.562 470.019 100.929C469.469 101.29 469.043 101.764 468.741 102.35C468.445 102.93 468.297 103.56 468.297 104.241V105.794C468.297 106.706 468.457 107.481 468.776 108.12C469.102 108.76 469.555 109.248 470.135 109.585C470.715 109.917 471.392 110.082 472.168 110.082C472.671 110.082 473.129 110.011 473.544 109.869C473.958 109.721 474.316 109.502 474.618 109.212C474.92 108.922 475.151 108.564 475.31 108.138L477.823 108.591C477.622 109.331 477.261 109.979 476.74 110.535C476.225 111.086 475.577 111.515 474.796 111.822C474.02 112.124 473.135 112.275 472.141 112.275ZM484.284 93.8182L484.053 106.771H481.594L481.363 93.8182H484.284ZM482.828 112.169C482.337 112.169 481.916 111.997 481.567 111.654C481.218 111.305 481.046 110.884 481.052 110.393C481.046 109.908 481.218 109.493 481.567 109.15C481.916 108.801 482.337 108.626 482.828 108.626C483.307 108.626 483.721 108.801 484.071 109.15C484.42 109.493 484.597 109.908 484.603 110.393C484.597 110.719 484.512 111.018 484.346 111.29C484.186 111.556 483.973 111.769 483.707 111.929C483.44 112.089 483.147 112.169 482.828 112.169Z" fill="black"/>
<path d="M148.562 115.091V112.023C148.562 109.693 149.055 107.553 150.04 105.602C151.044 103.633 152.492 102.061 154.386 100.886C156.299 99.6932 158.629 99.0966 161.375 99.0966C164.159 99.0966 166.498 99.6837 168.392 100.858C170.305 102.032 171.744 103.604 172.71 105.574C173.695 107.525 174.188 109.674 174.188 112.023V115.091C174.188 117.42 173.695 119.57 172.71 121.54C171.725 123.491 170.277 125.053 168.364 126.227C166.451 127.42 164.121 128.017 161.375 128.017C158.591 128.017 156.252 127.42 154.358 126.227C152.464 125.053 151.025 123.491 150.04 121.54C149.055 119.57 148.562 117.42 148.562 115.091ZM156.83 112.023V115.091C156.83 116.436 157.152 117.705 157.795 118.898C158.458 120.091 159.652 120.688 161.375 120.688C163.098 120.688 164.273 120.1 164.898 118.926C165.542 117.752 165.864 116.473 165.864 115.091V112.023C165.864 110.64 165.561 109.352 164.955 108.159C164.348 106.966 163.155 106.369 161.375 106.369C159.67 106.369 158.487 106.966 157.824 108.159C157.161 109.352 156.83 110.64 156.83 112.023ZM118.705 81.7955V78.7273C118.705 76.3788 119.206 74.2292 120.21 72.2784C121.214 70.3087 122.663 68.7367 124.557 67.5625C126.47 66.3883 128.78 65.8011 131.489 65.8011C134.292 65.8011 136.64 66.3883 138.534 67.5625C140.428 68.7367 141.867 70.3087 142.852 72.2784C143.837 74.2292 144.33 76.3788 144.33 78.7273V81.7955C144.33 84.1439 143.828 86.2936 142.824 88.2443C141.839 90.1951 140.39 91.7576 138.477 92.9318C136.583 94.0871 134.254 94.6648 131.489 94.6648C128.723 94.6648 126.384 94.0777 124.472 92.9034C122.578 91.7102 121.138 90.1477 120.153 88.2159C119.188 86.2651 118.705 84.125 118.705 81.7955ZM127.028 78.7273V81.7955C127.028 83.178 127.35 84.4564 127.994 85.6307C128.657 86.8049 129.822 87.392 131.489 87.392C133.231 87.392 134.415 86.8049 135.04 85.6307C135.684 84.4564 136.006 83.178 136.006 81.7955V78.7273C136.006 77.3447 135.703 76.0568 135.097 74.8636C134.491 73.6705 133.288 73.0739 131.489 73.0739C129.803 73.0739 128.638 73.6799 127.994 74.892C127.35 76.1042 127.028 77.3826 127.028 78.7273ZM122.455 126L162.455 67.8182H169.898L129.898 126H122.455Z" fill="black"/>
<circle cx="34" cy="92" r="34" fill="white"/>
<circle cx="914" cy="92" r="34" fill="white"/>
<line x1="224" y1="180.025" x2="224" y2="-9.15527e-05" stroke="white" stroke-width="8" stroke-dasharray="16 16"/>
<defs>
<filter id="filter0_d_80_33" x="20" y="1" width="905" height="189" filterUnits="userSpaceOnUse" color-interpolation-filters="sRGB">
<feFlood flood-opacity="0" result="BackgroundImageFix"/>
<feColorMatrix in="SourceAlpha" type="matrix" values="0 0 0 0 0 0 0 0 0 0 0 0 0 0 0 0 0 0 127 0" result="hardAlpha"/>
<feOffset dy="4"/>
<feGaussianBlur stdDeviation="2"/>
<feComposite in2="hardAlpha" operator="out"/>
<feColorMatrix type="matrix" values="0 0 0 0 0 0 0 0 0 0 0 0 0 0 0 0 0 0 0.25 0"/>
<feBlend mode="normal" in2="BackgroundImageFix" result="effect1_dropShadow_80_33"/>
<feBlend mode="normal" in="SourceGraphic" in2="effect1_dropShadow_80_33" result="shape"/>
</filter>
</defs>
</svg>
