<svg width="500" height="500" viewBox="0 0 500 500" fill="none" xmlns="http://www.w3.org/2000/svg">
<path d="M244.362 41.6197C245.739 41.5808 247.117 41.5557 248.495 41.5442C249.873 41.5328 251.251 41.5351 252.629 41.551C254.007 41.567 255.385 41.5967 256.762 41.6401C258.139 41.6835 259.516 41.7406 260.892 41.8114C262.269 41.8822 263.644 41.9667 265.018 42.0649C266.393 42.163 267.766 42.2749 269.139 42.4004C270.511 42.5259 271.882 42.6651 273.251 42.8179C274.621 42.9707 275.989 43.1371 277.355 43.3171C278.721 43.4971 280.085 43.6907 281.448 43.8979C282.81 44.105 284.17 44.3257 285.528 44.56C286.886 44.7943 288.242 45.042 289.595 45.3032C290.948 45.5644 292.298 45.8391 293.646 46.1272C294.993 46.4153 296.338 46.7167 297.679 47.0316C299.021 47.3465 300.359 47.6746 301.694 48.0161C303.029 48.3576 304.361 48.7124 305.689 49.0804C307.017 49.4484 308.341 49.8296 309.661 50.2239C310.982 50.6182 312.298 51.0257 313.61 51.4462C314.923 51.8668 316.231 52.3004 317.534 52.7469C318.838 53.1935 320.137 53.653 321.432 54.1255C322.726 54.5979 324.016 55.0832 325.301 55.5813C326.586 56.0794 327.865 56.5902 329.14 57.1138C330.415 57.6374 331.684 58.1736 332.948 58.7224C334.212 59.2713 335.47 59.8326 336.723 60.4065C337.976 60.9804 339.223 61.5667 340.464 62.1654C341.705 62.7641 342.94 63.3751 344.169 63.9984C345.398 64.6217 346.621 65.2571 347.837 65.9047C349.054 66.5524 350.264 67.212 351.467 67.8837C352.67 68.5554 353.867 69.239 355.056 69.9345C356.246 70.63 357.429 71.3373 358.604 72.0564C359.779 72.7754 360.948 73.5061 362.109 74.2484C363.27 74.9907 364.423 75.7445 365.569 76.5097C366.715 77.275 367.853 78.0516 368.984 78.8395C375.428 83.3242 381.924 88.1975 387.728 93.503C393.852 99.102 399.828 104.817 405.371 111C406.376 112.12 407.369 113.251 408.35 114.393C409.331 115.534 410.3 116.686 411.255 117.849C412.211 119.012 413.154 120.185 414.084 121.368C415.015 122.551 415.932 123.745 416.836 124.948C417.741 126.151 418.632 127.364 419.51 128.587C420.388 129.809 421.253 131.041 422.104 132.282C422.955 133.523 423.793 134.774 424.617 136.034C425.441 137.293 426.251 138.561 427.048 139.838C427.844 141.115 428.626 142.401 429.395 143.695C430.164 144.99 430.918 146.292 431.658 147.602C432.399 148.913 433.125 150.231 433.836 151.558C434.548 152.884 435.245 154.218 435.928 155.559C436.611 156.9 437.279 158.249 437.932 159.605C438.585 160.961 439.224 162.324 439.847 163.694C440.471 165.064 441.08 166.44 441.674 167.823C442.267 169.206 442.846 170.596 443.41 171.991C443.973 173.387 444.522 174.789 445.055 176.196C445.588 177.603 446.106 179.017 446.609 180.436C447.111 181.855 447.598 183.279 448.07 184.708C448.541 186.137 448.997 187.572 449.438 189.011C449.878 190.45 450.303 191.894 450.712 193.342C451.121 194.791 451.514 196.244 451.891 197.701C452.268 199.158 452.63 200.619 452.976 202.084C453.321 203.549 453.651 205.017 453.965 206.489C454.279 207.961 454.577 209.436 454.858 210.915C455.14 212.394 455.406 213.875 455.655 215.36C455.905 216.844 456.138 218.331 456.355 219.82C456.572 221.309 456.773 222.801 456.958 224.295C457.143 225.788 457.312 227.284 457.464 228.782C457.617 230.279 457.753 231.778 457.872 233.278C457.992 234.779 458.096 236.28 458.183 237.783C458.27 239.286 458.34 240.789 458.395 242.293C458.446 243.644 458.483 244.996 458.507 246.348C458.531 247.7 458.542 249.052 458.54 250.404C458.538 251.756 458.523 253.108 458.494 254.46C458.465 255.811 458.424 257.163 458.369 258.514C458.314 259.865 458.246 261.215 458.165 262.565C458.084 263.914 457.989 265.263 457.882 266.611C457.774 267.959 457.653 269.306 457.52 270.651C457.386 271.997 457.239 273.341 457.079 274.684C456.919 276.026 456.746 277.367 456.56 278.706C456.374 280.045 456.175 281.383 455.963 282.718C455.751 284.053 455.526 285.387 455.287 286.718C455.049 288.049 454.798 289.377 454.534 290.703C454.27 292.03 453.993 293.353 453.703 294.674C453.414 295.995 453.111 297.312 452.795 298.627C452.48 299.942 452.151 301.253 451.81 302.562C451.469 303.87 451.116 305.175 450.749 306.477C450.382 307.778 450.003 309.076 449.612 310.37C449.22 311.664 448.815 312.954 448.398 314.241C447.981 315.527 447.552 316.809 447.11 318.087C446.668 319.364 446.214 320.638 445.747 321.907C445.28 323.176 444.801 324.44 444.31 325.7C443.819 326.96 443.315 328.215 442.799 329.464C442.283 330.714 441.755 331.959 441.215 333.198C440.674 334.438 440.122 335.672 439.558 336.901C438.994 338.13 438.418 339.353 437.83 340.57C437.242 341.788 436.642 343 436.03 344.206C435.419 345.411 434.795 346.611 434.16 347.805C433.525 348.999 432.879 350.186 432.22 351.367C431.562 352.548 430.892 353.723 430.211 354.891C429.53 356.059 428.838 357.22 428.134 358.375C427.431 359.53 426.716 360.677 425.989 361.818C425.263 362.959 424.526 364.092 423.778 365.218C416.907 375.579 409.102 385.092 400.701 394.236C394.036 401.49 386.133 408.182 378.386 414.244C342.671 442.195 300.999 456.562 255.832 458.393C253.25 458.463 250.668 458.485 248.085 458.459C245.502 458.434 242.92 458.36 240.34 458.238C237.76 458.117 235.183 457.947 232.609 457.73C230.035 457.513 227.466 457.249 224.902 456.936C222.338 456.623 219.781 456.263 217.23 455.856C214.679 455.449 212.137 454.994 209.603 454.492C207.069 453.991 204.545 453.442 202.032 452.846C199.519 452.251 197.017 451.609 194.527 450.921C192.038 450.233 189.562 449.499 187.099 448.719C184.636 447.939 182.189 447.113 179.758 446.242C177.326 445.371 174.911 444.456 172.513 443.495C170.115 442.535 167.736 441.53 165.376 440.481C163.015 439.432 160.675 438.34 158.355 437.205C156.035 436.069 153.737 434.891 151.46 433.67C149.184 432.449 146.931 431.187 144.701 429.882C142.472 428.577 140.267 427.232 138.088 425.846C126.731 418.566 116.466 410.242 106.509 401.176C98.7755 394.134 91.6798 385.914 85.286 377.647C58.2619 342.705 43.5767 301.025 41.5669 256.975C41.152 247.882 41.6408 238.801 42.4794 229.748C46.7797 183.323 66.8687 141.133 98.2296 106.924C105.353 99.1539 113.413 92.1614 121.719 85.6871C158.071 57.3521 198.474 43.6436 244.362 41.6197ZM247.468 73.1299C246.185 73.1465 244.902 73.1771 243.619 73.2217C242.336 73.2663 241.054 73.3249 239.773 73.3976C238.492 73.4702 237.211 73.5568 235.932 73.6574C234.653 73.758 233.374 73.8726 232.097 74.0011C230.82 74.1296 229.545 74.2721 228.271 74.4285C226.997 74.5849 225.725 74.7552 224.455 74.9394C223.185 75.1236 221.917 75.3216 220.651 75.5335C219.385 75.7454 218.122 75.9711 216.861 76.2106C215.6 76.4501 214.342 76.7034 213.087 76.9704C211.832 77.2373 210.579 77.518 209.33 77.8124C208.081 78.1067 206.835 78.4147 205.592 78.7363C204.35 79.0578 203.111 79.3929 201.876 79.7416C200.641 80.0902 199.409 80.4523 198.182 80.8278C196.955 81.2033 195.732 81.5922 194.513 81.9945C193.294 82.3968 192.08 82.8123 190.871 83.2411C189.661 83.6699 188.456 84.1119 187.256 84.567C186.056 85.0221 184.861 85.4903 183.671 85.9715C182.482 86.4527 181.297 86.9469 180.118 87.454C178.939 87.9611 177.766 88.4811 176.598 89.0138C175.431 89.5465 174.269 90.092 173.113 90.6501C171.958 91.2082 170.808 91.7788 169.665 92.3621C168.522 92.9454 167.385 93.541 166.255 94.1491C165.124 94.7572 164.001 95.3775 162.884 96.0101C161.767 96.6427 160.658 97.2874 159.555 97.9443C158.452 98.6012 157.357 99.27 156.269 99.9508C155.182 100.632 154.101 101.324 153.028 102.029C151.955 102.733 150.89 103.449 149.833 104.177C148.776 104.904 147.727 105.643 146.686 106.394C145.645 107.145 144.612 107.907 143.588 108.68C142.563 109.453 141.547 110.238 140.54 111.033C139.533 111.828 138.534 112.634 137.545 113.451C136.555 114.268 135.574 115.096 134.603 115.935C129.9 119.993 125.49 124.435 121.186 128.908C120.206 129.944 119.239 130.992 118.284 132.052C117.329 133.112 116.388 134.183 115.46 135.266C114.531 136.349 113.616 137.443 112.714 138.548C111.813 139.653 110.925 140.769 110.05 141.896C109.175 143.023 108.315 144.161 107.468 145.308C106.621 146.456 105.789 147.614 104.97 148.782C104.151 149.95 103.347 151.128 102.557 152.316C101.767 153.503 100.992 154.7 100.231 155.907C99.4701 157.114 98.7241 158.329 97.993 159.554C97.2619 160.779 96.5459 162.012 95.8448 163.254C95.1437 164.496 94.4579 165.747 93.7874 167.006C93.1168 168.265 92.4617 169.532 91.822 170.807C91.1823 172.082 90.5582 173.364 89.9498 174.654C89.3413 175.944 88.7487 177.241 88.1719 178.546C87.595 179.851 87.0342 181.162 86.4893 182.48C85.9445 183.798 85.4158 185.123 84.9032 186.454C84.3906 187.785 83.8943 189.122 83.4143 190.465C82.9344 191.808 82.4708 193.157 82.0237 194.512C81.5766 195.866 81.146 197.226 80.732 198.591C80.3181 199.956 79.9208 201.325 79.5402 202.7C79.1596 204.075 78.7958 205.454 78.4488 206.838C78.1018 208.221 77.7717 209.609 77.4586 211C77.1455 212.392 76.8493 213.787 76.5701 215.186C76.291 216.585 76.0289 217.987 75.7839 219.392C75.5389 220.797 75.3111 222.204 75.1004 223.615C74.8897 225.026 74.6962 226.439 74.52 227.855C74.3437 229.27 74.1848 230.688 74.0431 232.107C73.9014 233.526 73.777 234.947 73.6699 236.369C73.5628 237.792 73.4731 239.215 73.4007 240.64C73.3284 242.064 73.2734 243.489 73.2357 244.915C73.198 246.341 73.1778 247.767 73.1749 249.193C73.172 250.62 73.1865 252.046 73.2184 253.472C73.2444 254.912 73.288 256.351 73.3492 257.79C73.4104 259.229 73.4892 260.666 73.5856 262.103C73.682 263.54 73.796 264.975 73.9275 266.409C74.059 267.842 74.2081 269.274 74.3746 270.705C74.5412 272.135 74.7253 273.563 74.9268 274.989C75.1283 276.415 75.3473 277.838 75.5837 279.258C75.8201 280.679 76.0738 282.096 76.3449 283.51C76.616 284.924 76.9043 286.335 77.2098 287.742C77.5154 289.149 77.8382 290.553 78.1781 291.952C78.5181 293.351 78.8751 294.746 79.2492 296.136C79.6233 297.527 80.0143 298.912 80.4223 300.293C80.8303 301.674 81.2551 303.05 81.6968 304.421C82.1385 305.791 82.5969 307.156 83.072 308.515C83.5471 309.874 84.0387 311.228 84.5469 312.575C85.0551 313.922 85.5797 315.263 86.1208 316.598C86.6619 317.933 87.2191 319.26 87.7926 320.581C88.3661 321.902 88.9558 323.215 89.5615 324.521C90.1672 325.828 90.7887 327.127 91.4262 328.418C92.0637 329.709 92.7168 330.992 93.3857 332.267C94.0546 333.542 94.739 334.809 95.4389 336.068C96.1388 337.326 96.8539 338.576 97.5844 339.817C98.3149 341.058 99.0605 342.289 99.8211 343.512C100.582 344.735 101.357 345.948 102.148 347.151C102.938 348.355 103.743 349.549 104.562 350.733C105.382 351.917 106.216 353.091 107.064 354.254C107.913 355.417 108.775 356.57 109.651 357.713C110.528 358.856 111.418 359.987 112.322 361.108C113.227 362.229 114.145 363.338 115.076 364.436C116.007 365.534 116.952 366.621 117.91 367.696C118.867 368.771 119.838 369.835 120.822 370.886C121.806 371.937 122.803 372.976 123.813 374.003C124.822 375.03 125.844 376.044 126.878 377.046C160.05 408.867 205.496 428.003 251.748 426.867C251.984 426.861 252.22 426.846 252.455 426.828C298.6 426.772 343.261 406.925 375.672 374.417C376.698 373.384 377.711 372.338 378.711 371.279C379.711 370.22 380.698 369.149 381.671 368.066C382.644 366.983 383.604 365.887 384.551 364.78C385.497 363.673 386.429 362.555 387.348 361.425C388.267 360.295 389.171 359.154 390.061 358.001C390.951 356.848 391.827 355.685 392.688 354.511C393.55 353.336 394.397 352.152 395.229 350.957C396.061 349.762 396.878 348.556 397.68 347.34C398.482 346.125 399.269 344.9 400.041 343.665C400.812 342.43 401.569 341.185 402.31 339.931C403.051 338.678 403.776 337.415 404.485 336.143C405.195 334.872 405.889 333.591 406.566 332.302C407.244 331.013 407.906 329.716 408.552 328.411C409.197 327.106 409.827 325.792 410.44 324.471C411.053 323.15 411.649 321.822 412.23 320.486C412.81 319.15 413.373 317.807 413.92 316.458C414.467 315.108 414.997 313.752 415.51 312.389C416.023 311.026 416.52 309.657 416.999 308.282C417.478 306.907 417.941 305.526 418.386 304.139C418.831 302.752 419.258 301.36 419.669 299.963C420.08 298.566 420.473 297.164 420.848 295.757C421.224 294.35 421.582 292.938 421.923 291.522C422.264 290.107 422.587 288.687 422.893 287.263C423.198 285.839 423.486 284.411 423.756 282.98C424.026 281.549 424.278 280.115 424.513 278.678C424.748 277.241 424.965 275.801 425.164 274.358C425.363 272.915 425.543 271.47 425.706 270.023C425.869 268.576 426.015 267.127 426.142 265.676C426.269 264.225 426.378 262.773 426.469 261.32C426.56 259.867 426.633 258.412 426.688 256.957C426.743 255.502 426.78 254.046 426.799 252.59C426.818 251.133 426.819 249.677 426.802 248.221C426.702 200.718 407.112 156.783 373.615 123.427C372.59 122.421 371.552 121.428 370.502 120.448C369.452 119.467 368.39 118.5 367.316 117.546C366.243 116.591 365.158 115.65 364.061 114.722C362.964 113.795 361.856 112.881 360.737 111.98C359.618 111.079 358.488 110.192 357.347 109.319C356.206 108.446 355.055 107.587 353.893 106.742C352.731 105.897 351.559 105.067 350.377 104.251C349.195 103.435 348.003 102.633 346.801 101.846C345.6 101.059 344.389 100.287 343.168 99.5298C341.947 98.7725 340.717 98.0303 339.478 97.3031C338.239 96.5759 336.992 95.864 335.736 95.1673C334.479 94.4706 333.215 93.7894 331.942 93.1237C330.669 92.458 329.388 91.808 328.099 91.1736C326.81 90.5393 325.514 89.9208 324.21 89.3182C322.906 88.7156 321.595 88.129 320.276 87.5585C318.958 86.988 317.633 86.4338 316.301 85.8957C314.969 85.3576 313.631 84.8359 312.286 84.3306C310.941 83.8253 309.591 83.3366 308.234 82.8643C306.877 82.3921 305.515 81.9365 304.147 81.4976C302.779 81.0587 301.406 80.6367 300.028 80.2314C298.65 79.8261 297.267 79.4378 295.879 79.0663C294.492 78.6949 293.1 78.3405 291.703 78.0032C290.307 77.6659 288.907 77.3457 287.503 77.0426C286.098 76.7395 284.691 76.4537 283.28 76.1851C281.869 75.9165 280.454 75.6652 279.037 75.4312C277.62 75.1972 276.2 74.9806 274.777 74.7814C273.354 74.5822 271.929 74.4004 270.502 74.2361C269.075 74.0718 267.647 73.9249 266.216 73.7956C264.785 73.6662 263.353 73.5544 261.92 73.4601C260.487 73.3658 259.052 73.289 257.617 73.2299C256.182 73.1707 254.746 73.1291 253.309 73.105C251.873 73.081 250.437 73.0746 249 73.0857C248.489 73.0866 247.978 73.1013 247.468 73.1299Z" fill="#2A2A27" fill-opacity="0.8"/>
<path d="M246.423 135.356C247.463 135.309 248.502 135.283 249.542 135.279C250.583 135.275 251.623 135.293 252.662 135.334C253.702 135.374 254.74 135.436 255.777 135.52C256.814 135.603 257.849 135.709 258.881 135.837C259.913 135.964 260.943 136.114 261.969 136.285C262.995 136.456 264.017 136.648 265.035 136.862C266.053 137.076 267.066 137.312 268.074 137.569C269.082 137.826 270.085 138.104 271.081 138.403C272.077 138.702 273.067 139.021 274.05 139.362C275.033 139.703 276.008 140.065 276.976 140.447C277.944 140.829 278.903 141.231 279.853 141.653C280.804 142.076 281.745 142.518 282.677 142.98C283.609 143.442 284.531 143.924 285.443 144.425C286.355 144.926 287.255 145.446 288.145 145.985C289.035 146.524 289.913 147.082 290.779 147.658C291.645 148.234 292.499 148.828 293.34 149.44C294.676 150.422 295.976 151.448 297.242 152.518C298.508 153.589 299.735 154.701 300.925 155.856C302.115 157.01 303.264 158.203 304.372 159.436C305.48 160.669 306.545 161.939 307.566 163.244C308.588 164.549 309.564 165.888 310.494 167.26C311.425 168.632 312.307 170.034 313.141 171.466C313.976 172.899 314.761 174.358 315.496 175.844C316.231 177.329 316.914 178.838 317.546 180.371C318.84 183.454 320.084 186.673 320.593 189.995C321.302 194.62 320.036 198.793 317.26 202.524C315.028 205.525 311.215 207.336 307.567 207.857C300.992 208.795 294.341 206.031 291.28 199.95C289.558 196.528 288.689 192.696 286.869 189.32C286.113 187.896 285.281 186.518 284.373 185.185C283.465 183.853 282.486 182.575 281.436 181.352C280.387 180.128 279.273 178.966 278.094 177.865C276.916 176.765 275.681 175.733 274.388 174.769C265.974 168.439 254.651 165.751 244.267 167.263C232.76 168.939 223.03 175.056 216.149 184.4C208.279 195.087 207.327 209.858 209.411 222.598C210.921 231.828 213.825 240.846 215.249 250.057C225.149 249.612 235.194 249.944 245.109 249.943C255.202 249.942 265.419 249.612 275.5 249.979C280.326 250.155 284.624 251.312 287.983 254.968C290.877 258.119 292.22 262.396 291.996 266.644C291.781 270.719 289.778 274.847 286.707 277.534C284.882 279.13 282.436 280.451 280.05 280.9C275.731 281.713 271.178 281.481 266.799 281.483L250.54 281.474H229.471C225.238 281.473 220.954 281.609 216.73 281.332C216.674 283.16 216.559 284.984 216.384 286.804C216.209 288.624 215.975 290.437 215.681 292.242C215.389 294.047 215.037 295.84 214.626 297.622C214.216 299.404 213.749 301.171 213.223 302.923C212.698 304.674 212.116 306.407 211.478 308.12C210.84 309.834 210.146 311.525 209.397 313.193C208.649 314.862 207.846 316.504 206.99 318.12C206.135 319.736 205.228 321.322 204.268 322.879C209.896 322.56 215.609 322.735 221.248 322.733L249.875 322.735L298.06 322.738L311.107 322.705C314.045 322.698 317.123 322.514 320.033 322.973C324.286 323.643 328.41 325.851 330.92 329.414C333.235 332.7 334.205 337.13 333.536 341.085C332.854 345.119 330.562 349.065 327.178 351.414C324.589 353.211 321.609 354.019 318.497 354.271C314.623 354.583 310.655 354.437 306.769 354.437L288.175 354.436L228.566 354.425L189.378 354.436C183.093 354.446 173.953 355.089 168.064 353.963C164.143 353.213 160.597 350.349 158.418 347.082C157.046 345.023 156.313 342.429 156.089 339.98C155.191 330.153 163.048 325.305 168.786 318.711C170.808 316.402 172.709 313.998 174.487 311.498C176.267 308.998 177.916 306.415 179.434 303.748C184.154 295.355 184.221 290.166 186.071 281.303C185.55 281.359 185.027 281.396 184.503 281.413C176.642 281.619 166.989 282.887 160.826 277.03C157.704 274.063 156.076 270.046 156.017 265.762C155.959 261.51 157.422 257.492 160.453 254.469C166.34 248.598 175.217 249.915 182.812 249.969C180.101 241.498 178.109 231.177 177.358 222.343C175.422 199.552 178.961 179.156 194.107 161.224C207.819 144.988 225.485 137.12 246.423 135.356Z" fill="#E3B04A"/>
</svg>
