<svg width="500" height="500" viewBox="0 0 500 500" fill="none" xmlns="http://www.w3.org/2000/svg">
<path d="M249.472 41.6165C251.111 41.6138 252.749 41.6305 254.388 41.6665C256.026 41.7026 257.664 41.7579 259.301 41.8326C260.938 41.9073 262.573 42.0013 264.208 42.1146C265.843 42.2279 267.476 42.3606 269.108 42.5125C270.739 42.6644 272.369 42.8355 273.997 43.0259C275.624 43.2163 277.249 43.4259 278.872 43.6546C280.495 43.8834 282.114 44.1313 283.731 44.3983C285.348 44.6653 286.962 44.9514 288.572 45.2565C290.182 45.5616 291.788 45.8857 293.39 46.2288C294.993 46.5719 296.591 46.9338 298.185 47.3145C299.779 47.6953 301.368 48.0949 302.952 48.5132C304.537 48.9315 306.116 49.3685 307.69 49.8241C309.264 50.2798 310.833 50.7539 312.396 51.2466C313.959 51.7393 315.515 52.2503 317.066 52.7797C318.617 53.3092 320.161 53.8568 321.699 54.4227C323.237 54.9886 324.768 55.5726 326.292 56.1746C327.816 56.7767 329.333 57.3966 330.843 58.0345C332.352 58.6724 333.854 59.3281 335.348 60.0014C336.842 60.6747 338.328 61.3656 339.805 62.074C341.283 62.7825 342.752 63.5083 344.212 64.2514C345.673 64.9945 347.124 65.7548 348.567 66.5322C350.01 67.3096 351.443 68.1039 352.867 68.9152C354.29 69.7265 355.704 70.5544 357.109 71.399C358.513 72.2437 359.907 73.1048 361.291 73.9824C362.675 74.8599 364.048 75.7537 365.411 76.6637C366.774 77.5737 368.126 78.4996 369.467 79.4416C370.808 80.3835 372.137 81.3412 373.456 82.3145C374.774 83.2878 376.081 84.2766 377.376 85.2808C378.671 86.285 379.954 87.3043 381.225 88.3388C382.496 89.3733 383.754 90.4227 385 91.4869C386.246 92.5511 387.479 93.6298 388.7 94.7232C389.921 95.8165 391.128 96.9241 392.323 98.046C393.554 99.1956 394.771 100.36 395.974 101.539C397.177 102.718 398.366 103.912 399.54 105.12C400.714 106.328 401.873 107.55 403.017 108.787C404.161 110.024 405.29 111.274 406.404 112.537C407.518 113.801 408.616 115.078 409.699 116.369C410.782 117.66 411.848 118.963 412.899 120.279C413.95 121.596 414.984 122.925 416.003 124.267C417.022 125.608 418.024 126.962 419.01 128.328C419.995 129.695 420.964 131.073 421.916 132.462C422.869 133.852 423.804 135.253 424.722 136.665C425.64 138.078 426.541 139.501 427.424 140.935C428.307 142.37 429.173 143.815 430.021 145.27C430.869 146.725 431.699 148.191 432.512 149.667C433.325 151.142 434.119 152.628 434.896 154.123C435.672 155.618 436.43 157.122 437.17 158.635C437.91 160.148 438.631 161.671 439.334 163.202C440.037 164.733 440.721 166.272 441.386 167.82C442.051 169.367 442.698 170.923 443.325 172.486C443.952 174.049 444.561 175.62 445.15 177.198C445.739 178.776 446.309 180.361 446.86 181.953C447.411 183.546 447.942 185.144 448.453 186.749C448.965 188.354 449.457 189.965 449.93 191.582C450.402 193.199 450.855 194.821 451.288 196.449C451.721 198.077 452.134 199.71 452.527 201.348C452.92 202.986 453.294 204.629 453.647 206.276C454 207.923 454.334 209.574 454.647 211.229C454.96 212.884 455.253 214.543 455.526 216.205C455.799 217.868 456.051 219.533 456.283 221.201C456.516 222.87 456.728 224.541 456.919 226.215C457.11 227.888 457.282 229.564 457.433 231.242C457.584 232.919 457.714 234.599 457.824 236.28C457.934 237.961 458.023 239.643 458.092 241.326C459.867 296.788 441.169 350.513 402.946 391.218C401.937 392.313 400.916 393.397 399.884 394.47C398.851 395.543 397.808 396.604 396.753 397.655C395.698 398.706 394.632 399.745 393.555 400.772C392.478 401.8 391.389 402.816 390.29 403.821C389.191 404.826 388.082 405.818 386.962 406.799C385.841 407.78 384.711 408.748 383.57 409.705C382.429 410.662 381.278 411.606 380.117 412.538C378.956 413.47 377.785 414.39 376.604 415.297C375.423 416.204 374.233 417.098 373.033 417.98C371.834 418.861 370.625 419.73 369.406 420.585C368.187 421.441 366.96 422.284 365.724 423.113C364.487 423.942 363.242 424.758 361.988 425.561C360.734 426.364 359.472 427.154 358.201 427.929C356.93 428.705 355.651 429.467 354.364 430.216C353.077 430.964 351.782 431.699 350.479 432.42C349.176 433.141 347.866 433.847 346.548 434.54C345.23 435.233 343.905 435.911 342.573 436.576C341.24 437.24 339.901 437.89 338.555 438.526C337.208 439.162 335.855 439.783 334.496 440.39C333.136 440.997 331.77 441.589 330.398 442.167C329.025 442.744 327.647 443.307 326.263 443.855C324.879 444.404 323.489 444.937 322.093 445.455C320.697 445.974 319.296 446.477 317.89 446.966C316.483 447.454 315.072 447.927 313.655 448.386C312.238 448.844 310.817 449.287 309.391 449.715C307.965 450.143 306.535 450.556 305.1 450.953C303.665 451.35 302.226 451.732 300.783 452.099C299.34 452.465 297.893 452.816 296.442 453.152C294.991 453.487 293.537 453.807 292.08 454.112C290.623 454.417 289.162 454.706 287.699 454.979C286.235 455.252 284.769 455.51 283.3 455.751C281.831 455.993 280.359 456.219 278.885 456.43C269.435 457.758 260.044 458.111 250.52 458.404C199.514 459.073 145.772 438.104 108.75 402.997C67.3967 363.782 43.3383 313.242 41.8378 255.945C40.3283 198.306 61.184 146.372 100.806 104.699C131.403 72.5187 173.453 51.3144 217.144 44.2622C227.865 42.5317 238.629 41.8821 249.472 41.6165ZM244.52 73.125C243.082 73.1657 241.645 73.224 240.208 73.2998C238.772 73.3757 237.337 73.469 235.902 73.5799C234.468 73.6908 233.035 73.8193 231.604 73.9652C230.173 74.1112 228.744 74.2746 227.317 74.4555C225.89 74.6363 224.466 74.8346 223.043 75.0503C221.621 75.266 220.202 75.4991 218.785 75.7495C217.368 75.9999 215.955 76.2675 214.546 76.5525C213.136 76.8374 211.73 77.1396 210.327 77.4589C208.924 77.7782 207.526 78.1147 206.131 78.4682C204.737 78.8217 203.347 79.1922 201.962 79.5797C200.577 79.9671 199.196 80.3715 197.821 80.7928C196.445 81.214 195.075 81.6519 193.71 82.1067C192.345 82.5614 190.986 83.0327 189.633 83.5207C188.28 84.0086 186.933 84.513 185.592 85.0339C184.251 85.5547 182.917 86.0919 181.589 86.6454C180.262 87.1989 178.941 87.7686 177.627 88.3543C176.313 88.9401 175.007 89.5419 173.708 90.1596C172.409 90.7773 171.117 91.4107 169.834 92.0601C168.55 92.7093 167.274 93.3742 166.007 94.0547C164.74 94.7352 163.481 95.431 162.231 96.1422C160.98 96.8534 159.739 97.5799 158.506 98.3214C157.273 99.063 156.05 99.8195 154.836 100.591C153.622 101.362 152.418 102.149 151.223 102.95C150.028 103.751 148.843 104.566 147.668 105.396C146.493 106.226 145.328 107.07 144.174 107.928C143.019 108.787 141.876 109.659 140.743 110.545C139.61 111.432 138.488 112.332 137.377 113.245C136.266 114.159 135.167 115.086 134.078 116.027C132.99 116.968 131.913 117.921 130.848 118.888C129.783 119.855 128.73 120.835 127.689 121.828C126.648 122.821 125.619 123.826 124.603 124.844C123.586 125.861 122.582 126.891 121.591 127.934C88.1601 163.295 71.6881 208.571 73.0829 257.062C73.1376 258.502 73.21 259.941 73.3 261.38C73.39 262.818 73.4976 264.255 73.6228 265.69C73.748 267.126 73.8907 268.56 74.051 269.992C74.2113 271.424 74.3892 272.854 74.5846 274.282C74.7799 275.71 74.9927 277.135 75.223 278.558C75.4532 279.98 75.7009 281.399 75.966 282.816C76.2311 284.233 76.5134 285.646 76.8131 287.055C77.1128 288.465 77.4296 289.871 77.7638 291.272C78.0978 292.674 78.449 294.072 78.8174 295.465C79.1857 296.858 79.5711 298.247 79.9735 299.63C80.3758 301.014 80.795 302.393 81.2312 303.766C81.6673 305.14 82.1202 306.508 82.5899 307.87C83.0595 309.233 83.5458 310.589 84.0487 311.94C84.5515 313.29 85.0709 314.634 85.6068 315.972C86.1426 317.31 86.6947 318.641 87.2631 319.965C87.8315 321.29 88.416 322.607 89.0168 323.917C89.6174 325.226 90.2341 326.529 90.8667 327.824C91.4993 329.119 92.1476 330.405 92.8118 331.684C93.4759 332.963 94.1556 334.234 94.8508 335.496C95.546 336.759 96.2567 338.012 96.9827 339.257C97.7086 340.502 98.4497 341.737 99.206 342.964C99.9619 344.191 100.733 345.408 101.52 346.616C102.306 347.824 103.107 349.022 103.922 350.21C104.737 351.399 105.567 352.577 106.411 353.744C107.256 354.912 108.114 356.069 108.987 357.216C109.86 358.363 110.746 359.499 111.646 360.624C112.547 361.749 113.461 362.863 114.389 363.966C115.316 365.069 116.257 366.16 117.212 367.24C118.167 368.319 119.134 369.387 120.115 370.443C121.096 371.499 122.089 372.543 123.095 373.575C124.101 374.606 125.12 375.625 126.151 376.632C127.182 377.639 128.226 378.633 129.281 379.614C130.326 380.589 131.383 381.55 132.451 382.499C133.52 383.448 134.6 384.384 135.691 385.307C136.782 386.23 137.885 387.139 138.998 388.035C140.111 388.931 141.235 389.813 142.37 390.682C143.505 391.551 144.65 392.405 145.805 393.246C146.96 394.087 148.126 394.913 149.302 395.726C150.477 396.539 151.663 397.337 152.858 398.12C154.053 398.904 155.257 399.673 156.471 400.427C157.684 401.182 158.907 401.921 160.138 402.646C161.37 403.371 162.61 404.08 163.859 404.775C165.108 405.47 166.366 406.149 167.631 406.813C168.896 407.477 170.169 408.126 171.45 408.759C172.731 409.392 174.02 410.009 175.316 410.611C176.612 411.213 177.915 411.799 179.226 412.369C180.537 412.939 181.854 413.493 183.177 414.031C184.501 414.57 185.831 415.092 187.168 415.597C188.505 416.103 189.847 416.593 191.195 417.066C192.544 417.539 193.898 417.996 195.257 418.436C196.617 418.877 197.982 419.3 199.351 419.707C200.721 420.114 202.096 420.505 203.475 420.879C204.854 421.252 206.238 421.609 207.626 421.95C209.014 422.29 210.406 422.613 211.801 422.919C213.197 423.226 214.596 423.515 215.999 423.787C217.402 424.06 218.808 424.315 220.217 424.553C221.626 424.791 223.038 425.012 224.452 425.216C225.867 425.42 227.284 425.607 228.703 425.776C230.122 425.945 231.542 426.098 232.965 426.233C234.388 426.368 235.812 426.485 237.237 426.585C238.662 426.686 240.089 426.769 241.517 426.834C242.944 426.9 244.372 426.948 245.801 426.979C247.23 427.01 248.659 427.024 250.088 427.02C251.517 427.017 252.945 426.996 254.374 426.957C254.733 426.946 255.091 426.933 255.449 426.917C305.802 424.682 348.036 405.054 382.111 367.847C412.682 334.467 428.89 287.944 426.911 242.844C426.854 241.393 426.779 239.943 426.686 238.494C426.593 237.045 426.482 235.597 426.353 234.151C426.224 232.704 426.078 231.26 425.914 229.817C425.75 228.374 425.568 226.934 425.368 225.495C425.168 224.057 424.951 222.622 424.716 221.189C424.481 219.756 424.228 218.326 423.957 216.899C423.687 215.472 423.399 214.049 423.094 212.63C422.789 211.21 422.466 209.794 422.125 208.383C421.785 206.971 421.427 205.564 421.052 204.161C420.677 202.758 420.285 201.36 419.876 199.967C419.467 198.574 419.04 197.187 418.596 195.804C418.153 194.421 417.692 193.044 417.214 191.673C416.737 190.302 416.242 188.936 415.731 187.577C415.22 186.218 414.692 184.865 414.148 183.519C413.603 182.173 413.042 180.834 412.464 179.501C411.887 178.169 411.293 176.844 410.683 175.527C410.073 174.209 409.447 172.899 408.804 171.597C408.161 170.294 407.503 169 406.829 167.714C406.154 166.428 405.464 165.151 404.758 163.882C404.053 162.613 403.331 161.353 402.594 160.102C401.857 158.851 401.105 157.609 400.338 156.376C399.571 155.143 398.788 153.92 397.99 152.707C397.193 151.494 396.38 150.29 395.553 149.097C394.726 147.903 393.884 146.72 393.027 145.548C392.17 144.375 391.3 143.213 390.415 142.062C389.53 140.911 388.631 139.771 387.718 138.642C386.805 137.513 385.878 136.395 384.937 135.289C383.996 134.183 383.042 133.089 382.074 132.006C381.107 130.923 380.126 129.853 379.132 128.794C378.138 127.735 377.131 126.689 376.111 125.656C375.091 124.622 374.059 123.601 373.014 122.593C371.969 121.584 370.911 120.589 369.842 119.607C368.791 118.639 367.729 117.684 366.656 116.743C365.583 115.801 364.498 114.872 363.401 113.956C362.305 113.041 361.198 112.139 360.08 111.25C358.962 110.361 357.833 109.487 356.694 108.626C355.554 107.765 354.404 106.918 353.244 106.085C352.084 105.252 350.914 104.433 349.734 103.628C348.554 102.823 347.365 102.033 346.166 101.257C344.967 100.482 343.758 99.7207 342.54 98.9743C341.323 98.228 340.096 97.4966 338.86 96.7802C337.625 96.0637 336.381 95.3624 335.128 94.6762C333.875 93.9901 332.615 93.3192 331.346 92.6637C330.077 92.0082 328.801 91.3682 327.516 90.7438C326.231 90.1194 324.939 89.5107 323.64 88.9177C322.341 88.3247 321.034 87.7476 319.721 87.1863C318.408 86.6251 317.088 86.08 315.762 85.5509C314.435 85.0218 313.102 84.5089 311.763 84.0123C310.424 83.5156 309.079 83.0353 307.728 82.5714C306.377 82.1074 305.021 81.6599 303.66 81.229C302.298 80.798 300.931 80.3838 299.56 79.9861C298.188 79.5884 296.812 79.2075 295.431 78.8433C294.05 78.4791 292.664 78.1318 291.275 77.8013C289.886 77.4708 288.492 77.1573 287.095 76.8607C285.698 76.5641 284.297 76.2846 282.894 76.0221C281.49 75.7596 280.083 75.5141 278.673 75.2859C277.263 75.0576 275.851 74.8466 274.436 74.6527C273.021 74.4588 271.603 74.2821 270.184 74.1227C268.765 73.9633 267.344 73.8211 265.921 73.6963C264.498 73.5715 263.074 73.464 261.649 73.3738C260.224 73.2836 258.797 73.2107 257.37 73.1553C255.943 73.0998 254.516 73.0617 253.088 73.041C251.659 73.0203 250.231 73.0169 248.803 73.0309C247.375 73.0449 245.947 73.0763 244.52 73.125Z" fill="#2A2A27" fill-opacity="0.8" />
<path d="M242.156 114.561C243.075 114.456 243.992 114.362 244.918 114.378C245.441 114.387 245.961 114.421 246.48 114.48C246.999 114.539 247.514 114.624 248.025 114.735C248.536 114.845 249.04 114.98 249.537 115.14C250.034 115.3 250.523 115.484 251.002 115.692C251.481 115.9 251.949 116.131 252.406 116.385C252.863 116.639 253.306 116.915 253.735 117.213C254.164 117.51 254.578 117.828 254.976 118.167C255.375 118.505 255.755 118.862 256.118 119.238C261.7 125.036 260.507 133.893 260.387 141.295C272.806 143.227 284.196 147.385 293.683 155.897C301.346 162.773 310.453 175.701 310.983 186.313C311.009 186.825 311.009 187.337 310.984 187.85C310.958 188.362 310.907 188.872 310.83 189.379C310.753 189.886 310.65 190.388 310.522 190.885C310.395 191.382 310.242 191.871 310.065 192.352C309.888 192.833 309.687 193.304 309.462 193.765C309.237 194.226 308.99 194.675 308.72 195.111C308.45 195.547 308.159 195.968 307.846 196.375C307.533 196.782 307.201 197.172 306.849 197.545C303.935 200.666 299.949 202.707 295.631 202.763C289.835 202.837 284.527 199.431 281.727 194.446C280.824 192.838 280.298 190.994 279.656 189.269C278.236 185.455 276.252 182.1 273.335 179.234C266.38 172.4 258.42 171.955 249.218 171.973L237.926 171.985C229.665 172.076 222.099 174.535 216.262 180.562C210.995 186.001 208.256 193.565 208.384 201.097C208.394 201.84 208.433 202.582 208.501 203.321C208.569 204.061 208.666 204.797 208.791 205.53C208.916 206.263 209.07 206.989 209.252 207.71C209.433 208.43 209.643 209.142 209.88 209.847C210.117 210.551 210.382 211.245 210.673 211.928C210.964 212.612 211.282 213.283 211.626 213.942C211.969 214.601 212.338 215.245 212.732 215.875C213.126 216.506 213.544 217.12 213.985 217.717C222.009 228.565 232.218 229.232 244.619 229.203C252.713 229.185 261.042 228.707 269.041 230.149C282.212 232.523 293.844 238.754 303.439 247.998C304.194 248.738 304.93 249.496 305.647 250.272C306.365 251.048 307.063 251.841 307.742 252.652C308.421 253.462 309.08 254.288 309.719 255.13C310.358 255.973 310.975 256.83 311.572 257.702C312.169 258.575 312.744 259.461 313.298 260.362C313.851 261.262 314.382 262.175 314.891 263.102C315.4 264.029 315.887 264.967 316.35 265.917C316.813 266.867 317.253 267.828 317.669 268.799C318.086 269.771 318.478 270.752 318.847 271.743C319.215 272.734 319.559 273.733 319.879 274.74C320.199 275.747 320.494 276.762 320.764 277.784C321.035 278.806 321.28 279.834 321.5 280.868C321.72 281.902 321.915 282.941 322.084 283.984C322.253 285.027 322.397 286.074 322.516 287.124C322.635 288.175 322.727 289.227 322.794 290.282C322.861 291.337 322.903 292.393 322.918 293.45C322.927 294.499 322.911 295.548 322.87 296.596C322.828 297.644 322.76 298.69 322.667 299.735C322.574 300.78 322.456 301.822 322.312 302.861C322.168 303.9 321.999 304.935 321.804 305.966C321.609 306.997 321.389 308.023 321.144 309.043C320.899 310.063 320.63 311.076 320.335 312.083C320.041 313.09 319.722 314.089 319.379 315.08C319.036 316.071 318.668 317.054 318.277 318.027C317.885 319 317.47 319.963 317.032 320.916C316.593 321.869 316.132 322.811 315.647 323.741C315.162 324.672 314.655 325.59 314.126 326.495C313.596 327.4 313.044 328.292 312.471 329.171C311.898 330.05 311.304 330.914 310.688 331.763C310.073 332.613 309.437 333.447 308.781 334.265C308.124 335.084 307.448 335.886 306.753 336.671C306.058 337.456 305.343 338.224 304.61 338.974C293.655 350.226 276.354 358.817 260.419 359.058C260.445 365.345 261.392 372.846 257.905 378.406C255.308 382.547 251.359 384.606 246.717 385.656C246.13 385.715 245.543 385.757 244.952 385.751C240.914 385.716 236.682 384.095 233.82 381.22C227.825 375.196 229.107 366.401 229.112 358.626C219.317 357.785 209.18 353.848 201.154 348.265C190.562 340.897 180.813 327.993 178.621 315.011C177.89 310.687 178.808 306.464 181.368 302.884C181.66 302.483 181.971 302.098 182.3 301.727C182.629 301.356 182.976 301.002 183.339 300.665C183.703 300.328 184.082 300.01 184.477 299.71C184.872 299.409 185.28 299.129 185.702 298.869C186.124 298.608 186.558 298.369 187.003 298.151C187.448 297.933 187.903 297.737 188.368 297.563C188.832 297.389 189.304 297.238 189.783 297.11C190.262 296.981 190.746 296.877 191.235 296.796C198.234 295.681 204.862 299.128 207.957 305.482C209.403 308.449 210.034 311.709 211.617 314.657C212.069 315.496 212.567 316.307 213.11 317.09C213.653 317.873 214.237 318.624 214.864 319.342C215.491 320.059 216.156 320.74 216.859 321.383C217.562 322.027 218.298 322.629 219.069 323.19C219.78 323.703 220.515 324.178 221.274 324.615C222.034 325.052 222.815 325.449 223.616 325.804C224.417 326.159 225.235 326.472 226.069 326.742C226.903 327.012 227.749 327.238 228.606 327.42C233.938 328.56 257.709 328.491 263.399 327.578C263.948 327.489 264.494 327.386 265.037 327.269C265.58 327.153 266.12 327.023 266.657 326.88C267.194 326.737 267.727 326.581 268.256 326.411C268.785 326.242 269.31 326.059 269.83 325.864C270.35 325.669 270.865 325.46 271.375 325.239C271.884 325.018 272.388 324.785 272.887 324.539C273.385 324.293 273.877 324.035 274.362 323.765C274.847 323.494 275.326 323.212 275.798 322.918C276.269 322.624 276.733 322.319 277.19 322.002C277.646 321.685 278.094 321.357 278.534 321.018C278.974 320.679 279.406 320.329 279.829 319.968C280.252 319.607 280.665 319.237 281.069 318.856C281.474 318.475 281.869 318.085 282.254 317.684C282.639 317.283 283.014 316.873 283.379 316.454C283.744 316.035 284.098 315.608 284.441 315.171C284.785 314.734 285.118 314.289 285.439 313.836C290.662 306.55 292.56 297.255 291.105 288.451C290.976 287.676 290.82 286.907 290.637 286.143C290.454 285.379 290.244 284.622 290.007 283.873C289.77 283.124 289.508 282.384 289.22 281.653C288.931 280.922 288.617 280.202 288.278 279.493C287.939 278.784 287.576 278.089 287.188 277.406C286.8 276.723 286.388 276.054 285.953 275.4C285.518 274.745 285.061 274.107 284.581 273.485C284.101 272.863 283.6 272.259 283.077 271.672C268.394 255.047 247.957 262.618 228.618 259.848C227.435 259.674 226.257 259.465 225.086 259.221C223.915 258.977 222.753 258.698 221.598 258.385C220.444 258.072 219.3 257.724 218.166 257.343C217.032 256.962 215.911 256.547 214.802 256.099C213.693 255.65 212.599 255.169 211.518 254.656C210.438 254.142 209.374 253.597 208.326 253.02C207.278 252.443 206.248 251.835 205.237 251.197C204.226 250.558 203.234 249.89 202.262 249.193C201.457 248.62 200.666 248.027 199.89 247.414C199.114 246.801 198.354 246.17 197.609 245.52C196.864 244.869 196.136 244.201 195.424 243.515C194.713 242.829 194.018 242.126 193.341 241.406C192.664 240.685 192.005 239.949 191.364 239.196C190.723 238.443 190.102 237.674 189.499 236.891C188.896 236.108 188.313 235.31 187.75 234.497C187.187 233.684 186.644 232.859 186.121 232.02C185.598 231.181 185.097 230.329 184.616 229.465C184.135 228.601 183.676 227.726 183.239 226.839C182.802 225.952 182.386 225.056 181.993 224.149C181.6 223.242 181.229 222.325 180.882 221.4C180.534 220.475 180.209 219.541 179.907 218.6C179.605 217.659 179.327 216.71 179.072 215.755C178.817 214.8 178.585 213.839 178.378 212.872C178.17 211.905 177.986 210.934 177.827 209.959C177.674 209.014 177.545 208.065 177.44 207.113C177.334 206.161 177.252 205.207 177.194 204.251C177.135 203.296 177.1 202.339 177.089 201.381C177.078 200.424 177.09 199.466 177.126 198.509C177.162 197.552 177.222 196.597 177.305 195.642C177.388 194.688 177.494 193.737 177.625 192.788C177.755 191.839 177.908 190.894 178.085 189.953C178.262 189.012 178.462 188.075 178.685 187.144C178.908 186.213 179.153 185.287 179.422 184.368C179.691 183.449 179.982 182.537 180.296 181.632C180.609 180.727 180.945 179.831 181.303 178.942C181.661 178.054 182.041 177.175 182.442 176.306C182.843 175.436 183.266 174.577 183.71 173.728C184.154 172.879 184.618 172.042 185.103 171.217C185.588 170.391 186.094 169.578 186.619 168.777C187.144 167.976 187.689 167.189 188.253 166.415C198.106 152.827 212.674 144.875 229.065 142.202C229.27 135.514 227.935 127.421 231.697 121.487C234.185 117.562 237.718 115.569 242.156 114.561Z" fill="#E3B04A"/>
</svg>
