<svg xmlns="http://www.w3.org/2000/svg" xmlns:xlink="http://www.w3.org/1999/xlink" width="500" zoomAndPan="magnify" viewBox="0 0 375 374.999991" height="500" preserveAspectRatio="xMidYMid meet" version="1.0"><path fill="#ffbaa1" d="M 270.414062 103.9375 C 270.414062 103.9375 285.664062 146.640625 291.523438 157.566406 C 298.785156 171.105469 326.355469 191.71875 326.355469 191.71875 L 337.914062 184.398438 L 310.003906 137.945312 L 294.652344 90.507812 Z M 270.414062 103.9375 " fill-opacity="1" fill-rule="nonzero"/><path fill="#ffbaa1" d="M 293.324219 363.734375 C 293.035156 363.726562 296.957031 350.988281 296.539062 350.007812 C 291.46875 338.097656 278.878906 296.445312 281.703125 274.769531 C 282.363281 269.695312 283.726562 264.695312 283.78125 259.574219 C 284.027344 237.226562 261.617188 218.980469 255.476562 183 C 253.105469 169.101562 286.792969 154.46875 290.128906 165.027344 C 294.640625 179.316406 309.582031 228.757812 310.980469 253.765625 C 312.726562 284.992188 308.585938 321.429688 316.820312 350.246094 C 316.820312 350.25 306.675781 364.058594 293.324219 363.734375 " fill-opacity="1" fill-rule="nonzero"/><path fill="#e3b04a" d="M 293.230469 364.050781 L 294.632812 354.671875 C 294.707031 354.160156 295.183594 353.816406 295.691406 353.902344 C 299.035156 354.496094 310.59375 355.921875 315.816406 348.597656 C 316.542969 347.578125 317.921875 347.269531 318.988281 347.925781 C 325.328125 351.84375 329.777344 351.976562 337.519531 354.648438 C 342.078125 356.21875 342.9375 360.84375 343.328125 364.097656 Z M 293.230469 364.050781 " fill-opacity="1" fill-rule="nonzero"/><path fill="#fcfcf0" d="M 343.328125 364.097656 C 343.484375 365.429688 342.4375 366.59375 341.097656 366.597656 L 295.453125 366.625 C 294.082031 366.625 293.03125 365.40625 293.230469 364.050781 L 293.375 363.101562 L 343.183594 363.066406 C 343.238281 363.425781 343.289062 363.777344 343.328125 364.097656 " fill-opacity="1" fill-rule="nonzero"/><path fill="#fcfcf0" d="M 329.046875 357.382812 C 329.011719 357.382812 328.976562 357.378906 328.941406 357.363281 C 328.789062 357.304688 328.714844 357.132812 328.773438 356.980469 L 330.527344 352.511719 C 330.585938 352.359375 330.757812 352.285156 330.910156 352.347656 C 331.0625 352.40625 331.136719 352.578125 331.078125 352.730469 L 329.324219 357.195312 C 329.277344 357.3125 329.167969 357.382812 329.046875 357.382812 Z M 329.046875 357.382812 " fill-opacity="1" fill-rule="nonzero"/><path fill="#fcfcf0" d="M 322.722656 355.421875 C 322.6875 355.421875 322.648438 355.414062 322.613281 355.402344 C 322.464844 355.34375 322.386719 355.171875 322.449219 355.019531 L 324.199219 350.550781 C 324.261719 350.398438 324.433594 350.324219 324.585938 350.382812 C 324.734375 350.445312 324.8125 350.617188 324.75 350.769531 L 322.996094 355.234375 C 322.953125 355.351562 322.839844 355.421875 322.722656 355.421875 Z M 322.722656 355.421875 " fill-opacity="1" fill-rule="nonzero"/><path fill="#2a2a27" d="M 248.859375 171.71875 C 250.144531 202.019531 282.234375 244.652344 278.738281 258.003906 C 274.59375 273.824219 277.183594 299.402344 284.027344 322.050781 C 285.820312 322.203125 312.488281 322.339844 314.042969 322.734375 C 314.375 313.871094 312.628906 280.589844 313.519531 256.773438 C 314.519531 230.089844 291.050781 157.296875 291.332031 154.96875 C 288.316406 155.800781 251.339844 171.035156 248.859375 171.71875 " fill-opacity="1" fill-rule="nonzero"/><path fill="#ffbaa1" d="M 187.832031 347.28125 C 187.574219 347.152344 196.496094 337.25 196.527344 336.183594 C 196.9375 323.242188 203.042969 280.160156 214.722656 261.683594 C 217.457031 257.359375 220.796875 253.398438 223.003906 248.777344 C 232.628906 228.605469 219.972656 202.621094 229.542969 167.398438 C 233.238281 153.796875 269.953125 154.695312 268.539062 165.675781 C 266.621094 180.535156 259.371094 231.671875 250.117188 254.953125 C 238.566406 284.015625 219.476562 315.324219 214.824219 344.933594 C 214.824219 344.933594 199.808594 353.195312 187.832031 347.28125 " fill-opacity="1" fill-rule="nonzero"/><path fill="#e3b04a" d="M 187.25 347.644531 L 192.398438 339.683594 C 192.679688 339.25 193.257812 339.132812 193.683594 339.425781 C 196.484375 341.34375 206.417969 347.421875 214.203125 342.910156 C 215.285156 342.28125 216.667969 342.570312 217.367188 343.609375 C 221.523438 349.800781 225.519531 351.753906 231.464844 357.386719 C 234.96875 360.707031 233.839844 365.269531 232.847656 368.394531 Z M 187.25 347.644531 " fill-opacity="1" fill-rule="nonzero"/><path fill="#fcfcf0" d="M 232.84375 368.394531 C 232.441406 369.671875 231.003906 370.300781 229.785156 369.746094 L 188.207031 350.910156 C 186.957031 350.34375 186.503906 348.796875 187.25 347.644531 L 187.769531 346.839844 L 233.140625 367.394531 C 233.042969 367.746094 232.945312 368.085938 232.84375 368.394531 " fill-opacity="1" fill-rule="nonzero"/><path fill="#fcfcf0" d="M 222.742188 356.40625 C 222.664062 356.40625 222.589844 356.375 222.53125 356.316406 C 222.417969 356.199219 222.417969 356.011719 222.535156 355.898438 L 225.976562 352.554688 C 226.09375 352.441406 226.28125 352.445312 226.394531 352.5625 C 226.507812 352.679688 226.507812 352.867188 226.390625 352.980469 L 222.949219 356.320312 C 222.890625 356.378906 222.816406 356.40625 222.742188 356.40625 Z M 222.742188 356.40625 " fill-opacity="1" fill-rule="nonzero"/><path fill="#fcfcf0" d="M 217.792969 352.003906 C 217.714844 352.003906 217.636719 351.972656 217.582031 351.914062 C 217.464844 351.796875 217.46875 351.609375 217.585938 351.496094 L 221.027344 348.15625 C 221.144531 348.042969 221.332031 348.042969 221.445312 348.160156 C 221.558594 348.277344 221.558594 348.464844 221.441406 348.578125 L 217.996094 351.921875 C 217.941406 351.976562 217.867188 352.003906 217.792969 352.003906 Z M 217.792969 352.003906 " fill-opacity="1" fill-rule="nonzero"/><path fill="#2a2a27" d="M 227.398438 154.972656 C 215.816406 183.003906 227.878906 234.589844 219.085938 245.230469 C 208.671875 257.835938 198.574219 280.253906 196.871094 306.902344 C 198.433594 307.792969 223.878906 315.695312 225.121094 316.710938 C 226.210938 315.863281 240.332031 279.980469 251.160156 258.75 C 263.292969 234.964844 272.632812 159.050781 273.863281 157.054688 C 270.78125 156.542969 228.652344 154.847656 227.398438 154.972656 " fill-opacity="1" fill-rule="nonzero"/><path fill="#fcfcf0" d="M 284.324219 70 C 277.527344 60.628906 247.867188 53.210938 234.773438 69.617188 C 219.515625 88.726562 223.691406 125.105469 223.691406 163.332031 C 223.691406 167.023438 294.972656 179.902344 293.910156 162.496094 C 291.921875 129.847656 300.035156 91.65625 284.324219 70 " fill-opacity="1" fill-rule="nonzero"/><path fill="#ffbaa1" d="M 242.011719 93.40625 C 242.011719 93.40625 225.972656 131.5 219.75 142.222656 C 212.039062 155.515625 184.253906 183.417969 184.253906 183.417969 L 172.105469 176.246094 L 199.53125 130.914062 L 218.238281 79.175781 Z M 242.011719 93.40625 " fill-opacity="1" fill-rule="nonzero"/><path fill="#e3b04a" d="M 204.964844 163.152344 C 206.269531 159.414062 187.289062 148.382812 184.929688 151.5625 C 182.273438 155.144531 176.257812 169.90625 169.433594 176.933594 C 164.878906 181.621094 161.800781 183.859375 160.320312 186.648438 C 158.691406 189.714844 161.679688 198.582031 166.453125 199.984375 C 167.636719 200.492188 176.433594 191.738281 185.324219 183.261719 C 185.324219 183.261719 202.84375 169.214844 204.964844 163.152344 " fill-opacity="1" fill-rule="nonzero"/><path fill="#e3b04a" d="M 322.34375 155.769531 C 325.503906 157.203125 334.320312 177.578125 340.285156 188.878906 C 342.816406 193.671875 346.15625 200.308594 344.660156 210.746094 C 343.914062 215.972656 340.96875 216.355469 339.953125 213.949219 C 339.21875 214.820312 338.316406 215.015625 337.605469 214.917969 C 336.707031 214.792969 335.957031 214.019531 335.953125 213.113281 C 333.339844 214.921875 331.753906 212.804688 331.636719 211.230469 C 331.039062 212.191406 329.242188 212.578125 328.359375 210.4375 C 326.433594 205.769531 329.53125 206.441406 329.523438 206.414062 C 328.75 204.328125 325.265625 198.304688 325.335938 193.234375 C 317.714844 187.707031 303.488281 178.65625 302.066406 175.964844 C 300.703125 173.378906 318.980469 154.242188 322.34375 155.769531 " fill-opacity="1" fill-rule="nonzero"/><path fill="#e3b04a" d="M 335.269531 194.726562 C 333.027344 198.832031 337.429688 203.566406 342.167969 205.570312 C 343.246094 210.46875 345.800781 215.386719 347.734375 214.628906 C 350.566406 213.515625 347.582031 200.925781 341.265625 191.046875 C 340.242188 189.449219 336.636719 192.214844 335.269531 194.726562 " fill-opacity="1" fill-rule="nonzero"/><path fill="#3d251c" d="M 343.972656 211.996094 C 343.863281 211.996094 343.757812 211.933594 343.707031 211.832031 C 343.5 211.410156 343.304688 210.933594 343.101562 210.429688 C 342.285156 208.425781 341.273438 205.929688 338.371094 204.132812 C 335.574219 202.402344 333.863281 200.714844 333.382812 197.210938 C 333.359375 197.050781 333.472656 196.902344 333.632812 196.878906 C 333.792969 196.859375 333.945312 196.96875 333.96875 197.132812 C 334.417969 200.421875 335.972656 201.953125 338.679688 203.628906 C 341.75 205.527344 342.847656 208.234375 343.648438 210.207031 C 343.851562 210.703125 344.039062 211.167969 344.238281 211.570312 C 344.308594 211.714844 344.25 211.894531 344.101562 211.964844 C 344.0625 211.984375 344.015625 211.996094 343.972656 211.996094 Z M 343.972656 211.996094 " fill-opacity="1" fill-rule="nonzero"/><path fill="#3d251c" d="M 339.878906 213.394531 C 339.746094 213.394531 339.628906 213.308594 339.59375 213.175781 C 339.144531 211.511719 338.804688 209.863281 338.578125 208.269531 L 338.566406 208.171875 C 338.488281 207.632812 338.398438 207.023438 338.753906 206.558594 C 338.988281 206.25 339.371094 206.0625 339.925781 205.992188 C 340.746094 205.882812 341.652344 206.425781 342.355469 207.441406 C 342.449219 207.574219 342.414062 207.757812 342.28125 207.851562 C 342.148438 207.945312 341.960938 207.910156 341.871094 207.777344 C 341.296875 206.945312 340.597656 206.5 340 206.578125 C 339.617188 206.625 339.355469 206.738281 339.222656 206.914062 C 339.019531 207.183594 339.085938 207.640625 339.148438 208.085938 L 339.164062 208.1875 C 339.386719 209.757812 339.722656 211.382812 340.164062 213.023438 C 340.207031 213.179688 340.113281 213.34375 339.957031 213.382812 C 339.929688 213.390625 339.902344 213.394531 339.878906 213.394531 Z M 339.878906 213.394531 " fill-opacity="1" fill-rule="nonzero"/><path fill="#3d251c" d="M 335.824219 212.628906 C 335.675781 212.628906 335.550781 212.519531 335.53125 212.367188 L 335.476562 211.941406 C 335.132812 209.105469 334.878906 207.054688 335.761719 206.25 C 336.101562 205.941406 336.578125 205.855469 337.179688 205.984375 C 338.265625 206.226562 339.042969 207.542969 339.117188 207.855469 C 339.152344 208.015625 339.054688 208.175781 338.898438 208.210938 C 338.738281 208.25 338.578125 208.152344 338.539062 207.992188 C 338.488281 207.792969 337.832031 206.734375 337.054688 206.5625 C 336.644531 206.472656 336.351562 206.515625 336.160156 206.6875 C 335.503906 207.285156 335.761719 209.410156 336.0625 211.871094 L 336.117188 212.296875 C 336.136719 212.460938 336.019531 212.605469 335.859375 212.625 C 335.847656 212.628906 335.835938 212.628906 335.824219 212.628906 Z M 335.824219 212.628906 " fill-opacity="1" fill-rule="nonzero"/><path fill="#3d251c" d="M 331.800781 210.894531 C 331.800781 210.894531 331.796875 210.894531 331.796875 210.894531 C 331.632812 210.894531 331.503906 210.761719 331.503906 210.597656 L 331.507812 209.894531 C 331.507812 208.023438 331.507812 206.671875 332.191406 205.996094 C 332.476562 205.714844 332.867188 205.582031 333.355469 205.578125 C 334.757812 205.59375 335.628906 207.777344 335.757812 208.683594 C 335.777344 208.84375 335.664062 208.992188 335.503906 209.015625 C 335.339844 209.039062 335.191406 208.925781 335.171875 208.765625 C 335.0625 207.992188 334.3125 206.179688 333.347656 206.167969 C 333.011719 206.171875 332.78125 206.242188 332.605469 206.417969 C 332.101562 206.917969 332.097656 208.230469 332.097656 209.894531 L 332.09375 210.601562 C 332.09375 210.765625 331.960938 210.894531 331.800781 210.894531 Z M 331.800781 210.894531 " fill-opacity="1" fill-rule="nonzero"/><path fill="#3d251c" d="M 331.8125 209.289062 C 331.675781 209.289062 331.554688 209.195312 331.523438 209.0625 C 331.234375 207.835938 330.183594 206.871094 329.824219 206.839844 C 329.660156 206.824219 329.542969 206.683594 329.554688 206.519531 C 329.570312 206.355469 329.710938 206.234375 329.875 206.25 C 330.609375 206.3125 331.777344 207.558594 332.101562 208.925781 C 332.136719 209.085938 332.039062 209.242188 331.878906 209.28125 C 331.855469 209.285156 331.832031 209.289062 331.8125 209.289062 Z M 331.8125 209.289062 " fill-opacity="1" fill-rule="nonzero"/><path fill="#fcfcf0" d="M 230.054688 124.65625 C 230.054688 124.65625 208.785156 119.015625 198.425781 113.957031 C 207.445312 95.507812 214.304688 74.640625 226.234375 66.96875 C 236.652344 60.269531 248.925781 57.828125 262.851562 61.34375 C 253.957031 82.660156 230.054688 124.65625 230.054688 124.65625 " fill-opacity="1" fill-rule="nonzero"/><path fill="#fcfcf0" d="M 276.023438 127.328125 C 276.023438 127.328125 298 126.160156 309.171875 123.375 C 304.097656 103.867188 301.636719 82.46875 291.519531 72.722656 C 282.683594 64.210938 271.167969 59.417969 256.816406 60.011719 C 261.183594 82.242188 276.023438 127.328125 276.023438 127.328125 " fill-opacity="1" fill-rule="nonzero"/><path fill="#3d251c" d="M 257.332031 47.15625 C 248.113281 40.804688 243.40625 22.832031 253.699219 13.058594 C 256.128906 10.75 260.539062 8.40625 264.351562 10.914062 C 265.335938 7.785156 268.757812 6.160156 272.015625 5.792969 C 281.734375 4.691406 284.3125 9.640625 288.257812 12.6875 C 292.625 16.058594 297.582031 15.484375 299.054688 17.234375 C 301.398438 20.015625 298.15625 23.066406 294.730469 24.804688 C 296.328125 24.695312 300.570312 27.800781 296.550781 30.660156 C 293.667969 32.710938 291.941406 35.234375 289.722656 38.449219 C 279.84375 52.761719 264.070312 51.800781 257.332031 47.15625 " fill-opacity="1" fill-rule="nonzero"/><path fill="#ffbaa1" d="M 274.359375 50.535156 C 274.261719 52.179688 271.4375 66.785156 271.859375 75.480469 C 270.757812 75.351562 257.546875 67.808594 251.414062 63 C 255.09375 55.398438 257.511719 49.402344 256.992188 40.371094 C 257.679688 41.597656 268.171875 48.363281 274.359375 50.535156 " fill-opacity="1" fill-rule="nonzero"/><path fill="#ffbaa1" d="M 289.949219 40.902344 C 290.273438 35.351562 292.671875 29.34375 289.046875 23.417969 C 282.328125 12.441406 265.570312 12.621094 259.984375 21.796875 C 256.5 27.519531 255.144531 38.339844 258.617188 45.640625 C 261.769531 52.269531 273.429688 60.761719 280.0625 58.8125 C 284.765625 57.429688 289.359375 50.914062 289.949219 40.902344 " fill-opacity="1" fill-rule="nonzero"/><path fill="#3d251c" d="M 274.695312 33.472656 C 275.5 33.6875 275.578125 34.882812 275.46875 35.609375 C 275.390625 36.140625 275.09375 37.246094 274.121094 37.179688 C 273.382812 37.132812 273.03125 36.265625 273.292969 34.917969 C 273.558594 33.554688 274.375 33.386719 274.695312 33.472656 " fill-opacity="1" fill-rule="nonzero"/><path fill="#3d251c" d="M 274.203125 37.480469 C 274.171875 37.480469 274.136719 37.476562 274.101562 37.476562 C 273.765625 37.453125 273.476562 37.296875 273.269531 37.027344 C 272.914062 36.570312 272.820312 35.800781 273.003906 34.863281 C 273.316406 33.242188 274.339844 33.160156 274.539062 33.160156 C 274.621094 33.160156 274.699219 33.167969 274.769531 33.1875 C 275.804688 33.460938 275.878906 34.863281 275.761719 35.652344 C 275.589844 36.796875 275.007812 37.480469 274.203125 37.480469 Z M 274.539062 33.75 C 274.417969 33.75 273.808594 33.808594 273.582031 34.976562 C 273.4375 35.734375 273.492188 36.351562 273.734375 36.667969 C 273.839844 36.800781 273.972656 36.875 274.140625 36.886719 L 274.203125 36.886719 C 274.902344 36.886719 275.117188 35.960938 275.175781 35.5625 C 275.273438 34.921875 275.203125 33.914062 274.617188 33.757812 C 274.605469 33.753906 274.578125 33.75 274.539062 33.75 Z M 274.539062 33.75 " fill-opacity="1" fill-rule="nonzero"/><path fill="#ffbaa1" d="M 277.050781 35.078125 C 275.441406 35.542969 272.285156 34.941406 270.730469 34.195312 C 270.730469 34.195312 272.242188 32.105469 274.761719 32.566406 C 276.980469 32.972656 277.050781 35.078125 277.050781 35.078125 " fill-opacity="1" fill-rule="nonzero"/><path fill="#3d251c" d="M 275.648438 35.535156 C 273.976562 35.535156 271.855469 35.0625 270.601562 34.460938 C 270.453125 34.390625 270.390625 34.214844 270.460938 34.066406 C 270.53125 33.917969 270.710938 33.855469 270.855469 33.925781 C 272.40625 34.671875 275.476562 35.226562 276.96875 34.796875 C 277.125 34.75 277.289062 34.839844 277.335938 34.996094 C 277.378906 35.152344 277.289062 35.316406 277.132812 35.363281 C 276.722656 35.480469 276.210938 35.535156 275.648438 35.535156 Z M 275.648438 35.535156 " fill-opacity="1" fill-rule="nonzero"/><path fill="#3d251c" d="M 270.292969 30.921875 C 270 31.058594 270.109375 31.484375 270.445312 31.496094 C 274.625 31.636719 277.65625 33.066406 278.164062 33.035156 C 278.578125 33.011719 278.5625 31.492188 278.058594 31.246094 C 274.769531 29.640625 271.945312 30.140625 270.292969 30.921875 " fill-opacity="1" fill-rule="nonzero"/><path fill="#3d251c" d="M 286.207031 35.101562 C 285.371094 35.082031 284.964844 36.210938 284.867188 36.9375 C 284.796875 37.46875 284.777344 38.617188 285.726562 38.820312 C 286.449219 38.976562 287.027344 38.242188 287.148438 36.878906 C 287.273438 35.492188 286.535156 35.109375 286.207031 35.101562 " fill-opacity="1" fill-rule="nonzero"/><path fill="#3d251c" d="M 285.914062 39.136719 C 285.832031 39.136719 285.75 39.128906 285.664062 39.109375 C 284.820312 38.925781 284.414062 38.101562 284.574219 36.898438 C 284.675781 36.121094 285.132812 34.804688 286.183594 34.804688 C 286.492188 34.8125 286.792969 34.964844 287.019531 35.214844 C 287.257812 35.484375 287.523438 35.996094 287.441406 36.90625 C 287.320312 38.28125 286.734375 39.136719 285.914062 39.136719 Z M 286.199219 35.394531 C 285.585938 35.394531 285.242188 36.339844 285.160156 36.976562 C 285.105469 37.390625 285.058594 38.375 285.789062 38.53125 C 286.335938 38.65625 286.753906 37.96875 286.855469 36.851562 C 286.917969 36.152344 286.738281 35.789062 286.578125 35.609375 C 286.429688 35.445312 286.265625 35.398438 286.199219 35.394531 Z M 286.199219 35.394531 " fill-opacity="1" fill-rule="nonzero"/><path fill="#ffbaa1" d="M 283.496094 35.988281 C 284.914062 36.882812 288.113281 37.179688 289.816406 36.890625 C 289.816406 36.890625 288.941406 34.464844 286.394531 34.210938 C 284.144531 33.984375 283.496094 35.988281 283.496094 35.988281 " fill-opacity="1" fill-rule="nonzero"/><path fill="#3d251c" d="M 288.339844 37.292969 C 286.570312 37.292969 284.433594 36.929688 283.339844 36.238281 C 283.199219 36.152344 283.160156 35.96875 283.246094 35.832031 C 283.332031 35.691406 283.515625 35.652344 283.652344 35.738281 C 284.964844 36.566406 288.070312 36.886719 289.765625 36.597656 C 289.925781 36.574219 290.078125 36.679688 290.105469 36.84375 C 290.132812 37.003906 290.023438 37.15625 289.863281 37.183594 C 289.421875 37.257812 288.898438 37.292969 288.339844 37.292969 Z M 288.339844 37.292969 " fill-opacity="1" fill-rule="nonzero"/><path fill="#3d251c" d="M 291.140625 33.867188 C 291.386719 34.082031 291.160156 34.460938 290.835938 34.378906 C 286.78125 33.355469 283.472656 33.886719 282.992188 33.71875 C 282.601562 33.582031 283.035156 32.125 283.585938 32.027344 C 287.195312 31.398438 289.769531 32.660156 291.140625 33.867188 " fill-opacity="1" fill-rule="nonzero"/><path fill="#3d251c" d="M 280.84375 45.363281 C 280.691406 45.363281 280.5625 45.246094 280.550781 45.09375 C 280.535156 44.929688 280.65625 44.785156 280.820312 44.773438 C 280.851562 44.769531 284.113281 44.464844 284.457031 42.695312 C 284.636719 41.769531 284 40.929688 283.328125 40.039062 C 282.824219 39.371094 282.304688 38.679688 282.125 37.921875 C 282.085938 37.761719 282.183594 37.601562 282.34375 37.566406 C 282.503906 37.527344 282.664062 37.625 282.699219 37.785156 C 282.851562 38.425781 283.3125 39.039062 283.800781 39.683594 C 284.519531 40.640625 285.265625 41.625 285.035156 42.808594 C 284.609375 45.015625 281.023438 45.347656 280.871094 45.363281 C 280.863281 45.363281 280.851562 45.363281 280.84375 45.363281 Z M 280.84375 45.363281 " fill-opacity="1" fill-rule="nonzero"/><path fill="#3d251c" d="M 281.023438 49.714844 C 278.507812 49.714844 276.011719 48.742188 274.183594 46.984375 C 274.066406 46.871094 274.0625 46.683594 274.175781 46.566406 C 274.289062 46.449219 274.476562 46.445312 274.59375 46.558594 C 276.765625 48.648438 279.945312 49.558594 282.894531 48.925781 C 283.050781 48.890625 283.210938 48.996094 283.242188 49.15625 C 283.277344 49.3125 283.175781 49.472656 283.015625 49.503906 C 282.359375 49.644531 281.691406 49.714844 281.023438 49.714844 Z M 281.023438 49.714844 " fill-opacity="1" fill-rule="nonzero"/><path fill="#3d251c" d="M 282.769531 15.496094 C 284.898438 19.886719 280.230469 25.347656 275.707031 27.179688 C 273.480469 28.082031 268.46875 29.550781 266.964844 33.144531 C 265.667969 36.25 263.464844 35.890625 262.894531 34.039062 C 261.867188 30.695312 256.523438 30.675781 256.203125 28.019531 C 254.402344 12.960938 280.160156 10.121094 282.769531 15.496094 " fill-opacity="1" fill-rule="nonzero"/><path fill="#ffbaa1" d="M 263.164062 35 C 262.644531 32.238281 259.4375 27.878906 255.65625 29.597656 C 254.355469 30.191406 253.476562 31.523438 253.21875 32.929688 C 252.828125 35.050781 254.976562 43.457031 260.351562 42.585938 C 262.230469 42.28125 263.769531 38.226562 263.164062 35 " fill-opacity="1" fill-rule="nonzero"/><path fill="#3d251c" d="M 261.535156 37.625 C 261.53125 37.625 261.523438 37.625 261.519531 37.625 C 261.355469 37.613281 261.230469 37.472656 261.242188 37.3125 C 261.382812 35 259.335938 32.375 257.183594 32.105469 C 257.023438 32.085938 256.90625 31.9375 256.925781 31.773438 C 256.949219 31.613281 257.09375 31.496094 257.257812 31.519531 C 259.726562 31.828125 261.992188 34.714844 261.832031 37.347656 C 261.824219 37.503906 261.691406 37.625 261.535156 37.625 Z M 261.535156 37.625 " fill-opacity="1" fill-rule="nonzero"/><path fill="#3d251c" d="M 278.578125 20.539062 C 285.152344 22.894531 290.921875 24.308594 290.636719 36.085938 C 292.574219 31.605469 293.558594 26.558594 291.886719 21.972656 C 290.21875 17.386719 285.496094 13.730469 280.664062 14.40625 C 279.640625 16.1875 278.796875 18.074219 278.578125 20.539062 " fill-opacity="1" fill-rule="nonzero"/><path fill="#e3b04a" d="M 222.699219 171.246094 L 223.347656 161.621094 C 223.347656 161.621094 243.835938 100.652344 243.695312 99.921875 C 243.488281 98.867188 295.046875 98.25 295.371094 99.921875 C 295.796875 102.109375 294.5 154.414062 295.371094 162.898438 C 296.425781 173.109375 311.066406 218.839844 315.519531 243.625 C 276.15625 244.101562 243.347656 244.179688 242.011719 244.179688 C 240.484375 219.011719 222.699219 171.246094 222.699219 171.246094 " fill-opacity="1" fill-rule="nonzero"/><path fill="#fcfcf0" d="M 196.570312 299.390625 C 196.324219 303.121094 196.078125 306.847656 195.832031 310.578125 C 205.609375 314.121094 215.386719 317.660156 225.160156 321.203125 C 227.007812 317.183594 228.234375 314.054688 230.082031 310.035156 C 221.214844 306.824219 209.460938 301.15625 196.570312 299.390625 " fill-opacity="1" fill-rule="nonzero"/><path fill="#fcfcf0" d="M 280.363281 313.035156 C 281.316406 316.648438 282.269531 320.265625 283.21875 323.878906 C 293.613281 324.132812 304.007812 324.382812 314.402344 324.636719 C 314.878906 320.238281 315.046875 316.882812 315.519531 312.484375 C 306.09375 312.257812 293.148438 310.613281 280.363281 313.035156 " fill-opacity="1" fill-rule="nonzero"/><path fill="#e3b04a" d="M 290.160156 101.5625 C 290.160156 80.40625 282.925781 70.234375 279.195312 64.199219 C 279.207031 64.144531 283.769531 66.40625 286.027344 68.167969 C 286.273438 68.359375 295.375 80.53125 295.375 102.308594 C 295.03125 102.15625 290.785156 101.8125 290.160156 101.5625 " fill-opacity="1" fill-rule="nonzero"/><path fill="#e3b04a" d="M 243.628906 100.238281 C 245.933594 88.65625 242.726562 72.320312 237.75 61.601562 C 237.761719 61.507812 242.738281 60.363281 242.785156 60.402344 C 247.847656 71.3125 251.949219 88.046875 249.449219 100.605469 C 249.097656 100.484375 244.273438 100.433594 243.628906 100.238281 " fill-opacity="1" fill-rule="nonzero"/><path fill="#3d251c" d="M 230.640625 123.925781 C 230.617188 123.925781 230.589844 123.921875 230.566406 123.914062 C 230.410156 123.875 230.3125 123.714844 230.351562 123.554688 L 237.464844 95.628906 C 237.503906 95.472656 237.667969 95.375 237.824219 95.417969 C 237.980469 95.457031 238.078125 95.617188 238.039062 95.773438 L 230.925781 123.703125 C 230.890625 123.835938 230.769531 123.925781 230.640625 123.925781 Z M 230.640625 123.925781 " fill-opacity="1" fill-rule="nonzero"/><path fill="#fcfcf0" d="M 140.589844 190.820312 L 140.589844 190.535156 C 140.589844 188.253906 142.4375 186.40625 144.71875 186.40625 L 188.460938 186.40625 C 190.742188 186.40625 192.589844 188.253906 192.589844 190.535156 L 192.589844 190.820312 C 192.589844 193.101562 190.742188 194.949219 188.460938 194.949219 L 144.71875 194.949219 C 142.4375 194.949219 140.589844 193.097656 140.589844 190.820312 " fill-opacity="1" fill-rule="nonzero"/><path fill="#2a2a27" d="M 49.726562 164.363281 C 51.933594 156.171875 56.957031 148.746094 63.78125 143.597656 C 70.601562 138.449219 79.175781 135.609375 87.527344 135.996094 C 89.578125 136.355469 148.730469 181.265625 148.730469 181.265625 C 148.730469 181.265625 82.582031 171.175781 49.726562 164.363281 " fill-opacity="1" fill-rule="nonzero"/><path fill="#e3b04a" d="M 25.101562 332.722656 L 46.808594 167.417969 C 47.578125 161.542969 53.351562 157.632812 59.183594 159.035156 L 145.390625 179.785156 C 150.792969 181.085938 154.105469 186.46875 152.789062 191.800781 L 116.257812 339.722656 C 115.730469 341.859375 114.496094 343.765625 112.753906 345.140625 L 99.320312 355.722656 C 96.882812 357.640625 93.679688 358.339844 90.652344 357.609375 L 32.703125 343.660156 C 27.714844 342.460938 24.441406 337.75 25.101562 332.722656 " fill-opacity="1" fill-rule="nonzero"/><path fill="#e3b04a" d="M 38.726562 168 L 40.546875 160.644531 C 41.328125 157.464844 44.574219 155.519531 47.792969 156.292969 L 149.347656 180.738281 C 152.566406 181.511719 154.539062 184.714844 153.753906 187.894531 L 151.9375 195.25 C 151.152344 198.425781 147.910156 200.375 144.691406 199.597656 L 43.132812 175.152344 C 39.917969 174.378906 37.945312 171.175781 38.726562 168 " fill-opacity="1" fill-rule="nonzero"/><path fill="#e3b04a" d="M 61.402344 117.699219 L 62.453125 116.308594 C 64.015625 114.242188 66.976562 113.816406 69.070312 115.359375 L 154.890625 178.558594 C 156.984375 180.101562 157.414062 183.027344 155.851562 185.09375 L 151.972656 190.226562 L 62.363281 124.234375 C 60.273438 122.691406 59.839844 119.765625 61.402344 117.699219 " fill-opacity="1" fill-rule="nonzero"/><path fill="#fcfcf0" d="M 148.222656 200.742188 C 148.199219 200.742188 148.175781 200.742188 148.15625 200.734375 L 47.730469 176.5625 C 47.574219 176.527344 47.476562 176.367188 47.511719 176.207031 C 47.550781 176.050781 47.710938 175.953125 47.871094 175.988281 L 148.292969 200.160156 C 148.449219 200.199219 148.546875 200.359375 148.511719 200.519531 C 148.476562 200.652344 148.355469 200.742188 148.222656 200.742188 Z M 148.222656 200.742188 " fill-opacity="1" fill-rule="nonzero"/><path fill="#fcfcf0" d="M 154.601562 182.324219 C 154.582031 182.324219 154.558594 182.324219 154.535156 182.316406 L 136.011719 177.832031 C 135.851562 177.792969 135.753906 177.636719 135.792969 177.476562 C 135.832031 177.316406 135.992188 177.222656 136.148438 177.257812 L 154.671875 181.742188 C 154.832031 181.78125 154.925781 181.941406 154.890625 182.101562 C 154.859375 182.234375 154.738281 182.324219 154.601562 182.324219 Z M 154.601562 182.324219 " fill-opacity="1" fill-rule="nonzero"/><path fill="#e3b04a" d="M 167.042969 195.035156 C 165.324219 198.199219 168.84375 199.738281 171.59375 197.3125 C 176.335938 193.132812 185.933594 187.289062 185.027344 181.738281 C 184.355469 177.597656 181.746094 176.675781 178.867188 178.335938 C 174.226562 181.066406 169 191.4375 167.042969 195.035156 " fill-opacity="1" fill-rule="nonzero"/><path fill="#fcfcf0" d="M 87.652344 343.199219 C 90.523438 333.5625 100.660156 328.078125 110.296875 330.949219 C 119.933594 333.816406 125.417969 343.957031 122.546875 353.59375 C 119.679688 363.226562 109.539062 368.710938 99.902344 365.84375 C 90.269531 362.972656 84.78125 352.835938 87.652344 343.199219 " fill-opacity="1" fill-rule="nonzero"/><path fill="#2a2a27" d="M 96.023438 345.691406 C 97.515625 340.679688 102.789062 337.824219 107.804688 339.316406 C 112.816406 340.808594 115.671875 346.085938 114.175781 351.097656 C 112.683594 356.113281 107.410156 358.964844 102.398438 357.472656 C 97.382812 355.980469 94.53125 350.703125 96.023438 345.691406 " fill-opacity="1" fill-rule="nonzero"/></svg>